<svg width="336" height="233" viewBox="0 0 336 233" fill="none" xmlns="http://www.w3.org/2000/svg">
<path d="M0.0526001 49.7396V18.9506L51.7097 3.89818H60.2622V229H28.4469V40.5029L0.0526001 49.7396ZM113.385 232.421C99.9286 232.421 90.0077 229.456 83.6218 223.526C77.464 217.597 74.3851 208.36 74.3851 195.816V155.448H106.2V192.395C106.2 197.641 108.595 200.264 113.385 200.264C118.174 200.264 120.569 197.641 120.569 192.395V111.318C119.884 119.984 117.718 126.484 114.069 130.817C110.42 135.151 105.06 137.317 97.99 137.317C90.0077 137.317 84.078 134.808 80.2008 129.791C76.3237 124.774 74.3851 117.361 74.3851 107.554V37.0819C74.3851 24.3101 77.464 15.0735 83.6218 9.37179C90.0077 3.44205 99.9286 0.477181 113.385 0.477181C127.069 0.477181 136.989 3.44205 143.147 9.37179C149.533 15.0735 152.726 24.3101 152.726 37.0819V195.816C152.726 208.36 149.533 217.597 143.147 223.526C136.989 229.456 127.069 232.421 113.385 232.421ZM106.2 104.476C106.2 106.984 106.771 108.923 107.911 110.291C109.279 111.432 111.104 112.002 113.385 112.002C115.665 112.002 117.376 111.318 118.516 109.949C119.884 108.581 120.569 106.756 120.569 104.476V40.1608C120.569 34.9152 118.174 32.2925 113.385 32.2925C108.595 32.2925 106.2 34.9152 106.2 40.1608V104.476ZM204.643 232.421C191.187 232.421 181.266 229.456 174.88 223.526C168.723 217.597 165.644 208.36 165.644 195.816V155.448H197.459V192.395C197.459 197.641 199.854 200.264 204.643 200.264C209.432 200.264 211.827 197.641 211.827 192.395V111.318C211.143 119.984 208.976 126.484 205.327 130.817C201.678 135.151 196.319 137.317 189.249 137.317C181.266 137.317 175.336 134.808 171.459 129.791C167.582 124.774 165.644 117.361 165.644 107.554V37.0819C165.644 24.3101 168.723 15.0735 174.88 9.37179C181.266 3.44205 191.187 0.477181 204.643 0.477181C218.327 0.477181 228.248 3.44205 234.406 9.37179C240.792 15.0735 243.985 24.3101 243.985 37.0819V195.816C243.985 208.36 240.792 217.597 234.406 223.526C228.248 229.456 218.327 232.421 204.643 232.421ZM197.459 104.476C197.459 106.984 198.029 108.923 199.169 110.291C200.538 111.432 202.362 112.002 204.643 112.002C206.924 112.002 208.634 111.318 209.775 109.949C211.143 108.581 211.827 106.756 211.827 104.476V40.1608C211.827 34.9152 209.432 32.2925 204.643 32.2925C199.854 32.2925 197.459 34.9152 197.459 40.1608V104.476ZM295.901 232.421C282.446 232.421 272.525 229.456 266.139 223.526C259.981 217.597 256.902 208.36 256.902 195.816V155.448H288.717V192.395C288.717 197.641 291.112 200.264 295.901 200.264C300.691 200.264 303.086 197.641 303.086 192.395V111.318C302.401 119.984 300.235 126.484 296.586 130.817C292.937 135.151 287.577 137.317 280.507 137.317C272.525 137.317 266.595 134.808 262.718 129.791C258.841 124.774 256.902 117.361 256.902 107.554V37.0819C256.902 24.3101 259.981 15.0735 266.139 9.37179C272.525 3.44205 282.446 0.477181 295.901 0.477181C309.585 0.477181 319.506 3.44205 325.664 9.37179C332.05 15.0735 335.243 24.3101 335.243 37.0819V195.816C335.243 208.36 332.05 217.597 325.664 223.526C319.506 229.456 309.585 232.421 295.901 232.421ZM288.717 104.476C288.717 106.984 289.288 108.923 290.428 110.291C291.796 111.432 293.621 112.002 295.901 112.002C298.182 112.002 299.893 111.318 301.033 109.949C302.401 108.581 303.086 106.756 303.086 104.476V40.1608C303.086 34.9152 300.691 32.2925 295.901 32.2925C291.112 32.2925 288.717 34.9152 288.717 40.1608V104.476Z" fill="#EF2B20"/>
</svg>
