<svg width="281" height="195" viewBox="0 0 281 195" fill="none" xmlns="http://www.w3.org/2000/svg">
<path d="M0.7166 42.0836V16.3346L43.9177 3.74618H51.0702V192H24.4629V34.3589L0.7166 42.0836ZM95.4509 194.861C84.1976 194.861 75.9007 192.381 70.5602 187.422C65.4104 182.463 62.8355 174.739 62.8355 164.248V130.488H89.4428V161.387C89.4428 165.774 91.4455 167.968 95.4509 167.968C99.4563 167.968 101.459 165.774 101.459 161.387V93.5816C100.887 100.829 99.0748 106.265 96.0231 109.889C92.9713 113.513 88.4891 115.325 82.5764 115.325C75.9007 115.325 70.9416 113.227 67.6992 109.031C64.4567 104.835 62.8355 98.636 62.8355 90.4345V31.4979C62.8355 20.8168 65.4104 13.0921 70.5602 8.32379C75.9007 3.36472 84.1976 0.885184 95.4509 0.885184C106.895 0.885184 115.192 3.36472 120.342 8.32379C125.682 13.0921 128.352 20.8168 128.352 31.4979V164.248C128.352 174.739 125.682 182.463 120.342 187.422C115.192 192.381 106.895 194.861 95.4509 194.861ZM89.4428 87.8596C89.4428 89.9577 89.9196 91.5789 90.8733 92.7233C92.0177 93.677 93.5435 94.1538 95.4509 94.1538C97.3582 94.1538 98.7887 93.5816 99.7424 92.4372C100.887 91.2928 101.459 89.7669 101.459 87.8596V34.0728C101.459 29.6859 99.4563 27.4925 95.4509 27.4925C91.4455 27.4925 89.4428 29.6859 89.4428 34.0728V87.8596ZM171.725 194.861C160.472 194.861 152.175 192.381 146.834 187.422C141.684 182.463 139.11 174.739 139.11 164.248V130.488H165.717V161.387C165.717 165.774 167.72 167.968 171.725 167.968C175.73 167.968 177.733 165.774 177.733 161.387V93.5816C177.161 100.829 175.349 106.265 172.297 109.889C169.245 113.513 164.763 115.325 158.85 115.325C152.175 115.325 147.216 113.227 143.973 109.031C140.731 104.835 139.11 98.636 139.11 90.4345V31.4979C139.11 20.8168 141.684 13.0921 146.834 8.32379C152.175 3.36472 160.472 0.885184 171.725 0.885184C183.169 0.885184 191.466 3.36472 196.616 8.32379C201.956 13.0921 204.626 20.8168 204.626 31.4979V164.248C204.626 174.739 201.956 182.463 196.616 187.422C191.466 192.381 183.169 194.861 171.725 194.861ZM165.717 87.8596C165.717 89.9577 166.194 91.5789 167.147 92.7233C168.292 93.677 169.818 94.1538 171.725 94.1538C173.632 94.1538 175.063 93.5816 176.016 92.4372C177.161 91.2928 177.733 89.7669 177.733 87.8596V34.0728C177.733 29.6859 175.73 27.4925 171.725 27.4925C167.72 27.4925 165.717 29.6859 165.717 34.0728V87.8596ZM247.999 194.861C236.746 194.861 228.449 192.381 223.108 187.422C217.959 182.463 215.384 174.739 215.384 164.248V130.488H241.991V161.387C241.991 165.774 243.994 167.968 247.999 167.968C252.004 167.968 254.007 165.774 254.007 161.387V93.5816C253.435 100.829 251.623 106.265 248.571 109.889C245.52 113.513 241.037 115.325 235.125 115.325C228.449 115.325 223.49 113.227 220.247 109.031C217.005 104.835 215.384 98.636 215.384 90.4345V31.4979C215.384 20.8168 217.959 13.0921 223.108 8.32379C228.449 3.36472 236.746 0.885184 247.999 0.885184C259.443 0.885184 267.74 3.36472 272.89 8.32379C278.23 13.0921 280.901 20.8168 280.901 31.4979V164.248C280.901 174.739 278.23 182.463 272.89 187.422C267.74 192.381 259.443 194.861 247.999 194.861ZM241.991 87.8596C241.991 89.9577 242.468 91.5789 243.421 92.7233C244.566 93.677 246.092 94.1538 247.999 94.1538C249.906 94.1538 251.337 93.5816 252.291 92.4372C253.435 91.2928 254.007 89.7669 254.007 87.8596V34.0728C254.007 29.6859 252.004 27.4925 247.999 27.4925C243.994 27.4925 241.991 29.6859 241.991 34.0728V87.8596Z" fill="#EF2B20"/>
</svg>
