<svg width="374" height="246" viewBox="0 0 374 246" fill="none" xmlns="http://www.w3.org/2000/svg">
<path d="M0.5277 61.0889V20.2846L62.2758 4.39618H73.1088V242H30.499V53.1447L0.5277 61.0889ZM127.256 245.611C111.127 245.611 99.4515 242.361 92.2295 235.861C85.0075 229.121 81.3965 218.408 81.3965 203.723V164.363H124.006V199.029C124.006 201.677 125.09 203.001 127.256 203.001C129.423 203.001 130.506 201.677 130.506 199.029V114.532C130.025 124.883 127.858 132.587 124.006 137.642C120.155 142.697 114.257 145.225 106.312 145.225C97.4052 145.225 91.0258 142.577 87.1741 137.281C83.3223 131.744 81.3965 123.559 81.3965 112.726V42.6728C81.3965 27.988 85.0075 17.3958 92.2295 10.896C99.4515 4.15545 111.127 0.785181 127.256 0.785181C143.385 0.785181 155.061 4.15545 162.283 10.896C169.505 17.3958 173.116 27.988 173.116 42.6728V203.723C173.116 218.408 169.505 229.121 162.283 235.861C155.061 242.361 143.385 245.611 127.256 245.611ZM124.006 108.393C124.006 109.597 124.247 110.56 124.728 111.282C125.21 111.763 126.052 112.004 127.256 112.004C128.46 112.004 129.302 111.763 129.784 111.282C130.265 110.56 130.506 109.597 130.506 108.393V47.3671C130.506 44.719 129.423 43.395 127.256 43.395C125.09 43.395 124.006 44.719 124.006 47.3671V108.393ZM227.478 245.611C211.348 245.611 199.673 242.361 192.451 235.861C185.229 229.121 181.618 218.408 181.618 203.723V164.363H224.228V199.029C224.228 201.677 225.311 203.001 227.478 203.001C229.644 203.001 230.728 201.677 230.728 199.029V114.532C230.246 124.883 228.079 132.587 224.228 137.642C220.376 142.697 214.478 145.225 206.534 145.225C197.627 145.225 191.247 142.577 187.396 137.281C183.544 131.744 181.618 123.559 181.618 112.726V42.6728C181.618 27.988 185.229 17.3958 192.451 10.896C199.673 4.15545 211.348 0.785181 227.478 0.785181C243.607 0.785181 255.282 4.15545 262.504 10.896C269.726 17.3958 273.337 27.988 273.337 42.6728V203.723C273.337 218.408 269.726 229.121 262.504 235.861C255.282 242.361 243.607 245.611 227.478 245.611ZM224.228 108.393C224.228 109.597 224.468 110.56 224.95 111.282C225.431 111.763 226.274 112.004 227.478 112.004C228.681 112.004 229.524 111.763 230.005 111.282C230.487 110.56 230.728 109.597 230.728 108.393V47.3671C230.728 44.719 229.644 43.395 227.478 43.395C225.311 43.395 224.228 44.719 224.228 47.3671V108.393ZM327.699 245.611C311.57 245.611 299.894 242.361 292.672 235.861C285.45 229.121 281.839 218.408 281.839 203.723V164.363H324.449V199.029C324.449 201.677 325.532 203.001 327.699 203.001C329.866 203.001 330.949 201.677 330.949 199.029V114.532C330.468 124.883 328.301 132.587 324.449 137.642C320.597 142.697 314.699 145.225 306.755 145.225C297.848 145.225 291.469 142.577 287.617 137.281C283.765 131.744 281.839 123.559 281.839 112.726V42.6728C281.839 27.988 285.45 17.3958 292.672 10.896C299.894 4.15545 311.57 0.785181 327.699 0.785181C343.828 0.785181 355.504 4.15545 362.726 10.896C369.948 17.3958 373.559 27.988 373.559 42.6728V203.723C373.559 218.408 369.948 229.121 362.726 235.861C355.504 242.361 343.828 245.611 327.699 245.611ZM324.449 108.393C324.449 109.597 324.69 110.56 325.171 111.282C325.653 111.763 326.495 112.004 327.699 112.004C328.903 112.004 329.745 111.763 330.227 111.282C330.708 110.56 330.949 109.597 330.949 108.393V47.3671C330.949 44.719 329.866 43.395 327.699 43.395C325.532 43.395 324.449 44.719 324.449 47.3671V108.393Z" fill="#EF2B20"/>
</svg>
