<svg width="390" height="388" viewBox="0 0 390 388" fill="none" xmlns="http://www.w3.org/2000/svg">
<g clip-path="url(#clip0_76_12)">
<path d="M1.5846 134.612V110.843L41.4637 99.2222H48.0662V273H23.5049V127.481L1.5846 134.612ZM89.0126 275.641C78.6247 275.641 70.9658 273.352 66.0359 268.774C61.2821 264.197 58.9052 257.066 58.9052 247.382V216.218H83.4665V244.741C83.4665 248.791 85.3152 250.816 89.0126 250.816C92.71 250.816 94.5587 248.791 94.5587 244.741V182.15C94.0305 188.84 92.3579 193.858 89.5408 197.203C86.7238 200.549 82.5862 202.221 77.1281 202.221C70.9658 202.221 66.3881 200.284 63.3949 196.411C60.4018 192.538 58.9052 186.815 58.9052 179.244V124.84C58.9052 114.98 61.2821 107.849 66.0359 103.448C70.9658 98.8701 78.6247 96.5812 89.0126 96.5812C99.5766 96.5812 107.236 98.8701 111.989 103.448C116.919 107.849 119.384 114.98 119.384 124.84V247.382C119.384 257.066 116.919 264.197 111.989 268.774C107.236 273.352 99.5766 275.641 89.0126 275.641ZM83.4665 176.868C83.4665 178.804 83.9067 180.301 84.787 181.357C85.8434 182.238 87.252 182.678 89.0126 182.678C90.7733 182.678 92.0938 182.15 92.9741 181.093C94.0305 180.037 94.5587 178.628 94.5587 176.868V127.217C94.5587 123.167 92.71 121.142 89.0126 121.142C85.3152 121.142 83.4665 123.167 83.4665 127.217V176.868ZM159.4 275.641C149.012 275.641 141.353 273.352 136.423 268.774C131.67 264.197 129.293 257.066 129.293 247.382V216.218H153.854V244.741C153.854 248.791 155.703 250.816 159.4 250.816C163.097 250.816 164.946 248.791 164.946 244.741V182.15C164.418 188.84 162.745 193.858 159.928 197.203C157.111 200.549 152.974 202.221 147.516 202.221C141.353 202.221 136.775 200.284 133.782 196.411C130.789 192.538 129.293 186.815 129.293 179.244V124.84C129.293 114.98 131.67 107.849 136.423 103.448C141.353 98.8701 149.012 96.5812 159.4 96.5812C169.964 96.5812 177.623 98.8701 182.377 103.448C187.307 107.849 189.772 114.98 189.772 124.84V247.382C189.772 257.066 187.307 264.197 182.377 268.774C177.623 273.352 169.964 275.641 159.4 275.641ZM153.854 176.868C153.854 178.804 154.294 180.301 155.174 181.357C156.231 182.238 157.639 182.678 159.4 182.678C161.161 182.678 162.481 182.15 163.362 181.093C164.418 180.037 164.946 178.628 164.946 176.868V127.217C164.946 123.167 163.097 121.142 159.4 121.142C155.703 121.142 153.854 123.167 153.854 127.217V176.868ZM229.787 275.641C219.399 275.641 211.741 273.352 206.811 268.774C202.057 264.197 199.68 257.066 199.68 247.382V216.218H224.241V244.741C224.241 248.791 226.09 250.816 229.787 250.816C233.485 250.816 235.333 248.791 235.333 244.741V182.15C234.805 188.84 233.133 193.858 230.316 197.203C227.499 200.549 223.361 202.221 217.903 202.221C211.741 202.221 207.163 200.284 204.17 196.411C201.177 192.538 199.68 186.815 199.68 179.244V124.84C199.68 114.98 202.057 107.849 206.811 103.448C211.741 98.8701 219.399 96.5812 229.787 96.5812C240.351 96.5812 248.01 98.8701 252.764 103.448C257.694 107.849 260.159 114.98 260.159 124.84V247.382C260.159 257.066 257.694 264.197 252.764 268.774C248.01 273.352 240.351 275.641 229.787 275.641ZM224.241 176.868C224.241 178.804 224.681 180.301 225.562 181.357C226.618 182.238 228.027 182.678 229.787 182.678C231.548 182.678 232.869 182.15 233.749 181.093C234.805 180.037 235.333 178.628 235.333 176.868V127.217C235.333 123.167 233.485 121.142 229.787 121.142C226.09 121.142 224.241 123.167 224.241 127.217V176.868Z" fill="#EF2B20"/>
</g>
<defs>
<clipPath id="clip0_76_12">
<rect width="390" height="388" fill="white"/>
</clipPath>
</defs>
</svg>
