<svg width="390" height="388" viewBox="0 0 390 388" fill="none" xmlns="http://www.w3.org/2000/svg">
<g clip-path="url(#clip0_76_12)">
<path d="M21.9926 119.98V90.0906L72.1397 75.4782H80.4422V294H49.5569V111.013L21.9926 119.98ZM132.004 297.321C118.941 297.321 109.31 294.443 103.111 288.686C97.133 282.93 94.1441 273.963 94.1441 261.786V222.598H125.029V258.465C125.029 263.557 127.354 266.104 132.004 266.104C136.653 266.104 138.978 263.557 138.978 258.465V179.758C138.313 188.171 136.21 194.481 132.668 198.687C129.125 202.894 123.922 204.997 117.059 204.997C109.31 204.997 103.554 202.562 99.7898 197.691C96.026 192.82 94.1441 185.625 94.1441 176.104V107.692C94.1441 95.2935 97.133 86.3268 103.111 80.7918C109.31 75.0354 118.941 72.1572 132.004 72.1572C145.288 72.1572 154.918 75.0354 160.896 80.7918C167.095 86.3268 170.195 95.2935 170.195 107.692V261.786C170.195 273.963 167.095 282.93 160.896 288.686C154.918 294.443 145.288 297.321 132.004 297.321ZM125.029 173.116C125.029 175.551 125.583 177.433 126.69 178.761C128.018 179.868 129.79 180.422 132.004 180.422C134.218 180.422 135.878 179.758 136.985 178.429C138.313 177.101 138.978 175.33 138.978 173.116V110.681C138.978 105.589 136.653 103.042 132.004 103.042C127.354 103.042 125.029 105.589 125.029 110.681V173.116ZM220.586 297.321C207.524 297.321 197.893 294.443 191.694 288.686C185.716 282.93 182.727 273.963 182.727 261.786V222.598H213.612V258.465C213.612 263.557 215.937 266.104 220.586 266.104C225.236 266.104 227.56 263.557 227.56 258.465V179.758C226.896 188.171 224.793 194.481 221.25 198.687C217.708 202.894 212.505 204.997 205.642 204.997C197.893 204.997 192.136 202.562 188.373 197.691C184.609 192.82 182.727 185.625 182.727 176.104V107.692C182.727 95.2935 185.716 86.3268 191.694 80.7918C197.893 75.0354 207.524 72.1572 220.586 72.1572C233.87 72.1572 243.501 75.0354 249.479 80.7918C255.678 86.3268 258.778 95.2935 258.778 107.692V261.786C258.778 273.963 255.678 282.93 249.479 288.686C243.501 294.443 233.87 297.321 220.586 297.321ZM213.612 173.116C213.612 175.551 214.166 177.433 215.273 178.761C216.601 179.868 218.372 180.422 220.586 180.422C222.8 180.422 224.461 179.758 225.568 178.429C226.896 177.101 227.56 175.33 227.56 173.116V110.681C227.56 105.589 225.236 103.042 220.586 103.042C215.937 103.042 213.612 105.589 213.612 110.681V173.116ZM309.169 297.321C296.106 297.321 286.475 294.443 280.276 288.686C274.298 282.93 271.31 273.963 271.31 261.786V222.598H302.195V258.465C302.195 263.557 304.52 266.104 309.169 266.104C313.818 266.104 316.143 263.557 316.143 258.465V179.758C315.479 188.171 313.376 194.481 309.833 198.687C306.291 202.894 301.088 204.997 294.224 204.997C286.475 204.997 280.719 202.562 276.955 197.691C273.191 192.82 271.31 185.625 271.31 176.104V107.692C271.31 95.2935 274.298 86.3268 280.276 80.7918C286.475 75.0354 296.106 72.1572 309.169 72.1572C322.453 72.1572 332.084 75.0354 338.062 80.7918C344.261 86.3268 347.36 95.2935 347.36 107.692V261.786C347.36 273.963 344.261 282.93 338.062 288.686C332.084 294.443 322.453 297.321 309.169 297.321ZM302.195 173.116C302.195 175.551 302.748 177.433 303.855 178.761C305.184 179.868 306.955 180.422 309.169 180.422C311.383 180.422 313.043 179.758 314.15 178.429C315.479 177.101 316.143 175.33 316.143 173.116V110.681C316.143 105.589 313.818 103.042 309.169 103.042C304.52 103.042 302.195 105.589 302.195 110.681V173.116Z" fill="#EF2B20"/>
</g>
<defs>
<clipPath id="clip0_76_12">
<rect width="390" height="388" fill="white"/>
</clipPath>
</defs>
</svg>
