<svg width="390" height="388" viewBox="0 0 390 388" fill="none" xmlns="http://www.w3.org/2000/svg">
<g clip-path="url(#clip0_76_12)">
<path d="M80.7346 129.512V103.493L124.389 90.7722H131.616V281H104.73V121.706L80.7346 129.512ZM176.465 283.891C165.094 283.891 156.71 281.385 151.313 276.374C146.11 271.363 143.508 263.558 143.508 252.957V218.843H170.394V250.066C170.394 254.499 172.418 256.716 176.465 256.716C180.513 256.716 182.536 254.499 182.536 250.066V181.55C181.958 188.873 180.127 194.366 177.043 198.028C173.96 201.69 169.43 203.521 163.456 203.521C156.71 203.521 151.699 201.401 148.422 197.161C145.146 192.921 143.508 186.657 143.508 178.369V118.815C143.508 108.022 146.11 100.216 151.313 95.3978C156.71 90.3867 165.094 87.8812 176.465 87.8812C188.029 87.8812 196.413 90.3867 201.617 95.3978C207.013 100.216 209.712 108.022 209.712 118.815V252.957C209.712 263.558 207.013 271.363 201.617 276.374C196.413 281.385 188.029 283.891 176.465 283.891ZM170.394 175.768C170.394 177.888 170.876 179.526 171.84 180.682C172.996 181.646 174.538 182.128 176.465 182.128C178.393 182.128 179.838 181.55 180.802 180.393C181.958 179.237 182.536 177.695 182.536 175.768V121.417C182.536 116.984 180.513 114.767 176.465 114.767C172.418 114.767 170.394 116.984 170.394 121.417V175.768ZM253.542 283.891C242.171 283.891 233.787 281.385 228.39 276.374C223.186 271.363 220.585 263.558 220.585 252.957V218.843H247.471V250.066C247.471 254.499 249.495 256.716 253.542 256.716C257.589 256.716 259.613 254.499 259.613 250.066V181.55C259.035 188.873 257.204 194.366 254.12 198.028C251.036 201.69 246.507 203.521 240.532 203.521C233.787 203.521 228.776 201.401 225.499 197.161C222.223 192.921 220.585 186.657 220.585 178.369V118.815C220.585 108.022 223.186 100.216 228.39 95.3978C233.787 90.3867 242.171 87.8812 253.542 87.8812C265.106 87.8812 273.49 90.3867 278.694 95.3978C284.09 100.216 286.789 108.022 286.789 118.815V252.957C286.789 263.558 284.09 271.363 278.694 276.374C273.49 281.385 265.106 283.891 253.542 283.891ZM247.471 175.768C247.471 177.888 247.953 179.526 248.916 180.682C250.073 181.646 251.615 182.128 253.542 182.128C255.469 182.128 256.915 181.55 257.878 180.393C259.035 179.237 259.613 177.695 259.613 175.768V121.417C259.613 116.984 257.589 114.767 253.542 114.767C249.495 114.767 247.471 116.984 247.471 121.417V175.768ZM330.619 283.891C319.248 283.891 310.864 281.385 305.467 276.374C300.263 271.363 297.661 263.558 297.661 252.957V218.843H324.548V250.066C324.548 254.499 326.571 256.716 330.619 256.716C334.666 256.716 336.69 254.499 336.69 250.066V181.55C336.112 188.873 334.281 194.366 331.197 198.028C328.113 201.69 323.584 203.521 317.609 203.521C310.864 203.521 305.853 201.401 302.576 197.161C299.3 192.921 297.661 186.657 297.661 178.369V118.815C297.661 108.022 300.263 100.216 305.467 95.3978C310.864 90.3867 319.248 87.8812 330.619 87.8812C342.183 87.8812 350.567 90.3867 355.771 95.3978C361.167 100.216 363.865 108.022 363.865 118.815V252.957C363.865 263.558 361.167 271.363 355.771 276.374C350.567 281.385 342.183 283.891 330.619 283.891ZM324.548 175.768C324.548 177.888 325.03 179.526 325.993 180.682C327.15 181.646 328.692 182.128 330.619 182.128C332.546 182.128 333.992 181.55 334.955 180.393C336.112 179.237 336.69 177.695 336.69 175.768V121.417C336.69 116.984 334.666 114.767 330.619 114.767C326.571 114.767 324.548 116.984 324.548 121.417V175.768Z" fill="#EF2B20"/>
</g>
<defs>
<clipPath id="clip0_76_12">
<rect width="390" height="388" fill="white"/>
</clipPath>
</defs>
</svg>
