<svg width="267" height="150" viewBox="0 0 267 150" fill="none" xmlns="http://www.w3.org/2000/svg">
<g clip-path="url(#clip0_76_12)">
<path d="M56.273 40.2036V26.1546L79.8442 19.2862H83.7467V122H69.2293V35.9889L56.273 40.2036ZM107.834 123.561C101.694 123.561 97.1673 122.208 94.2534 119.502C91.4436 116.797 90.0387 112.582 90.0387 106.858V88.4385H104.556V105.297C104.556 107.691 105.649 108.888 107.834 108.888C110.02 108.888 111.112 107.691 111.112 105.297V68.3016C110.8 72.2561 109.811 75.222 108.146 77.1993C106.481 79.1766 104.036 80.1652 100.81 80.1652C97.1673 80.1652 94.4615 79.0205 92.6924 76.731C90.9233 74.4415 90.0387 71.0594 90.0387 66.5845V34.4279C90.0387 28.6002 91.4436 24.3855 94.2534 21.7838C97.1673 19.0781 101.694 17.7252 107.834 17.7252C114.078 17.7252 118.605 19.0781 121.415 21.7838C124.329 24.3855 125.786 28.6002 125.786 34.4279V106.858C125.786 112.582 124.329 116.797 121.415 119.502C118.605 122.208 114.078 123.561 107.834 123.561ZM104.556 65.1796C104.556 66.3243 104.816 67.2089 105.337 67.8333C105.961 68.3536 106.793 68.6138 107.834 68.6138C108.875 68.6138 109.655 68.3016 110.176 67.6772C110.8 67.0528 111.112 66.2203 111.112 65.1796V35.8328C111.112 33.4393 110.02 32.2425 107.834 32.2425C105.649 32.2425 104.556 33.4393 104.556 35.8328V65.1796ZM149.323 123.561C143.183 123.561 138.656 122.208 135.742 119.502C132.933 116.797 131.528 112.582 131.528 106.858V88.4385H146.045V105.297C146.045 107.691 147.138 108.888 149.323 108.888C151.508 108.888 152.601 107.691 152.601 105.297V68.3016C152.289 72.2561 151.3 75.222 149.635 77.1993C147.97 79.1766 145.525 80.1652 142.299 80.1652C138.656 80.1652 135.95 79.0205 134.181 76.731C132.412 74.4415 131.528 71.0594 131.528 66.5845V34.4279C131.528 28.6002 132.933 24.3855 135.742 21.7838C138.656 19.0781 143.183 17.7252 149.323 17.7252C155.567 17.7252 160.094 19.0781 162.904 21.7838C165.818 24.3855 167.275 28.6002 167.275 34.4279V106.858C167.275 112.582 165.818 116.797 162.904 119.502C160.094 122.208 155.567 123.561 149.323 123.561ZM146.045 65.1796C146.045 66.3243 146.305 67.2089 146.825 67.8333C147.45 68.3536 148.282 68.6138 149.323 68.6138C150.364 68.6138 151.144 68.3016 151.665 67.6772C152.289 67.0528 152.601 66.2203 152.601 65.1796V35.8328C152.601 33.4393 151.508 32.2425 149.323 32.2425C147.138 32.2425 146.045 33.4393 146.045 35.8328V65.1796ZM190.812 123.561C184.672 123.561 180.145 122.208 177.231 119.502C174.421 116.797 173.017 112.582 173.017 106.858V88.4385H187.534V105.297C187.534 107.691 188.627 108.888 190.812 108.888C192.997 108.888 194.09 107.691 194.09 105.297V68.3016C193.778 72.2561 192.789 75.222 191.124 77.1993C189.459 79.1766 187.014 80.1652 183.787 80.1652C180.145 80.1652 177.439 79.0205 175.67 76.731C173.901 74.4415 173.017 71.0594 173.017 66.5845V34.4279C173.017 28.6002 174.421 24.3855 177.231 21.7838C180.145 19.0781 184.672 17.7252 190.812 17.7252C197.056 17.7252 201.583 19.0781 204.393 21.7838C207.307 24.3855 208.763 28.6002 208.763 34.4279V106.858C208.763 112.582 207.307 116.797 204.393 119.502C201.583 122.208 197.056 123.561 190.812 123.561ZM187.534 65.1796C187.534 66.3243 187.794 67.2089 188.314 67.8333C188.939 68.3536 189.771 68.6138 190.812 68.6138C191.853 68.6138 192.633 68.3016 193.153 67.6772C193.778 67.0528 194.09 66.2203 194.09 65.1796V35.8328C194.09 33.4393 192.997 32.2425 190.812 32.2425C188.627 32.2425 187.534 33.4393 187.534 35.8328V65.1796Z" fill="#EF2B20"/>
</g>
<defs>
<clipPath id="clip0_76_12">
<rect width="267" height="150" fill="white"/>
</clipPath>
</defs>
</svg>
