<?xml version="1.0" encoding="UTF-8"?>
<svg id="Calque_1" data-name="Calque 1" xmlns="http://www.w3.org/2000/svg" version="1.1" viewBox="0 0 1060 624">
  <defs>
    <style>
      .cls-1 {
        fill: #ed150c;
        stroke-width: 0px;
      }

      .cls-2 {
        isolation: isolate;
      }
    </style>
  </defs>
  <g id="At_the_age_of_9_he_discovered_photography." data-name="At the age of 9 he discovered photography." class="cls-2">
    <g class="cls-2">
      <path class="cls-1" d="M27.6,46h58.1l16.6,168h-40.6l-1.4-37.2h-9.1l-1.4,37.2H11L27.6,46ZM52.3,145.6h6.7l-1.7-46.8v-14.4h-3.4v14.4l-1.7,46.8Z"/>
      <path class="cls-1" d="M109.6,80.8h-14.4v-34.8h67.2v34.8h-14.4v133.2h-38.4V80.8Z"/>
      <path class="cls-1" d="M210,80.8h-14.4v-34.8h67.2v34.8h-14.4v133.2h-38.4V80.8Z"/>
      <path class="cls-1" d="M266.8,46h38.4v66h7.2V46h38.4v168h-38.4v-68.4h-7.2v68.4h-38.4V46Z"/>
      <path class="cls-1" d="M357.1,46h60v34.8h-21.6v31.2h19.2v33.6h-19.2v33.6h21.6v34.8h-60V46Z"/>
      <path class="cls-1" d="M466.3,46h58.1l16.6,168h-40.6l-1.4-37.2h-9.1l-1.4,37.2h-38.6l16.6-168ZM491,145.6h6.7l-1.7-46.8v-14.4h-3.4v14.4l-1.7,46.8Z"/>
      <path class="cls-1" d="M541.2,183.3v-101.8c0-23,16.8-38.4,42-38.4s42,15.4,42,38.4v22.1h-38.4v-22.1c0-2.2-1.4-3.6-3.6-3.6s-3.6,1.4-3.6,3.6v97c0,2.2,1.7,3.6,4.1,3.6s4.1-1.4,4.1-3.6v-34.1h-4.6v-31.2h42v100.8h-25.9v-8.2l.7-3.4h-2.9l-.7,3.4c-3.8,7.2-12.5,11-22.8,11-19.4,0-32.4-13.4-32.4-33.6Z"/>
      <path class="cls-1" d="M630.9,46h60v34.8h-21.6v31.2h19.2v33.6h-19.2v33.6h21.6v34.8h-60V46Z"/>
      <path class="cls-1" d="M725.9,178.5v-97c0-23,16.8-38.4,42-38.4s42,15.4,42,38.4v97c0,23-16.8,38.4-42,38.4s-42-15.4-42-38.4ZM771.5,178.5v-97c0-2.2-1.4-3.6-3.6-3.6s-3.6,1.4-3.6,3.6v97c0,2.2,1.4,3.6,3.6,3.6s3.6-1.4,3.6-3.6Z"/>
      <path class="cls-1" d="M815.5,46h60v34.8h-21.6v31.2h19.2v33.6h-19.2v68.4h-38.4V46Z"/>
      <path class="cls-1" d="M910.7,179v-18.5h38.4v18.5c0,1.9,1.2,3.1,3.1,3.1s3.1-1.2,3.1-3.1v-34.6l.7-3.4h-2.9l-.7,3.4c-3.6,4.8-11,8.6-19.7,8.6-13.9,0-23-10.1-23-25.2v-46.3c0-23,17-38.4,42.5-38.4s41.5,15.4,41.5,38.4v97.4c0,22.8-16.6,37.9-41.5,37.9s-41.5-15.1-41.5-37.9ZM955.4,114.6v-33.1c0-2.2-1.4-3.6-3.6-3.6s-3.6,1.4-3.6,3.6v33.1c0,2.2,1.4,3.6,3.6,3.6s3.6-1.4,3.6-3.6Z"/>
      <path class="cls-1" d="M1007.9,214h-9.6v-43.2h38.4v38.4l-13.4,26.4h-25.4l10.1-21.6Z"/>
    </g>
    <g class="cls-2">
      <path class="cls-1" d="M14.1,226h38.4v66h7.2v-66h38.4v168h-38.4v-68.4h-7.2v68.4H14.1v-168Z"/>
      <path class="cls-1" d="M104.4,226h60v34.8h-21.6v31.2h19.2v33.6h-19.2v33.6h21.6v34.8h-60v-168Z"/>
      <path class="cls-1" d="M200.1,226h44.4c23.8,0,39.6,14.4,39.6,36v96c0,21.6-15.8,36-39.6,36h-44.4v-168ZM238.5,260.8v98.4h3.6c2.2,0,3.6-1.4,3.6-3.6v-91.2c0-2.2-1.4-3.6-3.6-3.6h-3.6Z"/>
      <path class="cls-1" d="M289.6,226h38.4v168h-38.4v-168Z"/>
      <path class="cls-1" d="M332.6,358.5v-24.5h38.4v24.5c0,2.2,1.4,3.6,3.6,3.6s3.6-1.4,3.6-3.6v-18.5c0-15.6-45.1-19.7-45.1-58.1v-20.4c0-23,16.6-38.4,41.5-38.4s41.5,15.4,41.5,38.4v21.6h-38.4v-22.1c0-1.9-1.2-3.1-3.1-3.1s-3.1,1.2-3.1,3.1v16.1c0,15.6,45.1,19.7,45.1,58.1v23.3c0,23-16.8,38.4-42,38.4s-42-15.4-42-38.4Z"/>
      <path class="cls-1" d="M420.4,358.5v-97c0-23,16.8-38.4,42-38.4s42,15.4,42,38.4v37.7h-38.4v-37.7c0-2.2-1.4-3.6-3.6-3.6s-3.6,1.4-3.6,3.6v97c0,2.2,1.4,3.6,3.6,3.6s3.6-1.4,3.6-3.6v-40.1h38.4v40.1c0,23-16.8,38.4-42,38.4s-42-15.4-42-38.4Z"/>
      <path class="cls-1" d="M509.2,358.5v-97c0-23,16.8-38.4,42-38.4s42,15.4,42,38.4v97c0,23-16.8,38.4-42,38.4s-42-15.4-42-38.4ZM554.8,358.5v-97c0-2.2-1.4-3.6-3.6-3.6s-3.6,1.4-3.6,3.6v97c0,2.2,1.4,3.6,3.6,3.6s3.6-1.4,3.6-3.6Z"/>
      <path class="cls-1" d="M593.5,226h40.3l3.6,110.4v19.2h3.4v-19.2l3.6-110.4h38.4l-15.8,168h-57.6l-15.8-168Z"/>
      <path class="cls-1" d="M685.9,226h60v34.8h-21.6v31.2h19.2v33.6h-19.2v33.6h21.6v34.8h-60v-168Z"/>
      <path class="cls-1" d="M750.4,226h45.6c23,0,38.4,13.9,38.4,34.8v39.6c0,9.1-3.1,16.8-8.4,22.6l11.8,71h-38.4l-7.7-60h-2.9v60h-38.4v-168ZM788.8,260.8v40.8h3.6c2.2,0,3.6-1.4,3.6-3.6v-33.6c0-2.2-1.4-3.6-3.6-3.6h-3.6Z"/>
      <path class="cls-1" d="M840.2,226h60v34.8h-21.6v31.2h19.2v33.6h-19.2v33.6h21.6v34.8h-60v-168Z"/>
      <path class="cls-1" d="M904.7,226h44.4c23.8,0,39.6,14.4,39.6,36v96c0,21.6-15.8,36-39.6,36h-44.4v-168ZM943.1,260.8v98.4h3.6c2.2,0,3.6-1.4,3.6-3.6v-91.2c0-2.2-1.4-3.6-3.6-3.6h-3.6Z"/>
    </g>
    <g class="cls-2">
      <path class="cls-1" d="M14.1,406h44.4c23.8,0,39.6,14.4,39.6,36v40.8c0,21.6-15.8,36-39.6,36h-6v55.2H14.1v-168ZM52.5,440.8v43.2h3.6c2.2,0,3.6-1.4,3.6-3.6v-36c0-2.2-1.4-3.6-3.6-3.6h-3.6Z"/>
      <path class="cls-1" d="M102.2,406h38.4v66h7.2v-66h38.4v168h-38.4v-68.4h-7.2v68.4h-38.4v-168Z"/>
      <path class="cls-1" d="M191.7,538.5v-97c0-23,16.8-38.4,42-38.4s42,15.4,42,38.4v97c0,23-16.8,38.4-42,38.4s-42-15.4-42-38.4ZM237.3,538.5v-97c0-2.2-1.4-3.6-3.6-3.6s-3.6,1.4-3.6,3.6v97c0,2.2,1.4,3.6,3.6,3.6s3.6-1.4,3.6-3.6Z"/>
      <path class="cls-1" d="M292.8,440.8h-14.4v-34.8h67.2v34.8h-14.4v133.2h-38.4v-133.2Z"/>
      <path class="cls-1" d="M348.2,538.5v-97c0-23,16.8-38.4,42-38.4s42,15.4,42,38.4v97c0,23-16.8,38.4-42,38.4s-42-15.4-42-38.4ZM393.8,538.5v-97c0-2.2-1.4-3.6-3.6-3.6s-3.6,1.4-3.6,3.6v97c0,2.2,1.4,3.6,3.6,3.6s3.6-1.4,3.6-3.6Z"/>
      <path class="cls-1" d="M437,543.3v-101.8c0-23,16.8-38.4,42-38.4s42,15.4,42,38.4v22.1h-38.4v-22.1c0-2.2-1.4-3.6-3.6-3.6s-3.6,1.4-3.6,3.6v97c0,2.2,1.7,3.6,4.1,3.6s4.1-1.4,4.1-3.6v-34.1h-4.6v-31.2h42v100.8h-25.9v-8.2l.7-3.4h-2.9l-.7,3.4c-3.8,7.2-12.5,11-22.8,11-19.4,0-32.4-13.4-32.4-33.6Z"/>
      <path class="cls-1" d="M526.8,406h45.6c23,0,38.4,13.9,38.4,34.8v39.6c0,9.1-3.1,16.8-8.4,22.6l11.8,71h-38.4l-7.7-60h-2.9v60h-38.4v-168ZM565.2,440.8v40.8h3.6c2.2,0,3.6-1.4,3.6-3.6v-33.6c0-2.2-1.4-3.6-3.6-3.6h-3.6Z"/>
      <path class="cls-1" d="M631.4,406h58.1l16.6,168h-40.6l-1.4-37.2h-9.1l-1.4,37.2h-38.6l16.6-168ZM656.1,505.6h6.7l-1.7-46.8v-14.4h-3.4v14.4l-1.7,46.8Z"/>
      <path class="cls-1" d="M709.1,406h44.4c23.8,0,39.6,14.4,39.6,36v40.8c0,21.6-15.8,36-39.6,36h-6v55.2h-38.4v-168ZM747.5,440.8v43.2h3.6c2.2,0,3.6-1.4,3.6-3.6v-36c0-2.2-1.4-3.6-3.6-3.6h-3.6Z"/>
      <path class="cls-1" d="M797.2,406h38.4v66h7.2v-66h38.4v168h-38.4v-68.4h-7.2v68.4h-38.4v-168Z"/>
      <path class="cls-1" d="M909.3,519l-25.7-113h40.3l3.8,49.2v21.6h3.4v-21.6l3.8-49.2h38.4l-25.7,113v55h-38.4v-55Z"/>
      <path class="cls-1" d="M955.9,530.8h38.4v43.2h-38.4v-43.2Z"/>
    </g>
  </g>
</svg>