<?xml version="1.0" encoding="UTF-8"?>
<svg id="Calque_1" data-name="Calque 1" xmlns="http://www.w3.org/2000/svg" version="1.1" viewBox="0 0 31 34">
  <defs>
    <style>
      .cls-1 {
        fill: #12100e;
        stroke-width: 0px;
      }
    </style>
  </defs>
  <path class="cls-1" d="M30.3,13.7L17.3.7s0,0,0,0c0,0,0,0,0,0,0,0-.2-.2-.3-.3,0,0-.1,0-.2-.1,0,0-.1,0-.2-.1,0,0-.2,0-.3,0,0,0-.1,0-.2,0-.3,0-.7,0-1,0s-.1,0-.2,0c0,0-.2,0-.3,0,0,0-.1,0-.2.1,0,0-.2,0-.2.1-.1,0-.2.2-.3.3,0,0,0,0,0,0h0S.7,13.7.7,13.7c0,0,0,0,0,0-1,1-1,2.6,0,3.5.5.5,1.1.7,1.8.7.7,0,1.3-.3,1.8-.7l8.7-8.7v23c0,1.4,1.1,2.5,2.5,2.5s2.5-1.1,2.5-2.5V8.5l8.7,8.7c.5.5,1.1.7,1.8.7.7,0,1.3-.3,1.8-.7,1-1,1-2.6,0-3.5Z"/>
</svg>