<svg width="225" height="150" viewBox="0 0 225 150" fill="none" xmlns="http://www.w3.org/2000/svg">
<g clip-path="url(#clip0_57_784)">
<path d="M28.2286 30.116C28.4706 30.116 28.7016 30.215 28.9216 30.413C29.1416 30.611 29.2516 30.93 29.2516 31.37C29.2516 31.722 28.9876 32.14 28.4596 32.624C27.9316 33.086 27.2496 33.537 26.4136 33.977C25.5996 34.417 24.7196 34.78 23.7736 35.066C22.8276 35.374 21.9366 35.528 21.1006 35.528C19.9126 35.528 18.7906 35.22 17.7346 34.604C16.7006 33.988 15.8536 33.097 15.1936 31.931C14.5336 30.743 14.2036 29.302 14.2036 27.608C14.2036 26.112 14.4786 24.616 15.0286 23.12C15.5786 21.624 16.3046 20.183 17.2066 18.797C18.1306 17.411 19.1426 16.124 20.2426 14.936C21.3646 13.748 22.4866 12.714 23.6086 11.834C24.7306 10.954 25.7756 10.272 26.7436 9.788C27.7336 9.282 28.5476 9.029 29.1856 9.029C29.6256 9.029 29.9776 9.194 30.2416 9.524C30.5276 9.832 30.6706 10.173 30.6706 10.547C30.6706 10.767 30.6046 10.987 30.4726 11.207C30.3626 11.427 30.1646 11.603 29.8786 11.735C28.4486 12.439 26.9966 13.341 25.5226 14.441C24.0486 15.541 22.6846 16.795 21.4306 18.203C20.1766 19.589 19.1646 21.096 18.3946 22.724C17.6246 24.33 17.2396 26.024 17.2396 27.806C17.2396 29.346 17.6026 30.523 18.3286 31.337C19.0546 32.129 20.0446 32.525 21.2986 32.525C21.9586 32.525 22.6406 32.404 23.3446 32.162C24.0706 31.92 24.7526 31.645 25.3906 31.337C26.0506 31.007 26.6226 30.721 27.1066 30.479C27.6126 30.237 27.9866 30.116 28.2286 30.116ZM40.468 35.33C39.17 35.33 38.147 34.835 37.399 33.845C36.651 32.855 36.277 31.568 36.277 29.984C36.277 29.412 36.354 28.807 36.508 28.169C36.684 27.509 36.904 26.915 37.168 26.387C37.014 26.233 36.893 26.024 36.805 25.76C36.717 25.474 36.673 25.122 36.673 24.704C36.673 23.406 36.893 22.218 37.333 21.14C37.773 20.062 38.356 19.127 39.082 18.335C39.808 17.521 40.611 16.894 41.491 16.454C42.393 16.014 43.306 15.794 44.23 15.794C45.748 15.794 46.98 16.344 47.926 17.444C48.872 18.522 49.345 20.172 49.345 22.394C49.345 23.56 49.169 24.748 48.817 25.958C48.487 27.168 48.025 28.334 47.431 29.456C46.859 30.578 46.188 31.579 45.418 32.459C44.67 33.339 43.867 34.043 43.009 34.571C42.173 35.077 41.326 35.33 40.468 35.33ZM39.346 25.265C39.478 25.441 39.544 25.672 39.544 25.958C39.544 26.288 39.478 26.618 39.346 26.948C39.236 27.278 39.115 27.729 38.983 28.301C38.851 28.873 38.785 29.687 38.785 30.743C38.785 31.799 39.203 32.327 40.039 32.327C40.963 32.327 41.821 31.964 42.613 31.238C43.405 30.49 44.109 29.533 44.725 28.367C45.341 27.201 45.814 25.958 46.144 24.638C46.496 23.296 46.672 22.031 46.672 20.843C46.672 20.073 46.529 19.534 46.243 19.226C45.957 18.896 45.44 18.731 44.692 18.731C43.922 18.731 43.119 18.995 42.283 19.523C41.469 20.029 40.787 20.722 40.237 21.602C39.687 22.482 39.412 23.472 39.412 24.572C39.412 24.814 39.39 25.045 39.346 25.265ZM63.4705 35.792C63.0965 35.792 62.7775 35.627 62.5135 35.297C62.2495 34.967 62.1175 34.483 62.1175 33.845C62.1175 33.097 62.2275 32.03 62.4475 30.644C62.6895 29.258 63.0415 27.421 63.5035 25.133C62.9095 26.541 62.2495 27.872 61.5235 29.126C60.8195 30.38 60.0715 31.403 59.2795 32.195C58.4875 32.987 57.6735 33.383 56.8375 33.383C56.0235 33.383 55.2975 33.064 54.6595 32.426C54.0435 31.788 53.7355 30.666 53.7355 29.06C53.7355 28.158 53.8125 27.146 53.9665 26.024C54.1205 24.88 54.3185 23.747 54.5605 22.625C54.8025 21.503 55.0445 20.502 55.2865 19.622C55.5285 18.72 55.7485 18.06 55.9465 17.642C56.1005 17.29 56.2545 17.059 56.4085 16.949C56.5625 16.817 56.7715 16.751 57.0355 16.751C57.3435 16.751 57.6735 16.883 58.0255 17.147C58.3775 17.411 58.5535 17.851 58.5535 18.467C58.5535 18.621 58.4765 18.984 58.3225 19.556C58.1905 20.106 58.0145 20.788 57.7945 21.602C57.5965 22.394 57.3875 23.252 57.1675 24.176C56.9475 25.1 56.7605 26.024 56.6065 26.948C56.4745 27.872 56.4085 28.719 56.4085 29.489C56.4085 29.907 56.4525 30.248 56.5405 30.512C56.6285 30.776 56.8485 30.908 57.2005 30.908C57.5085 30.908 57.8935 30.6 58.3555 29.984C58.8395 29.368 59.3565 28.554 59.9065 27.542C60.4785 26.508 61.0615 25.364 61.6555 24.11C62.2715 22.856 62.8655 21.569 63.4375 20.249C64.0315 18.929 64.5705 17.675 65.0545 16.487C65.2305 16.091 65.4175 15.849 65.6155 15.761C65.8135 15.651 66.0335 15.596 66.2755 15.596C66.6715 15.596 67.0235 15.761 67.3315 16.091C67.6615 16.399 67.8265 16.806 67.8265 17.312C67.8265 17.642 67.7605 18.214 67.6285 19.028C67.5185 19.842 67.3535 20.799 67.1335 21.899C66.9355 22.977 66.7045 24.121 66.4405 25.331C66.1985 26.541 65.9565 27.74 65.7145 28.928C65.4725 30.094 65.2415 31.161 65.0215 32.129C64.8235 33.097 64.6585 33.878 64.5265 34.472C64.4165 35.022 64.2625 35.374 64.0645 35.528C63.8885 35.704 63.6905 35.792 63.4705 35.792ZM72.1206 44.801C71.7466 44.801 71.4496 44.669 71.2296 44.405C71.0316 44.141 70.9326 43.635 70.9326 42.887C70.9326 41.809 71.0096 40.555 71.1636 39.125C71.3176 37.695 71.5266 36.177 71.7906 34.571C72.0766 32.965 72.3846 31.359 72.7146 29.753C73.0666 28.147 73.4296 26.618 73.8036 25.166C74.1996 23.714 74.5846 22.427 74.9586 21.305C75.3326 20.161 75.6736 19.259 75.9816 18.599C76.3116 17.939 76.5976 17.609 76.8396 17.609C77.2576 17.609 77.5876 17.73 77.8296 17.972C78.0936 18.214 78.2256 18.577 78.2256 19.061C78.2256 19.677 78.0386 20.678 77.6646 22.064C77.2906 23.428 76.8066 25.21 76.2126 27.41C76.7626 26.398 77.3566 25.342 77.9946 24.242C78.6326 23.142 79.3036 22.075 80.0076 21.041C80.7116 19.985 81.4156 19.039 82.1196 18.203C82.8456 17.367 83.5496 16.696 84.2316 16.19C84.9136 15.684 85.5736 15.431 86.2116 15.431C86.8936 15.431 87.4986 15.651 88.0266 16.091C88.5546 16.509 88.9616 17.081 89.2476 17.807C89.5556 18.511 89.7096 19.303 89.7096 20.183C89.7096 22.009 89.4016 23.78 88.7856 25.496C88.1696 27.19 87.3116 28.719 86.2116 30.083C85.1336 31.425 83.8576 32.492 82.3836 33.284C80.9316 34.076 79.3586 34.472 77.6646 34.472C77.0266 34.472 76.4546 34.439 75.9486 34.373C75.4426 34.307 75.0026 34.23 74.6286 34.142C74.3646 35.594 74.1116 37.09 73.8696 38.63C73.6276 40.17 73.3856 41.809 73.1436 43.547C73.0776 44.009 72.9676 44.328 72.8136 44.504C72.6596 44.702 72.4286 44.801 72.1206 44.801ZM86.8056 17.939C86.3436 17.939 85.7936 18.203 85.1556 18.731C84.5396 19.259 83.8686 19.963 83.1426 20.843C82.4386 21.701 81.7236 22.658 80.9976 23.714C80.2716 24.748 79.5676 25.804 78.8856 26.882C78.2036 27.96 77.5766 28.961 77.0046 29.885C76.4546 30.809 76.0036 31.579 75.6516 32.195C77.3676 32.151 78.8746 31.81 80.1726 31.172C81.4706 30.512 82.5816 29.676 83.5056 28.664C84.4296 27.63 85.1776 26.519 85.7496 25.331C86.3436 24.121 86.7726 22.955 87.0366 21.833C87.3006 20.689 87.4326 19.699 87.4326 18.863C87.4326 18.247 87.2236 17.939 86.8056 17.939ZM99.2925 36.32C97.5985 36.32 96.2675 35.77 95.2995 34.67C94.3535 33.548 93.8805 31.986 93.8805 29.984C93.8805 28.752 94.0455 27.311 94.3755 25.661C94.7275 23.989 95.1675 22.229 95.6955 20.381C96.2455 18.511 96.8395 16.663 97.4775 14.837C98.1155 13.011 98.7315 11.317 99.3255 9.755C99.9415 8.171 100.481 6.851 100.943 5.795C101.207 5.201 101.581 4.904 102.065 4.904C102.725 4.904 103.055 5.311 103.055 6.125C103.055 6.389 102.934 6.928 102.692 7.742C102.45 8.556 102.131 9.568 101.735 10.778C101.339 11.966 100.91 13.286 100.448 14.738C99.9855 16.19 99.5125 17.686 99.0285 19.226C98.5665 20.744 98.1375 22.251 97.7415 23.747C97.3455 25.221 97.0265 26.607 96.7845 27.905C96.5425 29.203 96.4215 30.314 96.4215 31.238C96.4215 31.832 96.5755 32.305 96.8835 32.657C97.2135 32.987 97.6535 33.152 98.2035 33.152C99.2155 33.152 100.228 32.954 101.24 32.558C102.274 32.14 103.264 31.634 104.21 31.04C105.156 30.424 106.014 29.819 106.784 29.225C107.576 28.609 108.247 28.103 108.797 27.707C109.347 27.289 109.732 27.08 109.952 27.08C110.436 27.08 110.678 27.344 110.678 27.872C110.678 28.048 110.502 28.378 110.15 28.862C109.798 29.324 109.325 29.874 108.731 30.512C108.137 31.15 107.444 31.81 106.652 32.492C105.882 33.152 105.068 33.779 104.21 34.373C103.374 34.945 102.527 35.407 101.669 35.759C100.833 36.133 100.041 36.32 99.2925 36.32ZM122.327 20.777C122.327 21.481 122.107 22.174 121.667 22.856C121.227 23.516 120.644 24.154 119.918 24.77C119.192 25.364 118.389 25.925 117.509 26.453C116.629 26.981 115.749 27.443 114.869 27.839C113.989 28.235 113.186 28.554 112.46 28.796C112.284 29.654 112.196 30.413 112.196 31.073C112.196 31.491 112.295 31.788 112.493 31.964C112.691 32.14 112.999 32.228 113.417 32.228C114.341 32.228 115.32 32.063 116.354 31.733C117.388 31.403 118.444 30.974 119.522 30.446C120.6 29.918 121.634 29.357 122.624 28.763C123.614 28.169 124.516 27.608 125.33 27.08C126.166 26.552 126.859 26.123 127.409 25.793C127.959 25.463 128.322 25.298 128.498 25.298C128.762 25.298 128.96 25.386 129.092 25.562C129.246 25.716 129.323 25.903 129.323 26.123C129.323 26.299 129.048 26.64 128.498 27.146C127.97 27.652 127.255 28.246 126.353 28.928C125.451 29.588 124.439 30.27 123.317 30.974C122.195 31.678 121.029 32.338 119.819 32.954C118.631 33.57 117.476 34.065 116.354 34.439C115.254 34.813 114.264 35 113.384 35C112.24 35 111.349 34.571 110.711 33.713C110.073 32.855 109.754 31.524 109.754 29.72C109.754 28.51 109.908 27.289 110.216 26.057C110.546 24.825 110.986 23.648 111.536 22.526C112.108 21.382 112.735 20.37 113.417 19.49C114.121 18.588 114.858 17.884 115.628 17.378C116.398 16.85 117.146 16.586 117.872 16.586C119.258 16.586 120.347 16.971 121.139 17.741C121.931 18.511 122.327 19.523 122.327 20.777ZM113.153 26.255C113.835 25.837 114.539 25.397 115.265 24.935C115.991 24.473 116.662 24 117.278 23.516C117.894 23.032 118.389 22.526 118.763 21.998C119.159 21.448 119.357 20.887 119.357 20.315C119.357 19.501 118.917 19.094 118.037 19.094C117.487 19.094 116.904 19.446 116.288 20.15C115.694 20.832 115.122 21.723 114.572 22.823C114.022 23.923 113.549 25.067 113.153 26.255ZM131.536 35.726C131.052 35.726 130.678 35.583 130.414 35.297C130.172 35.033 130.051 34.725 130.051 34.373C130.051 34.065 130.183 33.779 130.447 33.515C130.733 33.229 131.118 32.976 131.602 32.756C132.482 32.294 133.307 31.832 134.077 31.37C134.869 30.908 135.507 30.413 135.991 29.885C136.475 29.357 136.717 28.796 136.717 28.202C136.717 27.696 136.552 27.311 136.222 27.047C135.892 26.761 135.441 26.618 134.869 26.618C134.539 26.618 134.077 26.684 133.483 26.816C132.889 26.926 132.24 27.058 131.536 27.212C130.854 27.344 130.183 27.476 129.523 27.608C128.863 27.718 128.302 27.773 127.84 27.773C127.004 27.773 126.377 27.575 125.959 27.179C125.541 26.761 125.332 26.2 125.332 25.496C125.332 25.144 125.541 24.616 125.959 23.912C126.377 23.208 126.927 22.427 127.609 21.569C128.313 20.689 129.083 19.809 129.919 18.929C130.755 18.049 131.602 17.235 132.46 16.487C133.34 15.739 134.154 15.134 134.902 14.672C135.672 14.21 136.31 13.979 136.816 13.979C137.322 13.979 137.707 14.144 137.971 14.474C138.235 14.804 138.367 15.222 138.367 15.728C138.367 16.124 138.301 16.465 138.169 16.751C138.037 17.015 137.762 17.224 137.344 17.378C136.948 17.532 136.332 17.62 135.496 17.642C134.638 18.324 133.725 19.105 132.757 19.985C131.811 20.843 130.942 21.734 130.15 22.658C129.38 23.56 128.819 24.429 128.467 25.265C129.193 25.023 130.073 24.814 131.107 24.638C132.163 24.44 133.23 24.341 134.308 24.341C136.002 24.341 137.256 24.726 138.07 25.496C138.906 26.244 139.324 27.234 139.324 28.466C139.324 29.258 139.071 30.083 138.565 30.941C138.081 31.777 137.443 32.558 136.651 33.284C135.859 34.01 135.012 34.593 134.11 35.033C133.208 35.495 132.35 35.726 131.536 35.726ZM163.241 35.033C162.295 35.033 161.624 34.846 161.228 34.472C160.832 34.098 160.634 33.548 160.634 32.822C160.634 29.17 161.294 25.353 162.614 21.371C163.934 17.367 165.782 13.352 168.158 9.326C168.466 8.82 168.708 8.501 168.884 8.369C169.082 8.237 169.313 8.171 169.577 8.171C169.885 8.171 170.16 8.281 170.402 8.501C170.644 8.721 170.765 9.018 170.765 9.392C170.765 9.59 170.567 10.129 170.171 11.009C169.775 11.867 169.269 12.978 168.653 14.342C168.037 15.706 167.377 17.235 166.673 18.929C165.991 20.601 165.342 22.35 164.726 24.176C164.11 26.002 163.615 27.817 163.241 29.621C163.747 28.873 164.352 28.07 165.056 27.212C165.782 26.354 166.552 25.496 167.366 24.638C168.18 23.78 169.005 22.999 169.841 22.295C170.699 21.591 171.524 21.03 172.316 20.612C173.108 20.194 173.834 19.985 174.494 19.985C175.352 19.985 176.1 20.348 176.738 21.074C177.398 21.778 177.728 22.845 177.728 24.275C177.728 25.485 177.398 26.728 176.738 28.004C176.078 29.258 175.11 30.424 173.834 31.502C172.58 32.558 171.062 33.416 169.28 34.076C167.498 34.714 165.485 35.033 163.241 35.033ZM163.373 32.525C165.199 32.525 166.86 32.217 168.356 31.601C169.852 30.985 171.128 30.204 172.184 29.258C173.262 28.29 174.087 27.289 174.659 26.255C175.253 25.199 175.55 24.242 175.55 23.384C175.55 22.768 175.341 22.46 174.923 22.46C174.417 22.46 173.768 22.702 172.976 23.186C172.184 23.67 171.326 24.308 170.402 25.1C169.5 25.892 168.598 26.75 167.696 27.674C166.794 28.576 165.958 29.456 165.188 30.314C164.44 31.172 163.835 31.909 163.373 32.525ZM184.889 43.481C183.789 43.481 182.777 43.404 181.853 43.25C180.951 43.118 180.06 42.898 179.18 42.59C178.3 42.304 177.343 41.93 176.309 41.468C176.001 41.314 175.726 41.127 175.484 40.907C175.242 40.709 175.121 40.478 175.121 40.214C175.121 39.884 175.33 39.532 175.748 39.158C176.144 38.806 176.518 38.63 176.87 38.63C177.244 38.63 177.706 38.762 178.256 39.026C178.828 39.29 179.488 39.598 180.236 39.95C180.984 40.324 181.809 40.643 182.711 40.907C183.635 41.171 184.625 41.303 185.681 41.303C186.825 41.303 187.903 40.83 188.915 39.884C189.927 38.938 190.752 37.574 191.39 35.792C192.028 34.032 192.347 31.909 192.347 29.423C192.347 28.675 192.325 27.85 192.281 26.948C192.259 26.024 192.215 25.056 192.149 24.044C191.621 25.188 191.027 26.321 190.367 27.443C189.729 28.565 189.058 29.577 188.354 30.479C187.672 31.381 186.957 32.107 186.209 32.657C185.483 33.185 184.746 33.449 183.998 33.449C183.052 33.449 182.37 33.207 181.952 32.723C181.534 32.239 181.325 31.491 181.325 30.479C181.325 29.423 181.402 28.279 181.556 27.047C181.71 25.815 181.908 24.572 182.15 23.318C182.414 22.042 182.722 20.832 183.074 19.688C183.426 18.544 183.8 17.554 184.196 16.718C184.416 16.278 184.746 16.058 185.186 16.058C185.494 16.058 185.791 16.223 186.077 16.553C186.385 16.861 186.539 17.268 186.539 17.774C186.539 18.17 186.451 18.731 186.275 19.457C186.099 20.183 185.879 21.008 185.615 21.932C185.351 22.856 185.087 23.824 184.823 24.836C184.559 25.826 184.339 26.805 184.163 27.773C183.987 28.719 183.899 29.588 183.899 30.38C183.899 30.71 184.119 30.875 184.559 30.875C184.801 30.875 185.142 30.655 185.582 30.215C186.044 29.753 186.55 29.159 187.1 28.433C187.672 27.685 188.244 26.871 188.816 25.991C189.41 25.089 189.982 24.198 190.532 23.318C191.082 22.416 191.555 21.591 191.951 20.843C191.929 20.667 191.918 20.502 191.918 20.348C191.918 20.194 191.918 20.051 191.918 19.919C191.918 18.841 192.028 18.17 192.248 17.906C192.49 17.62 192.798 17.477 193.172 17.477C193.81 17.477 194.261 17.62 194.525 17.906C194.789 18.192 194.921 18.687 194.921 19.391C194.921 19.655 194.888 19.941 194.822 20.249C194.756 20.535 194.646 20.953 194.492 21.503C194.668 23.241 194.811 24.803 194.921 26.189C195.053 27.575 195.119 28.972 195.119 30.38C195.119 33.042 194.69 35.352 193.832 37.31C192.996 39.268 191.808 40.786 190.268 41.864C188.75 42.942 186.957 43.481 184.889 43.481ZM27.512 82.584C26.808 82.584 26.071 82.408 25.301 82.056C24.553 81.726 23.915 81.176 23.387 80.406C22.881 79.614 22.628 78.569 22.628 77.271C22.628 75.753 22.76 74.147 23.024 72.453C23.288 70.759 23.629 69.065 24.047 67.371C24.487 65.655 24.971 64.027 25.499 62.487C26.027 60.947 26.555 59.572 27.083 58.362C27.633 57.152 28.139 56.206 28.601 55.524C29.063 54.82 29.448 54.468 29.756 54.468C30.174 54.468 30.526 54.633 30.812 54.963C31.12 55.293 31.274 55.755 31.274 56.349C31.274 56.591 31.131 57.163 30.845 58.065C30.559 58.945 30.196 60.056 29.756 61.398C29.316 62.74 28.843 64.192 28.337 65.754C27.853 67.316 27.391 68.889 26.951 70.473C26.511 72.057 26.148 73.553 25.862 74.961C25.576 76.369 25.433 77.568 25.433 78.558C25.433 78.844 25.51 79.119 25.664 79.383C25.818 79.625 26.071 79.746 26.423 79.746C26.907 79.746 27.6 79.636 28.502 79.416C29.426 79.196 30.427 78.932 31.505 78.624C32.583 78.294 33.617 77.975 34.607 77.667C35.597 77.359 36.433 77.095 37.115 76.875C37.797 76.655 38.182 76.545 38.27 76.545C38.534 76.545 38.754 76.622 38.93 76.776C39.106 76.908 39.194 77.117 39.194 77.403C39.194 77.755 38.93 78.162 38.402 78.624C37.896 79.086 37.214 79.548 36.356 80.01C35.52 80.472 34.585 80.89 33.551 81.264C32.517 81.66 31.472 81.979 30.416 82.221C29.382 82.463 28.414 82.584 27.512 82.584ZM46.9938 81.33C45.6958 81.33 44.6728 80.835 43.9248 79.845C43.1768 78.855 42.8028 77.568 42.8028 75.984C42.8028 75.412 42.8798 74.807 43.0338 74.169C43.2098 73.509 43.4298 72.915 43.6938 72.387C43.5398 72.233 43.4188 72.024 43.3308 71.76C43.2428 71.474 43.1988 71.122 43.1988 70.704C43.1988 69.406 43.4188 68.218 43.8588 67.14C44.2988 66.062 44.8818 65.127 45.6078 64.335C46.3338 63.521 47.1368 62.894 48.0168 62.454C48.9188 62.014 49.8318 61.794 50.7558 61.794C52.2738 61.794 53.5058 62.344 54.4518 63.444C55.3978 64.522 55.8708 66.172 55.8708 68.394C55.8708 69.56 55.6948 70.748 55.3428 71.958C55.0128 73.168 54.5508 74.334 53.9568 75.456C53.3848 76.578 52.7138 77.579 51.9438 78.459C51.1958 79.339 50.3928 80.043 49.5348 80.571C48.6988 81.077 47.8518 81.33 46.9938 81.33ZM45.8718 71.265C46.0038 71.441 46.0698 71.672 46.0698 71.958C46.0698 72.288 46.0038 72.618 45.8718 72.948C45.7618 73.278 45.6408 73.729 45.5088 74.301C45.3768 74.873 45.3108 75.687 45.3108 76.743C45.3108 77.799 45.7288 78.327 46.5648 78.327C47.4888 78.327 48.3468 77.964 49.1388 77.238C49.9308 76.49 50.6348 75.533 51.2508 74.367C51.8668 73.201 52.3398 71.958 52.6698 70.638C53.0218 69.296 53.1978 68.031 53.1978 66.843C53.1978 66.073 53.0548 65.534 52.7688 65.226C52.4828 64.896 51.9658 64.731 51.2178 64.731C50.4478 64.731 49.6448 64.995 48.8088 65.523C47.9948 66.029 47.3128 66.722 46.7628 67.602C46.2128 68.482 45.9378 69.472 45.9378 70.572C45.9378 70.814 45.9158 71.045 45.8718 71.265ZM85.4404 80.01C85.4184 80.362 85.2754 80.648 85.0114 80.868C84.7474 81.088 84.4394 81.198 84.0874 81.198C83.6914 81.198 83.3614 81.066 83.0974 80.802C82.8334 80.538 82.7014 80.131 82.7014 79.581C82.7014 78.151 82.7674 76.6 82.8994 74.928C83.0314 73.234 83.1964 71.562 83.3944 69.912C83.5924 68.24 83.7904 66.7 83.9884 65.292C83.2624 66.326 82.4704 67.47 81.6124 68.724C80.7764 69.978 79.9184 71.221 79.0384 72.453C78.1584 73.685 77.3004 74.818 76.4644 75.852C75.6284 76.864 74.8694 77.689 74.1874 78.327C73.5054 78.943 72.9444 79.251 72.5044 79.251C71.6904 79.251 70.9864 78.932 70.3924 78.294C69.7984 77.634 69.5014 76.809 69.5014 75.819C69.5014 75.423 69.5454 74.884 69.6334 74.202C69.7214 73.498 69.8204 72.761 69.9304 71.991C70.0404 71.221 70.1394 70.506 70.2274 69.846C70.3154 69.164 70.3594 68.658 70.3594 68.328C70.3594 68.02 70.3264 67.756 70.2604 67.536C70.2164 67.294 70.1064 67.173 69.9304 67.173C69.6664 67.173 69.3034 67.47 68.8414 68.064C68.3794 68.636 67.8624 69.373 67.2904 70.275C66.7404 71.177 66.1684 72.134 65.5744 73.146C65.0024 74.158 64.4634 75.115 63.9574 76.017C63.4514 76.897 63.0224 77.59 62.6704 78.096C62.3844 78.58 62.1204 78.932 61.8784 79.152C61.6364 79.372 61.3394 79.482 60.9874 79.482C60.5694 79.482 60.1844 79.262 59.8324 78.822C59.5024 78.382 59.3374 77.843 59.3374 77.205C59.3374 76.831 59.4034 76.248 59.5354 75.456C59.6674 74.642 59.8324 73.751 60.0304 72.783C60.2504 71.815 60.4594 70.869 60.6574 69.945C60.8774 68.999 61.0644 68.196 61.2184 67.536C61.3944 66.788 61.6144 66.282 61.8784 66.018C62.1424 65.754 62.4284 65.622 62.7364 65.622C63.1544 65.622 63.4844 65.776 63.7264 66.084C63.9904 66.37 64.1224 66.821 64.1224 67.437C64.1224 67.547 64.0564 67.844 63.9244 68.328C63.7924 68.79 63.6274 69.362 63.4294 70.044C63.2534 70.704 63.0554 71.397 62.8354 72.123C62.6374 72.849 62.4724 73.52 62.3404 74.136C62.8244 73.322 63.3304 72.442 63.8584 71.496C64.4084 70.55 64.9584 69.615 65.5084 68.691C66.0584 67.745 66.6084 66.887 67.1584 66.117C67.7084 65.325 68.2474 64.698 68.7754 64.236C69.3034 63.774 69.8094 63.543 70.2934 63.543C70.8654 63.543 71.3934 63.719 71.8774 64.071C72.3834 64.423 72.7904 64.896 73.0984 65.49C73.4064 66.084 73.5604 66.744 73.5604 67.47C73.5604 67.976 73.4724 68.691 73.2964 69.615C73.1204 70.517 72.9334 71.496 72.7354 72.552C72.5594 73.608 72.4494 74.609 72.4054 75.555C72.4054 75.775 72.4714 75.885 72.6034 75.885C72.7134 75.885 72.8454 75.808 72.9994 75.654C73.6374 74.95 74.3414 74.103 75.1114 73.113C75.8814 72.101 76.6624 71.034 77.4544 69.912C78.2684 68.79 79.0714 67.69 79.8634 66.612C80.6554 65.512 81.3924 64.522 82.0744 63.642C82.7784 62.74 83.3944 62.025 83.9224 61.497C84.4724 60.969 84.9014 60.705 85.2094 60.705C85.8694 60.705 86.3754 60.892 86.7274 61.266C87.0794 61.64 87.2554 62.267 87.2554 63.147C87.2554 63.851 87.2004 64.764 87.0904 65.886C87.0024 67.008 86.8814 68.229 86.7274 69.549C86.5954 70.869 86.4414 72.2 86.2654 73.542C86.1114 74.862 85.9574 76.094 85.8034 77.238C85.6494 78.36 85.5284 79.284 85.4404 80.01ZM94.8691 80.373C94.0331 80.373 93.3401 79.988 92.7901 79.218C92.2621 78.426 91.9981 77.403 91.9981 76.149C91.9981 75.049 92.2731 73.993 92.8231 72.981C93.3731 71.947 94.0991 70.957 95.0011 70.011C95.9251 69.065 96.9481 68.196 98.0701 67.404C99.1921 66.59 100.325 65.853 101.469 65.193C102.635 64.533 103.735 63.972 104.769 63.51C105.825 63.048 106.727 62.696 107.475 62.454C108.223 62.19 108.74 62.058 109.026 62.058C109.51 62.058 109.752 62.322 109.752 62.85C109.752 63.312 109.565 63.719 109.191 64.071C108.839 64.423 108.41 64.72 107.904 64.962C106.98 65.424 105.924 65.974 104.736 66.612C103.57 67.228 102.382 67.921 101.172 68.691C99.9841 69.439 98.8731 70.242 97.8391 71.1C96.8271 71.958 96.0131 72.86 95.3971 73.806C94.7811 74.73 94.4731 75.676 94.4731 76.644C94.4731 76.93 94.5281 77.15 94.6381 77.304C94.7701 77.458 94.9901 77.535 95.2981 77.535C95.6941 77.535 96.2001 77.348 96.8161 76.974C97.4541 76.578 98.1471 76.061 98.8951 75.423C99.6651 74.763 100.424 74.037 101.172 73.245C101.942 72.453 102.657 71.65 103.317 70.836C103.977 70 104.516 69.219 104.934 68.493C105.176 68.097 105.451 67.767 105.759 67.503C106.067 67.217 106.397 67.074 106.749 67.074C107.233 67.074 107.475 67.36 107.475 67.932C107.475 68.108 107.409 68.559 107.277 69.285C107.167 70.011 107.046 70.891 106.914 71.925C106.782 72.937 106.716 74.004 106.716 75.126C106.716 77.524 107.288 78.723 108.432 78.723C109.07 78.723 109.73 78.481 110.412 77.997C111.116 77.513 111.798 76.897 112.458 76.149C113.14 75.379 113.767 74.565 114.339 73.707C114.911 72.849 115.395 72.035 115.791 71.265C116.187 70.495 116.462 69.879 116.616 69.417C116.968 66.953 117.463 65.182 118.101 64.104C118.761 63.026 119.432 62.487 120.114 62.487C120.554 62.487 120.906 62.608 121.17 62.85C121.434 63.07 121.566 63.565 121.566 64.335C121.566 64.863 121.357 65.655 120.939 66.711C120.521 67.767 119.96 68.922 119.256 70.176C119.058 71.298 118.948 72.453 118.926 73.641C118.904 74.829 119.025 75.918 119.289 76.908C119.861 76.622 120.433 76.105 121.005 75.357C121.577 74.587 122.16 73.696 122.754 72.684C123.348 71.672 123.931 70.627 124.503 69.549C125.097 68.471 125.68 67.481 126.252 66.579C126.846 65.655 127.418 64.907 127.968 64.335C128.54 63.763 129.101 63.477 129.651 63.477C130.355 63.477 130.938 63.697 131.4 64.137C131.862 64.555 132.214 65.303 132.456 66.381C132.698 67.437 132.819 68.933 132.819 70.869C132.819 71.903 132.918 72.871 133.116 73.773C133.336 74.675 133.677 75.401 134.139 75.951C134.623 76.479 135.239 76.743 135.987 76.743C137.109 76.743 138.11 76.545 138.99 76.149C139.87 75.731 140.629 75.269 141.267 74.763C141.927 74.235 142.477 73.773 142.917 73.377C143.357 72.959 143.698 72.75 143.94 72.75C144.446 72.75 144.699 73.014 144.699 73.542C144.699 73.762 144.534 74.114 144.204 74.598C143.896 75.06 143.456 75.588 142.884 76.182C142.334 76.754 141.696 77.315 140.97 77.865C140.266 78.393 139.507 78.833 138.693 79.185C137.901 79.537 137.098 79.713 136.284 79.713C134.766 79.713 133.523 79.416 132.555 78.822C131.609 78.228 130.905 77.249 130.443 75.885C130.003 74.521 129.783 72.695 129.783 70.407C129.783 69.153 129.739 68.24 129.651 67.668C129.563 67.074 129.343 66.678 128.991 66.48C128.727 66.942 128.375 67.602 127.935 68.46C127.517 69.296 127.033 70.231 126.483 71.265C125.955 72.299 125.383 73.344 124.767 74.4C124.151 75.434 123.524 76.391 122.886 77.271C122.248 78.129 121.61 78.833 120.972 79.383C120.334 79.911 119.729 80.175 119.157 80.175C118.783 80.175 118.398 79.977 118.002 79.581C117.606 79.163 117.276 78.624 117.012 77.964C116.748 77.282 116.616 76.556 116.616 75.786C116.616 75.28 116.627 74.807 116.649 74.367C115.747 75.643 114.801 76.831 113.811 77.931C112.821 79.009 111.831 79.878 110.841 80.538C109.851 81.198 108.927 81.528 108.069 81.528C107.387 81.528 106.749 81.286 106.155 80.802C105.561 80.296 105.077 79.449 104.703 78.261C104.351 77.051 104.153 75.412 104.109 73.344C103.141 74.708 102.118 75.918 101.04 76.974C99.9621 78.03 98.8951 78.866 97.8391 79.482C96.7831 80.076 95.7931 80.373 94.8691 80.373ZM142.982 81.165C142.564 81.165 142.19 81.011 141.86 80.703C141.53 80.373 141.365 79.867 141.365 79.185C141.365 78.701 141.431 78.03 141.563 77.172C141.695 76.292 141.871 75.335 142.091 74.301C142.311 73.267 142.542 72.244 142.784 71.232C143.048 70.198 143.312 69.274 143.576 68.46C143.84 67.646 144.071 67.041 144.269 66.645C144.445 66.337 144.61 66.139 144.764 66.051C144.94 65.963 145.105 65.919 145.259 65.919C145.567 65.919 145.831 66.018 146.051 66.216C146.293 66.414 146.414 66.799 146.414 67.371C146.414 67.701 146.348 68.251 146.216 69.021C146.106 69.769 145.952 70.649 145.754 71.661C145.578 72.651 145.38 73.674 145.16 74.73C144.962 75.764 144.764 76.754 144.566 77.7C144.368 78.646 144.214 79.438 144.104 80.076C144.016 80.428 143.862 80.703 143.642 80.901C143.444 81.077 143.224 81.165 142.982 81.165ZM146.216 62.916C145.71 62.916 145.226 62.762 144.764 62.454C144.324 62.146 144.104 61.651 144.104 60.969C144.104 60.397 144.236 59.935 144.5 59.583C144.786 59.231 145.116 58.978 145.49 58.824C145.886 58.648 146.227 58.56 146.513 58.56C146.799 58.56 147.118 58.626 147.47 58.758C147.844 58.868 148.163 59.088 148.427 59.418C148.691 59.726 148.823 60.188 148.823 60.804C148.823 61.222 148.68 61.596 148.394 61.926C148.108 62.234 147.756 62.476 147.338 62.652C146.942 62.828 146.568 62.916 146.216 62.916ZM163.386 81.363C163.188 81.363 162.792 81.352 162.198 81.33C161.626 81.308 160.944 81.275 160.152 81.231C159.36 81.187 158.535 81.143 157.677 81.099C156.841 81.055 156.049 81.022 155.301 81C154.575 80.978 153.97 80.967 153.486 80.967C152.892 80.967 152.397 80.769 152.001 80.373C151.627 79.977 151.44 79.427 151.44 78.723C151.44 78.261 151.649 77.667 152.067 76.941C152.485 76.215 153.046 75.412 153.75 74.532C154.454 73.63 155.235 72.706 156.093 71.76C156.973 70.814 157.864 69.89 158.766 68.988C159.668 68.086 160.537 67.25 161.373 66.48C162.209 65.71 162.935 65.083 163.551 64.599C162.099 64.775 160.68 65.006 159.294 65.292C157.908 65.556 156.698 65.798 155.664 66.018C154.652 66.238 153.97 66.348 153.618 66.348C153.178 66.348 152.826 66.227 152.562 65.985C152.298 65.721 152.166 65.369 152.166 64.929C152.166 64.687 152.43 64.445 152.958 64.203C153.508 63.961 154.234 63.73 155.136 63.51C156.038 63.29 157.028 63.103 158.106 62.949C159.206 62.773 160.317 62.641 161.439 62.553C162.561 62.465 163.606 62.421 164.574 62.421C165.234 62.421 165.762 62.619 166.158 63.015C166.576 63.411 166.785 63.829 166.785 64.269C166.785 64.445 166.532 64.841 166.026 65.457C165.52 66.073 164.86 66.821 164.046 67.701C163.232 68.581 162.341 69.527 161.373 70.539C160.405 71.551 159.459 72.563 158.535 73.575C157.611 74.565 156.786 75.489 156.06 76.347C155.334 77.183 154.806 77.876 154.476 78.426C155.07 78.404 155.774 78.382 156.588 78.36C157.402 78.338 158.249 78.316 159.129 78.294C160.009 78.25 160.845 78.217 161.637 78.195C162.429 78.151 163.1 78.118 163.65 78.096C164.222 78.074 164.596 78.063 164.772 78.063C165.652 78.063 166.092 78.426 166.092 79.152C166.092 79.702 165.839 80.208 165.333 80.67C164.827 81.132 164.178 81.363 163.386 81.363ZM183.219 66.777C183.219 67.481 182.999 68.174 182.559 68.856C182.119 69.516 181.536 70.154 180.81 70.77C180.084 71.364 179.281 71.925 178.401 72.453C177.521 72.981 176.641 73.443 175.761 73.839C174.881 74.235 174.078 74.554 173.352 74.796C173.176 75.654 173.088 76.413 173.088 77.073C173.088 77.491 173.187 77.788 173.385 77.964C173.583 78.14 173.891 78.228 174.309 78.228C175.233 78.228 176.212 78.063 177.246 77.733C178.28 77.403 179.336 76.974 180.414 76.446C181.492 75.918 182.526 75.357 183.516 74.763C184.506 74.169 185.408 73.608 186.222 73.08C187.058 72.552 187.751 72.123 188.301 71.793C188.851 71.463 189.214 71.298 189.39 71.298C189.654 71.298 189.852 71.386 189.984 71.562C190.138 71.716 190.215 71.903 190.215 72.123C190.215 72.299 189.94 72.64 189.39 73.146C188.862 73.652 188.147 74.246 187.245 74.928C186.343 75.588 185.331 76.27 184.209 76.974C183.087 77.678 181.921 78.338 180.711 78.954C179.523 79.57 178.368 80.065 177.246 80.439C176.146 80.813 175.156 81 174.276 81C173.132 81 172.241 80.571 171.603 79.713C170.965 78.855 170.646 77.524 170.646 75.72C170.646 74.51 170.8 73.289 171.108 72.057C171.438 70.825 171.878 69.648 172.428 68.526C173 67.382 173.627 66.37 174.309 65.49C175.013 64.588 175.75 63.884 176.52 63.378C177.29 62.85 178.038 62.586 178.764 62.586C180.15 62.586 181.239 62.971 182.031 63.741C182.823 64.511 183.219 65.523 183.219 66.777ZM174.045 72.255C174.727 71.837 175.431 71.397 176.157 70.935C176.883 70.473 177.554 70 178.17 69.516C178.786 69.032 179.281 68.526 179.655 67.998C180.051 67.448 180.249 66.887 180.249 66.315C180.249 65.501 179.809 65.094 178.929 65.094C178.379 65.094 177.796 65.446 177.18 66.15C176.586 66.832 176.014 67.723 175.464 68.823C174.914 69.923 174.441 71.067 174.045 72.255ZM201.339 64.401C201.933 62.971 202.494 61.497 203.022 59.979C203.572 58.461 204.067 56.91 204.507 55.326C204.639 54.886 204.837 54.534 205.101 54.27C205.387 53.984 205.717 53.841 206.091 53.841C206.355 53.841 206.575 53.94 206.751 54.138C206.949 54.336 207.048 54.6 207.048 54.93C207.048 55.348 206.883 56.074 206.553 57.108C206.245 58.142 205.849 59.451 205.365 61.035C204.903 62.619 204.43 64.445 203.946 66.513C203.484 68.559 203.088 70.825 202.758 73.311C202.45 75.797 202.296 78.448 202.296 81.264C202.296 81.88 202.164 82.386 201.9 82.782C201.636 83.2 201.317 83.409 200.943 83.409C200.723 83.409 200.514 83.354 200.316 83.244C200.118 83.134 199.942 82.87 199.788 82.452C199.656 82.056 199.546 81.429 199.458 80.571C199.37 79.691 199.326 78.503 199.326 77.007C199.326 75.863 199.392 74.62 199.524 73.278C198.512 75.104 197.412 76.699 196.224 78.063C195.058 79.405 193.925 80.439 192.825 81.165C191.747 81.891 190.823 82.254 190.053 82.254C189.107 82.254 188.337 81.935 187.743 81.297C187.171 80.681 186.885 79.757 186.885 78.525C186.885 77.447 187.138 76.336 187.644 75.192C188.15 74.048 188.821 72.926 189.657 71.826C190.493 70.704 191.417 69.648 192.429 68.658C193.441 67.668 194.453 66.799 195.465 66.051C196.499 65.281 197.456 64.687 198.336 64.269C199.216 63.829 199.931 63.609 200.481 63.609C200.701 63.609 200.899 63.686 201.075 63.84C201.251 63.994 201.339 64.181 201.339 64.401ZM200.91 65.424C200.756 65.578 200.569 65.732 200.349 65.886C200.129 66.04 199.887 66.205 199.623 66.381C198.655 67.063 197.588 67.855 196.422 68.757C195.278 69.637 194.178 70.605 193.122 71.661C192.088 72.695 191.241 73.784 190.581 74.928C189.921 76.072 189.591 77.249 189.591 78.459C189.591 78.987 189.855 79.251 190.383 79.251C191.109 79.251 191.901 78.91 192.759 78.228C193.639 77.524 194.541 76.556 195.465 75.324C196.389 74.07 197.313 72.607 198.237 70.935C199.161 69.241 200.052 67.404 200.91 65.424Z" fill="#FFE700"/>
</g>
<defs>
<clipPath id="clip0_57_784">
<rect width="225" height="150" fill="white"/>
</clipPath>
</defs>
</svg>
