<svg width="300" height="138" viewBox="0 0 300 138" fill="none" xmlns="http://www.w3.org/2000/svg">
<g clip-path="url(#clip0_88_22)">
<path d="M34.688 6.248C34.7733 6.33333 34.8587 6.376 34.944 6.376C35.0293 6.376 35.1573 6.29066 35.328 6.12C35.584 5.94933 35.7973 5.90666 35.968 5.992C36.0533 6.07733 36.1387 6.12 36.224 6.12C36.48 6.376 37.1627 6.80266 38.272 7.4C39.3813 7.912 39.9787 8.21066 40.064 8.296C40.4907 9.23466 40.832 9.74666 41.088 9.832V10.088L40.96 10.344C40.8747 10.4293 40.6187 10.6 40.192 10.856C39.8507 11.112 39.5093 11.368 39.168 11.624L38.656 12.008C38.3147 11.8373 38.144 11.6667 38.144 11.496H37.888C37.8027 11.496 37.6747 11.5387 37.504 11.624C37.3333 11.7093 37.2053 11.752 37.12 11.752C36.864 11.752 36.736 11.7093 36.736 11.624C35.8827 10.7707 35.3707 10.344 35.2 10.344C34.7733 10.344 34.3893 10.0453 34.048 9.448C33.792 8.76533 33.664 8.21066 33.664 7.784C33.664 7.61333 33.7493 7.35733 33.92 7.016C34.0907 6.67466 34.176 6.41866 34.176 6.248C34.2613 6.16267 34.3893 6.12 34.56 6.12L34.688 6.248ZM22.272 30.056C22.272 29.288 22.4853 28.8187 22.912 28.648C23.5093 28.392 24.192 27.6667 24.96 26.472C25.8133 25.192 26.368 24.4667 26.624 24.296C27.2213 24.04 28.032 23.912 29.056 23.912C29.1413 23.912 29.2267 23.9547 29.312 24.04C29.4827 24.8933 29.568 25.4907 29.568 25.832L29.696 25.96C30.208 25.96 30.5493 26.0027 30.72 26.088C30.2933 26.5147 29.6533 27.112 28.8 27.88C27.9467 28.5627 27.3493 29.0747 27.008 29.416C27.008 29.7573 26.88 29.928 26.624 29.928C26.4533 30.0133 26.112 30.056 25.6 30.056L25.344 30.184C25.2587 30.184 25.216 30.2267 25.216 30.312C25.216 30.3973 25.2587 30.5253 25.344 30.696L25.472 30.824C25.472 30.9093 25.4293 30.952 25.344 30.952L24.832 31.08L24.704 31.208L24.832 31.592C24.4053 31.848 24.192 32.0187 24.192 32.104C24.192 32.1893 24.2347 32.2747 24.32 32.36C24.32 32.5307 24.192 32.616 23.936 32.616C23.68 32.616 23.5947 32.744 23.68 33L23.168 33.256V33.768C22.912 33.8533 22.4427 34.4507 21.76 35.56C21.0773 36.584 20.6933 37.2667 20.608 37.608C20.5227 37.6933 20.2667 37.7787 19.84 37.864C19.4987 37.9493 19.328 38.0773 19.328 38.248C19.328 38.3333 19.3707 38.4613 19.456 38.632C16.7253 42.472 15.2747 44.52 15.104 44.776C13.1413 46.3973 11.776 48.4027 11.008 50.792C10.752 51.048 10.368 51.9013 9.856 53.352C7.97867 55.2293 7.04 56.8933 7.04 58.344V58.6V59.368C6.86933 59.368 6.656 59.496 6.4 59.752C6.144 60.008 6.016 60.2213 6.016 60.392C6.016 60.9893 5.71733 61.928 5.12 63.208C4.52267 64.4027 4.224 65.256 4.224 65.768V67.688C4.13867 67.7733 4.05333 67.944 3.968 68.2C3.968 68.456 3.968 68.6267 3.968 68.712C4.05333 68.8827 4.26667 69.5227 4.608 70.632C4.94933 71.8267 5.58933 72.424 6.528 72.424C7.97867 72.424 9.25867 72.1253 10.368 71.528C11.5627 70.9307 13.0133 69.864 14.72 68.328C16.512 66.8773 17.4933 66.0667 17.664 65.896C18.3467 65.64 18.9013 65.3413 19.328 65C19.84 64.5733 20.352 64.104 20.864 63.592C21.4613 63.08 21.9733 62.6533 22.4 62.312C22.912 62.056 24.064 60.9467 25.856 58.984C27.648 56.936 28.5867 55.7413 28.672 55.4C29.0133 54.888 29.7387 54.248 30.848 53.48C32.0427 52.6267 32.8107 52.0293 33.152 51.688C33.2373 51.6027 33.3653 51.3467 33.536 50.92C33.7067 50.4933 33.8773 50.1947 34.048 50.024C34.816 49.768 35.2853 49.512 35.456 49.256C35.8827 48.5733 37.0347 47.2507 38.912 45.288C40.7893 43.24 42.5813 41.3627 44.288 39.656C46.08 37.9493 46.976 37.0107 46.976 36.84L47.744 36.072C47.8293 35.6453 48.7253 34.8347 50.432 33.64L53.12 31.848C54.3147 31.4213 54.9973 31.0373 55.168 30.696H56.32H56.832L57.088 30.824C57.1733 30.824 57.2587 30.7813 57.344 30.696C57.5147 30.6107 57.6427 30.568 57.728 30.568C58.5813 30.568 59.3493 31.8053 60.032 34.28C60.1173 34.6213 59.9467 35.0907 59.52 35.688C59.1787 36.2 59.008 36.584 59.008 36.84C59.008 37.0107 59.008 37.1813 59.008 37.352C59.0933 37.5227 59.136 37.6507 59.136 37.736C59.136 38.9307 58.7093 39.6987 57.856 40.04L57.728 40.68C57.5573 40.7653 57.472 40.8507 57.472 40.936C57.472 41.0213 57.5147 41.1067 57.6 41.192V41.448C57.6 41.96 57.0453 43.0267 55.936 44.648C54.8267 46.184 54.2293 47.2507 54.144 47.848L53.248 48.872C53.1627 48.9573 53.0773 49.0853 52.992 49.256C52.992 49.4267 52.9493 49.64 52.864 49.896C52.864 50.0667 52.864 50.1947 52.864 50.28C52.6933 50.536 52.2667 51.176 51.584 52.2C50.9013 53.1387 50.2613 54.0773 49.664 55.016C49.152 55.8693 48.5547 56.808 47.872 57.832C47.2747 58.856 46.7627 59.7947 46.336 60.648C45.9947 61.416 45.824 61.9707 45.824 62.312C45.824 62.3973 45.824 62.44 45.824 62.44L45.952 62.696C44.8427 62.696 44.288 63.08 44.288 63.848C44.288 64.104 44.4587 64.232 44.8 64.232C45.2267 64.232 45.568 64.0187 45.824 63.592C45.9093 63.4213 46.208 63.1653 46.72 62.824C47.232 62.4827 47.7013 62.1413 48.128 61.8L48.896 61.288C48.896 61.2027 48.896 61.16 48.896 61.16L48.768 60.904C48.768 60.648 49.1093 60.52 49.792 60.52C49.9627 60.4347 50.1333 60.1787 50.304 59.752C50.56 59.3253 50.7307 59.112 50.816 59.112H51.84C52.0107 59.112 52.096 58.984 52.096 58.728L51.968 58.472C51.968 58.1307 52.3947 57.7467 53.248 57.32C54.272 56.3813 56.6187 54.632 60.288 52.072C63.9573 49.512 66.1333 48.232 66.816 48.232C66.9867 48.232 67.3707 48.5307 67.968 49.128C68.6507 49.7253 68.992 50.152 68.992 50.408C68.992 50.5787 68.9493 50.7493 68.864 50.92C68.864 51.0907 68.864 51.2187 68.864 51.304V53.096V54.504C68.864 54.5893 68.9067 54.6747 68.992 54.76C69.0773 54.8453 69.12 54.9307 69.12 55.016C69.12 55.1867 69.0347 55.4427 68.864 55.784C68.7787 56.1253 68.736 56.424 68.736 56.68C68.736 56.7653 68.736 56.8933 68.736 57.064C68.8213 57.1493 68.864 57.2347 68.864 57.32C68.864 57.9173 68.608 58.856 68.096 60.136C67.584 61.3307 67.3707 62.2693 67.456 62.952C67.2 63.208 67.072 63.5067 67.072 63.848C67.072 64.0187 67.072 64.1893 67.072 64.36C67.1573 64.5307 67.2 64.6587 67.2 64.744C67.2 64.8293 67.1573 65 67.072 65.256C66.9867 65.5973 66.9867 65.8533 67.072 66.024C67.072 66.1947 67.1573 66.4933 67.328 66.92C67.584 67.3467 67.712 67.6027 67.712 67.688C67.712 67.7733 67.584 67.944 67.328 68.2C67.072 68.5413 66.944 68.7973 66.944 68.968C66.944 69.224 67.2427 69.5227 67.84 69.864C68.4373 70.2053 68.9067 70.376 69.248 70.376C69.504 70.376 69.8027 70.2907 70.144 70.12C70.5707 69.9493 70.9547 69.736 71.296 69.48C71.7227 69.3093 72.0213 69.1813 72.192 69.096C72.448 68.9253 72.7893 68.6267 73.216 68.2C73.728 67.8587 74.1973 67.56 74.624 67.304C75.136 67.048 75.6053 66.92 76.032 66.92C76.2027 66.7493 76.416 66.408 76.672 65.896C77.0133 65.4693 77.3547 65.128 77.696 64.872C78.0373 64.5307 78.4213 64.36 78.848 64.36C78.9333 64.1893 79.232 64.0187 79.744 63.848C80.3413 63.6773 80.6827 63.464 80.768 63.208C80.6827 63.1227 80.64 63.0373 80.64 62.952C80.64 62.5253 80.768 62.312 81.024 62.312H82.176H82.688C82.944 62.312 83.072 62.2693 83.072 62.184C83.072 62.0987 83.0293 62.0133 82.944 61.928C82.944 61.7573 82.944 61.6293 82.944 61.544V61.288C82.944 61.2027 83.072 61.0747 83.328 60.904C83.6693 60.7333 83.968 60.5627 84.224 60.392L84.736 60.136C84.736 60.0507 84.6933 59.9653 84.608 59.88C84.5227 59.7093 84.48 59.5813 84.48 59.496C84.48 59.4107 84.5227 59.3253 84.608 59.24L84.736 59.112L85.248 58.984C85.504 58.8987 85.6747 58.856 85.76 58.856C85.9307 58.344 86.3147 57.7893 86.912 57.192C87.5947 56.5093 88.192 56.168 88.704 56.168L88.96 56.296C89.1307 56.3813 89.2587 56.424 89.344 56.424C89.6 56.424 89.728 56.3813 89.728 56.296C90.1547 56.296 90.368 56.4667 90.368 56.808C90.368 57.32 90.1547 57.704 89.728 57.96C89.1307 58.8133 88.3627 59.6667 87.424 60.52C86.4853 61.3733 85.4187 62.2693 84.224 63.208C83.0293 64.0613 82.176 64.744 81.664 65.256C81.3227 65.512 80.8107 66.024 80.128 66.792C79.4453 67.56 78.8907 68.1147 78.464 68.456C77.696 68.712 76.3307 69.608 74.368 71.144C72.4907 72.7653 70.8267 73.576 69.376 73.576C69.2907 73.576 69.12 73.5333 68.864 73.448C68.6933 73.448 68.5227 73.448 68.352 73.448C68.0107 73.5333 67.7973 73.6187 67.712 73.704L66.816 72.68C66.6453 72.2533 66.1333 71.656 65.28 70.888C64.4267 70.12 64 69.3947 64 68.712C64 68.6267 64.0853 68.5413 64.256 68.456C64.512 68.3707 64.64 68.2427 64.64 68.072C64.64 67.9013 64.4267 67.4747 64 66.792C63.6587 66.1093 63.488 65.5547 63.488 65.128C63.488 65.0427 63.5307 64.9573 63.616 64.872C63.7013 64.7013 63.744 64.5733 63.744 64.488V64.232L63.616 63.976C63.5307 63.6347 63.872 62.3547 64.64 60.136C64.5547 59.624 64.6827 58.984 65.024 58.216C65.3653 57.3627 65.536 56.7227 65.536 56.296L65.408 55.784C65.4933 55.016 65.536 54.888 65.536 55.4C65.536 53.7787 65.3653 52.968 65.024 52.968C64.1707 52.968 62.72 53.864 60.672 55.656C58.624 57.3627 57.2587 58.1733 56.576 58.088C56.4907 58.1733 56.4053 58.344 56.32 58.6C56.32 58.7707 56.192 58.9413 55.936 59.112C55.8507 59.368 55.2107 59.9227 54.016 60.776C52.8213 61.544 52.096 61.928 51.84 61.928C50.9013 63.0373 50.2187 63.7627 49.792 64.104C49.7067 64.104 48.64 64.9573 46.592 66.664C44.544 68.456 43.4773 69.48 43.392 69.736C43.0507 69.8213 42.368 70.376 41.344 71.4C40.32 72.424 39.552 72.8933 39.04 72.808C38.8693 73.1493 38.3573 73.6187 37.504 74.216C36.736 74.8987 36.1813 75.24 35.84 75.24C35.6693 75.24 35.4987 75.1547 35.328 74.984C34.7307 73.7893 34.432 72.936 34.432 72.424C34.432 72.2533 34.816 71.9547 35.584 71.528C36.352 71.1013 36.7787 70.8453 36.864 70.76V70.248V69.864C36.9493 69.1813 37.504 68.2853 38.528 67.176C39.6373 66.152 40.2347 65.5973 40.32 65.512C40.576 65.0853 41.088 64.1467 41.856 62.696C42.7093 61.16 43.4773 60.0507 44.16 59.368C44.0747 59.112 44.288 58.5147 44.8 57.576C45.3973 56.552 45.824 55.9973 46.08 55.912L46.464 55.016C46.464 54.8453 46.3787 54.6747 46.208 54.504L46.848 53.608C47.2747 53.0107 47.7013 52.3707 48.128 51.688L48.896 50.792C48.896 50.7067 48.8107 50.5787 48.64 50.408C48.5547 50.2373 48.512 50.0667 48.512 49.896L48.896 49.64C48.9813 49.64 49.1093 49.6827 49.28 49.768L49.536 49.896L49.792 49.512V48.744C50.7307 48.1467 51.3707 47.848 51.712 47.848C51.7973 47.848 51.84 47.7627 51.84 47.592C51.84 47.4213 51.7973 47.336 51.712 47.336L50.688 46.696C50.7733 46.5253 51.1147 46.2267 51.712 45.8C52.3093 45.3733 52.608 44.8613 52.608 44.264C52.608 44.1787 52.5653 44.0933 52.48 44.008C52.48 43.8373 52.48 43.7093 52.48 43.624C52.48 43.368 52.6507 43.0693 52.992 42.728C53.3333 42.3867 53.504 42.1733 53.504 42.088C53.504 42.0027 53.4613 41.8747 53.376 41.704C53.376 41.5333 53.376 41.3627 53.376 41.192C53.376 41.1067 53.6747 40.8507 54.272 40.424C54.8693 39.912 55.168 39.4427 55.168 39.016C55.168 38.9307 55.1253 38.8453 55.04 38.76C55.04 38.4187 55.296 37.9067 55.808 37.224C56.32 36.5413 56.576 35.9867 56.576 35.56V35.304L56.448 35.048L56.576 34.92C56.6613 34.8347 56.704 34.7493 56.704 34.664C56.704 33.8107 56.3627 33.384 55.68 33.384C55.3387 33.9813 54.4427 34.5787 52.992 35.176C51.6267 35.7733 50.7733 36.4133 50.432 37.096C50.0053 37.4373 49.152 38.248 47.872 39.528C46.6773 40.808 45.696 41.704 44.928 42.216C44.7573 42.3013 44.6293 42.5147 44.544 42.856C44.544 43.112 44.5013 43.2827 44.416 43.368C44.3307 43.4533 44.1173 43.5387 43.776 43.624C43.4347 43.7093 43.2213 43.7947 43.136 43.88C41.6 46.0133 40.4053 47.4213 39.552 48.104L39.424 48.744C38.9973 49 38.3573 49.5547 37.504 50.408C36.736 51.2613 36.0107 51.7307 35.328 51.816C35.328 51.9013 35.328 51.944 35.328 51.944L35.456 52.2C35.456 52.2853 33.4933 54.4187 29.568 58.6C25.728 62.696 23.552 64.9573 23.04 65.384H22.144C22.0587 65.384 21.8027 65.5973 21.376 66.024C20.9493 66.536 20.6933 66.8773 20.608 67.048C20.352 67.4747 19.8827 67.9013 19.2 68.328L18.048 68.84C17.4507 69.9493 16.5547 70.888 15.36 71.656C14.1653 72.424 12.7147 73.1493 11.008 73.832C9.30133 74.6 8.064 75.1973 7.296 75.624C4.39467 75.624 2.26133 74.216 0.896 71.4C0.725333 70.7173 0.64 70.0347 0.64 69.352V68.968C0.64 68.7973 0.597333 68.5413 0.512 68.2C0.512 67.8587 0.512 67.6453 0.512 67.56C0.768 67.048 0.981333 66.2373 1.152 65.128C1.32267 64.104 1.57867 63.336 1.92 62.824C1.92 61.288 2.34667 60.264 3.2 59.752V58.856C3.2 58.5147 3.41333 58.1307 3.84 57.704C4.26667 57.2773 4.48 56.936 4.48 56.68V55.528C4.48 55.272 4.77867 54.8027 5.376 54.12C6.05867 53.352 6.4 52.7547 6.4 52.328C6.57067 52.072 7.08267 51.432 7.936 50.408C8.87467 49.2987 9.472 48.4027 9.728 47.72L10.496 46.952C10.496 46.184 10.88 45.7147 11.648 45.544C11.648 45.2027 12.288 44.008 13.568 41.96C14.848 39.8267 15.6587 38.7173 16 38.632C15.8293 38.632 15.744 38.504 15.744 38.248C15.744 37.992 16.2133 37.3093 17.152 36.2C18.0907 35.0053 19.1147 33.768 20.224 32.488C21.4187 31.208 22.1013 30.3973 22.272 30.056ZM51.712 34.792H51.84L51.712 34.664V34.792ZM70.912 71.528C70.912 71.6987 70.9973 71.784 71.168 71.784L71.552 71.144L71.168 71.016L70.912 71.528ZM71.552 71.528C71.6373 71.6987 71.7227 71.784 71.808 71.784C71.8933 71.784 71.936 71.6987 71.936 71.528L71.68 71.272C71.5947 71.272 71.552 71.3573 71.552 71.528ZM151.985 13.032C152.497 12.52 153.564 12.008 155.185 11.496C156.892 10.8987 157.958 10.344 158.385 9.832H160.049C160.134 10.0027 160.604 10.2587 161.457 10.6C162.396 10.856 162.865 11.24 162.865 11.752C162.865 11.8373 162.822 11.9653 162.737 12.136C162.737 12.2213 162.737 12.3067 162.737 12.392C162.737 12.5627 162.865 12.9467 163.121 13.544L163.505 14.44V14.696C163.505 14.7813 163.462 14.9093 163.377 15.08C163.377 15.1653 163.377 15.2507 163.377 15.336C163.377 15.5067 163.42 15.6773 163.505 15.848C163.676 16.0187 163.761 16.1893 163.761 16.36L162.993 21.352C162.908 21.6933 162.524 22.5893 161.841 24.04C161.158 25.4053 160.86 26.472 160.945 27.24C160.774 27.752 160.092 28.776 158.897 30.312C157.788 31.7627 157.276 33 157.361 34.024C157.276 34.28 157.062 34.408 156.721 34.408H156.337C156.081 34.664 155.953 34.8773 155.953 35.048V35.304C156.038 35.4747 156.081 35.6027 156.081 35.688V36.2C155.91 36.3707 155.142 37.48 153.777 39.528C152.412 41.4907 151.089 43.4107 149.809 45.288L147.761 48.104L146.737 49.128C145.884 49.9813 145.329 50.8347 145.073 51.688C144.732 52.2 143.836 53.2667 142.385 54.888C140.934 56.424 140.081 57.2347 139.825 57.32C139.228 57.7467 138.417 58.5573 137.393 59.752C136.369 60.8613 135.686 61.5867 135.345 61.928C134.748 62.184 133.724 62.8667 132.273 63.976C130.908 65.0853 130.097 65.896 129.841 66.408C129.585 66.8347 128.774 67.56 127.409 68.584C126.044 69.608 124.721 70.5467 123.441 71.4L121.649 72.68C121.649 73.1067 121.862 73.32 122.289 73.32C122.374 73.32 122.46 73.2773 122.545 73.192C122.716 73.1067 122.844 73.064 122.929 73.064C123.185 73.064 123.569 73.1067 124.081 73.192C124.593 73.3627 124.977 73.448 125.233 73.448C125.489 73.448 125.788 73.3627 126.129 73.192C126.556 73.1067 126.854 73.064 127.025 73.064C127.196 73.064 127.409 73.064 127.665 73.064C127.921 73.1493 128.092 73.192 128.177 73.192C128.348 73.192 128.561 73.1067 128.817 72.936C129.158 72.8507 129.457 72.808 129.713 72.808C129.798 72.808 129.884 72.8507 129.969 72.936C130.14 73.0213 130.268 73.064 130.353 73.064C130.438 73.064 130.566 73.0213 130.737 72.936C130.908 72.8507 131.036 72.808 131.121 72.808L131.505 72.936H132.657L133.169 72.808H134.705C135.046 72.552 135.473 72.424 135.985 72.424C136.326 72.424 136.582 72.5093 136.753 72.68L137.393 72.296H139.697C140.294 71.9547 141.02 71.784 141.873 71.784L142.129 71.912H142.385C142.47 71.912 142.641 71.8267 142.897 71.656C143.153 71.5707 143.409 71.4853 143.665 71.4C143.921 71.3147 144.092 71.272 144.177 71.272H145.713L145.841 71.4H145.969C146.14 71.4 146.268 71.3147 146.353 71.144C146.524 71.0587 146.652 71.016 146.737 71.016H148.273C148.444 71.016 148.742 70.8453 149.169 70.504C149.681 70.248 150.065 70.1627 150.321 70.248C150.833 70.3333 151.046 70.376 150.961 70.376C151.302 70.376 151.772 70.248 152.369 69.992C152.966 69.8213 153.393 69.736 153.649 69.736C153.99 69.736 154.161 70.0347 154.161 70.632C154.161 70.8027 154.033 70.9733 153.777 71.144C153.521 71.3147 153.393 71.4427 153.393 71.528V72.04C153.393 72.296 153.18 72.552 152.753 72.808H151.985C151.302 72.808 150.748 72.8507 150.321 72.936C150.15 72.936 149.852 73.1067 149.425 73.448C148.998 73.7893 148.657 73.96 148.401 73.96L148.529 73.832C148.529 73.7467 148.529 73.6613 148.529 73.576C148.529 73.4907 148.444 73.448 148.273 73.448C147.932 73.448 147.42 73.5333 146.737 73.704C146.14 73.8747 145.67 73.96 145.329 73.96C144.988 73.7893 144.476 73.704 143.793 73.704C143.708 73.704 143.324 73.9173 142.641 74.344C141.958 74.856 141.361 75.112 140.849 75.112C140.764 75.112 140.636 75.0693 140.465 74.984C140.294 74.8987 140.124 74.856 139.953 74.856C139.868 74.856 139.697 74.8987 139.441 74.984C139.185 75.1547 138.972 75.24 138.801 75.24C138.716 75.24 138.588 75.24 138.417 75.24L138.161 75.112C137.734 75.112 137.137 75.1973 136.369 75.368C135.601 75.5387 135.004 75.624 134.577 75.624C134.15 75.88 133.766 76.008 133.425 76.008C133.254 76.008 133.084 75.9653 132.913 75.88C132.742 75.7947 132.614 75.752 132.529 75.752C132.444 75.752 132.273 75.8373 132.017 76.008C131.761 76.264 131.548 76.392 131.377 76.392C131.292 76.392 131.164 76.3067 130.993 76.136C130.822 76.0507 130.694 76.008 130.609 76.008C130.182 76.008 129.329 76.2213 128.049 76.648H127.025C126.769 76.648 126.385 76.6053 125.873 76.52C125.446 76.52 125.148 76.52 124.977 76.52C124.806 76.52 124.55 76.5627 124.209 76.648C123.953 76.8187 123.782 76.904 123.697 76.904H121.905C120.198 76.904 119.046 76.776 118.449 76.52H116.017C115.676 76.52 114.694 76.9893 113.073 77.928C107.27 80.1467 103.9 81.2133 102.961 81.128L102.833 81.384C102.748 81.4693 102.662 81.512 102.577 81.512C102.492 81.512 102.406 81.4693 102.321 81.384C102.236 81.384 102.15 81.384 102.065 81.384C100.785 81.384 100.06 81.4693 99.889 81.64H98.225C97.969 81.5547 97.5423 81.4267 96.945 81.256C96.3477 81.0853 95.8783 80.9573 95.537 80.872C95.1103 80.7867 94.7263 80.5733 94.385 80.232C94.0437 79.976 93.9157 79.592 94.001 79.08C94.001 78.9947 93.9157 78.7813 93.745 78.44C93.489 78.184 93.361 77.8853 93.361 77.544C93.361 76.1787 93.9157 74.728 95.025 73.192C96.1343 71.656 97.3717 70.888 98.737 70.888C98.8223 70.888 98.9503 70.888 99.121 70.888L99.377 71.016C99.4623 71.016 99.5477 70.9733 99.633 70.888L99.889 70.632C99.9743 70.632 100.102 70.6747 100.273 70.76C100.444 70.9307 100.572 71.016 100.657 71.016C100.742 71.016 100.87 70.9733 101.041 70.888L101.297 70.76C101.468 70.76 101.724 70.8027 102.065 70.888C102.321 70.9733 102.492 71.016 102.577 71.016C102.662 71.016 102.79 70.9733 102.961 70.888L103.089 70.76C103.174 70.76 103.302 70.8027 103.473 70.888C103.558 70.9733 103.644 71.016 103.729 71.016L104.369 70.888L104.241 70.76H104.497C104.924 70.76 105.606 70.888 106.545 71.144C107.398 71.4 107.996 71.528 108.337 71.528H109.361C110.3 71.9547 111.537 72.168 113.073 72.168C113.244 72.168 113.414 72.1253 113.585 72.04C113.756 72.04 113.884 72.04 113.969 72.04C114.31 72.3813 114.609 72.552 114.865 72.552C114.95 72.552 115.121 72.5093 115.377 72.424C115.633 72.3387 115.804 72.296 115.889 72.296C115.974 72.296 116.102 72.296 116.273 72.296C116.358 72.3813 116.444 72.424 116.529 72.424C117.212 72.424 117.894 72.2107 118.577 71.784C119.345 71.3573 120.113 70.8027 120.881 70.12C121.649 69.5227 122.246 69.096 122.673 68.84C123.1 68.4133 124.166 67.4747 125.873 66.024C127.58 64.6587 129.116 63.336 130.481 62.056C131.932 60.776 132.742 59.8373 132.913 59.24C134.364 58.5573 135.046 57.9173 134.961 57.32C135.046 57.2347 135.174 57.192 135.345 57.192C135.601 57.1067 135.772 57.0213 135.857 56.936C136.625 55.8267 137.82 54.4613 139.441 52.84C141.062 51.1333 142.129 49.9813 142.641 49.384C143.238 48.7013 144.177 47.3787 145.457 45.416C146.737 43.4533 147.846 42.0453 148.785 41.192C150.236 38.632 151.217 37.1387 151.729 36.712C151.814 35.944 152.284 34.8347 153.137 33.384C154.076 31.848 154.63 30.824 154.801 30.312C155.569 29.6293 156.294 28.1787 156.977 25.96C157.66 23.7413 158.214 22.3333 158.641 21.736C158.726 21.6507 158.769 21.5227 158.769 21.352C158.769 21.2667 158.726 21.1813 158.641 21.096C158.556 20.9253 158.513 20.7973 158.513 20.712C158.513 20.5413 158.598 20.3707 158.769 20.2C158.94 20.0293 159.025 19.9013 159.025 19.816C159.025 19.7307 159.025 19.6027 159.025 19.432L158.897 19.176C158.897 18.92 158.982 18.5787 159.153 18.152C159.409 17.7253 159.537 17.4267 159.537 17.256C159.537 15.8053 159.068 15.08 158.129 15.08C157.276 15.08 156.38 15.2933 155.441 15.72C154.502 16.1467 153.393 16.7867 152.113 17.64C150.918 18.4933 150.15 19.0053 149.809 19.176C149.553 19.432 148.87 20.072 147.761 21.096C146.652 22.12 145.628 23.016 144.689 23.784C143.836 24.4667 143.11 24.936 142.513 25.192C142.513 25.2773 142.556 25.32 142.641 25.32L142.769 25.576C142.769 25.6613 142.556 25.9173 142.129 26.344C141.958 26.6853 141.574 27.24 140.977 28.008C140.465 28.776 139.996 29.5013 139.569 30.184C139.228 30.8667 139.014 31.4213 138.929 31.848C138.673 32.1893 138.332 32.36 137.905 32.36C137.478 32.36 137.265 32.232 137.265 31.976C137.265 31.8907 137.308 31.7627 137.393 31.592C137.478 31.4213 137.521 31.2933 137.521 31.208C137.521 30.8667 137.393 30.4827 137.137 30.056C136.881 29.6293 136.753 29.288 136.753 29.032C136.753 28.6907 136.966 28.3067 137.393 27.88C137.82 27.4533 138.033 27.112 138.033 26.856C138.033 26.7707 137.99 26.6427 137.905 26.472C137.82 26.3013 137.777 26.1307 137.777 25.96C137.777 25.3627 138.246 24.552 139.185 23.528C140.124 22.4187 141.233 21.2667 142.513 20.072C143.793 18.8773 144.561 18.152 144.817 17.896C145.158 17.7253 145.67 17.3413 146.353 16.744C147.036 16.1467 147.633 15.72 148.145 15.464L149.169 14.44C149.51 14.0987 150.449 13.6293 151.985 13.032ZM103.729 74.472L103.473 74.344C103.302 74.344 103.132 74.3867 102.961 74.472C102.79 74.6427 102.662 74.728 102.577 74.728C102.406 74.472 102.193 74.344 101.937 74.344C101.596 74.344 101.382 74.3867 101.297 74.472H99.761C99.505 74.472 99.0783 74.728 98.481 75.24C97.8837 75.752 97.4997 76.008 97.329 76.008H97.201C97.1157 75.9227 97.0303 75.88 96.945 75.88C96.945 76.136 96.9023 76.52 96.817 77.032C96.6463 77.544 96.561 77.928 96.561 78.184C96.561 78.8667 97.8837 79.208 100.529 79.208C100.87 79.208 101.425 79.08 102.193 78.824C102.961 78.568 103.516 78.44 103.857 78.44H104.241C104.412 78.3547 104.668 78.184 105.009 77.928C105.265 77.7573 105.478 77.6293 105.649 77.544C106.246 77.3733 107.057 77.0747 108.081 76.648C109.105 76.3067 109.788 76.0933 110.129 76.008L110.257 75.88V75.624C110.257 75.1973 109.532 74.856 108.081 74.6C107.74 74.6 107.569 74.728 107.569 74.984C105.948 74.984 104.796 74.728 104.113 74.216C103.857 74.216 103.729 74.3013 103.729 74.472ZM96.177 78.824C96.177 78.9093 96.2197 78.9947 96.305 79.08C96.305 78.9947 96.2623 78.9093 96.177 78.824ZM157.57 62.696C157.655 62.6107 157.698 62.3973 157.698 62.056C158.039 59.5813 160.343 55.9547 164.61 51.176C168.877 46.3973 172.546 42.8987 175.618 40.68C175.789 40.5093 175.959 40.2533 176.13 39.912C176.301 39.4853 176.471 39.2293 176.642 39.144C177.069 38.8027 177.922 38.1627 179.202 37.224C180.567 36.2 181.591 35.3467 182.274 34.664C182.53 34.5787 183.682 33.768 185.73 32.232C187.863 30.6107 189.485 29.8 190.594 29.8C191.703 29.8 192.898 30.3973 194.178 31.592C195.458 32.7013 196.098 33.8533 196.098 35.048C196.098 35.1333 196.055 35.2613 195.97 35.432C195.97 35.6027 195.97 35.7307 195.97 35.816L196.098 35.944C196.183 36.0293 196.226 36.1147 196.226 36.2C196.226 36.8827 196.055 37.992 195.714 39.528C195.458 40.9787 195.373 42.088 195.458 42.856C195.458 42.9413 195.33 43.0693 195.074 43.24C194.903 43.4107 194.818 43.5813 194.818 43.752C194.818 43.9227 194.903 44.008 195.074 44.008C195.245 44.008 195.458 43.9653 195.714 43.88C196.055 43.7093 196.269 43.624 196.354 43.624C196.61 43.624 196.951 43.7093 197.378 43.88C197.805 43.9653 198.103 44.008 198.274 44.008C198.615 44.008 198.914 43.88 199.17 43.624H199.554C201.005 43.624 202.626 43.0693 204.418 41.96C206.21 40.7653 208.087 39.272 210.05 37.48C212.098 35.688 213.549 34.536 214.402 34.024C215.682 33.1707 217.687 32.1467 220.418 30.952C223.149 29.672 225.069 28.6907 226.178 28.008C226.349 27.9227 226.605 27.752 226.946 27.496C227.287 27.1547 227.629 26.8987 227.97 26.728C228.397 26.472 228.738 26.3013 228.994 26.216H229.762C231.127 26.216 232.621 26.6 234.242 27.368C235.863 28.136 236.674 29.16 236.674 30.44C236.674 30.6107 236.631 30.7813 236.546 30.952C236.461 31.1227 236.418 31.2933 236.418 31.464C236.418 31.5493 236.461 31.6773 236.546 31.848C236.631 31.9333 236.674 32.0187 236.674 32.104C236.674 32.4453 236.205 33.0853 235.266 34.024C235.181 34.3653 235.01 35.0907 234.754 36.2C234.583 37.3093 234.498 38.248 234.498 39.016C234.498 39.6133 234.285 40.1253 233.858 40.552V41.576L233.602 41.832V43.368C233.517 43.5387 233.303 44.1787 232.962 45.288C232.621 46.3973 232.322 46.9947 232.066 47.08C232.151 48.2747 231.767 49.9813 230.914 52.2L229.89 53.352V54.12C229.89 54.2053 229.762 54.4187 229.506 54.76C229.335 55.1013 229.25 55.3147 229.25 55.4L228.482 56.168C228.141 57.2773 226.733 59.0693 224.258 61.544C223.661 62.9947 221.997 64.4027 219.266 65.768C216.621 67.2187 215.17 68.0293 214.914 68.2C214.061 68.2853 212.781 68.7547 211.074 69.608C209.367 70.4613 208.002 70.888 206.978 70.888C206.893 70.888 206.807 70.888 206.722 70.888L206.466 70.76C206.295 70.76 206.082 70.8027 205.826 70.888C205.655 71.0587 205.527 71.144 205.442 71.144C204.589 71.144 204.077 71.1867 203.906 71.272H203.778C203.693 71.272 203.565 71.1867 203.394 71.016C203.309 70.9307 203.223 70.888 203.138 70.888C202.967 70.888 202.711 70.9307 202.37 71.016C202.114 71.1013 201.943 71.144 201.858 71.144C200.749 71.144 199.042 70.4187 196.738 68.968C194.434 67.5173 193.282 66.2373 193.282 65.128V64.36L193.026 64.232C192.855 64.0613 192.727 63.8907 192.642 63.72L192.514 63.592C192.258 63.336 192.13 62.952 192.13 62.44V62.184C192.215 62.0987 192.258 62.0133 192.258 61.928C192.258 61.672 192.13 61.288 191.874 60.776C191.703 60.264 191.618 59.88 191.618 59.624V59.24L191.874 58.984C192.045 58.8133 192.173 58.2587 192.258 57.32C192.343 56.296 192.429 55.656 192.514 55.4C193.026 53.6933 194.007 52.1147 195.458 50.664C197.335 48.7867 198.274 47.72 198.274 47.464C198.274 47.1227 197.975 46.952 197.378 46.952C197.207 46.952 196.994 47.0373 196.738 47.208C196.567 47.2933 196.439 47.336 196.354 47.336H194.178C193.922 47.336 193.453 47.8053 192.77 48.744C192.087 49.6827 191.746 50.28 191.746 50.536L191.362 52.072C191.277 52.2427 191.063 52.5413 190.722 52.968C190.466 53.3947 190.338 53.736 190.338 53.992C190.253 54.0773 190.125 54.2053 189.954 54.376C189.869 54.4613 189.826 54.5467 189.826 54.632C189.655 54.888 189.186 55.4853 188.418 56.424C187.65 57.3627 186.967 58.216 186.37 58.984C185.773 59.752 185.431 60.3067 185.346 60.648C183.895 62.0987 182.914 62.952 182.402 63.208L181.25 64.36C180.994 64.616 180.525 65 179.842 65.512C179.159 66.024 178.69 66.408 178.434 66.664C177.837 66.8347 176.813 67.3893 175.362 68.328C173.911 69.352 172.589 69.9493 171.394 70.12L169.474 71.016C169.218 71.1013 168.493 71.272 167.298 71.528C166.189 71.8693 165.378 72.04 164.866 72.04C162.562 72.04 161.069 71.528 160.386 70.504L159.234 69.352C159.063 69.1813 158.893 68.9253 158.722 68.584C158.466 68.328 158.253 68.1147 158.082 67.944C158.167 67.6027 158.125 67.1333 157.954 66.536C157.698 66.024 157.57 65.5973 157.57 65.256V62.696ZM195.842 57.448C195.842 57.8747 195.885 58.3013 195.97 58.728C196.141 59.0693 196.226 59.3253 196.226 59.496C196.226 59.6667 196.141 59.8373 195.97 60.008C195.885 60.1787 195.842 60.3067 195.842 60.392C195.842 60.8187 196.013 61.3733 196.354 62.056C196.695 62.7387 196.866 63.2507 196.866 63.592C196.866 63.6773 196.823 63.8053 196.738 63.976V64.104C196.738 64.7013 197.719 65.4267 199.682 66.28C201.645 67.2187 202.967 67.688 203.65 67.688C203.821 67.688 204.119 67.6027 204.546 67.432C204.973 67.3467 205.271 67.304 205.442 67.304C205.527 67.304 205.613 67.3467 205.698 67.432C205.869 67.5173 205.997 67.56 206.082 67.56C206.253 67.56 206.466 67.5173 206.722 67.432C207.063 67.3467 207.319 67.304 207.49 67.304H207.746C208.173 67.1333 208.77 66.9627 209.538 66.792C210.306 66.6213 210.861 66.4933 211.202 66.408C211.458 66.3227 211.799 66.0667 212.226 65.64C212.738 65.2133 213.122 64.9573 213.378 64.872C213.975 64.9573 214.786 64.7867 215.81 64.36C216.834 63.9333 217.602 63.464 218.114 62.952L220.546 60.648C220.973 60.4773 221.399 60.136 221.826 59.624C222.253 59.0267 222.551 58.6427 222.722 58.472C226.562 55.4 228.909 51.0907 229.762 45.544C229.762 45.2027 229.975 44.6053 230.402 43.752C230.829 42.8987 231.042 42.216 231.042 41.704C231.042 41.6187 230.999 41.5333 230.914 41.448C230.914 41.2773 230.914 41.1493 230.914 41.064C230.914 40.808 230.999 40.5093 231.17 40.168C231.341 39.8267 231.426 39.5707 231.426 39.4C231.426 38.632 231.298 38.248 231.042 38.248C230.53 38.248 229.805 38.5467 228.866 39.144C228.013 39.656 227.458 39.912 227.202 39.912L225.538 40.04C225.282 40.04 225.154 40.0827 225.154 40.168C224.813 40.3387 224.599 40.3813 224.514 40.296C224.343 40.296 223.959 40.5093 223.362 40.936C222.765 41.3627 222.21 41.5333 221.698 41.448C221.613 41.448 221.485 41.5333 221.314 41.704C221.229 41.8747 221.143 41.96 221.058 41.96C219.01 42.5573 217.901 42.9413 217.73 43.112C216.621 43.2827 215.938 43.496 215.682 43.752L215.426 43.88C215.341 43.88 215.213 43.88 215.042 43.88C214.957 43.7947 214.871 43.752 214.786 43.752C214.359 43.752 213.634 44.008 212.61 44.52C211.586 44.9467 210.818 45.16 210.306 45.16C210.135 45.16 209.965 45.1173 209.794 45.032C209.709 44.9467 209.623 44.904 209.538 44.904C208.685 44.904 207.831 45.1173 206.978 45.544C206.125 45.8853 205.485 46.184 205.058 46.44C204.717 46.696 204.034 47.2507 203.01 48.104C201.986 48.9573 201.389 49.4267 201.218 49.512L200.578 49.64L200.322 49.768C200.066 50.9627 198.829 53.352 196.61 56.936C196.525 57.0213 196.397 57.1067 196.226 57.192C195.97 57.2773 195.842 57.3627 195.842 57.448ZM162.178 62.824C161.922 63.2507 161.794 63.6773 161.794 64.104C161.794 64.2747 161.794 64.5307 161.794 64.872C161.879 65.2133 161.922 65.512 161.922 65.768C162.007 65.9387 162.221 66.1947 162.562 66.536C162.903 66.8773 163.117 67.2187 163.202 67.56H163.458C163.629 67.56 163.842 67.5173 164.098 67.432C164.354 67.432 164.525 67.432 164.61 67.432C164.781 67.432 164.909 67.56 164.994 67.816C165.165 68.1573 165.293 68.328 165.378 68.328C166.487 68.328 167.981 67.9867 169.858 67.304C171.735 66.7067 172.973 66.0667 173.57 65.384L174.21 65.256C174.551 65.1707 174.722 65.0427 174.722 64.872V64.232H174.85C174.935 64.232 175.106 64.2747 175.362 64.36C175.618 64.36 175.789 64.36 175.874 64.36C176.045 64.36 176.215 64.2747 176.386 64.104C176.557 63.9333 176.727 63.8053 176.898 63.72C177.41 63.2933 178.519 62.44 180.226 61.16C182.018 59.7947 183.298 58.6427 184.066 57.704C184.066 57.6187 184.663 56.7227 185.858 55.016C187.138 53.3093 187.949 52.2427 188.29 51.816L188.546 51.56C188.631 51.56 188.717 51.6027 188.802 51.688C188.887 51.688 189.015 51.688 189.186 51.688C189.186 51.5173 189.015 51.432 188.674 51.432C188.418 51.3467 188.29 51.1333 188.29 50.792V50.664C188.631 50.664 189.015 50.3227 189.442 49.64C189.869 48.9573 190.082 48.4027 190.082 47.976L189.058 47.592C188.375 47.336 187.607 47.08 186.754 46.824C185.986 46.4827 185.474 46.2267 185.218 46.056C183.938 45.288 183.255 44.8187 183.17 44.648C182.914 44.392 182.658 43.7093 182.402 42.6C182.231 41.4907 181.975 40.8507 181.634 40.68C181.293 40.936 180.781 41.2773 180.098 41.704C179.501 42.0453 179.074 42.3013 178.818 42.472L178.306 42.728C178.306 42.8133 178.306 42.8987 178.306 42.984L178.434 43.24C174.594 46.1413 172.546 47.7627 172.29 48.104C172.205 48.2747 171.991 48.488 171.65 48.744C171.394 49 171.223 49.2133 171.138 49.384C171.138 49.5547 169.901 50.92 167.426 53.48C165.037 56.04 163.799 57.96 163.714 59.24C163.373 59.496 163.074 59.7947 162.818 60.136C162.647 60.4773 162.477 60.7333 162.306 60.904C162.306 61.0747 162.263 61.3733 162.178 61.8C162.178 62.2267 162.178 62.568 162.178 62.824ZM211.586 40.296V41.192C211.671 41.192 211.799 41.1493 211.97 41.064C212.141 40.8933 212.269 40.808 212.354 40.808H213.762V40.68C213.762 40.3387 213.89 40.168 214.146 40.168H214.274C214.359 40.2533 214.615 40.296 215.042 40.296C215.298 40.296 215.511 40.2533 215.682 40.168C215.938 40.0827 216.322 39.912 216.834 39.656C217.431 39.3147 217.858 39.144 218.114 39.144H219.138C219.735 39.144 220.589 38.888 221.698 38.376C222.893 37.864 223.746 37.3947 224.258 36.968H225.154C225.325 36.712 225.751 36.4987 226.434 36.328C227.202 36.072 227.714 35.7733 227.97 35.432H228.098L228.226 35.56C228.397 35.56 228.525 35.56 228.61 35.56C228.781 35.56 229.079 35.3467 229.506 34.92C229.933 34.408 230.146 34.0667 230.146 33.896C230.146 33.128 229.847 32.744 229.25 32.744C229.079 32.744 228.909 32.8293 228.738 33C228.567 33.0853 228.439 33.128 228.354 33.128C228.269 33.128 228.141 33.128 227.97 33.128C227.799 33.0427 227.671 33 227.586 33C227.33 33 226.989 33.2133 226.562 33.64C226.221 33.9813 225.965 34.152 225.794 34.152C225.709 34.152 225.581 34.152 225.41 34.152C225.325 34.0667 225.239 34.024 225.154 34.024C224.983 34.024 224.77 34.152 224.514 34.408C224.258 34.5787 224.002 34.664 223.746 34.664C223.405 34.664 223.234 34.5787 223.234 34.408C223.234 34.2373 223.277 34.0667 223.362 33.896C223.533 33.7253 223.618 33.5973 223.618 33.512C223.618 33.4267 223.533 33.384 223.362 33.384C223.277 33.384 223.149 33.4267 222.978 33.512H222.722C222.466 33.6827 221.655 34.152 220.29 34.92C218.925 35.688 218.199 36.072 218.114 36.072C218.029 36.072 217.901 36.072 217.73 36.072C217.645 35.9867 217.559 35.944 217.474 35.944C217.303 35.944 217.175 36.1573 217.09 36.584C217.005 36.9253 216.919 37.1387 216.834 37.224C216.322 37.224 215.853 37.3947 215.426 37.736C214.999 37.992 214.53 38.376 214.018 38.888C213.591 39.3147 213.25 39.6133 212.994 39.784C212.909 39.784 212.738 39.8267 212.482 39.912C212.311 39.912 212.183 39.912 212.098 39.912C212.013 39.912 211.885 39.9547 211.714 40.04C211.629 40.1253 211.586 40.2107 211.586 40.296ZM189.826 36.84C189.57 37.2667 188.845 37.9067 187.65 38.76C186.541 39.6133 185.986 40.552 185.986 41.576C185.986 42.344 187.223 43.1547 189.698 44.008H190.85L190.978 44.136C191.234 44.136 191.362 44.008 191.362 43.752L190.85 42.6V42.472V42.344C190.935 42.2587 191.021 42.1307 191.106 41.96C191.021 41.96 190.978 41.8747 190.978 41.704L190.85 41.448C190.85 41.2773 190.893 41.0213 190.978 40.68C191.149 40.3387 191.234 40.0827 191.234 39.912C191.234 39.7413 191.191 39.528 191.106 39.272C191.021 39.016 190.978 38.8453 190.978 38.76C190.978 38.5893 191.021 38.3333 191.106 37.992C191.191 37.5653 191.234 37.224 191.234 36.968C191.234 36.712 191.063 36.584 190.722 36.584C190.295 36.584 189.997 36.6693 189.826 36.84ZM188.29 54.376C188.119 54.376 188.034 54.4613 188.034 54.632C188.119 54.7173 188.205 54.76 188.29 54.76C188.375 54.76 188.418 54.6747 188.418 54.504C188.418 54.4187 188.375 54.376 188.29 54.376ZM211.842 42.856C211.671 42.856 211.586 42.9413 211.586 43.112C211.757 43.112 211.842 43.0267 211.842 42.856ZM231.81 46.952H231.938H231.81ZM266.507 44.008C266.507 44.264 266.678 44.6907 267.019 45.288C267.36 45.8 267.531 46.2267 267.531 46.568C267.872 46.6533 268.043 47.1227 268.043 47.976C268.043 48.0613 268 48.1893 267.915 48.36C267.915 48.5307 267.915 48.7013 267.915 48.872L267.787 49H267.275L266.379 49.896H266.123L265.739 50.024L265.611 50.28C265.611 50.4507 265.568 50.536 265.483 50.536C265.056 50.536 264.416 50.1093 263.563 49.256C262.795 48.3173 262.24 47.848 261.899 47.848C261.814 47.848 261.643 47.8907 261.387 47.976C261.131 47.976 260.96 47.976 260.875 47.976C260.79 47.976 260.619 47.9333 260.363 47.848C260.192 47.7627 260.064 47.72 259.979 47.72C259.808 47.72 258.059 48.6587 254.731 50.536C251.488 52.4133 249.824 53.48 249.739 53.736H249.611C249.526 53.6507 249.44 53.608 249.355 53.608C249.014 53.608 248.459 53.9493 247.691 54.632C247.008 55.3147 246.454 55.6133 246.027 55.528C245.686 55.9547 245.003 56.3387 243.979 56.68C243.04 57.0213 242.4 57.4053 242.059 57.832C241.547 58.2587 240.566 58.856 239.115 59.624C237.664 60.392 236.47 61.16 235.531 61.928C234.507 62.696 233.824 63.592 233.483 64.616L233.611 64.872V65.128C233.611 65.2133 233.568 65.384 233.483 65.64C233.398 65.896 233.355 66.0667 233.355 66.152V66.408L233.739 67.56C233.824 67.6453 234.038 67.7733 234.379 67.944C234.635 68.2 234.806 68.3707 234.891 68.456L235.147 68.712H235.915C236.086 68.712 236.256 68.84 236.427 69.096C236.512 69.4373 236.598 69.608 236.683 69.608C236.854 69.608 237.238 69.6507 237.835 69.736C238.432 69.9067 238.859 69.992 239.115 69.992C239.2 69.992 239.328 69.9493 239.499 69.864L239.883 69.608C239.968 69.608 240.182 69.736 240.523 69.992C240.864 70.248 241.206 70.376 241.547 70.376C241.718 70.376 241.974 70.3333 242.315 70.248C242.656 70.1627 242.912 70.12 243.083 70.12C243.168 70.12 243.296 70.12 243.467 70.12C243.638 70.2053 243.766 70.248 243.851 70.248C244.022 70.248 244.15 70.2053 244.235 70.12C244.406 70.0347 244.534 69.992 244.619 69.992C244.704 69.992 244.875 69.992 245.131 69.992C245.472 70.0773 245.728 70.12 245.899 70.12C246.155 70.12 246.368 69.992 246.539 69.736C246.624 69.736 246.667 69.7787 246.667 69.864C246.752 70.0347 246.795 70.12 246.795 70.12C246.88 70.2053 247.008 70.248 247.179 70.248C247.35 70.248 247.52 70.2053 247.691 70.12H249.739C249.91 70.12 250.08 70.0347 250.251 69.864C250.422 69.6933 250.592 69.608 250.763 69.608C250.934 69.608 251.104 69.6933 251.275 69.864H252.555C252.726 69.864 252.939 69.7787 253.195 69.608C253.451 69.4373 253.664 69.352 253.835 69.352C254.006 69.352 254.219 69.352 254.475 69.352C254.731 69.4373 254.902 69.48 254.987 69.48C255.584 69.48 257.163 69.0107 259.723 68.072C262.368 67.2187 263.691 66.6213 263.691 66.28V66.152L263.563 66.024C263.563 65.8533 263.648 65.768 263.819 65.768H263.947C264.032 65.8533 264.118 65.896 264.203 65.896H264.459C265.056 65.7253 265.91 65.2987 267.019 64.616C267.19 64.616 267.275 64.4453 267.275 64.104C267.19 64.0187 267.318 63.976 267.659 63.976H268.043C268.128 63.8907 268.512 63.5493 269.195 62.952C269.878 62.3547 270.347 61.9707 270.603 61.8C270.859 61.544 271.243 61.1173 271.755 60.52C272.352 59.9227 272.779 59.4107 273.035 58.984C273.291 58.5573 273.547 58.0453 273.803 57.448C274.059 56.8507 274.187 56.296 274.187 55.784C274.528 55.4427 274.699 54.8027 274.699 53.864V52.2C274.699 51.944 274.571 51.56 274.315 51.048C274.144 50.536 274.059 50.1947 274.059 50.024C274.059 49.9387 274.059 49.8107 274.059 49.64L274.187 49.384C274.187 48.616 273.846 47.6347 273.163 46.44C272.566 45.2453 271.926 44.6907 271.243 44.776C271.158 44.6907 270.902 44.4773 270.475 44.136C270.134 43.7093 269.792 43.368 269.451 43.112C269.195 42.856 268.896 42.728 268.555 42.728C268.299 42.728 267.872 42.8987 267.275 43.24C266.763 43.5813 266.507 43.8373 266.507 44.008ZM270.731 40.808C270.731 41.32 270.902 41.576 271.243 41.576V41.448H271.371V40.808L270.987 40.68C270.816 40.68 270.731 40.7227 270.731 40.808ZM274.699 48.744C274.699 48.8293 274.742 48.872 274.827 48.872H275.467C275.638 48.872 275.723 48.744 275.723 48.488C275.723 48.232 275.467 48.104 274.955 48.104C274.784 48.104 274.699 48.3173 274.699 48.744ZM281.867 7.4C281.782 7.4 281.654 7.4 281.483 7.4C281.312 7.31466 281.184 7.272 281.099 7.272H280.075C279.904 7.272 279.691 7.48533 279.435 7.912C279.264 8.33867 279.051 8.552 278.795 8.552C278.71 8.552 278.582 8.552 278.411 8.552C278.326 8.46666 278.24 8.424 278.155 8.424C278.07 8.424 277.856 8.552 277.515 8.808C277.259 8.97867 277.003 9.064 276.747 9.064C276.662 9.064 276.534 9.064 276.363 9.064C276.192 8.97866 276.064 8.936 275.979 8.936C275.723 8.936 275.168 9.36266 274.315 10.216C273.462 11.0693 272.864 11.5387 272.523 11.624C272.352 11.624 272.096 11.7093 271.755 11.88C271.499 12.0507 271.243 12.264 270.987 12.52C270.816 12.6907 270.688 12.776 270.603 12.776C270.006 12.8613 269.408 13.416 268.811 14.44C268.299 15.464 267.702 15.9333 267.019 15.848V16.488C266.592 16.6587 266.251 17.0853 265.995 17.768C265.739 18.3653 265.483 18.7493 265.227 18.92C265.142 18.92 265.014 18.8347 264.843 18.664C264.672 18.4933 264.544 18.408 264.459 18.408C264.288 18.408 264.203 18.4933 264.203 18.664C264.203 18.8347 264.331 19.0053 264.587 19.176L264.843 19.304C264.843 19.4747 264.374 20.328 263.435 21.864C262.582 23.4 262.155 24.5947 262.155 25.448C262.155 25.704 262.198 25.832 262.283 25.832L262.411 26.088L261.643 28.392C261.643 28.904 261.814 29.7147 262.155 30.824C262.582 31.848 262.795 32.6587 262.795 33.256C262.795 33.3413 262.71 33.512 262.539 33.768L262.411 34.152C262.411 34.408 262.582 34.7493 262.923 35.176C263.35 35.6027 263.563 35.944 263.563 36.2C263.563 36.2853 263.52 36.4133 263.435 36.584C263.435 36.7547 263.435 36.8827 263.435 36.968C263.435 37.224 263.52 37.48 263.691 37.736C263.947 37.992 264.075 38.2053 264.075 38.376L264.203 38.504C264.459 38.504 264.843 38.632 265.355 38.888C265.952 39.144 266.422 39.272 266.763 39.272C266.848 39.3573 266.934 39.4853 267.019 39.656C267.104 39.8267 267.19 39.912 267.275 39.912H267.659C268.512 39.912 270.347 38.6747 273.163 36.2C276.064 33.64 277.814 31.848 278.411 30.824L278.539 30.696H279.307C279.392 30.696 279.904 30.2693 280.843 29.416C281.782 28.4773 282.763 27.5387 283.787 26.6C284.896 25.576 285.579 24.9787 285.835 24.808C287.2 23.6133 288.267 22.248 289.035 20.712L288.907 20.584C288.907 20.4133 288.95 20.328 289.035 20.328C289.12 20.328 289.163 20.328 289.163 20.328C289.248 20.328 289.291 20.2853 289.291 20.2C289.291 19.8587 289.334 19.688 289.419 19.688C289.59 19.6027 289.76 19.56 289.931 19.56C290.102 19.4747 290.272 19.3467 290.443 19.176C291.126 18.4933 292.022 17.1707 293.131 15.208C294.24 13.16 294.795 11.8373 294.795 11.24C294.795 11.1547 294.752 11.0693 294.667 10.984L294.539 10.728C294.539 10.6427 294.539 10.5573 294.539 10.472L294.667 10.216C294.667 10.1307 294.582 10.0027 294.411 9.832C294.411 9.74666 294.411 9.66133 294.411 9.576C294.496 9.40533 294.539 9.27733 294.539 9.192C294.539 9.02133 294.411 8.72266 294.155 8.296C294.155 8.21066 294.198 8.12533 294.283 8.04L294.411 7.912C294.411 7.74133 294.283 7.656 294.027 7.656C293.942 7.656 293.856 7.61333 293.771 7.528L293.003 6.76C292.406 6.76 291.424 6.58933 290.059 6.248C288.694 5.82133 287.67 5.608 286.987 5.608H286.603C286.603 5.352 286.475 5.224 286.219 5.224H286.091C285.92 5.736 285.323 6.248 284.299 6.76C283.275 7.18666 282.464 7.4 281.867 7.4ZM285.963 4.072C286.048 4.15733 286.091 4.15733 286.091 4.072C286.176 3.98666 286.219 3.90133 286.219 3.816C286.219 3.38933 286.006 3.176 285.579 3.176C285.579 3.77333 285.707 4.072 285.963 4.072ZM295.435 13.416C295.435 13.5867 295.563 13.672 295.819 13.672C295.904 13.5867 295.99 13.544 296.075 13.544V13.416C295.99 13.3307 295.904 13.288 295.819 13.288C295.648 13.288 295.563 13.2453 295.563 13.16C295.478 13.2453 295.435 13.3307 295.435 13.416ZM287.883 1.768C288.224 1.85333 288.48 1.896 288.651 1.896C288.822 1.896 289.035 1.81066 289.291 1.64C289.632 1.46933 289.888 1.384 290.059 1.384C290.23 1.384 290.443 1.46933 290.699 1.64C291.04 1.81066 291.296 1.896 291.467 1.896L293.003 2.024C293.174 1.93866 293.302 1.896 293.387 1.896C293.984 1.896 294.923 2.57866 296.203 3.944C297.568 5.224 298.251 6.16267 298.251 6.76L298.123 7.144C298.72 8.33866 299.019 9.36266 299.019 10.216C299.019 10.3013 298.976 10.4293 298.891 10.6L298.763 10.856C298.763 10.9413 298.806 11.0693 298.891 11.24L299.019 11.368C299.019 11.5387 298.891 11.7093 298.635 11.88C298.379 11.9653 298.251 12.0507 298.251 12.136V13.288C298.251 13.8 297.568 15.0373 296.203 17C294.923 18.8773 294.283 20.0293 294.283 20.456C294.198 20.5413 294.027 20.712 293.771 20.968C293.6 21.224 293.43 21.4373 293.259 21.608C293.174 21.7787 293.003 21.9067 292.747 21.992C292.576 22.0773 292.406 22.12 292.235 22.12L292.107 22.248C291.851 23.1013 290.998 24.296 289.547 25.832C288.182 27.368 287.158 28.1787 286.475 28.264C285.878 29.2027 285.323 29.6293 284.811 29.544L284.939 29.672V29.8C284.768 30.056 284.64 30.2693 284.555 30.44C284.47 30.5253 284.384 30.568 284.299 30.568C284.214 30.568 284.086 30.6107 283.915 30.696C283.83 30.696 283.702 30.7813 283.531 30.952L282.507 31.976C282.336 31.976 282.123 32.1893 281.867 32.616C281.611 32.9573 281.398 33.0853 281.227 33C280.032 34.1947 279.264 34.7493 278.923 34.664L278.795 34.792C278.539 35.56 277.728 36.4133 276.363 37.352C274.998 38.2907 274.187 38.888 273.931 39.144C272.395 39.7413 271.627 40.296 271.627 40.808C271.627 40.8933 272.566 42.0453 274.443 44.264C276.32 46.4827 277.259 48.2747 277.259 49.64C277.259 49.7253 277.216 49.8107 277.131 49.896V50.024C277.131 50.1093 277.216 50.1947 277.387 50.28C277.643 50.28 277.771 50.408 277.771 50.664V51.432C278.112 51.7733 278.283 52.072 278.283 52.328C278.283 52.6693 278.155 53.3093 277.899 54.248C277.643 55.1013 277.515 55.7413 277.515 56.168C277.515 56.2533 277.558 56.3813 277.643 56.552V56.808V56.936C277.558 57.0213 277.344 57.064 277.003 57.064C277.088 58.0027 276.918 58.9413 276.491 59.88C276.064 60.7333 275.424 61.5867 274.571 62.44C273.718 63.2933 272.95 64.0187 272.267 64.616C271.67 65.128 270.774 65.768 269.579 66.536C268.47 67.304 267.787 67.816 267.531 68.072C267.36 68.1573 266.891 68.456 266.123 68.968C265.355 69.48 264.843 69.7787 264.587 69.864C263.478 69.9493 262.112 70.504 260.491 71.528C260.15 71.4427 259.68 71.528 259.083 71.784C258.486 72.04 258.059 72.168 257.803 72.168C257.718 72.168 257.59 72.1253 257.419 72.04C257.248 72.04 257.078 72.04 256.907 72.04C256.566 72.04 256.054 72.168 255.371 72.424C254.688 72.7653 254.219 72.936 253.963 72.936H252.811C252.726 72.936 252.598 72.9787 252.427 73.064C252.256 73.2347 252.128 73.32 252.043 73.32C251.958 73.32 251.744 73.2773 251.403 73.192C251.062 73.1067 250.806 73.064 250.635 73.064C250.464 73.064 250.251 73.1493 249.995 73.32C249.824 73.4907 249.696 73.576 249.611 73.576C249.526 73.576 249.398 73.4907 249.227 73.32C249.056 73.2347 248.886 73.192 248.715 73.192C248.459 73.192 248.118 73.2773 247.691 73.448C247.264 73.704 246.966 73.832 246.795 73.832C246.624 73.832 246.326 73.7893 245.899 73.704C245.558 73.6187 245.302 73.576 245.131 73.576C244.96 73.576 244.79 73.6187 244.619 73.704C244.448 73.8747 244.32 73.96 244.235 73.96C244.15 73.96 243.979 73.9173 243.723 73.832C243.467 73.7467 243.296 73.704 243.211 73.704C243.04 73.704 242.784 73.7467 242.443 73.832C242.102 74.0027 241.846 74.088 241.675 74.088C241.59 74.088 241.462 74.0453 241.291 73.96C241.206 73.8747 241.12 73.832 241.035 73.832L240.651 74.216H240.523C240.011 74.216 239.328 74.0027 238.475 73.576C237.536 73.2347 236.854 73.064 236.427 73.064L236.299 73.192C236.214 73.192 236.128 73.192 236.043 73.192C235.787 73.192 235.403 73.0213 234.891 72.68C234.379 72.424 233.995 72.296 233.739 72.296C233.568 72.1253 233.227 71.784 232.715 71.272C232.118 70.76 231.648 70.3333 231.307 69.992C230.966 69.6507 230.624 69.1813 230.283 68.584C229.942 68.072 229.771 67.6027 229.771 67.176V65.768C229.6 65.4267 229.515 65.2133 229.515 65.128C229.515 64.872 229.6 64.6587 229.771 64.488C229.856 64.232 229.984 63.976 230.155 63.72C230.326 63.464 230.454 63.2933 230.539 63.208C231.563 61.5013 232.587 60.264 233.611 59.496C234.55 58.6427 235.872 57.832 237.579 57.064C239.286 56.296 240.694 55.528 241.803 54.76C242.059 54.5893 242.486 54.248 243.083 53.736C243.766 53.1387 244.363 52.6267 244.875 52.2C245.472 51.7733 246.027 51.5173 246.539 51.432C250.123 50.4933 254.859 48.0613 260.747 44.136C261.003 43.88 261.131 43.6667 261.131 43.496C261.131 43.24 261.003 42.856 260.747 42.344C260.491 41.832 260.363 41.448 260.363 41.192C260.363 41.1067 260.406 41.064 260.491 41.064V40.808C260.491 40.552 260.278 40.1253 259.851 39.528C259.51 38.9307 259.339 38.5467 259.339 38.376C259.339 38.2053 259.382 37.9493 259.467 37.608C259.638 37.2667 259.723 37.0107 259.723 36.84C259.723 36.7547 259.68 36.6693 259.595 36.584C259.595 36.4133 259.595 36.2853 259.595 36.2V35.176C259.424 35.0907 259.168 34.664 258.827 33.896C258.486 33.128 258.315 32.616 258.315 32.36C258.315 32.2747 258.358 32.1467 258.443 31.976C258.614 31.8053 258.699 31.6347 258.699 31.464C258.699 31.2933 258.614 31.1227 258.443 30.952C258.358 30.7813 258.315 30.6107 258.315 30.44V29.544C258.23 29.3733 258.23 29.1173 258.315 28.776C258.4 28.4347 258.443 28.2213 258.443 28.136C258.443 27.9653 258.4 27.752 258.315 27.496C258.315 27.24 258.315 27.0693 258.315 26.984C258.315 26.8133 258.4 26.472 258.571 25.96C258.742 25.448 258.784 25.1067 258.699 24.936L258.443 24.552V24.424C258.443 23.2293 258.87 21.736 259.723 19.944C260.576 18.0667 261.43 16.8293 262.283 16.232C262.539 15.72 263.008 15.1227 263.691 14.44C264.374 13.7573 264.8 13.288 264.971 13.032H265.483C265.654 13.032 265.995 12.7333 266.507 12.136C267.104 11.5387 267.446 11.112 267.531 10.856C267.787 10.6 268.47 10.1733 269.579 9.576C270.518 8.12533 272.096 6.84533 274.315 5.736C274.486 5.65066 274.742 5.608 275.083 5.608C275.51 5.52266 275.851 5.39466 276.107 5.224H277.131C278.326 4.456 278.966 3.944 279.051 3.688H279.435C279.606 3.688 279.819 3.73066 280.075 3.816C280.331 3.90133 280.502 3.944 280.587 3.944C280.928 3.944 281.44 3.77333 282.123 3.432C282.806 3.00533 283.36 2.74933 283.787 2.664C284.811 1.98133 286.006 1.64 287.371 1.64C287.456 1.64 287.627 1.68266 287.883 1.768ZM274.699 6.632H274.443V6.376L274.699 6.632ZM268.939 12.776C268.939 12.6053 269.024 12.52 269.195 12.52C269.28 12.52 269.323 12.6053 269.323 12.776C269.323 12.8613 269.28 12.904 269.195 12.904L268.939 12.776ZM262.539 21.224C262.454 21.1387 262.411 21.0533 262.411 20.968L262.667 21.096C262.667 21.1813 262.624 21.224 262.539 21.224ZM278.923 33.256C279.008 33.1707 279.094 33.128 279.179 33.128V33.512C279.008 33.512 278.923 33.4267 278.923 33.256ZM265.611 49.768C265.44 49.768 265.355 49.6827 265.355 49.512L265.611 49.768ZM247.179 51.944C247.179 51.7733 247.307 51.688 247.563 51.688C247.563 51.944 247.478 52.072 247.307 52.072L247.179 51.944ZM275.083 59.368H274.699V59.112C274.784 59.112 274.827 59.1547 274.827 59.24C274.912 59.3253 274.998 59.368 275.083 59.368ZM254.219 70.376C254.219 70.2907 254.304 70.248 254.475 70.248C254.56 70.248 254.603 70.3333 254.603 70.504C254.603 70.5893 254.56 70.632 254.475 70.632C254.304 70.632 254.219 70.5467 254.219 70.376ZM245.515 72.168C245.344 72.0827 245.259 71.912 245.259 71.656C245.515 71.656 245.643 71.7413 245.643 71.912C245.643 72.0827 245.6 72.168 245.515 72.168Z" fill="#FFE700"/>
</g>
<defs>
<clipPath id="clip0_88_22">
<rect width="300" height="138" fill="white"/>
</clipPath>
</defs>
</svg>
