<svg xmlns="http://www.w3.org/2000/svg" width="300" height="121" fill="none"><g clip-path="url(#a)"><path fill="#FFE700" d="m11.85 33.452-.081-.082h.41q.164 0 .738.082h.738a88 88 0 0 1 6.56.082q3.28.083 6.56 0 .574.164 1.066.246.492 0 1.066.082l-.082.082h-.656a.93.93 0 0 0-.656.082q.163.165.574.164.41-.082.656 0l-.164.082q1.968.41 3.198 1.312a9.1 9.1 0 0 1 2.214 2.132q.902 1.23 1.64 2.624a58 58 0 0 0 1.804 2.706v-.082q0-1.64-.984-2.624a6.25 6.25 0 0 1-1.476-2.378q.492.41.738.984.328.492.82.902.163.41.738 1.476.574.984.574 1.64 0 .165-.082.328v.738q.081.41.164.902l.164.82q.081.328.164.328v.656q.081 0 .082.246v.574q.081.329.082.492l-.082.082v.738q.081.492.082.656l.082-.164v.164q0 .574-.082.984l-.164-.082V51l.082.082v.246q0 .656-.164 1.394-.165.656-.164 1.312v.246q.164-.164.164-.246 0-.165.164-.328v.082q0 .656-.164 1.23a6.5 6.5 0 0 0-.082 1.066h.164q0-.246-.082-.328 0-.082.164-.246v.328q0 1.147-.492 2.296a6.1 6.1 0 0 0-.41 2.214q0 .083.082.164v-.328l.164.082v-.246q.082.083.082.246 0 .738-.328 1.722a15 15 0 0 1-.82 1.968 12 12 0 0 1-1.148 1.722q-.575.82-1.148 1.312-.164 0-.164.082l.082.164-.164-.082v.082l-2.05 1.886q-.165.164-.328.246-.164.083-.41.246v-.164q.081 0 .082-.082l.082-.082a.9.9 0 0 0-.492.164q-.165.165-.328.082l-3.444 1.558q-.41.165-1.148.328-.738.165-1.23.164h-.328a1 1 0 0 1-.246-.164h.492-.738a7 7 0 0 0-.738-.082h-.082q-.165 0-.738.082h-.738 1.23l-.164.164h-.984a1.8 1.8 0 0 0-.574-.082h-.082q-.082 0-.082.082l-.082-.164q-.657 0-1.312-.082a4.6 4.6 0 0 0-1.23 0q-.083-.082-.246-.082h-.082l-.328.082h-.656q-.329 0-.656-.164.327.41.984.328.738-.164 1.148.082H15.13l-.082.082h-1.23a3 3 0 0 0-.738-.082h-.738q-.328 0-.738.164h1.886q.491.165.902.164.327 0 .328-.082.327.082.984.082h.492l.328-.082.164.082h1.148q.327.082.656.082l.164.082V91.59l-.164.164h-1.558V89.95l-.082-.082v1.394l-.164.164v-1.148q-.246 0-.246.492.081.492-.082.656v-.82q-.246 0-.246.328.081.328-.082.492 0-.164-.082-.574v-.738h-.082v1.148l-.164.164v-.902l-.164.082v.656q-.083-.165-.164-.164l-.164-.164-.164.656-.082-.082v-1.804l-.164 1.476-.164-1.64h-.082v1.64a4.4 4.4 0 0 1-.246-.902v-.82l-.082-.082q.081.328-.082.328-.165 0-.164.164v1.312q-.082-.083-.082-.164 0-.164-.164-.246v.656q-.165 0-.246-.164v-.328q-.082.164-.082.574a1 1 0 0 1-.164-.574q0-.328-.164-.656v1.066l-.164-.738v1.066a.6.6 0 0 0-.082-.246q-.083-.165-.164-.164v.246q-.165 0-.246.164l-.164.164q.164.164.164.246L12.26 92q-.492-.083-.41-.246.163-.165-.246-.328l-.164.492a2.5 2.5 0 0 0-.164.492l-.164-.082v-1.394l-.164-.164-.082-.082v.41h-.164q0-.246-.082-.328v.41q-.165 0-.246-.246v-.328.656q.081.492-.082.82a1.12 1.12 0 0 1-.082-.738q.164-.492-.082-.738l-.082-.082v1.148q-.165-.328-.164-.492-.082.164-.082.492 0 .246-.246.246l-.164-.082a.9.9 0 0 0-.082.41q-.246 0-.164-.246t-.082-.246H7.587l-.164-.164V67.154l.246-.246q-.246-.246-.246-.328l.082-.164v-.574l-.082-.082.082-.082-.082-.246v-.082q0-.082.164-.082.246 0 .328-.082l-.164-.082.164-.082q-.082-.083-.082-.164-.082 0-.082-.082l.082-.246-.164-.246q-.083-.164.082-.246.246-.083.246-.246h.656l.082-.082-.082-.082q-.246 0-.492.082a1.8 1.8 0 0 1-.574.082q-.247 0-.328-.082.327-.164.656-.164-.411-.41-.738-.41l.164-.082a.6.6 0 0 0 .246-.082q-.165-.165-.246-.082l-.164-.164h.41v-.164h-.328q.327 0 .328-.246l-.164-.082h.492q.082-.083.082-.164h-.574.656q.081 0 .492.082h.902-.41q-.328-.083-.738-.164a2.7 2.7 0 0 0-.656-.082q-.246-.083-.246-.164V42.39a3 3 0 0 1-.164-.41v-.492q0-.165.082-.164.164 0 .164-.246h.164l-.082-.082.082-.082v-.082l-.082-.082q-.083-.082-.164-.082v-1.23l-.246-.164v-.902l.164.082q0-.083.164-.246l-.082-.082.082-.082-.082-.246v-.082q0-.164.246-.246a1.3 1.3 0 0 1 .328-.082q-.165-.082-.574-.082h-.574l.082-.082v-.082l-.082-.082v-.082q.164.165.41.164.163 0 .246-.164 0 .165.164.164.164 0 .164-.164v-.328q-.165 0-.246.082h-.41l.246-.246q.163 0 .246-.082h-.574q.163-.165.246-.164.163 0 .328-.164h-.574l.082-.082q.656 0 1.148-.246h-1.23l-.082-.082.082-.082v-.164h-.328q.245-.246.656-.164.41 0 .738-.164h-.984l1.23-.164h-1.23q-.246 0-.246-.328l.164-.164h-.246.328l.082.082 1.722-.164H7.259q.163-.655.246-.738.081-.082.738-.082h.41q.164.164.164.246h1.148q.41-.083.984-.164H8.98q.41-.082.902-.082a3 3 0 0 1 .984 0l.082-.082h.082l.164.082v-.082q.081.082.246.082t.164-.082q0-.082.246 0m3.773 0q-.082 0-.082-.082t.082-.082.082.082-.082.082m.164 0q-.082 0-.082-.082t.082-.082.082.082-.082.082m.164 0q-.082 0-.082-.082t.082-.082.082.082-.082.082m-4.51.082q-.082 0-.082-.082t.082-.082.082.082-.082.082m.574.082q.082 0 .082-.082t-.082-.082-.082.082.082.082m-.738.082q0-.082-.082-.082v.082zm.246.082q.082 0 .082-.082t-.082-.082-.082.082.082.082m1.066-.082q0-.082-.082-.082v.082zm-3.28.82q.082 0 .082-.082t-.082-.082-.082.082.082.082m-2.46.246h-.082v-.082q.082 0 .082.082m.41.164q.081 0 .082-.082 0-.082-.082-.082t-.082.082.082.082m.41-.082q0-.082-.082-.082t-.082.082zm-.738.164q-.082 0-.082-.082t.082-.082.082.082-.082.082m0 .164-.164-.082h.164zm0 .656-.164-.082h.164zm0 .328-.164-.082h.164zm.902.246q.082 0 .082-.082t-.082-.082-.082.082.082.082m-.902.082-.164-.082h.164zm0 .328q-.164 0-.164-.164.164 0 .164.082zm.656-.082q.082 0 .082-.082t-.082-.082-.082.082.082.082m-.328.41q-.082 0-.082-.082t.082-.082.082.082-.082.082m.41 0q-.082 0-.082-.082t.082-.082.082.082-.082.082m-.328.82q-.082 0-.082-.082t.082-.082.082.082-.082.082m.574 2.87q0-.082-.082-.082v.082zm.164.082q.082 0 .082-.082t-.082-.082-.082.082.082.082m-.246.164q.082 0 .082-.082t-.082-.082-.082.082.082.082m-.082.164q0-.082-.082-.082v.082zm5.658 1.558h.082q0-.082-.082-.082t-.082.082zm.246.246q.082-.083.082-.164 0-.164-.082-.164-.082-.082-.082.164 0 .165.082.164m.328-.164q.082 0 .082-.082t-.082-.082-.082.082.082.082m.246.164q.082-.083.082-.164 0-.164-.082-.164-.082-.082-.082.164 0 .165.082.164m.574-.246q.081 0 .082-.082 0-.082-.082-.082t-.082.082.082.082m0 .164q.081 0 .082-.082 0-.082-.082-.082t-.082.082.082.082m-1.476.164h.164q0-.165-.082-.164zm-4.756.246v-.164h-.082q0 .083.082.164m6.232-.082q.081 0 .082-.082 0-.082-.082-.082t-.082.082.082.082m22.796.328v-.082q0-.164-.082-.246v.082q0 .164.082.246m-29.11 0q.082 0 .082-.082t-.082-.082-.082.082.082.082m10.168 7.954q.081.41.082.656v.656q0 .246-.082.492v.492q0 .328.082.328v3.116q-.165.656-.246 1.64v2.214l.082.082.164-.082v.246l.164-.328v.246l.164-.41v.492l.082-.328.246.738v-.164q0-.165-.082-.164v-.246l.164.082.082-.082h2.214l.082.082 1.148.082a.56.56 0 0 1 .41-.164q.327-.082.492-.082l-.082-.082q.246.082.328-.082a.56.56 0 0 1 .41-.164l.082.082h.082q.164 0 .246-.082.081-.165.246-.164h.246q0-.164.328-.492.41-.41.574-.41l-.164-.082h.41l-.41-.164h.41l-.164-.164h.246l-.246-.082q.163-.082.492-.492.41-.41.41-.574t-.082-.246l.492-.492v-.164l.082.164q.41-.41.574-1.23.246-.82.246-1.722a10 10 0 0 0 0-1.804 16 16 0 0 1-.082-1.312l.082-.164-.082-.082V51l.082-.164-.082-.082-.082-.164.082-.164-.082-.082v-.164l.082-.164q0-.083-.082-.164l-.082-.082v.41q-.164-.164-.164-.246v-.328h.082l.164.082.082-.164v-.082q0-1.805-.902-2.87a5.06 5.06 0 0 0-2.132-1.722 9.6 9.6 0 0 0-2.87-.738 28 28 0 0 0-2.952-.164h-.738q-.328 0-.328.328zm19.516-6.724q-.082 0-.082-.082t.082-.082.082.082-.082.082m-9.594 2.624q.081 0 .082-.082 0-.082-.082-.082t-.082.082.082.082m-.082.246q.081 0 .082-.082 0-.082-.082-.082t-.082.082.082.082m-.246 1.722v-.164l.082.082zm10.086.246q0-.082-.082-.082v.082zm-.082.246h.082q0-.082-.082-.082t-.082.082zm.082.41v-.246h-.082v.082zm.082.656q-.082 0-.082-.164 0-.165.082-.082.246 0 0 .246m-.246-.082q.082 0 .082-.082t-.082-.082-.082.082.082.082m0 .328q.082 0 .082-.082t-.082-.082-.082.082.082.082m0 .246q.082 0 .082-.082t-.082-.082-.082.082.082.082m.492 2.542q-.082 0-.082-.082t.082-.082.082.082-.082.082m-.082.328q-.082 0-.082-.082t.082-.082.082.082-.082.082m-19.926.082q.081 0 .082-.082 0-.082-.082-.082t-.082.082.082.082m19.352.082-.082-.164v.082zm.41.082q-.082 0-.082-.082t.082-.082.082.082-.082.082m-.082.738q-.082 0-.082-.082t.082-.082.082.082-.082.082m-.41 1.394q.081 0 .082-.082 0-.082-.082-.082t-.082.082.082.082m-10.168 1.066q.081 0 .082-.082 0-.082-.082-.082t-.082.082.082.082m-.656 1.066q.081 0 .082-.082 0-.082-.082-.082t-.082.082.082.082m10.906.492q-.082 0-.082-.082t.082-.082.082.082-.082.082m-11.234 0q.081 0 .082-.082 0-.082-.082-.082t-.082.082.082.082m11.07.492q0-.245.082-.41v.164q0 .245-.082.41zm-12.054.41q-.082 0-.082-.082t.082-.082q.081 0 .082.082 0 .082-.082.082m-.082.082q-.082 0-.082-.082t.082-.082q.081 0 .082.082 0 .082-.082.082m11.89.164q.081 0 .082-.082 0-.082-.082-.082t-.082.082.082.082m-.082.164q0-.082-.082-.082zm-.164.164q.082 0 .082-.082t-.082-.082-.082.082.082.082m-17.712.246v-.246h.246q.245 0 .41.164a.6.6 0 0 0-.246.082h-.41m1.066-.164h-.328q.163-.165.328 0m16.728.082q.082 0 .082-.082t-.082-.082-.082.082.082.082m-13.448.082q-.082 0-.082-.082t.082-.082q.081 0 .082.082 0 .082-.082.082m13.366.082q.082 0 .082-.082t-.082-.082-.082.082.082.082m-15.498.082q-.082 0-.082-.082t.082-.082q.081 0 .082.082 0 .082-.082.082m.656 0q-.082 0-.082-.082t.082-.082q.081 0 .082.082 0 .082-.082.082m.328 0q-.082 0-.082-.082t.082-.082.082.082-.082.082m.246 0q-.082 0-.082-.082t.082-.082q.081 0 .082.082 0 .082-.082.082m-.656 0h-.246q0-.082.082-.082.164 0 .164.082m.328 0h-.082v-.082q.081 0 .082.082m.246.082q-.082 0-.082-.082t.082-.082q.081 0 .082.082 0 .082-.082.082m14.268 0q.081 0 .082-.082 0-.082-.082-.082t-.082.082.082.082m-.082.082q.081 0 .082-.082 0-.082-.082-.082t-.082.082.082.082m-15.744.082q.081 0 .082-.082 0-.082-.082-.082t-.082.082.082.082m.328-.082q0-.082-.082-.082t-.082.082zm-2.542.41v-.246h-.082zm-.41 0q.082 0 .082-.082t-.082-.082-.082.082.082.082m-11.562.492q-.082 0-.082-.082t.082-.082q.081 0 .082.082 0 .082-.082.082m1.148 0h.082l-.246-.082H8.16q0 .082.246.082m-.656.574q.082 0 .082-.082t-.082-.082-.082.082.082.082m-.164.656q-.082 0-.082-.082t.082-.082.082.082-.082.082m.574-.082q0-.082-.082-.082t-.082.082zm.164.164q.082 0 .082-.082t-.082-.082-.082.082.082.082m.492.082q.082 0 .082-.082t-.082-.082-.082.082.082.082m-1.394.328q-.082 0-.082-.082t.082-.082.082.082-.082.082m.492.41.082-.082-.082-.082zm.246-.082v-.082h-.082zm-.656.082-.246-.082h.328zm.902-.082q0-.082-.082-.082v.082zm-.492.492h.082v-.082zm-.492.082v-.082h.246zm.164.164h-.082v-.082q.082 0 .082.082m.082.574q.082 0 .082-.082t-.082-.082-.082.082.082.082m.246 0q.082 0 .082-.082t-.082-.082-.082.082.082.082m-.082.492q.082 0 .082-.082t-.082-.082-.082.082.082.082m-.164 0q0-.082-.082-.082v.082zm26.896.492q.081 0 .082-.082 0-.082-.082-.082t-.082.082.082.082m-2.952 2.46h.082q.246-.165.492-.41l.492-.492h-.082l-.328.246-.492.492zm-.082.164q.081 0 .082-.082 0-.082-.082-.082t-.082.082.082.082M13.9 71.254q0-.082-.082-.082t-.082.082zm1.148 0q-.165-.165-.328 0zm.656.082h.082l-.246-.082h-.082q.081.082.246.082m.574 0h.164a.9.9 0 0 0-.41-.082h-.164q.081.082.41.082m-1.64 0q-.082-.082-.328-.082-.165 0-.246.082zm.738 0q0-.082-.082-.082t-.082.082zm9.512.082q.081 0 .082-.082 0-.082-.082-.082t-.082.082.082.082m-1.394.082h-.41q.246-.246.41 0m.164.082q-.082 0-.082-.082t.082-.082q.081 0 .082.082 0 .082-.082.082m-4.756 0h-.164q0-.082.082-.082t.082.082m2.706.164q-.082 0-.082-.082t.082-.082.082.082-.082.082m-10.578.082q.082 0 .082-.082t-.082-.082-.082.082.082.082m.328 0q.082 0 .082-.082t-.082-.082-.082.082.082.082m10.004 0q-.082 0-.082-.082t.082-.082.082.082-.082.082m-10.66.082q.082 0 .082-.082t-.082-.082-.082.082.082.082m.246 0q.081 0 .082-.082 0-.082-.082-.082t-.082.082.082.082m-1.23.574q.082 0 .082-.082t-.082-.082-.082.082.082.082m0 .164q.082 0 .082-.082t-.082-.082-.082.082.082.082m0 .164q.082 0 .082-.082t-.082-.082-.082.082.082.082m0 .164H9.8q0-.082-.082-.082t-.082.082zm0 .246q.082 0 .082-.082t-.082-.082-.082.082.082.082m0 .164q.082 0 .082-.082t-.082-.082-.082.082.082.082m0 .164q.082 0 .082-.082t-.082-.082-.082.082.082.082m0 .164q.082 0 .082-.082t-.082-.082-.082.082.082.082m0 .164q.082 0 .082-.082t-.082-.082-.082.082.082.082m0 .164q.082 0 .082-.082t-.082-.082-.082.082.082.082m0 .164q.082 0 .082-.082t-.082-.082-.082.082.082.082m0 .164q.082 0 .082-.082t-.082-.082-.082.082.082.082m.738 11.972q.082 0 .082-.082t-.082-.082-.082.082.082.082m0 .574h.082q0-.082-.082-.082t-.082.082zm-.328.246q.082 0 .082-.082t-.082-.082-.082.082.082.082m-.246.082q.082 0 .082-.082t-.082-.082-.082.082.082.082m.246.082q.082 0 .082-.082t-.082-.082-.082.082.082.082m.328.246h.082q0-.082-.082-.082t-.082.082zm5.576.902q.081 0 .082-.082 0-.082-.082-.082t-.082.082.082.082m-1.722.656-.082-.41v.164q0 .246.082.246m-4.1.164-.082-.492v.164q0 .328.082.328m4.346.082q.082-.083.082-.164 0-.246-.082-.328zm-3.526-.082q.082 0 .082-.082t-.082-.082-.082.082.082.082m4.1 0v.082l.082.082v-.246zm-4.674.082q.082 0 .082-.082t-.082-.082-.082.082.082.082m3.608.246q.081 0 .082-.082 0-.082-.082-.082t-.082.082.082.082m1.148.164q.082 0 .082-.082t-.082-.082-.082.082.082.082m1.394 0q.082 0 .082-.082t-.082-.082-.082.082.082.082m-6.396.082h.082q0-.082-.082-.082t-.082.082zm.246 0q.082 0 .082-.082t-.082-.082-.082.082.082.082m3.69.164q-.082 0-.082-.082t.082-.082.082.082-.082.082m1.066 0h.082q0-.082-.082-.082t-.082.082zm-5.166.246v-.082l-.082-.164v.082zm.492-.164h.082q0-.082-.082-.082t-.082.082zm6.068 0q.082 0 .082-.082t-.082-.082-.082.082.082.082m-2.46.164v-.164h.082q0 .083-.082.164m-4.182.164q.082 0 .082-.082t-.082-.082-.082.082.082.082m5.248.082q.082 0 .082-.082t-.082-.082-.082.082.082.082m-4.674 0q.082 0 .082-.082t-.082-.082-.082.082.082.082m3.608 0q-.082 0-.082-.082t.082-.082.082.082-.082.082m0 .164q-.082 0-.082-.082t.082-.082.082.082-.082.082m1.066.082q.082 0 .082-.082t-.082-.082-.082.082.082.082m-3.198.246v-.082h-.164q0 .082.164.082m.41.164h.082q0-.082-.082-.082t-.082.082zm-1.558.41q-.082-.082-.082-.246v-.082q.082.083.082.246zm-.246-.082-.082-.082v-.082zm4.1.082q-.082 0-.082-.082t.082-.082.082.082-.082.082m.656-.082h-.082q0-.082.082-.082t.082.082zm-2.214.164q-.082 0-.082-.082t.082-.082.082.082-.082.082m2.788-.082h-.082q0-.082.082-.082t.082.082zm.328.082q-.082 0-.082-.082t.082-.082q.081 0 .082.082 0 .082-.082.082m.328-.082h-.082q0-.082.082-.082t.082.082zm-5.986.164q-.082 0-.082-.082t.082-.082.082.082-.082.082m41.024-57.892q.574-.165 1.148-.41a3.5 3.5 0 0 1 1.23-.246h.082q.083 0 .164.082h.246q-.164.165-.492.164-.245 0-.41.164h.164q.574 0 1.066-.164a4.5 4.5 0 0 1 1.23-.164q.656 0 1.312.246.656.164 1.312.164h.082q-.246-.246-.246-.328v-.082q1.148.656 2.624.902 1.476.165 2.706.82 4.1 2.214 5.822 6.15 1.722 3.854 1.722 8.364v27.552q0 1.394-.246 2.706-.164 1.23-.246 2.624l-.164.164q-.082.246-.41 1.148-.246.82-.328 1.066-.246.656-.492 1.148-.165.492-.328.902-.165.328-.328.328h-.082v-.492q.082-.246.082-.574l-.164-.082-.082.082h-.082q-.165 0-.164-.082.082 0 .082-.164t-.082-.246l-.164.246-.082-.164q-.082.083-.082.246 0 .164.082.164v-.164l.164.246v.082l-.164.328q0 .164.082.246.082.083.082.246 0 .41-.082 1.148t-.41.902l-.082-.082v-.656q-.165.082-.82.82-.575.655-.738.82a13.3 13.3 0 0 1-3.444 1.886 19.2 19.2 0 0 1-3.69.984 7.4 7.4 0 0 0-1.558 0q-.82.082-1.558.082-3.28 0-6.068-1.066t-4.838-2.952q-1.968-1.968-3.116-4.674-1.148-2.788-1.148-6.15V48.458a17 17 0 0 0 .082-1.804q.082-1.065.246-2.132.165-1.148.41-2.132a5.7 5.7 0 0 1 .902-1.722l.082.164.656-1.23.492-.492.82-.984q.41-.574.738-.984.41-.492.41-.574l1.968-1.476h.082v.082l-.328.328h.082q.902-.656 2.214-1.312 1.395-.738 2.542-.738v.082q-.246 0-.492.246l-.082.082zm3.034-.656q0 .082-.082.082v-.164q.082 0 .082.082m.246 0q0 .082-.082.082v-.164q.082 0 .082.082m3.362.082h-.082q0-.082.082-.082t.082.082zm-5.822 0q0 .082-.082.082v-.164q.082 0 .082.082m6.314.082q-.082 0-.082-.082t.082-.082.082.082-.082.082m-6.478 0q0 .082-.082.082v-.164q.082 0 .082.082m-.82.656q.082 0 .082-.082t-.082-.082-.082.082.082.082m-3.444.738.082-.082v.082zm-.082.082q0 .082-.082.082v-.164q.082 0 .082.082m-.246.164.082-.082v.082zm-.492.656q.082 0 .082-.082t-.082-.082-.082.082.082.082m-4.674 4.756q-.082 0-.082-.082t.082-.082.082.082-.082.082m-.082.082q-.082 0-.082-.082t.082-.082.082.082-.082.082m-.082.492q.082 0 .082-.082t-.082-.082-.082.082.082.082m-.082.164q.082 0 .082-.082t-.082-.082-.082.082.082.082m0 .082q0-.082-.082-.082v.164q.082 0 .082-.082m10.742 6.232h-.246q-.083-.082-.246-.082-.246 0-.246.082l.164.082q-.165.41-.328.984-.164.574-.164 1.066v23.452q.082.656.082 1.394.082.656.082 1.312 0 .41-.082.738v.738q0 1.476 1.148 2.952 1.23 1.476 2.788 1.476 1.804 0 2.952-1.558 1.23-1.64 1.23-3.28V49.77q0-.656-.246-1.476a5.8 5.8 0 0 0-.738-1.558 5 5 0 0 0-1.148-1.23 2.4 2.4 0 0 0-1.476-.492h-.082l-1.968.984q-.328.165-.738.82-.329.656-.738.656m-.902-.164q.082 0 .082-.082t-.082-.082-.082.082.082.082m-.164.082h.082q0-.082-.082-.082t-.082.082zm-.164.164q.082 0 .082-.082t-.082-.082-.082.082.082.082m16.646 37.966q0 .083.164.246v-.328l-.082.082v-.246l-.082.082zm-.246.082h.082q0-.082-.082-.082t-.082.082zm-.328.656q.082 0 .082-.082t-.082-.082-.082.082.082.082m.574.082q-.082 0-.082-.082t.082-.082.082.082-.082.082m-.738.82h.082q0-.082-.082-.082t-.082.082zm0 .41h.082q0-.082-.082-.082t-.082.082zm0 .246h.082q0-.082-.082-.082t-.082.082zm-.082.41q.082 0 .082-.082 0-.164-.082-.164t-.082.164q0 .082.082.082m-.082.984v-.082h.082zm7.895-56.498q-.082 0-.082-.082t.082-.082.082.082-.082.082m.574 0q-.083 0-.083-.082t.083-.082.081.082-.081.082m-.575.246q-.081 0-.082-.082 0-.082.083-.082.082 0 .082.082t-.082.082m.575 0q-.083 0-.083-.082t.083-.082.081.082-.081.082m-.575.164q-.081 0-.082-.082 0-.082.083-.082.082 0 .082.082t-.082.082m.41 0q-.082 0-.082-.082t.082-.082.082.082-.081.082m.165 0q-.083 0-.083-.082t.083-.082.081.082-.081.082m-.82.574v-.574l.163.164.083-.082q0 .245.164.41 0-.083.082-.164a1 1 0 0 0 .245-.164q0 .164.247.246.245.082.41.082h.163q.083-.082.246-.082a.6.6 0 0 1 .246.082v-.082l.164.082v-.082q.083 0 .164.082.165 0 .985.082h1.639a2.2 2.2 0 0 1 .492-.082h-.41l.575-.164h1.23q1.311 0 2.541.082 1.312.082 2.707.082h.328q-.083-.165-.328-.082-.166 0-.328-.164h.245q1.969 0 4.593.328 2.623.247 4.51 1.066.164.082.655.41.493.246 1.066.574.575.328 1.067.574t.656.246q.081 0 .081-.082.083.164.41.492.41.246.574.328.083.164.41.574.41.41.574.41h.082q-.081-.165-.164-.164-.082 0-.082-.164v-.082l.082-.082q.083.082.246.328.246.246.41.328 0 .246.164.246h.082q-.246-.41-.738-.738-.41-.41-.492-.82a5.9 5.9 0 0 1 2.05 1.804q.82 1.148 1.312 2.542.575 1.395.902 2.87.329 1.394.41 2.624v2.952q0 1.968-.082 3.444 0 1.394-.164 3.444a8.7 8.7 0 0 0-.328 1.64q0 .738-.246 1.476-.246-.165-.246.164a9.5 9.5 0 0 0-.492 1.64 22 22 0 0 1-.41 1.558v-.656q-.655.329-.328.902l-.984 1.886-.082.082h-.082q0-.082.082-.082 0-.329.164-.492h-.082q-.163.246-.492.82-.246.574-.574.574v.164h-.082v.164h-.164v.082q.082 0 .082.082-.164 0-.164.082h-.082v.164l-.164-.082v.246l-.082-.082v.164q-.163 0-.328.246-.163.165-.328.082l.082.164v.164l-.082.082-.082.082q-.246 0-.246.164h.246q-.41-.083-.41.246 0 .246.164.246-.737.492-1.148.738-.327.246-1.23.246-.328 0-.328-.164-.164-.165-.41-.656a18 18 0 0 0-.328-.738 5 5 0 0 1-.41-.492q-.163-.41 0-.574a2.4 2.4 0 0 1-.246-.328q-.163-.328-.163-.492l-.082-.082.081-.082a1 1 0 0 1-.163-.246q0-.245-.165-.41-.082-.082-.163-.082l.082-.164q-.083-.246-.41-.82a14 14 0 0 0-.575-1.312 5 5 0 0 0-.656-1.312q-.328-.655-.573-.82.163.41.245.902.083.41.493.738l-.083.082 1.148 2.296q.083.246.246.656l.493.82q.245.41.41.82.163.41.081.656a50 50 0 0 0 1.64 3.772q.984 1.968 1.558 3.69l-.082-.082a229 229 0 0 1-.984-1.558 23 23 0 0 1-.82-1.64l-.082.082q0 .574.493 1.312l1.147 1.476q.575.738.984 1.394.493.656.328 1.23.083.328.41 1.312.41.902.574 1.148 0 .246.082.246l2.132 5.002q-.246.492.41 1.066.738.492.902.82l-.328-.246q.082.246.328.492.246.164.246.41a1 1 0 0 1-.246-.164 1 1 0 0 0-.246-.164l-.082.082q.246.328.41.656l.492.656q-.081.41 0 .656.165.246.164.574 0 .165-.082.328l-.164.328q.082 0 .328.328t.246.492q0 .083-.164.246-.082-.083-.082-.164-.082 0-.082-.082h-2.46a6 6 0 0 0-1.066-.246 4.4 4.4 0 0 1-.902-.246v.082q-.41 0-.656-.164l-.328-.328-.082.082h.082q0 .082.082.082v.082q0 .082-.082.082t-.082.082.246.246l-.082.082-.082.082h.082q0 .082.082.082h-.164l-.082.082-.082.082h.082q0 .082.082.082h-.082q-.246 0-.328-.328a2.2 2.2 0 0 1-.081-.492q-.165.082-.165.246 0 .083-.082.164-.163-.164-.246-.492-.081-.328-.245-.328 0 .165.082.41.163.165.163.328 0 .246-.081.328l-.246-.41q0 .328-.246.328-.41 0-.41-.41.081-.41-.328-.41l-.329-.164q0 .165-.163.164-.165 0-.165-.246v.328a.56.56 0 0 1-.41-.164l-.081.082h.082q0 .165.081.164l-.163-.082q0 .328-.164.328h-.083l-.163-.082h-.082v.328a1.3 1.3 0 0 1-.329-.082q-.245-.165-.245-.328-.083.083-.083.164a.6.6 0 0 1-.081.246v.328h-.575l-.246-.246q-.492-.492-1.065-1.558a27 27 0 0 1-.902-2.214q-.411-1.23-.738-2.378a59 59 0 0 1-.492-1.804l-3.035-7.462-.081-.164-1.559-3.936-.164-.164q0-.165-.082-.164h-1.23l-.163.164v19.68q0 .245-.575.41a5 5 0 0 1-.655.082q-.165 0-.493-.164l-.328-.082-.163-.246q-.083 0-.165.082-.081.083 0 .164-.081 0-.163-.082h-.082l-.082.082q-.165 0-.41-.082-.166-.165-.328-.164l-.164.082h-.083q-.081 0-.081-.246 0 .246-.083.246-.081-.082-.164-.082v.082a1 1 0 0 0-.41-.246 1.3 1.3 0 0 1-.328-.246l-.082.082q0 .164.082.246.082 0 .082.164-.245 0-.41-.328l-.082.164q-.163 0-.163-.246a1 1 0 0 1-.41.246.54.54 0 0 0-.246.246q-.083-.083-.083-.164 0-.083-.081-.164-.083.246-.329.246 0-.164-.081-.246-.082.246-.328.246v-.574q-.165.41-.329.41-.081 0-.163-.082a.54.54 0 0 0-.246-.246l-.083.082h.083q0 .246.163.246l-.328-.328q0 .082-.163.328-.165.164-.246.164l-.164-.082h-.083q-.163 0-.245.164-.083.082-.246.082h-.082l-.165-.082-.081.082h-1.805l-.163-.164V67.318l.081-.082h.246q.082 0 .082.082h.329q.081-.082.163-.082-.08-.165-.328-.164-.245 0-.328-.082h.902-.327l.163-.164-.738-.164q0-.082.082-.082 0-.164-.163-.246-.083-.083-.083-.246 0-.246.246-.328l-.492-.164q-.163 0-.163-.164v-.328q0-.164.082-.246.163.082.163-.164.083-.245.246-.41h-.245q-.165-.082-.164-.246l.163-.164q-.245.082-.246-.164 0-.164.165-.246-.165 0-.165-.164t.247-.246q-.329 0-.328-.164 0-.165.163-.164a1.3 1.3 0 0 1 .328-.082h-.328q-.163 0-.163-.164 0-.082.163-.082l.328-.164q-.327 0-.492-.164.082-.082.246-.082.247-.082.41-.082-.41 0-.656-.246 0-.165.329-.164V42.8q0-.329.082-.492v-.164q0 .082.081.082v-.164q.083 0-.082-.082.083-.083.41-.164.41-.082.41-.246-.164 0-.41-.082-.163-.082-.163-.246 0-.082.082-.082l.081-.164.165-.082h-.329v-.164h.082l.165-.082.163-.082h-.492q0-.083.082-.164l.082-.082h.165a1 1 0 0 1-.247-.164q0-.165-.164-.328.165 0 .246.082h.493-.328q-.165 0-.165-.082l-.082-.082-.082-.082h.575a.7.7 0 0 0-.329-.082l-.163-.164.41-.164h-.328v-.246h.328l-.575-.328.739-.164q-.41 0-.739-.164.165 0 .492-.082.41-.083.575-.246h-1.067q.411 0 .902-.246l-.163-.164-.082.082q-.165-.246-.41-.246-.165 0-.247-.164h.575v-.246h-.657q0-.082.082-.082h.492l.083-.246h-.575a.6.6 0 0 0 .246-.082q.165 0 .329-.164v-.082l-.082-.082h-.082q0-.082.081-.082 0-.082.083-.082-.082-.165-.328-.082-.247.082-.247-.328l.328-.328v-.082H74.3l-.165.082h-.082v-.082l.329-.246v-.082h-.329a.56.56 0 0 1 .41-.164q.329-.083.493-.246h-.493l-.328.082h-.082q.165-.328.82-.246.657 0 .902-.41h-.163q-.329 0-.575.164a1.8 1.8 0 0 1-.574.082h-.081q.328-.164.655-.246.33-.083.738-.246h-.163q-.33 0-.656.164a1.8 1.8 0 0 1-.575.082q-.41 0-.41-.164 0-.246.246-.246h.903zm11.151-.328q-.081 0-.081-.082t.081-.082.083.082-.083.082m.493 0q-.083 0-.083-.082t.082-.082.082.082-.082.082m-8.856.082h-.082q0-.082.082-.082zm.163 0h-.082q0-.082.082-.082zm8.364 0q-.081 0-.081-.082t.081-.082.083.082-.082.082m.165 0q-.082 0-.082-.082t.082-.082.081.082-.082.082m-8.856.164q-.246 0-.246-.164h.246zm.492-.082q-.082 0-.082-.082t.081-.082q.083 0 .083.082t-.083.082m.163 0q-.081 0-.081-.082t.081-.082.083.082-.082.082m9.267.082q.081 0 .081-.082t-.081-.082-.083.082.082.082m.245 0h.083l-.164-.082q0 .082.081.082m-7.133.082q.082 0 .082-.082t-.082-.082-.082.082.081.082m7.38 0q.081 0 .082-.082 0-.082-.082-.082t-.082.082.082.082m-12.3 0h-.082q-.083.082 0 .082.081 0 .081-.082m.246.082q.081 0 .081-.082t-.081-.082-.083.082.083.082m.163 0q.082 0 .082-.082t-.081-.082-.082.082.082.082m6.233 0q.327 0 .492-.082h-1.148q.245.082.656.082m-5.986.082q.08 0 .41.082h1.722a8 8 0 0 1 1.148-.082l-.329-.082h-2.951zm5.165-.082h-1.803q-.082 0 .163.082h1.394q.33-.082.246-.082m1.559.082q.082 0 .082-.082t-.082-.082-.082.082.082.082m.902-.082h-.246q-.083.082.082.082.163 0 .163-.082m-8.282.246q.081 0 .082-.082 0-.082-.083-.082-.081 0-.081.082t.081.082m7.954.082h.737l-.82-.082zm-5.003.082h-.738q-.164.082.328.082.493 0 .41-.082m-4.674.164q-.082 0-.082-.082t.082-.082.082.082-.082.082m1.477.082q.081 0 .081-.082t-.082-.082q-.081 0-.081.082t.082.082m.245 0q.083 0 .083-.082t-.083-.082-.081.082.081.082m-.327 0h-.082q-.082.082 0 .082t.082-.082m9.758 0h-.493q-.082.082.165.082.328 0 .328-.082m-10.169.082h-.081q-.083.082 0 .082.081 0 .081-.082m5.823.246.082.082q.573 0 1.066-.082a8 8 0 0 1 1.148-.082q.163 0 .328.082h.82l.081-.082h-.902q0-.083-.246-.164h-.081q-.492 0-1.148.082-.656 0-1.148.164m3.853.082h1.23q-.328-.082-.901-.082h-.493zm-4.181.082q.082 0 .082-.082t-.083-.082q-.081 0-.081.082t.081.082m-6.15.164h.081v-.082zm.081.41q.083 0 .083-.082t-.082-.082-.082.082.081.082m-.163.328q.081 0 .082-.082 0-.082-.083-.082-.081 0-.081.082t.081.082m-.165.082q.082 0 .082-.082t-.082-.082-.082.082.082.082m.082.492q-.082 0-.082-.082t.082-.082.082.082-.081.082m25.174 0q-.081 0-.082-.082 0-.082.082-.082t.082.082-.082.082m.164.082q-.081 0-.081-.082t.081-.082.083.082-.083.082m.41.492-.246-.246q-.082 0 .083.164.163.165.163.082m.328.246-.082-.082q-.082.083-.082.164.083 0 .164-.082m.41 0q-.082 0-.082-.082t.082-.082.082.082-.082.082m.246.328-.082-.082q-.081.083-.082.164.083 0 .164-.082m-26.485.164q0 .082-.246.082-.248 0-.165-.082zm26.649.082q.082 0 .082-.082t-.082-.082-.082.082.082.082m1.558 1.148q.082 0 .082-.082t-.082-.082q-.081 0-.082.082 0 .082.082.082m-28.617.574q0 .082-.083.082-.081 0 0-.082zm.41.656h-.082q-.083.082 0 .082.081 0 .081-.082m-.246 1.886v-.082q-.083 0-.083.082zm.163 0v-.082q-.082 0-.082.082zm10.579 1.886q-.165 0-.41.164-.247.082-.246.328.08 0 .41.082.41 0 .41.164V60.84q-.411.083-1.23.164-.821.083-1.312 0l.082.164a3.5 3.5 0 0 1 .573-.082h.493q.9 0 1.803.082t1.804.082h.082q.082-.082.165-.082l.081.082.083.082q0-.246.163-.246h.082q0 .245.246.41-.082 0-.082-.328h-.081q0-.082.082-.082 0-.082.081-.082.164 0 .164.246.082.165.247.164v-.41q.081.246.246.164.163-.082.328.082l-.083-.164q.246.082.246-.164h.165q0-.082.163.082.082-.165 0-.082v-.164q.165 0 .082-.082 0-.082.329.246v-.082q-.083 0-.083-.246 0-.082.083-.082h.081q0 .328.329.328 1.394 0 2.213-.902a6 6 0 0 0 1.313-2.296q.41-1.395.492-2.788.163-1.476.163-2.378 0-.492-.163-.984a3.4 3.4 0 0 1-.165-1.066q0-.083.082-.164 0 .082.164.082.082 0 .082-.246a.7.7 0 0 0-.082-.328.7.7 0 0 1-.082-.328q0-.082.082-.082.246.41.328.492v-.082q-.081 0-.245-.41a3.5 3.5 0 0 1-.083-.574q-.246 0-.492-.82-.245-.82-.41-1.148-.164-.082-.41-.41a4 4 0 0 1-.328-.492q.082 0 .082-.082-.081-.083-.082-.164l-.082-.082-2.132-1.148v.082q-.164-.246-.491-.164-.329 0-.328-.328l-.083.082h-.246q0-.082-.081-.082h-2.871a6 6 0 0 0-1.721-.246zm1.803-.082a.6.6 0 0 0 .246-.082h-.492q.083.082.246.082m.492 0-.081-.082q-.082.083-.082.164.081 0 .163-.082m-2.706 0h-.081q-.083.082 0 .082.081 0 .081-.082m.657 0q0 .082-.083.082-.081 0 0-.082zm.245.164q-.081 0-.081-.082t.081-.082.083.082-.082.082m-1.23 0h-.163q-.082.082 0 .082.163 0 .163-.082m.328 0h-.163q-.083.082 0 .082.163 0 .163-.082m.247.082q-.082 0-.082-.082t.082-.082.082.082-.082.082m5.412.164q.082 0 .082-.082t-.082-.082-.082.082.081.082m-6.15.164q.163 0 .163-.164-.163 0-.163.164m8.774 1.066q.082 0 .082-.082t-.082-.082-.082.082.082.082m1.968 2.87v-.082q0-.246-.246-.656a2.9 2.9 0 0 0-.493-.902 3.1 3.1 0 0 0-.573-.82q-.247-.41-.493-.492l-.082.082q0 .082.246.574.247.41.493.902.327.492.656.902.327.41.492.492m.163.164v-.082q-.081 0-.081.082zm-.573.164h-.082q0-.082.082-.082zm.163.492q-.081 0-.082-.246h-.082q0-.082.082-.082v.164q.082 0 .082.082zm-.082.902q-.081 0-.082-.082 0-.082.082-.082t.082.082-.082.082m.492.082q.083 0 .083-.082t-.082-.082-.082.082.081.082m-.328.492q.082 0 .082-.082t-.082-.082q-.081 0-.082.082 0 .082.082.082m.492 1.148q.083 0 .083-.082t-.082-.082-.082.082.082.082m9.922 8.282q-.081 0-.082-.082 0-.082.082-.082t.082.082-.082.082m-12.135.574q-.165-.164-.165-.246 0 .246.165.246m.081.246q.082 0 .082-.082t-.082-.082q-.081 0-.082.082 0 .082.082.082m-11.644.164h-.328q-.081.082.082.082.246 0 .246-.082m.165.082q.081 0 .081-.082t-.081-.082-.083.082.083.082m.573 0 .41-.082h-.492zm-.163.082q.081 0 .081-.082t-.082-.082q-.081 0-.082.082 0 .082.082.082m5.903.328v-.082q-.081 0-.081.082zm.903 0q.082 0 .082-.082t-.082-.082-.082.082.082.082m-.82.246q.081 0 .082-.082 0-.082-.082-.082t-.082.082.082.082m-13.612.082q.081 0 .082-.082 0-.082-.083-.082-.081 0-.081.082t.081.082m29.929 0q.082 0 .082-.082t-.082-.082-.082.082.082.082m-.328.574h.082a.55.55 0 0 0 .164-.41v-.164a.79.79 0 0 0-.246.574m0 1.23q-.081.082-.082-.082 0-.246.082-.246zm-9.675-.082q-.082 0-.082-.082t.081-.082q.083 0 .083.082t-.082.082m.082.164q-.082 0-.082-.082t.082-.082.082.082-.082.082m9.511.082h-.082q0-.082.082-.082zm-9.43.082q-.081 0-.081-.082t.082-.082q.081 0 .081.082t-.082.082m8.282.246v-.082q-.081 0-.082.082zm-8.035.164q-.082 0-.082-.082t.081-.082.082.082-.082.082m7.953 0v-.082q-.081 0-.082.082zm-28.864.082h-.081q0-.082.081-.082zm20.993.082q-.083 0-.083-.082t.082-.082.082.082-.081.082m7.789 0v-.082q-.081 0-.082.082zm.41 0q.082 0 .082-.082t-.082-.082-.082.082.082.082m-28.864.082h-.082q-.081.082 0 .082.082 0 .082-.082m20.746.082q-.081 0-.081-.082t.081-.082.083.082-.083.082m8.036 0q.082 0 .082-.082t-.082-.082-.082.082.082.082m-.328.082q.082 0 .082-.082t-.082-.082-.082.082.082.082m-7.626.082q-.081 0-.082-.082 0-.082.083-.082.081 0 .081.082t-.081.082m7.544 0v-.082q-.081 0-.082.082zm.41-.082h-.082q-.081.082 0 .082.082 0 .082-.082m-.656.328h.082q0-.082.082-.082v-.082l-.082.082zm-28.208 0q.082 0 .082-.082t-.082-.082q-.081 0-.082.082 0 .082.082.082m21.075.164q-.082 0-.082-.082t.082-.082.082.082-.082.082m7.461.41h-.082q0-.082.082-.082zm-7.134.082q-.082 0-.082-.082t.082-.082.082.082-.082.082m7.052.082h-.082q0-.082.082-.082zm-27.961 0h-.082q-.083.082 0 .082.081 0 .081-.082m27.879.164q-.081 0-.082-.082 0-.082.082-.082t.082.082-.082.082m-7.297.164q.082 0 .082-.082t-.082-.082-.082.082.082.082m7.133 0q-.082 0-.082-.082t.082-.082.082.082-.082.082m-.492.082q.082 0 .082-.082t-.082-.082-.082.082.082.082m-6.56.082q.083 0 .083-.082t-.082-.082-.082.082.082.082m.083.246q.081 0 .082-.082 0-.082-.082-.082t-.082.082.082.082m-20.746 0h-.082q-.083.082 0 .082.081 0 .081-.082m21.237.082q-.081 0-.081-.082t.081-.082.083.082-.082.082m-.491.082q.081 0 .082-.082 0-.082-.082-.082t-.082.082.082.082m.574.082q-.082 0-.082-.082t.082-.082.082.082-.082.082m-.492.082q.081 0 .081-.082t-.082-.082q-.081 0-.081.082t.082.082m-20.746.082q-.082 0-.082-.082t.082-.082.082.082-.082.082m21.32 0q-.082 0-.082-.082t.082-.082.082.082-.082.082m-.493.082q.082 0 .082-.082t-.082-.082-.082.082.082.082m.575.082q-.082 0-.082-.082t.082-.082.082.082-.082.082m-.492.082q.081 0 .081-.082t-.081-.082-.083.082.082.082m.081.164q.083 0 .083-.082t-.083-.082-.081.082.081.082m.083.164q.081 0 .081-.082t-.081-.082-.083.082.083.082m.491.082q-.081 0-.082-.082 0-.082.082-.082t.082.082-.082.082m4.592 0q-.082 0-.082-.082t.082-.082.082.082-.082.082m-5.084.082q.082 0 .082-.082t-.081-.082q-.083 0-.083.082t.083.082m.575.082q-.083 0-.083-.082t.082-.082.082.082-.081.082m-.493.082q.083 0 .083-.082t-.082-.082-.082.082.081.082m.083.164q.082 0 .082-.082t-.082-.082-.082.082.082.082m4.755-.082q0 .082-.082.082-.081 0 0-.082zm-4.674.246q.083 0 .083-.082t-.082-.082-.082.082.082.082m4.592 0 .082-.082v.082zm-4.1.082q-.081 0-.082-.082 0-.082.083-.082.081 0 .081.082t-.081.082m-.492.082q.083 0 .083-.082t-.082-.082-.082.082.082.082m.575.082q-.082 0-.082-.082t.081-.082q.083 0 .083.082t-.083.082m-.492.082q.082 0 .082-.082t-.082-.082-.082.082.082.082m.574.082q-.083 0-.083-.082t.083-.082.081.082-.081.082m-.493.082q.082 0 .082-.082t-.082-.082-.081.082.082.082m.082.164q.082 0 .082-.082t-.082-.082q-.081 0-.082.082 0 .082.082.082m.082.164q.082 0 .082-.082t-.081-.082q-.083 0-.083.082t.082.082m.493.082q-.082 0-.082-.082t.082-.082q.081 0 .082.082 0 .082-.082.082m-.492.082q.081 0 .081-.082t-.081-.082-.083.082.082.082m.573.082q-.081 0-.081-.082t.082-.082q.081 0 .081.082t-.082.082m-.492.082q.083 0 .083-.082t-.083-.082-.081.082.081.082m.575.082q-.082 0-.082-.082t.081-.082.082.082-.082.082m-.492.082q.081 0 .081-.082t-.081-.082-.083.082.083.082m.081.164q.083 0 .083-.082t-.083-.082-.081.082.081.082m.083.164q.081 0 .081-.082t-.081-.082-.083.082.083.082m.491 0v-.082q.165.246.492 1.066.41.82.41.984v.082a2.23 2.23 0 0 1-.573-.984q-.165-.574-.329-1.066m-.492.164q.082 0 .082-.082t-.081-.082q-.083 0-.083.082t.083.082m1.066.082q-.081 0-.082-.082 0-.082.082-.082t.082.082-.082.082m-.984.082q.083 0 .083-.082t-.082-.082-.082.082.081.082m.165.328v-.082q-.082 0-.082-.164l-.082.082h.082q0 .165.082.164m.573 1.476h.083q-.166-.328-.328-.656a3.2 3.2 0 0 0-.247-.656l-.082.082q0 .165.165.656.163.41.41.574m6.888 14.924q.082 0 .082-.082t-.082-.082-.082.082.082.082m-8.773 3.362v-.082q-.083 0-.083.082zm9.921.164v-.246q-.081 0-.082.164 0 .165.082.082m-9.84.082q.083 0 .083-.082t-.083-.082-.081.082.081.082m2.05.164q.082 0 .082-.082t-.082-.082q-.081 0-.082.082 0 .082.082.082m.41 0q.082 0 .082-.082t-.081-.082q-.083 0-.083.082t.083.082m-.984.164q.082 0 .082-.082t-.082-.082-.082.082.082.082m1.64.328h.083l-.165-.41-.082.082q0 .328.164.328m1.64-.328q.082 0 .082-.082t-.082-.082-.082.082.082.082m4.346 0q.082 0 .082-.082t-.082-.082-.082.082.082.082m-26.65.082q.082 0 .082-.082t-.082-.082-.082.082.082.082m22.468 0q.082 0 .082-.082t-.082-.082q-.081 0-.082.082 0 .082.082.082m.164 0q.082 0 .082-.082t-.082-.082q-.081 0-.082.082 0 .082.082.082m.246-.082h-.082q-.081.082 0 .082.082 0 .082-.082m4.264.082-.082-.082q-.081.083-.082.164.083 0 .164-.082m-7.216.082h-.081q0-.082.081-.082zm6.642 0h.082v-.082h-.082zm.41 0q.082 0 .082-.082t-.082-.082-.082.082.082.082m-5.493.082q.081 0 .081-.082t-.081-.082-.083.082.082.082m4.755 0q.082 0 .082-.082t-.082-.082-.082.082.082.082m-2.132 0h-.164q-.081.082 0 .082.165 0 .164-.082m-4.017.574q-.247-.245-.246-.41 0-.082.081-.082.165.165.165.41zm5.493-.164q0-.082.082-.082.083.082.164.082v-.082h.082q.083.082.164.082h.082q0-.082.082-.082h.82-.41q-.246 0-.328-.164-.163 0-.574.082h-.574a1.4 1.4 0 0 1-.41-.082.7.7 0 0 0-.328-.082h-.164q.575.246.656.246.083 0 .656.082m-2.788-.164q-.082 0-.082-.082t.082-.082.082.082-.082.082m-22.14.082q.082 0 .082-.082t-.082-.082-.081.082.082.082m18.368-.082q0 .082-.082.082-.081 0 0-.082zm.656.328-.163-.328h.081v.082l.082.164zm.903-.328h-.083q-.081.082 0 .082.082 0 .082-.082m6.805 0h-.164q-.081.082 0 .082.165 0 .164-.082m-1.312.164q-.081 0-.082-.082 0-.082.082-.082t.082.082-.082.082m-6.805.246-.247-.246h.082q.165 0 .165.246m1.393-.164q.083 0 .083-.082t-.083-.082-.081.082.081.082m1.394 0v-.082q-.082 0-.082.082zm3.854 0q.082 0 .082-.082t-.082-.082q-.081 0-.082.082 0 .082.082.082m-25.83.164q-.082 0-.082-.082t.082-.082.082.082-.081.082m23.616 0h-.082q0-.082.082-.082zm.164 0h-.082q0-.082.082-.082zm.41.082q-.164 0-.164-.082l.246.082zm2.214 0q-.082 0-.082-.082t.082-.082.082.082-.082.082m-20.581.246q.081 0 .081-.082t-.081-.082-.083.082.083.082m28.029-58.958v-.082l.082-.082.656.082v.082zm-.246-.082h-.082v-.082q.082 0 .082.082m6.314.41q.41 0 .82-.082.411-.082.738-.082h.246q.082 0 .082.082h1.804q.246.165.574.164a.93.93 0 0 1 .656.082l-.082.082.082.082h.082q.328 0 .574-.082.246-.164.574-.164.165 0 .164.082-.081.082-.41.246l.328.082h1.804a9 9 0 0 1 1.23-.082q.082 0 .328.082h.492q1.968 0 3.936-.082a95 95 0 0 1 3.936-.082q1.641 0 3.198.082h3.608q.246 0 .246.246 0 .165-.246.41a.9.9 0 0 0-.164.492v.082l.082.082v.082l-.082.082-.246-.164-.082.082q.164 0 .164.246v.082l-.164.082q.246.328.246.246t.246.082v.082l-.082.082v.082l.082.082v.164q0 .164-.082.246v.164q0 .328.164.656.165.246.164.574 0 .164-.082.574 0 .328-.164.41.083.082.164.082.082 0 .082.164t-.082.164q-.081 0-.082.164v.082l.164.082v.082q.082 0 .082.082.083.164-.246.246-.327.083-.328.246l.246.246h.246v.082q-.574 0-.574.574.082 0 .082.082h.164q.082 0 .082.082 0 .164-.082.164-.082-.082-.082.082 0 .246.164.328.165 0 .328.164v.738q0 .165-.164.328-2.541.082-5.33.082h-5.084l.082.082q-.164.082-.492.082-.246 0-.41.082-.082 0-.082.164 0 .165.246.164-.164.083-.492.164-.327 0-.328.328V92l-.246.164h-1.722q-.164 0-.164-.328 0-.41-.41-.41h-.246l-.164.082-.164-.082-.164.082h-.082q-.327 0-.492-.164-.082-.165-.328-.164l.082.082v.164q-.492-.082-.328-.41.165-.329-.246-.492l-.082.082v.902l-.164.164h-.082l-.082-.164h-.082V92q0-.082-.082-.328a11 11 0 0 0-.246-.656 17 17 0 0 1-.328-.902q-.164 0-.164.246v.656q.082 0 .082.082v.082q-.081.083-.082.164v.41q.083.246-.082.246h-.082l-.164-.328a.7.7 0 0 0-.082-.328h-.082q0 .082-.082.328-.081.165-.246.164l-.082-.164h-.082l-.082.082q-.082 0-.082.082-.246 0-.246-.246.082-.328-.164-.328l-.164.902h-3.444l-.164-.164V44.522q0-.328.328-.41.329-.082.492-.082-.164 0-.164-.164 0-.082.41-.246h.328l-.164-.164h-7.298l-.082-.082q-.081-.082-.164-.082h-.164q-.082 0-.082.082h-1.804a5.5 5.5 0 0 0-.902-.082h-.164q-.164 0-.164.082h-2.378q-.164 0-.164-.246 0-.165.082-.164.165 0 .164-.164 0-.165-.164-.164-.081 0-.082-.164 0-.164.41-.164 0-.165-.492-.41t-.492-.41v-.902q0-.246.41-.164.329 0 .41-.164a1.3 1.3 0 0 0-.41-.082q-.246-.082-.246-.41 0-.165.246-.082.246.082.328-.082-.082-.083-.328-.164-.246-.082-.246-.246t.164-.164v-.656q.165-.082.164-.246 0-.164-.082-.246-.164-.165-.164-.328 0-.165.164-.164l.164-.164v-.082q0-.246-.082-.246h-.738v-.082q.165 0 .574-.082.41-.082.41-.41l-1.066-.246v-.164h.902q.165 0 .164-.246 0-.165-.246-.164-.082-.082-.328-.082h-.328l-.082-.082q0-.082.082-.082h.082q.083-.082.41-.082h.328q.165-.165.164-.328.082-.245.082-.41t-.082-.164q-.081 0-.082-.164 0-.164.082-.164.41 0 .82-.082.41-.165.82-.164.328 0 .492.082h1.23a5.3 5.3 0 0 1 2.05-.41q.328 0 .574.082h2.132q.657-.082 1.312-.082.165 0 .246.082zm-10.414 1.23h-.082V34.6q.082 0 .082.082m35.178.902q-.081 0-.082-.082 0-.083.082 0 .083 0 0 .082m-34.768 7.298q.328 0 .328-.328-.328 0-.328.328m18.368 46.986q.083-.082 0-.082-.082-.083-.082 0 0 .082.082.082m1.23.164q0-.328-.246-.328 0 .328.246.328m-1.148.328h.164v-.082h-.164zm.984 0h.164v-.164q-.164 0-.164.164m-.082.41h.082v-.164h-.082zm-3.854.164h.082v-.246h-.082zm3.526-.164q.082-.082 0-.082-.082-.082-.082 0t.082.082m.328.41h.082v-.082h-.082zm.738 0h.164l-.082-.082zm-.328.082q.082 0 .082-.082t-.082-.082-.082.082.082.082m1.23.328q.082 0 .082-.082t-.082-.082-.082.082.082.082m-1.476.41q0-.328.082-.328l.082.082v.164q0 .082-.082.082zm20.966-58.712v-.082h.164v.082zm.41.164v-.082l.246-.082h.492l.164.082q.574 0 1.066.082.574.082 1.148.082v.082h-2.542l-.082-.082h-.246a.6.6 0 0 0-.246-.082m3.362.164v-.082h3.69q.902.164 1.64.246h1.722q.082.082.164.082a.7.7 0 0 0 .328-.082 1.4 1.4 0 0 1 .41-.082q.164 0 .246.082h.246q.574 0 .902-.082.328-.083 1.148 0l.164-.082v.082l.082.082q.164 0 .082-.082 0-.164.246-.164l.082.082v.082l.082.082v.164h.41a1 1 0 0 1 .246-.164q.492 0 .984-.082t.984-.082h2.87q.902.082 1.804.082l.082.082q.246.246.82.328h1.23q.738 0 1.394-.082a9 9 0 0 1 1.066-.082h.164q.082-.082.164-.082h1.476q.41.082.82.082l.164.164q.082.82.082 1.64.082.738.082 1.558 0 .165-.082.328v.328q0 .492.164.984.246.41.246.902l-.082.082q0 .165-.082.164v.082q0 .165.082.164l.164-.082h.246l-.246.246q-.164.164-.328.246h.656l-.328.328a1.3 1.3 0 0 0-.328.246h.328a.7.7 0 0 1 .328-.082q0 .082-.082.082l-.082.082-.164.164.082.164h.328q0 .082-.082.082 0 .082-.164.246a1 1 0 0 1-.164.246q.328-.165.328.164.082.246-.492.492-.575.246-.738.246a.56.56 0 0 1-.41-.164q-.082-.165-.328-.164-.41 0-.574.246-.164.083-.574.164a2.3 2.3 0 0 1-.492.082h-.164q0-.082-.164-.082 0 .328-.574.328-.328 0-.328-.082h.164v-.164h-2.214q0-.083-.328-.246h-1.804q-.082.246-.328.246-.164-.082-.328.082-.656 0-.902.082h-.574q-.164 0-.328-.164-.164 0-.492.082h-.328l-.164.082h-3.608a33 33 0 0 0-2.378-.082l-.164-.082h-.492q-.164 0-.656.082-.492 0-.574.164t-.082.574v.574q0 .165.082.41.082.164.082.41 0 .165-.082.328-.082.082-.082.246t.082.246.082.246v.41q0 .246-.082.902v3.362q-.082 0-.082.164v.164q.082 0 .082.082l-.082 2.296v.246q-.082.492-.164 1.23a10 10 0 0 0-.082 1.23l.082.082v.328q0 .246.082.328.082 0 .246.082h.492q.082-.082.164-.082.575 0 .984.328t.902.328h.164q.082-.082.246-.082.41 0 .82.164.492.082.902.082l.246-.082h1.23l.164.082h1.23q.164-.082.574-.082.656 0 1.23.164a9 9 0 0 0 1.23.082h.328l.164-.164h-.328.574l-.082.082q.082.082.328.082.163 0 .246-.082.163-.165.246-.164h1.476a.9.9 0 0 0 .41.082h.164q.083-.082.246-.082.164 0 .164.082h.246q.41 0 .902-.164.492-.165 1.066-.164 0 .164-.164.246-.082 0-.082.164v.41q.082.165.082.328v.574q0 .246-.082.656-.083.165-.246.164-.164-.082-.164.082l.082.246v.902q.164.165.164.41a1.3 1.3 0 0 0 .246.328q.082.165.082.82.082.575.082.738 0 .656-.164 1.23a3.4 3.4 0 0 0-.164 1.066h-.328q.163.164.246.574.164.328.164.492v.246l-.082.164-3.526.082-.082-.082h-.082q0-.082-.082-.082h-.082l-.164.082h-1.066q-.902-.082-1.394.082l-.082.082h-.328a3 3 0 0 1-.738-.082 1.6 1.6 0 0 0-.738-.164l-.164.082h-.984q-.082-.082-.41-.082-.246 0-.328.164h-4.51l-.164.082a5.5 5.5 0 0 0-.902.082q-.492 0-.902.164-.082.082-.082.328 0 .245-.082.41.164 0 .164.164t.164.246v3.608q-.164.246-.164.328.082.083-.082.246h-.082q0 .082.082.082t.082.164q0 .165-.082.328v.902l.164.164q.082.083.082.164l-.082.164q-.164.164-.164.246-.082 0-.082.164 0 .328.328.246v16.072l-.41.41-.164.082q-.246 0-.328-.246 0-.164-.41-.164v-.246h-.656v.246q0 .165-.164.164 0 .082-.082.082h-.082v-.328q-.082-.082-.164-.082 0 .246-.082.246-.083 0-.246-.328-.164-.328-.492-.328 0 .082-.082.082-.164.492-.246.41t-.41.328l-.164-.164q-.164 0-.164.164.082.164-.082.246a4 4 0 0 0-.246-.41.75.75 0 0 1 0-.492h-.246a.6.6 0 0 0-.246-.082 1 1 0 0 1-.246.164q-.163.165-.246.164h-.082l-.082-.082h-.574q0 .164-.41.246a3.5 3.5 0 0 1-.574.082h-.164q-.082.082-.246-.082h-1.23l-.246-.164h-.902l-.082.164h-.82l-.164-.164v-1.23a6 6 0 0 1-.082-.984v-2.952q.082-.82-.082-1.968-.082-.083-.082-.246v-.082l.082-.164v-.246l-.082-.164q0-.246.082-.492a2.7 2.7 0 0 0 .082-.656q0-.164-.082-.246v-2.46q.082-.738.082-1.476v-1.722q0-.492-.082-.902v-.41l-.082-.164v-2.132a20 20 0 0 1-.082-1.804v-3.362a7.5 7.5 0 0 0 .082-1.066v-1.64q-.082-.165-.164-.164-.082-.082-.164-.082t-.164-.082v-.492l.164-.164-.164-.246v-.246q.082 0 .082-.082v-.082l-.082-.246.082-.082h.164q.082-.082.164-.082v-.082h-.328q-.246-.082-.246-.246v-.082h.246l.246-.164h-.492v-.328q.083-.165.246-.082.164.082.164-.082l-.082-.164v-.164q0-.246.328-.246l-.082-.082h-.246q-.082-.082-.164-.082v-.082q0 .082.246-.164a.6.6 0 0 1-.246-.082q-.164-.082-.164-.246 0-.083.164-.164.246-.082.328-.082-.246-.245-.246-.41 0-.246.328-.164.41 0 .41-.164l.082-.82-.164-.246v-4.51q0-2.132-.082-4.51v-7.544q-.164-.164-.164-.574v-.246q.082-.083.082-.246 0-.246-.164-.164-.164 0-.246-.164a.56.56 0 0 1 .41-.164q0-.165-.164-.082-.082 0-.082-.164 0-.41.246-.41-.246-.246-.246-.328v-.164q.082-.083.082-.164a.7.7 0 0 0-.082-.328.7.7 0 0 1-.082-.328q0-.164.164-.246.246-.082.246-.328 0-.492-.574-.492 0-.655.574-.738v-.246q0-.245-.164-.41a.9.9 0 0 1-.164-.492q.083-.082.246-.082.164 0 .164-.164v-1.722l.164-.246h.82l.164-.164h.082a4 4 0 0 1 1.066.164q.574.082 1.148.082h.984q.082-.082.246-.082.328 0 .574.164.328.082.574.082h.246a.7.7 0 0 1 .328-.082q.164 0 .328.082h.328q.492 0 .492-.328h-.574a1.6 1.6 0 0 0-.492-.082.7.7 0 0 0-.328.082h-.246q-.328 0-.574-.082-.163-.082-.492-.082m15.334.328h3.198v-.082h-3.034zm-16.646.492q-.082-.082-.328-.082a.9.9 0 0 0-.41.082zm27.716 8.036q.082 0 .082-.082t-.082-.082-.082.082.082.082m-6.478.656h.082v-.082h-.082zm.328 0h.082v-.082h-.082zm.328 0h.082v-.082h-.082zm.328 0h.082v-.082h-.082zm.328 0q.082 0 .082-.082t-.082-.082-.082.082.082.082m5.166-.082q.083.082 0 .082-.082 0-.082-.082zm.246.082v-.082h.082v.082zm-8.364.328v-.082q0-.082.328-.082h.574q.246 0 .328.082l-.082.082zm-.246 0-.082-.082h.082zm4.346 0h.082v-.082h-.082zm-1.476.164v-.082h.082v.082zm.328 0v-.082h.082v.082zm.328 0v-.082h.164l-.082.082zm-1.804.082a3 3 0 0 1 .738-.082h.164q.082 0 .082.082l-.082.082h-.82zm-4.51.082q-.082 0-.082-.082t.082-.082.082.082-.082.082m.82 0-.082-.082h.082zm.246 0v-.082h.082v.082zm.574-.082q0 .082-.082.082v-.082zm1.804.164q0 .082-.082.082v-.082zm.82 0q0 .082-.082.082v-.082zm-13.284 6.642v-.246h-.164v.082zm0 .574V51q-.082-.082-.082 0t.082.082m2.46 6.724v-.082h.082q.082.082.164.082zm1.804.41q0-.082-.082-.082v.082zm6.314.082.164-.082.082.082zm5.248.082q.082.082.164.082h.082q.41 0 .41-.328a1.4 1.4 0 0 0-.41.082q-.163 0-.246.164m-3.116.082.082-.082h-.246zm-24.682 3.772v-.082h.082v.082zm.492 1.804h.082v-.082h-.082zm26.896 3.526q.082 0 .082-.082t-.082-.082-.082.082.082.082m-15.99 1.23h.246v-.492h-.082q-.082 0-.082.164v.246zm-.246-.164h.082v-.164q0 .082-.082.082zm-.082.41q.082 0 .082-.082t-.082-.082-.082.082.082.082m0 .246h.082q0-.082-.082-.082zm.328.328v-.082q-.082 0-.082.082zm.41 0 .082-.082h-.082zm-.082 6.806h.164q0-.246-.164-.246zm-1.23 15.908h-.082l-.082-.082h.246q0 .082-.082.082m1.066.656v-.082h.082zm34.115-59.122q.575-.165 1.148-.41a3.5 3.5 0 0 1 1.23-.246h.082q.083 0 .164.082h.246q-.163.165-.492.164-.246 0-.41.164h.164q.574 0 1.066-.164.575-.165 1.23-.164.657 0 1.312.246a5.4 5.4 0 0 0 1.312.164h.082q-.246-.246-.246-.328v-.082q1.148.656 2.624.902 1.476.165 2.706.82 4.1 2.214 5.822 6.15 1.722 3.854 1.722 8.364v27.552q0 1.394-.246 2.706-.163 1.23-.246 2.624l-.164.164q-.081.246-.41 1.148-.246.82-.328 1.066-.246.656-.492 1.148-.163.492-.328.902-.163.328-.328.328h-.082v-.492q.082-.246.082-.574l-.164-.082-.082.082h-.082q-.164 0-.164-.082.082 0 .082-.164t-.082-.246l-.164.246-.082-.164q-.081.083-.082.246 0 .164.082.164v-.164l.164.246v.082l-.164.328q0 .164.082.246.082.083.082.246 0 .41-.082 1.148-.081.738-.41.902l-.082-.082v-.656q-.163.082-.82.82-.573.655-.738.82a13.3 13.3 0 0 1-3.444 1.886 19.2 19.2 0 0 1-3.69.984 7.4 7.4 0 0 0-1.558 0q-.82.082-1.558.082-3.28 0-6.068-1.066t-4.838-2.952q-1.967-1.968-3.116-4.674-1.148-2.788-1.148-6.15V48.458q.082-.738.082-1.804.083-1.065.246-2.132.165-1.148.41-2.132a5.8 5.8 0 0 1 .902-1.722l.082.164.656-1.23.492-.492.82-.984q.411-.574.738-.984.41-.492.41-.574l1.968-1.476h.082v.082l-.328.328h.082q.903-.656 2.214-1.312 1.395-.738 2.542-.738v.082q-.246 0-.492.246l-.082.082zm3.034-.656q0 .082-.082.082v-.164q.082 0 .082.082m.246 0q0 .082-.082.082v-.164q.082 0 .082.082m3.362.082h-.082q0-.082.082-.082t.082.082zm-5.822 0q0 .082-.082.082v-.164q.082 0 .082.082m6.314.082q-.082 0-.082-.082t.082-.082.082.082-.082.082m-6.478 0q0 .082-.082.082v-.164q.082 0 .082.082m-.82.656q.082 0 .082-.082t-.082-.082-.082.082.082.082m-3.444.738.082-.082v.082zm-.082.082q0 .082-.082.082v-.164q.082 0 .082.082m-.246.164.082-.082v.082zm-.492.656q.082 0 .082-.082t-.082-.082-.082.082.082.082m-4.674 4.756q-.082 0-.082-.082t.082-.082.082.082-.082.082m-.082.082q-.082 0-.082-.082t.082-.082.082.082-.082.082m-.082.492q.082 0 .082-.082t-.082-.082-.082.082.082.082m-.082.164q.082 0 .082-.082t-.082-.082-.082.082.082.082m0 .082q0-.082-.082-.082v.164q.082 0 .082-.082m10.742 6.232h-.246q-.081-.082-.246-.082-.246 0-.246.082l.164.082q-.163.41-.328.984a4 4 0 0 0-.164 1.066v23.452q.082.656.082 1.394.082.656.082 1.312 0 .41-.082.738v.738q0 1.476 1.148 2.952 1.23 1.476 2.788 1.476 1.805 0 2.952-1.558 1.23-1.64 1.23-3.28V49.77q0-.656-.246-1.476a5.8 5.8 0 0 0-.738-1.558 5 5 0 0 0-1.148-1.23 2.4 2.4 0 0 0-1.476-.492h-.082l-1.968.984q-.327.165-.738.82-.327.656-.738.656m-.902-.164q.082 0 .082-.082t-.082-.082q-.081 0-.082.082 0 .082.082.082m-.164.082h.082q0-.082-.082-.082-.081 0-.082.082zm-.164.164q.082 0 .082-.082t-.082-.082q-.081 0-.082.082 0 .082.082.082m16.646 37.966q0 .083.164.246v-.328l-.082.082v-.246l-.082.082zm-.246.082h.082q0-.082-.082-.082t-.082.082zm-.328.656q.082 0 .082-.082t-.082-.082q-.081 0-.082.082 0 .082.082.082m.574.082q-.081 0-.082-.082 0-.082.082-.082t.082.082-.082.082m-.738.82h.082q0-.082-.082-.082t-.082.082zm0 .41h.082q0-.082-.082-.082t-.082.082zm0 .246h.082q0-.082-.082-.082t-.082.082zm-.082.41q.082 0 .082-.082 0-.164-.082-.164t-.082.164q0 .082.082.082m-.082.984v-.082h.082zm8.633-55.104q.164-.164.41-.738t.246-.82h.082q0 .492.41.492l.164-.082h.246q.163 0 .246.082.081.082.246.082h.082q.081-.082.246-.082h.164q.081 0 .082.082-.082 0-.246.164.164.165.656.164.245 0 .41-.082a.9.9 0 0 1 .41-.082h.082l-.164.082q.081.082.41.082h.164q.081 0 .082-.082 0 .246.246.246h.656l.082-.082h.082q.081.083.082.246 0 .165.164.164h1.558q.41-.246.738-.246.164 0 .164.246.081.165.164.164h.082q.164-.082.164-.41.082-.328.328-.328l.082.164v2.46q.081 1.23.082 2.46 0 .574-.082 1.148 0 .492-.164 1.066V42.8l.082.082v2.542q-.082.164-.082.492 0 .902.082 1.804.164.82.164 1.722l-.082.328v.984l.082.164v.738q0 .656-.082 1.23v8.282q.081 1.64.082 3.444v3.936q.082.082.082.41v.328q-.082 0-.082.328v1.23q.082.575.082 1.23v.164q0 .082-.082.41v.41l.082.246v.574q0 .328-.082.656v.738q.082 0 .082.082 0 .41-.082.82v1.066q.082.082.082.246 0 .41-.082.656-.083.165 0 .656-.082.082-.082.328 0 .574.082.902.081.246.41.246.41-.082.41.082 0 .328-.246.41h-.492v.082q.492.082.82.082h.82q.492 0 .738-.082h3.444l.246-.082h6.478q.41-.082.82-.082.41-.082.82-.082.492 0 1.23.082.737 0 1.394.082.738 0 1.23.082h.574-.492l.246.246h.246a.56.56 0 0 1-.41.164h-.328v.082h.984v.164h-.246q-.165 0-.164.164h.41v.164h-.41l-.082-.082v.164q0 .246.082.328.164.082.164.246 0 .083-.164.164-.165 0-.164.164 0 .165.082.164.081 0 .082.164 0 .328-.082.656a2.1 2.1 0 0 0-.082.656l.082.164-.082.164.082.164v.164q0 .246-.082.246l.246.246h.902a1.46 1.46 0 0 1-.656.164.69.69 0 0 0-.574.082l.082.082q.081 0 .492.082.492 0 .492.246 0 .165-.082.164-.082 0-.082.082v.082q.081 0 .164.082h.246l.082.082a.56.56 0 0 0-.41.164q.164 0 .41.082.328 0 .328.246 0 .164-.246.246h-.328v.082l.082.164v.082q0 .165-.246.164-.165-.083 0 .246-.246.164-.492.246a.9.9 0 0 1-.41.082v.082l-.082.164v.082l.082.164h-.492v.164h.656l-.082.164q-.082.082-.574.246a3.5 3.5 0 0 1-.574.082v.082q0 .246.082.246.327 0 .246-.082 0-.165.164-.164h.082l.082.082h.738l.164-.082.164.164.246.082v1.312l-.164.164h-30.34l-.082-.164v-.656a2.7 2.7 0 0 1-.082-.656v-.574q0-.656.246-.574.328.082.328-.328 0-.328-.164-.328-.165-.083-.164-.492v-.246a.6.6 0 0 0 .082-.246l-.082-.164v-.082l.246-.082v-.082l-.164-.082a.6.6 0 0 0-.082-.246v-.328q0-.246.164-.656.164-.492.41-.574h-.082q-.165 0-.164.082a1.8 1.8 0 0 1-.082-.574q0-.246.082-.246-.165-.246-.574-.246h-.492v-.082l.164-.082h.164q.081 0 .246.082.164 0 .164-.164v-.082l-.082-.164h-.82q-.082 0-.082-.164 0-.246.164-.164h.41q0-.328-.328-.246-.246 0-.246-.164 0-.083.082-.164v-.082h.82l.082-.082q0-.245-.246-.41a1 1 0 0 1-.164-.574q0-.164.164-.246v-1.23q.082-.984.082-1.312V66.99l-.164-.246q0-.574-.082-1.066v-1.066q0-.246.082-.328v-1.23q0-.656-.082-1.148v-1.148q0-.41.082-.656V53.87l.082-.082v-.082l-.164-.082q0-.165.164-.164v-.082l-.164-.246v-.082l.082-.246-.082-.164v-.082q.082-.246.082-.164.082.082.082-.492v-4.428l.082-.164v-4.428q0-.082-.082-.328v-.41q0-.165.082-.41.082-.246.082-.492 0-.41-.082-.738v-1.722a9 9 0 0 0 .082-1.23q0-.328-.082-.574v-.738q0-.41.082-.738.164-.329.164-.738V34.6l-.082.082-.082-.082q0-.165.082-.41.081-.328.246-.328v.328q0-.082.082-.246.081-.165.164-.164 0 .574.328.82v-.164q0-.164-.082-.246v-.246q0-.165.164-.164v.328q.164 0 .164-.164v-.246h.082q.328 0 .328.492.081.41.492.41.246 0 .246-.246 0-.164-.164-.246m2.87-.984v-.082q.164 0 .164.082zm-.82.41q.082 0 .082-.082t-.082-.082-.082.082.082.082m3.69.246q0-.082.164-.082v.082zm-.492.164h.082q0-.082-.082-.082t-.082.082zm3.772 8.61q-.082 0-.082-.082t.082-.082q.081 0 .082.082 0 .082-.082.082m0 .246q-.082 0-.082-.082t.082-.082q.081 0 .082.082 0 .082-.082.082m1.148 37.638q-.082 0-.082-.082t.082-.082q.081 0 .082.082 0 .082-.082.082m-12.71 1.968q-.41 0-.41-.328.41 0 .41.328m30.34-.246q0 .082-.082.082v-.164q.081 0 .082.082m.246.082q-.082 0-.082-.082t.082-.082q.081 0 .082.082 0 .082-.082.082m-29.766 3.362q0-.082-.082-.082v.164q.081 0 .082-.082m29.274 1.312h.492v-.082h-.492zm.246 1.886q0 .082-.082.082v-.164q.081 0 .082.082m-1.312.574h.246v-.082q-.246 0-.246.082m-.328.574q0-.082-.082-.082v.164q.082 0 .082-.082m-.164.246q.081 0 .082-.082 0-.082-.082-.082t-.082.082.082.082m6.594-56.58q.245 0 .656-.164a1.6 1.6 0 0 1 .82-.246q.164 0 .164.246.081.165.246.164.082-.083.082-.164 0-.082.164-.082.41 0 .738.164.41.083.82 0 .081.246.328.246h.492q.163 0 .328-.328.081.246.164.164a.7.7 0 0 1 .328-.082q0-.246.246-.246.163 0 .328.328.164.246.41.246l.164-.082h.082q.081 0 .082.082h.082q.163 0 .246-.164 0 .246.164.246t.164-.082.082-.164l.164-.082v.492h.082q.081-.328.41-.574.41-.246.656-.246a.7.7 0 0 1 .328.082q.245 0 .164.246v10.742q.082 3.361.082 6.396v4.428q0 .164-.082.246t-.082.246v.656q0 .246.082.574v.656l.082.164v11.07q0 .245.164.41V71.5l.082.164v.902-.41q-.165.164-.246.492v.492q0 .083.082.164.081.083.082.164-.328.165-.328.41v.082l.164.164v.164q0 .083-.082.164l-.082.164.082.164v.574q0 .41.164.574v1.804l.082.164v.902l-.164.164v.492q-.082.246-.082.82v4.92q.082 1.23.082 2.542v1.64a.6.6 0 0 1-.082.246.6.6 0 0 0-.082.246v.574q.082.164.082.41v.492l-.164.164h-.574l-.082-.082-.082-.164q0-.082-.164-.082-.082 0-.082-.082v-.82h-.164v.82l-.164.082q0-.492-.246-.82l-.082.082q0 .082-.082.082t-.246-.246q-.082-.246-.328-.246v.164q-.165-.165-.328-.164h-.082q.164.328.164.41 0 .164-.082.164-.329 0-.164-.246.163-.328-.246-.328-.246 0-.246.082.082.083.082.246l.082-.082q.082 0 .082-.082.082 0 .082.246l-.164.082q-.165.164-.164.492.081.246-.082.246h-.082l-.164-.082q-.246 0-.328.164-.082.165-.246.164-.41 0-.82-.082a.58.58 0 0 1-.492-.492q0 .328-.41.492v-.246q.081-.165-.082-.328l-.328.328a2.5 2.5 0 0 1-.328.246v-.082q0-.328.082-.492.081-.246.082-.574h-.082q0 .164-.082.656-.083.492-.41.41-.246 0-.246-.246-.41.082-.656 0-.165-.082-.574-.082h-.41q0 .082-.164.246l-.164-.328h-.082v.492h-.164q-.165-.082-.164-.246.081-.246-.082-.246h-.082l-.082.164h-.082l-.164-.164-.164.082v.574l-.246-.082h-.328l-.164-.164v-3.362q0-2.46-.082-5.166V71.582l-.164-.164q.081-.492.082-.82v-.82a.74.74 0 0 0-.082-.328v-.328q0-1.722.082-3.444.163-1.804.082-3.608l.082-.082v-1.476a.7.7 0 0 1-.082-.328q0-.492.082-.984a6 6 0 0 0 .082-.984v-.082l-.082-.246v-5.166l.082-.246v-1.148a2.7 2.7 0 0 1-.082-.656l-.082-.328q0-.083.082-.164v-5.822q.082-.083.082-.246-.165 0-.164-.246v-.164l.082-.082-.082-.164v-2.624l-.082-.164v-.656q.082-.493.082-.574v-2.952q.081-.984.082-1.804v-1.23l.082-.082h.246l.164.082q.164 0 .164.164.081.082.164.082.082-.083.082-.164 0-.082.164-.082.081 0 .164.082h.328q0-.082.082-.082h.082q.164 0 .164.082.081 0 .164.082m8.036.492q.082 0 .082-.246h-.082zm1.476 39.032v-.164q.081 0 .082.082 0 .082-.082.082m0 .328q-.082 0-.082-.082t.082-.082.082.082-.082.082m-10.906 16.564q.082 0 .082-.082t-.082-.082-.082.082.082.082m5.166 0h.082q0-.082-.082-.082zm-1.804.656q.082 0 .082-.328v-.164q0-.082-.082-.082zm-3.362 0 .082-.082q0-.246-.164-.246v.164zm.984 0v-.328h-.082q0 .328.082.328m7.134-.164q0-.165.082-.164l.082.082q0 .082-.164.082m-7.626.082q0-.082-.082-.082v.164q.082 0 .082-.082m6.232.246q0 .165.164.164v-.41q-.165 0-.164.246m-3.526.164h.082v-.164h-.082zm21.226-57.154q.573-.165 1.148-.41a3.5 3.5 0 0 1 1.23-.246h.082q.081 0 .164.082h.246q-.165.165-.492.164a.56.56 0 0 0-.41.164h.164q.574 0 1.066-.164.573-.165 1.23-.164.655 0 1.312.246.655.164 1.312.164h.082q-.246-.246-.246-.328v-.082q1.148.656 2.624.902 1.476.165 2.706.82 4.1 2.214 5.822 6.15 1.722 3.854 1.722 8.364v27.552q0 1.394-.246 2.706-.165 1.23-.246 2.624l-.164.164q-.083.246-.41 1.148-.246.82-.328 1.066-.246.656-.492 1.148-.165.492-.328.902-.165.328-.328.328h-.082v-.492q.082-.246.082-.574l-.164-.082-.082.082h-.082q-.165 0-.164-.082.082 0 .082-.164t-.082-.246l-.164.246-.082-.164q-.082.083-.082.246 0 .164.082.164v-.164l.164.246v.082l-.164.328q0 .164.082.246.082.083.082.246 0 .41-.082 1.148-.083.738-.41.902l-.082-.082v-.656q-.165.082-.82.82-.575.655-.738.82a13.3 13.3 0 0 1-3.444 1.886 19.2 19.2 0 0 1-3.69.984 7.4 7.4 0 0 0-1.558 0q-.82.082-1.558.082-3.28 0-6.068-1.066-2.789-1.066-4.838-2.952-1.968-1.968-3.116-4.674-1.149-2.788-1.148-6.15V48.458q.082-.738.082-1.804.081-1.065.246-2.132.164-1.148.41-2.132.327-.984.902-1.722l.082.164.656-1.23.492-.492.82-.984q.41-.574.738-.984.41-.492.41-.574l1.968-1.476h.082v.082l-.328.328h.082q.901-.656 2.214-1.312 1.393-.738 2.542-.738v.082q-.246 0-.492.246l-.082.082zm3.034-.656q0 .082-.082.082v-.164q.082 0 .082.082m.246 0q0 .082-.082.082v-.164q.082 0 .082.082m3.362.082h-.082q0-.082.082-.082t.082.082zm-5.822 0q0 .082-.082.082v-.164q.082 0 .082.082m6.314.082q-.082 0-.082-.082t.082-.082.082.082-.082.082m-6.478 0q0 .082-.082.082v-.164q.082 0 .082.082m-.82.656q.082 0 .082-.082t-.082-.082-.082.082.082.082m-3.444.738.082-.082v.082zm-.082.082q0 .082-.082.082v-.164q.082 0 .082.082m-.246.164.082-.082v.082zm-.492.656q.082 0 .082-.082t-.082-.082-.082.082.082.082m-4.674 4.756q-.082 0-.082-.082t.082-.082.082.082-.082.082m-.082.082q-.082 0-.082-.082t.082-.082.082.082-.082.082m-.082.492q.082 0 .082-.082t-.082-.082-.082.082.082.082m-.082.164q.082 0 .082-.082t-.082-.082-.082.082.082.082m0 .082q0-.082-.082-.082v.164q.082 0 .082-.082m10.742 6.232h-.246q-.082-.082-.246-.082-.246 0-.246.082l.164.082q-.165.41-.328.984-.164.574-.164 1.066v23.452q.081.656.082 1.394.082.656.082 1.312 0 .41-.082.738v.738q0 1.476 1.148 2.952 1.23 1.476 2.788 1.476 1.803 0 2.952-1.558 1.23-1.64 1.23-3.28V49.77q0-.656-.246-1.476a5.8 5.8 0 0 0-.738-1.558 5 5 0 0 0-1.148-1.23 2.4 2.4 0 0 0-1.476-.492h-.082l-1.968.984q-.328.165-.738.82-.329.656-.738.656m-.902-.164q.081 0 .082-.082 0-.082-.082-.082t-.082.082.082.082m-.164.082h.082q0-.082-.082-.082t-.082.082zm-.164.164q.081 0 .082-.082 0-.082-.082-.082t-.082.082.082.082m16.646 37.966q0 .083.164.246v-.328l-.082.082v-.246l-.082.082zm-.246.082h.082q0-.082-.082-.082t-.082.082zm-.328.656q.082 0 .082-.082t-.082-.082-.082.082.082.082m.574.082q-.082 0-.082-.082t.082-.082.082.082-.082.082m-.738.82h.082q0-.082-.082-.082t-.082.082zm0 .41h.082q0-.082-.082-.082t-.082.082zm0 .246h.082q0-.082-.082-.082t-.082.082zm-.082.41q.082 0 .082-.082 0-.164-.082-.164t-.082.164q0 .082.082.082m-.082.984v-.082h.082z"/><path fill="#fff" d="M50.064 43.262q0-.054-.108-.216-.108-.108-.108-.162t.108-.27q.162-.216.216-.324.054-.054.378-.432.378-.324.432-.324-.054 0 0 0 0 .054.162.216.108-.162.162-.324t.108-.378q.216-.054.54-.324.162-.216.54-.702t1.242-1.512q.324-.054.702-1.026v-.162q0-.108.054-.27.054.054.162.378.324-.108.378-.324.702-.594 1.512-2.106.594-.594.81-.648.108-.648 0-.648.162-.054.27-.378.216 0 .918-.972l.216-.27q.378-.162.972-.918l.216-.216q.108-.108.324-.216.054-.108-.054-.324.324 0 .216.108h.054q.324 0 .378-.756-.054 0 0-.054v.054h.108q-.054 0 .324-.378l.324-.324a.94.94 0 0 0 .27-.486v-.216l.108-.216a.9.9 0 0 0 .162-.216q.27-.54.378-.54a.6.6 0 0 1-.108-.162l-.108-.216q-.648.756-.648.918t-.054.324a.9.9 0 0 1-.27-.054q-.108-.108-.216-.108-.702 0-.324.486l-.27.108q-.54.702-1.026 1.242l-.918.918-1.188.972q-.054.054-.054.108t-.432.324a8 8 0 0 0-.486.54q-.216.27-.486.648l-1.242 1.35a5 5 0 0 1-.594.486q-.378.324-.864.756l-.486.54q0-.108-.108-.216.054-.27.324-.648.324-.378 1.026-1.134l2.538-2.808 1.296-1.08q.54-.702 1.89-2.214a4 4 0 0 0 .81-.54l.108-.216a8.6 8.6 0 0 0 1.62-1.62l.486-.27q.108-.162.378-.378.324-.27.972-.702 1.404-1.35 1.35-1.674.648-.324.594-1.134l.108.378q.324 0 .432-.378t.162-.702l1.188-2.16.216-.81q.108-.054.162-.324t.594-1.08v-.486l.108-.324q.108-.054.324-.378.108-.108.108-.432l-.108-.378v-.27l.324-.378q.108-.108 0-.216l.486-.864v-.54q0-.27-.054-.594l.108-.162v-.756q.162-.594.162-.378 0-.54-.054-.702l-.81-1.62q-.216-.324-.648-.324l-.216.054q0-.108.054-.162-.162-.27-.378-.27h-.108q0 .054-.054.054H68.1h.054q0-.054-.54-.216a1.9 1.9 0 0 0-.594-.108q-.054 0 0 .054 0 .108-.054.108-.108 0-.162-.054 0-.054-.054-.054-.108 0-.216.108-.054.108-.108.108-.108 0-.378-.054a2.3 2.3 0 0 0-.378-.054l-1.188.162-1.134.108q-.324.216-.486.216-.108 0-.702.216-.486.216-.702.216-.108 0-1.08.324l-.162.216q-3.078 1.08-5.454 2.43a1.8 1.8 0 0 0-.486.216 3.6 3.6 0 0 1-.594.216l-3.726 1.782q-1.242.756-1.026.756h-.108q0-.054-.108-.054.108 0-.27.162t-.864.702q-.54 0-.594.216-.108 0 0-.108 0-.054-.054-.054t-.486.432q-.378.378-.432.378t-.108-.054h-.054l-.702.27q-.162.054-.162.27l-1.134.648q.054 0-.702.486l-1.35.648-1.836.972q-.054 0-.054.162 0-.054-.108-.054-.378 0-.81.378a.5.5 0 0 0-.216.054q-.378.216-1.026.648-.054 0-.756.54a.37.37 0 0 0-.27-.108q-.054 0-.216.108-.108.108-.162.108-.108 0-.108-.054.054-.054 0-.054-.378 0-.702.648-.432 0-.864.324-.378.27-.486.27-.054 0-.486.324-.216.054-.54.162t-.756.27q-.108.054-.432.324t-.432.27h-.054q.054-.054-.054-.054-.054 0-.162.108-.054.108-.108.108-.108 0-1.026.27l-.162-.108q-.54.378-.594.378t-.108-.054-.162-.054-.378.162q-.216.162-.324.162h-.054q0-.054-.054-.054t-.054.108q.054.054-.054.054a.4.4 0 0 1-.162-.054q-.054-.054-.108-.054-.108 0-.108.108.054.054 0 .054-.108 0-.054-.054h-.054q-.324 0-.216.054l-.108.108q-.216 0-.594-.054a4 4 0 0 0-.378-.054q-.054 0-.108.108-.054.054-.108.054-.108 0-.648-.162t-.594-.162q.054 0-.27.162l-.918-.486q-.27-.162-.27-.216v.054h-.054q-.162 0-1.026-1.188v-.378q.054-.054.054-.162 0-.648.324-1.782-.108-.162.702-1.512.27-.216.54-.486.27-.324.54-.756.594-.54.972-1.026.162-.162.594-.324l.108-.216q.27-.27.702-.594.486-.378 1.08-.81.108-.054.324-.27t.594-.324q.378-.54.594-.54h.054q0 .054.054.054l.054-.108q.108-.108.378-.108l.162-.108q.108 0 .108-.054h.054l.54-.378v.378l-.972.702-1.026.54-1.35 1.08q-.27.378-1.026.81-.108.378-.972 1.026v.162a.5.5 0 0 1-.054.216h-.054l-.054-.054q-.216.216-.324.648-.108-.108-.162-.108l-.162.324q-.054.216-.27.486l-.378.162v.108q0 .486-.594.81v.054q.054 0 .054.054 0 .216-.216.594-.216.324-.216.432 0 .054.054.216.108.162.108.27v.162a.9.9 0 0 1-.054.27.85.85 0 0 0 .216.324q.162.108.378.216.324.162.378.216h.054q.054 0 .054.108t.054.108q.108 0 .162-.108.054-.162.162-.162.054 0 .054.054h.108q.108 0 .108-.162l.108.108.162.162h.108q.162 0 .324-.054.27-.108.486 0l.864.162q.108 0 .378-.162t.594-.162h.216q.054.054.216.054l.108-.108a8 8 0 0 0 .432-.162q.27-.162.324-.162t.162.054a.4.4 0 0 0 .162.054q-.162 0 .27-.162.486-.216 1.296-.378-.108-.108.054-.108h.162q.054.054.216.054.054 0 .054-.054t.054-.054h.108q-.054.054.054.054.054 0 .162-.108.108-.162.162-.162t.054.054h.108q.054 0 .108-.054.054-.108.108-.108h.108q.054.054.108.054.27-.108.702-.324.432-.27 1.026-.594.108.054.324 0 .216-.162.594-.324t1.35-.54q.27-.162.864-.594t.702-.432q.054 0 0 .054t.054.054q.54 0 .972-.594a2.7 2.7 0 0 0 .378-.27q.27-.216.378-.216.054 0 .054.054.054.054.108.054t.324-.216.324-.216h.054q0 .054.054.054.324 0 1.188-.81.378-.378.324-.378.108 0 .054.054h.108a.8.8 0 0 0 .486-.162q1.62-.972 1.566-.972h.108q0 .054.054.054-.216 0 1.458-.864.216 0 .756-.432.054 0 .162-.054t.594-.324q.54-.324.54-.432h.27q-.108 0 0 .108.378-.27.918-.648.594-.378 1.296-.81h.054q.054 0 .486-.216l.648-.324q.162-.108.27-.432l.162.162q.108-.108.432-.27.324-.216 1.08-.54l.27-.27a2 2 0 0 0 .432-.162l.54-.216.972-.756q.27-.054.702-.27.486-.216 1.404-.702.216 0 .594-.162.918-.54.864-.54.054 0 .054.054H60q.162 0 1.134-.378 1.08-.432 1.188-.594a.37.37 0 0 0 .27.108q.054 0 .108-.054.108-.108.162-.108t.162.108q.108 0 .162-.216.054.054.27.054.108 0 .432-.162.378-.216.432-.216h.27a.5.5 0 0 0 .216.054q.864 0 1.296-.432.054.054.324.054h.27q.27 0 .756.054.54.054.756.054h.324q-.162 0 .162-.108-.054.054-.054.162 0 .216.324.378.324-.486.54-.486.324 0 1.674.594l.054.162q.108.108.216.108h.054q0-.054.054-.054.324 0 .54 1.026a.9.9 0 0 0 .378.108l.162.324q.162.216.378.486v.216q.054.108.108.27.108.378.162.648l.108.54v.594q0 .054.054.216.108.108.108.162t-.108.216a.4.4 0 0 0-.054.162q.054.162.054.702l-.162.216q-.054.324-.162.756a3.6 3.6 0 0 0-.108.864q-.324.108-.378.324-.108.54-.27.594-.162 0-.108.756a3.6 3.6 0 0 0-.594.81q-.054.486-.486 1.296l.054.216-.432.324.108.486q0 .054.162.054.216 0 .378-.432-.216 0 .702-.27.432-.108.378-.162 0-.108.378-.27.378-.27.702-.486.324-.27.594-.432.162 0 .432-.162a5.6 5.6 0 0 1 .756-.486l.108-.108.648-.432q.162-.054.378-.108.27-.108.594-.27l.81-.648.27-.216q.054 0 .054.054h.108q-.162 0 .918-.594.702-.216 2.106-1.08-.054.162.054.162.27 0 1.026-.432.432-.27.648-.162.054 0 .108-.054t.27 0l.594-.486q0 .108.108.108h.216a.8.8 0 0 0 .486-.162q.27-.162.486-.216h.162q.054.054.162.054h1.674q.054 0 .108-.054.108-.108.162-.108t0 .108q0 .054.108.054l.594-.162q.216 0 1.458.864l.162-.108.486.756q.324.108.378.108v.378q.054.162.054.324 0-.108-.378.432v.378l-.108.108a.6.6 0 0 0-.108.162v.486q0 .27-.054.648l-.594 1.512-1.404 2.214-.324.324q-.162.162-.054.486-.486.216-.918.918l.054.594.162-.162q.108-.108.324-.216.27-.162.54-.378.054-.108.324-.378l1.566-.972q.918-.486.702-.486h.108q0 .054.054.054t.162-.108q.162-.108.216-.108t.054.054h.108q.054 0 .108-.054a.4.4 0 0 1 .162-.054q.054 0 .756-.27t.756-.27.216.108a.9.9 0 0 0 .27.054q.054 0 .324-.054t.378-.054q.486 0 1.188.648.108.162.324.432.27.216.54.486.054.216.162.378l.216.324.486 1.998q0 .054.108.378.162.27.162.324l-.216.378-.108-.108-.108.054-.108-.108q-.27.108-.27.378 0 .054.054.216.108.162.108.27v1.134q.108.162.216.432.108.216.216.594.054.216.108.54.054.27.162.648.162.162.378.432.27.27.54.702t.594.594h.162q.108 0 .162-.054a.5.5 0 0 1 .216-.054l.162.108h.648q.324 0 .324.378 0 .324-.378.54t-.54.216q-.054 0-.648-.432-.54-.486-.702-.486t-.054.108q-.054-.054-.054-.27-.162-.054-1.026-1.404l-.702-.756-.324-.972-.432-.378q.108-.108 0-.216t-.27-.648l-.162-.486-.702-.918-.594-1.188-.162-.378a2.4 2.4 0 0 0-.378-.81q-.27-.378-.594-.378-.108 0-.108.054h-.054q.162 0-.54-.378-.054-.108-.486-.162l-.216-.27-.162.324-.378-.162q-.108 0-.216.108-.054.054-.108.054t-.054-.054h-.054q-.054 0-.162.162t-.216.162q-.162 0-.162-.108l-.648.378-.216-.054-1.404.864h-.108q0-.054-.054-.054.108 0-1.134 1.08-.54.27-.756.54-.324.27-.81.702-.486.378-1.188.918-.54.432-.756.702-.162.27-.432.648-.054 0-.216.27a6 6 0 0 1-.324.486q.054-.054-.108-.054.162 0-.162.108l-.594.81-.324.162q-.216.054-.594.27-.162-.162-.486-.162l-.108-.378q0-.648.378-.648.054 0 0 .054 0 .054.108.054l.756-.702.54-.648a.9.9 0 0 0 .216-.162q.162-.108.378-.27.108 0 .162-.054a3.5 3.5 0 0 0 .432-.54q.27-.324.594-.756 0-.162.054-.27.54-.648.648-1.08l.54-.648.324-.864.648-1.026.432-.864q.324-.756.648-1.728.378-.972.756-2.214 0-.162.054-.216 0-.378-.054-.27a.75.75 0 0 0-.054-.324.6.6 0 0 0-.054-.27v-.324a3 3 0 0 0-.162-.378 6 6 0 0 1-.216-.486l-.324-.108-.108-.108q-.108-.162-.162-.162h-.108q0 .054-.054.054l-.378-.216q-.054 0-.378.162t-.378.162q-.108 0-.054-.054h-.108q-.054 0-.216.108t-.27.108l-.108-.216-.756.162q-.378.108-.54.216a1 1 0 0 1-.216.054q-.054 0-.054-.054h-.054q-.108 0-.27.162l-.918.324q-.432-.216-.648-.216-.108 0-.324.216-.054.162-.27.324a.8.8 0 0 0-.324.27.4.4 0 0 1-.162-.054.5.5 0 0 0-.216-.054q-.108.108-.054.27h-.108q-.378 0-.864.324-.432.324-1.512.756-.378.216-1.08.702-.648.486-.702.486-.108 0-.108-.054h-.108q-.054 0-.972.756a2 2 0 0 1-.27.108 4 4 0 0 1-.432.108q-.162.594-1.728 1.026-.108.324-.864.702 0 .054-.108.27-.702.216-1.08.756 0 .216-.27.54-.54.54-.648 1.134-.54.864-.486.81.054.054 0 .054v-.054a.4.4 0 0 1-.162-.054l-.27.324q0 .108-.054.432-.054.27-.054.378l-.216-.162q-.054 0-.108-.054l-.324.54q-.054 0-.162.162-.486.216-.432.756l-.648.594q-.054.054-.108.27l-.162.486q-.108.054-.27.162-.108.108-.324.216l-.216.594q-.216 0-.594.54l-.27.27q-.108.162-.216.486-1.134.486-1.296 1.62-.378.054-.648.486 0 .162-.162.594-.216.108-.486.324-.216.162-.54.432l-.486.648-.27.27a.9.9 0 0 1-.216.162q-.162.216-.054.324a2 2 0 0 1-.27.108q-.162.054-.378.162l-.162.54q0 .162-.324.27-.324.648-.54.648-.108 0-.162-.054-.27.54-.81 1.242-.054.054-.054.162a.58.58 0 0 0-.432.162q-.162.216-.27.216h-.054q0-.054-.054-.054l-.108.162q-.108.162-.324.54l-.27.432q-.324.108-.378.324a1.04 1.04 0 0 0-.54.432q-.162.324-.216.324h-.108q-.054-.054-.108-.054-.216 0-.378.432-.378.162-.486.432l-.972.81q-.594.27-.81.594v.054q0 .162-.162.432-.108.27-.81.702M30.732 14.048l-.216-.216.054-.108.216.216zm-6.534 9.126h.054zm24.786 20.79.162-.54a.6.6 0 0 1 .27-.054q.27 0 .27.486-.594.216-.702.108m50.05 14.364a.4.4 0 0 1-.162-.054h-.162q-.324 0-1.296-.27h-.216q-.162 0-.378-.054-.108 0-.324-.162-.27-.108-.324-.108t-.054.054h-.054q-.108 0-.162-.108-.108-.054-.594-.27-.162 0-.486-.108a3.7 3.7 0 0 1-.756-.378q-.432-.27-1.026-.648l-.54-.54a6.5 6.5 0 0 1-.702-.702q-.054.054-.108.054 0-.162.054-.216a1.7 1.7 0 0 1-.432-.324l-.54-1.08a16 16 0 0 1-.108-.81 14 14 0 0 0-.162-.972q-.162-.648-.216-.648.054-.108.108-.324a.9.9 0 0 0 .054-.27v-.486q.108-.432.054-.486.108-.81.54-1.944v-.216l.108-.162.378-1.242q.108-.108.216-.108.054 0 .162.108l.162-.486q.648-.972 1.998-2.484.27-.108 1.242-.972.27-.108.648-.594.27-.378 1.188-.756a.5.5 0 0 0-.054.216q.162-.162.162-.27a7 7 0 0 1 .324-.432q.162-.216.432-.486l.216-.108a.6.6 0 0 1 .162-.108q.594-.162.756-.324.486 0 1.026-.81h.054q0 .054.054.054t.162-.162q.108-.108.162-.108h.054q0 .054.054.054t.27-.27q.216-.216.27-.216.108 0 .162.054.054.108.108.108.27 0 .486-.324.216 0 .594-.324 0 .054.054.108.27-.27 1.242-.648a.6.6 0 0 0 .108-.162q.054-.054.432-.054l.216-.162q.054 0 .054.054h.162q-.054.054.27-.162.324-.162.432-.162-.054 0 .054.108l.108-.108.054.054.216-.216q.432-.108.81-.324l.108.108q.27-.27.378-.27.054 0 .054.054h.054q.27 0 .54-.27 0 .108.108.108.054 0 .054-.054.054-.054.108-.054t.054.054q.054.054.108.054t.162-.108q.162-.108.216-.108.594-.27 1.134-.324.054 0 .162-.108t.216-.108q.054 0 .054.054t.054.054.162-.054q.162-.108.216-.108l.486-.108q.054 0 .054.054h.108l1.296-.378q.054 0 .108.054h.054q.162 0 .162-.054 0 .054.108.054h.108q0-.054.054-.054.108 0 .054.054 0 .054.054.054a1 1 0 0 0 .216-.054q.216-.108.27-.108-.054 0 .108.162.216-.216.162-.216.108 0 .054.054h.054q.216 0 .594-.216l-.162-.324q-.108-.108-.108-.216t.054-.324q.108-.216.108-.27 0-.108-.108-.162a.4.4 0 0 1-.054-.162v-.432a.72.72 0 0 0-.162-.432q.054-.054.054-.216a19 19 0 0 0-.108-.756 2.8 2.8 0 0 0-.162-.648q0-.324-.216-.756 0-.216-.054-.486 0-.324-.054-.702l-.324-.27h-.108l-.216.432q-.378.378-1.026 1.188-.378.216-.81.756-.27.216-.702.81-.486.27-.918.864a3.2 3.2 0 0 0-.972.756q-.054 0-.27.216-.162.216-.324.162l-.216.27-1.62.81-.432.324q-.702.324-.864.324-.108 0-.54.324-.27.054-.378.108h-.054a.58.58 0 0 1-.432-.162l-.108.108h-.162q-.324 0-.864-.486t-.648-.702a7 7 0 0 1-.108-.54q0-.324-.054-.972-.054.054-.054-.108 0-.054.324-.594.108.108.108.162v.324q0 .108-.108.324.108.108.108.162.27-.108.324-.81v.054l.054.054.486-.324v-.054q0 .054.108.162v-.108q0-.27-.108-.27l-.216.054a1.2 1.2 0 0 1 .162-.378h-.162l-.108-.054-.162-.162-.108.108-.324-.216.108-.162h-.162q.216-.216.378-.216v-.162a.5.5 0 0 0-.054-.216q.108-.108.324-.486.216-.432.108-.54v-.324q.108 0 .108-.216 0 .054.054.108.324-.216.54-.756 0-.108.108-.108.054 0 .054.054h.108q.162 0 .216-.216a.38.38 0 0 1 .324-.324 7 7 0 0 1 .324-.432q.216-.324.702-.756-.108-.108-.432-.108l-1.674.108-.486-.108a3.7 3.7 0 0 0-.756-.108q.108-.108-.162-.27l.162-.108.486.108q.054 0 .108-.054h.162l.108-.108q.162.162.216.162h.81q.378 0 .486.054.108 0 0 0a.5.5 0 0 0 .216-.054h.162l.378.108a1 1 0 0 0 .216-.054q.162-.108.216-.108h.108q.054.054.108.054.108 0 .324-.054.27-.108.324-.108.108 0 .108.054t.054.054q.216 0 .594-.054a6 6 0 0 1 .648-.054q.054 0 .54-.27.486-.324.54-.324t.108.054l.162-.162.324.108v.162q0 .162-1.08.756l-1.674 1.62q-.108 0-.162.054-.54.594-1.35 1.998-.108 0-.216-.108.054.054.054.27a2 2 0 0 0-.27.378q-.108.216-.324.54a2 2 0 0 0-.162.81q0 .648.162 1.242.054-.054.216-.054v.378l.216-.054.108.108h.108a.6.6 0 0 0 .216.108q.216.054.27.054.108 0 .108-.054h.27q.108-.054.27-.108.054.216.162.216.054 0 .162-.108.162-.162.216-.162h.108q0 .054.054.054.162 0 .594-.324.486-.324.54-.54.054.054.108.054-.108-.054.486-.27.594-.27.918-.81l.378.108q.162-.432.972-1.134l.27-.432.162-.162q.108-.162.594-.486l.216-.378q.054-.054.162-.054a.9.9 0 0 0 .27-.054l.378-.54q.162-.108.486-.486.108 0 .162-.054v-.27l-.162-.324a15 15 0 0 0-.486-1.512q.108-.216.054-.378-.054-.054-.162-.054l.054-.216q0-.054-.216-.486-.162-.486-.162-.54 0-.27.216-.324h.108q.162 1.026.486 1.62.108.378.324.702 0-.108.054-.108v.756l.054.054h.054l.378-.324v-.216a.6.6 0 0 0 .108-.162q.108-.108.324-.216.054-.054.054-.324a.96.96 0 0 1 .432-.27q.108-.27.27-.594.216-.378.486-.864l.27-.162.162.216q-.108 0-.486.864 0 .216-.324.972 0-.108-.162-.108 0 .054-.486 1.188-.108 0-.648.702-.054.054-.054.162 0 .216.162.378.054.378.108.918.108.486.324 1.188l.162.486q0 .054-.054.108.054.27.108.702.108.378.27.918v.054q0 .108.054.27.108.108.108.216v.324l.216.486q.108.432.378 1.026h.594q.324 0 .756.054.108 0 .27.054h.216l.054.108q.108.054.378-.054h.54q.216.216.324.216.324 0 .27-.054h.27l-.54.27-.162-.108h.054-.378a13 13 0 0 0-1.08-.108q0-.108-.108-.108l-.648.108-.432-.108q-.162 0-.324.162l-.108.432.162.54v.162q0 .216.054.486.108.27.162.594l-.108 1.566-.054 1.998a.51.51 0 0 1 .216.432l-.162.54v.594q0 .162.054.324v.162q0 .162-.054.378l-.162.162q-.054.162-.054.486v1.026q-.054 0-.108.108a3.6 3.6 0 0 0-.108.594q0 .27-.216.594-.162.378-.324 1.458-.378.27-.648 1.188-.108.378-.324.756a2.8 2.8 0 0 1-.378.648q0 .378-.486 1.134a2.5 2.5 0 0 1-.486.378q-.432.972-1.782 2.16v.108q-.108.162-.486.54l-1.998 1.566q-.486.54-1.026.702-.324.108-.702.432 0-.108-.054-.108l-1.08.486q-.54.216-.594.324 0 .162-.162.162h-.108q0-.054-.054-.054-.216 0-.648.216-.54 0-1.134.324h-.972q-.108.054-.486.216t-.432.162h-.216a.9.9 0 0 0-.27-.054q-.054 0-.108.054-.054.108-.108.108t-.108-.108a.4.4 0 0 0-.162-.054q.054.054-.108.108h-.432a1 1 0 0 1-.216.054q-.108 0 0 0-.054 0-.054-.054t-.054-.054a.4.4 0 0 0-.162.054.4.4 0 0 1-.162.054m17.28-35.37q-.054 0 0 0m-19.71 33.696h.27q.054 0 .216-.108l.216-.108h.054-.054q.054.054.432.216V56.6l.054-.054q.054.054.162.054l.162-.108q.054.054.216.054.27-.108.486-.324.432.27.486.27t.054-.054h.108l.702.162q.162 0 .324-.162.108-.108.378-.108h.216v.162h.378q.162.054.108.108.054 0 .216-.27a.6.6 0 0 0 .216-.108h.108q-.054-.054 0-.108.918-.594.972-.594.216 0 .27.054v.324q0 .162-.324.432.486-.108.54-.162v-.216q.702-.27 1.026-.432l.324-.162.972-.81q.108.108.054.108.054 0 .216-.216v-.216l.162.108q.054-.054.108-.054l.108.108q0-.162.108-.162h.108q.054.054.108.054t.162-.108q.162-.108.27-.108t.324.162q.108-.108.216-.324l.216-.432q.27-.162.216-.162.054 0 .216.054a.9.9 0 0 0 .27.054q.054 0 .324-.27 0-.27-.054-.432l.162-.54q0-.054.702-.54l.324-.486q.27-.324.864-.378.108-.81.432-.972v-.486l.378-.324q-.108-.27 0-.756.108 0 .378-.324.324-.324.486-.324.216 0 .216-.378 0-.108-.054-.324 0-.162-.054-.378 0-.054.162-.27.216-.162.378-.162.216-.27.108-.756.324-.378.594-1.35l.216-.432q.054.054.216.054v-.918q0-.216-.054-.432.162-.378.108-.486-.054 0-.054-.054.108-.108.162-.756v-.27q0-.108.054-.324l.162.162q0-1.296.054-1.134.216-.054.216-1.728v-.81q0-.54-.054-1.296a5.6 5.6 0 0 0-.324-1.404q-.216.162-.648.162l-.486-.108q0 .162-.054.162l-.162-.108q-.162.324-.702.324l-.756.108-.054.108q-.108-.054-.432-.054-.054.054-.054.108t-.054.054h-.216a.5.5 0 0 0-.216-.054q-.054 0-.216.108t-.216.108h-.216a.5.5 0 0 0-.216-.054q.108.162-.216.27l-.108-.108q-.108.108-.162.108v-.162q-.054.054-.216.162-.108.108-.162.108h-.054q0-.054-.108-.054-.054 0-.432.162-.378.216-.432.216h-.054q0-.054-.054-.054.054 0 0 0 0 .054-.108.108h-.27q-.702 0-1.296.432-1.782 1.134-1.62 1.08-.054-.108-.378-.27l-.216.108-.108.108q.108.216 0 .324h-.162q.054.162-.162.378-.108 0-.27-.216l-.648-.054q-.216 0-.486.918-.378.054-.918.54v.162l-.108.108-.162.162-.162-.162q-.054 0-.378.216-.378.27-.432.27l-.378-.108q-.054 0-.486.486-.486.54-.594.54-.054 0-.054-.054h-.054q-.054 0-.27.216-.27.216-.378.324v.108q0 .162-.27.432h-.108q0-.054-.054-.054t-.162.108-.162.108h-.108v-.108q0-.108-.162-.432-.324.324-.324.594.054 0 .108.054l-.54.216q.054.108-.054.216h-.054q0-.054-.054-.054l-.162.162q.054.054.054.162a9 9 0 0 0-.756.486q.054 0 .108.054a.52.52 0 0 0-.162.378h-.432v.162q0 .594-.486.756 0 .054.054.054v.054q0 .216-.432.54l-.594.486q0 .054.108.108.054.054.054.108-.054.054-.108.054-.054-.054-.054-.108-.054.27-.324.594t-.486.972l-.162.162a6 6 0 0 0-.27.324q-.216.864-.648.864l-.216-.054q0 .054-.054.162v.216l-.108.162q.054 0 .108.054l.108-.108.108.108v.324q0 .162-.216.216l-.054.378q0 .324.324.486-.162.054-.324.324-.054-.054-.108-.054l.108.486q-.108.108 0 .756.054.054.108.054.054.054.108.162v.108q0 .216-.054.432.108.378.486.756.324.432.486.756l.216-.162q.162.054.378.324.162.27.54.54l.108-.108q.216.216.378.432.108.216.216.324.27-.162.486-.162t.378.162.432.324q.108-.162.216-.162h.324q.108.216.27.432l.108.108q.216 0 .378.054m-6.318-5.616v-.054z"/></g><defs><clipPath id="a"><path fill="#fff" d="M0 0h300v121H0z"/></clipPath></defs></svg>