<svg width="390" height="439" viewBox="0 0 390 439" fill="none" xmlns="http://www.w3.org/2000/svg">
<g clip-path="url(#clip0_85_18)">
<path d="M23.3412 167.554V177.793H12.7716V196.951H22.2402V207.19H12.7716V229.761H23.3412V240H2.4222V167.554H23.3412ZM65.3964 240H55.1571L56.9187 176.913H57.249L49.9824 240H42.7158L35.5593 176.913H35.7795L37.6512 240H27.3018V167.554H41.2845L47.0097 221.393H45.6885L51.4137 167.554H65.3964V240ZM108.017 240H97.7774L99.539 176.913H99.8693L92.6027 240H85.3361L78.1796 176.913H78.3998L80.2715 240H69.9221V167.554H83.9048L89.63 221.393H88.3088L94.034 167.554H108.017V240ZM132.691 167.554L138.746 240H128.287L127.406 226.568H121.681L120.91 240H110.34L116.506 167.554H132.691ZM124.543 171.958L122.121 216.328H126.965L124.543 171.958ZM151.867 167.554L160.235 215.227V215.338L159.024 167.554H169.373V240H158.583L150.216 192.767H150.106L151.427 240H141.078V167.554H151.867ZM186.245 241.101C181.914 241.101 178.721 240.147 176.666 238.238C174.684 236.33 173.693 233.357 173.693 229.32V167.554H183.933V228.219C183.933 229.907 184.703 230.752 186.245 230.752C187.786 230.752 188.557 229.907 188.557 228.219V167.554H198.906V229.32C198.906 233.357 197.879 236.33 195.824 238.238C193.842 240.147 190.649 241.101 186.245 241.101ZM224.013 167.554V177.793H213.443V196.951H222.912V207.19H213.443V229.761H224.013V240H203.094V167.554H224.013ZM238.323 229.761H248.012V240H227.974V167.554H238.323V229.761ZM273.567 229.761H283.256V240H263.218V167.554H273.567V229.761ZM298.063 241.101C293.732 241.101 290.539 240.147 288.484 238.238C286.502 236.33 285.511 233.357 285.511 229.32V178.234C285.511 174.123 286.502 171.151 288.484 169.316C290.539 167.407 293.732 166.453 298.063 166.453C302.467 166.453 305.66 167.407 307.642 169.316C309.697 171.151 310.724 174.123 310.724 178.234V229.32C310.724 233.357 309.697 236.33 307.642 238.238C305.66 240.147 302.467 241.101 298.063 241.101ZM295.751 228.219C295.751 229.907 296.521 230.752 298.063 230.752C299.604 230.752 300.375 229.907 300.375 228.219V179.225C300.375 177.537 299.604 176.692 298.063 176.692C296.521 176.692 295.751 177.537 295.751 179.225V228.219ZM353.007 240H342.767L344.529 176.913H344.859L337.593 240H330.326L323.17 176.913H323.39L325.261 240H314.912V167.554H328.895L334.62 221.393H333.299L339.024 167.554H353.007V240ZM377.681 167.554L383.736 240H373.277L372.396 226.568H366.671L365.9 240H355.33L361.496 167.554H377.681ZM369.533 171.958L367.111 216.328H371.955L369.533 171.958Z" fill="#EF2B20"/>
</g>
<defs>
<clipPath id="clip0_85_18">
<rect width="390" height="439" fill="white"/>
</clipPath>
</defs>
</svg>
