<svg xmlns="http://www.w3.org/2000/svg" width="234" height="67" fill="none"><path fill="#ED150C" d="M.393 1.858h10.89v54.351h8.712V67H.393zM33.934 67.99c-8.415 0-12.177-3.366-12.177-11.286v-44.55c0-7.92 3.762-11.286 12.177-11.286s12.177 3.366 12.177 11.286v44.55c0 7.92-3.762 11.286-12.177 11.286m-1.287-54.846v42.57c0 .99.396 1.485 1.287 1.485s1.287-.495 1.287-1.485v-42.57c0-.99-.396-1.485-1.287-1.485s-1.287.495-1.287 1.485m54.19-11.286V67h-10.89l1.88-50.688L72.085 67h-8.118l-5.742-50.688L60.106 67h-10.89V1.858h14.751l4.06 40.59 4.058-40.59zM88.53 67l4.95-65.142h17.028L115.359 67h-11.088l-.396-10.989h-3.762L99.717 67zm11.979-21.78h2.97l-1.485-39.006zM117.182 67V1.858h10.494l6.93 37.62-1.584-37.62h10.89V67h-10.494l-6.93-36.729L128.072 67zm29.874 0V1.858h10.89V67zm13.326 0-.594-3.366 11.781-50.985h-9.405V1.858h21.978v3.366l-11.781 50.985h11.385V67zm25.636 0V1.858h20.394v10.791h-9.504v14.949h8.514V38.29h-8.514v17.919h9.504V67zm23.3 0V1.858h13.266c7.425 0 11.088 3.465 11.088 10.494v44.154c0 7.029-3.663 10.494-11.088 10.494zm10.89-10.791h.891c1.089 0 1.683-.693 1.683-1.98v-39.6c0-1.287-.594-1.98-1.683-1.98h-.891z"/></svg>