<svg width="390" height="439" viewBox="0 0 390 439" fill="none" xmlns="http://www.w3.org/2000/svg">
<g clip-path="url(#clip0_85_18)">
<path d="M14.2796 231.552H25.1124V243H2.7082V162H14.2796V231.552ZM41.7009 244.231C36.859 244.231 33.2891 243.164 30.9912 241.03C28.7754 238.897 27.6675 235.573 27.6675 231.059V173.941C27.6675 169.345 28.7754 166.021 30.9912 163.97C33.2891 161.836 36.859 160.769 41.7009 160.769C46.6249 160.769 50.1948 161.836 52.4107 163.97C54.7085 166.021 55.8575 169.345 55.8575 173.941V231.059C55.8575 235.573 54.7085 238.897 52.4107 241.03C50.1948 243.164 46.6249 244.231 41.7009 244.231ZM39.1158 229.828C39.1158 231.716 39.9775 232.66 41.7009 232.66C43.4243 232.66 44.286 231.716 44.286 229.828V175.049C44.286 173.161 43.4243 172.217 41.7009 172.217C39.9775 172.217 39.1158 173.161 39.1158 175.049V229.828ZM103.165 243H91.7169L93.6865 172.464H94.0558L85.9312 243H77.8066L69.8051 172.464H70.0513L72.144 243H60.5726V162H76.2063L82.6075 222.196H81.1303L87.5315 162H103.165V243ZM130.786 162L137.556 243H125.862L124.877 227.982H118.476L117.614 243H105.796L112.69 162H130.786ZM121.676 166.924L118.968 216.533H124.384L121.676 166.924ZM168.003 244.231C163.079 244.231 159.468 243.164 157.17 241.03C154.954 238.897 153.846 235.573 153.846 231.059V216.41H165.418V229.828C165.418 231.716 166.28 232.66 168.003 232.66C169.726 232.66 170.588 231.716 170.588 229.828V221.334C170.588 218.872 169.973 216.533 168.742 214.318C167.593 212.102 165.828 209.394 163.448 206.193L162.956 205.578C160.001 201.474 157.745 197.822 156.185 194.622C154.626 191.421 153.846 187.687 153.846 183.42V173.941C153.846 169.345 154.954 166.021 157.17 163.97C159.468 161.836 163.079 160.769 168.003 160.769C172.845 160.769 176.374 161.836 178.59 163.97C180.887 166.021 182.036 169.345 182.036 173.941V189.451H170.588V175.049C170.588 173.161 169.726 172.217 168.003 172.217C166.28 172.217 165.418 173.161 165.418 175.049V184.404C165.418 186.866 165.992 189.205 167.141 191.421C168.29 193.555 170.055 196.263 172.435 199.546L172.927 200.161C175.881 204.265 178.138 207.916 179.697 211.117C181.257 214.318 182.036 218.011 182.036 222.196V231.059C182.036 235.573 180.887 238.897 178.59 241.03C176.374 243.164 172.845 244.231 168.003 244.231ZM209.909 162V173.448H198.091V194.868H208.678V206.316H198.091V231.552H209.909V243H186.52V162H209.909ZM223.726 162L227.788 237.953L231.973 162H243.668L236.897 243H218.802L211.908 162H223.726ZM260.095 244.231C255.253 244.231 251.683 243.164 249.385 241.03C247.169 238.897 246.061 235.573 246.061 231.059V162H257.51V229.828C257.51 231.716 258.371 232.66 260.095 232.66C261.818 232.66 262.68 231.716 262.68 229.828V162H274.251V231.059C274.251 235.573 273.102 238.897 270.804 241.03C268.589 243.164 265.019 244.231 260.095 244.231ZM290.538 231.552H301.371V243H278.966V162H290.538V231.552ZM317.959 244.231C313.117 244.231 309.547 243.164 307.249 241.03C305.034 238.897 303.926 235.573 303.926 231.059V173.941C303.926 169.345 305.034 166.021 307.249 163.97C309.547 161.836 313.117 160.769 317.959 160.769C322.883 160.769 326.453 161.836 328.669 163.97C330.967 166.021 332.116 169.345 332.116 173.941V231.059C332.116 235.573 330.967 238.897 328.669 241.03C326.453 243.164 322.883 244.231 317.959 244.231ZM315.374 229.828C315.374 231.716 316.236 232.66 317.959 232.66C319.683 232.66 320.544 231.716 320.544 229.828V175.049C320.544 173.161 319.683 172.217 317.959 172.217C316.236 172.217 315.374 173.161 315.374 175.049V229.828ZM348.895 162L358.25 215.302V215.426L356.896 162H368.468V243H356.404L347.048 190.19H346.925L348.402 243H336.831V162H348.895ZM385.148 162V243H373.577V162H385.148Z" fill="#EF2B20"/>
</g>
<defs>
<clipPath id="clip0_85_18">
<rect width="390" height="439" fill="white"/>
</clipPath>
</defs>
</svg>
