<svg width="225" height="150" viewBox="0 0 225 150" fill="none" xmlns="http://www.w3.org/2000/svg">
<g clip-path="url(#clip0_57_778)">
<path d="M14.1386 24.506C12.8626 24.506 11.5756 24.341 10.2776 24.011C8.9796 23.659 7.8026 23.219 6.7466 22.691C6.3946 23.945 6.0646 25.32 5.7566 26.816C5.4486 28.312 5.1626 29.918 4.8986 31.634C4.6566 32.866 4.4146 33.669 4.1726 34.043C3.9306 34.417 3.6226 34.604 3.2486 34.604C2.8746 34.604 2.5776 34.428 2.3576 34.076C2.1376 33.702 2.0276 33.009 2.0276 31.997C2.0276 31.799 2.0826 31.337 2.1926 30.611C2.3026 29.885 2.4456 28.994 2.6216 27.938C2.8196 26.86 3.0286 25.705 3.2486 24.473C3.4686 23.219 3.6886 21.965 3.9086 20.711C3.3806 20.139 3.1166 19.6 3.1166 19.094C3.1166 18.852 3.1826 18.621 3.3146 18.401C3.4466 18.159 3.7216 18.038 4.1396 18.038C4.2056 18.038 4.2826 18.049 4.3706 18.071C4.6126 16.751 4.8106 15.574 4.9646 14.54C5.1406 13.484 5.2396 12.725 5.2616 12.263C5.3056 11.471 5.4596 10.921 5.7236 10.613C5.9876 10.283 6.2956 10.118 6.6476 10.118C6.9336 10.118 7.1646 10.239 7.3406 10.481C7.5166 10.701 7.6046 11.262 7.6046 12.164C7.6046 12.736 7.5606 13.506 7.4726 14.474C8.5506 12.274 9.6726 10.712 10.8386 9.788C12.0266 8.864 13.3466 8.402 14.7986 8.402C16.1186 8.402 17.2516 8.765 18.1976 9.491C19.1436 10.195 19.8696 11.196 20.3756 12.494C20.8816 13.792 21.1346 15.321 21.1346 17.081C21.1346 19.567 20.5296 21.426 19.3196 22.658C18.1096 23.89 16.3826 24.506 14.1386 24.506ZM7.6046 19.952C8.4406 20.436 9.3756 20.887 10.4096 21.305C11.4436 21.701 12.5106 21.899 13.6106 21.899C15.3926 21.899 16.6906 21.503 17.5046 20.711C18.3406 19.897 18.7586 18.588 18.7586 16.784C18.7586 14.694 18.4286 13.209 17.7686 12.329C17.1086 11.449 16.2066 11.009 15.0626 11.009C13.7646 11.009 12.4666 11.735 11.1686 13.187C9.8706 14.617 8.6826 16.872 7.6046 19.952ZM29.801 35.33C28.503 35.33 27.48 34.835 26.732 33.845C25.984 32.855 25.61 31.568 25.61 29.984C25.61 29.412 25.687 28.807 25.841 28.169C26.017 27.509 26.237 26.915 26.501 26.387C26.347 26.233 26.226 26.024 26.138 25.76C26.05 25.474 26.006 25.122 26.006 24.704C26.006 23.406 26.226 22.218 26.666 21.14C27.106 20.062 27.689 19.127 28.415 18.335C29.141 17.521 29.944 16.894 30.824 16.454C31.726 16.014 32.639 15.794 33.563 15.794C35.081 15.794 36.313 16.344 37.259 17.444C38.205 18.522 38.678 20.172 38.678 22.394C38.678 23.56 38.502 24.748 38.15 25.958C37.82 27.168 37.358 28.334 36.764 29.456C36.192 30.578 35.521 31.579 34.751 32.459C34.003 33.339 33.2 34.043 32.342 34.571C31.506 35.077 30.659 35.33 29.801 35.33ZM28.679 25.265C28.811 25.441 28.877 25.672 28.877 25.958C28.877 26.288 28.811 26.618 28.679 26.948C28.569 27.278 28.448 27.729 28.316 28.301C28.184 28.873 28.118 29.687 28.118 30.743C28.118 31.799 28.536 32.327 29.372 32.327C30.296 32.327 31.154 31.964 31.946 31.238C32.738 30.49 33.442 29.533 34.058 28.367C34.674 27.201 35.147 25.958 35.477 24.638C35.829 23.296 36.005 22.031 36.005 20.843C36.005 20.073 35.862 19.534 35.576 19.226C35.29 18.896 34.773 18.731 34.025 18.731C33.255 18.731 32.452 18.995 31.616 19.523C30.802 20.029 30.12 20.722 29.57 21.602C29.02 22.482 28.745 23.472 28.745 24.572C28.745 24.814 28.723 25.045 28.679 25.265ZM43.4315 35.627C43.0795 35.627 42.7825 35.484 42.5405 35.198C42.2985 34.912 42.1775 34.516 42.1775 34.01C42.1775 33.636 42.2545 33.02 42.4085 32.162C42.5845 31.282 42.7715 30.259 42.9695 29.093C43.1895 27.927 43.3765 26.717 43.5305 25.463C43.6845 24.187 43.7615 22.966 43.7615 21.8C43.7615 21.228 43.9045 20.81 44.1905 20.546C44.4985 20.26 44.8395 20.117 45.2135 20.117C45.5655 20.117 45.8295 20.337 46.0055 20.777C46.1815 21.217 46.2145 22.097 46.1045 23.417C47.1165 21.173 48.2275 19.369 49.4375 18.005C50.6695 16.619 51.8905 15.629 53.1005 15.035C54.3105 14.419 55.3995 14.111 56.3675 14.111C57.0055 14.111 57.4675 14.243 57.7535 14.507C58.0615 14.749 58.2155 15.024 58.2155 15.332C58.2155 15.75 58.0395 16.08 57.6875 16.322C57.3575 16.542 56.7745 16.806 55.9385 17.114C54.9705 17.488 54.0795 17.928 53.2655 18.434C52.4735 18.918 51.7145 19.556 50.9885 20.348C50.2845 21.14 49.5915 22.152 48.9095 23.384C48.2275 24.594 47.5455 26.09 46.8635 27.872C46.1815 29.654 45.4555 31.799 44.6855 34.307C44.5535 34.791 44.3775 35.132 44.1575 35.33C43.9595 35.528 43.7175 35.627 43.4315 35.627ZM54.3501 24.44C53.7561 24.396 53.4811 24.011 53.5251 23.285C53.5471 23.109 53.6681 22.9 53.8881 22.658C54.1081 22.394 54.3611 22.251 54.6471 22.229C55.3291 22.163 56.1651 22.064 57.1551 21.932C58.1671 21.778 59.2781 21.602 60.4881 21.404C60.7081 20.326 60.9721 19.193 61.2801 18.005C61.5881 16.817 61.9291 15.662 62.3031 14.54C62.6771 13.396 63.0731 12.362 63.4911 11.438C63.9091 10.514 64.3491 9.788 64.8111 9.26C65.0531 9.018 65.2731 8.853 65.4711 8.765C65.6691 8.655 65.8451 8.6 65.9991 8.6C66.3071 8.6 66.5491 8.732 66.7251 8.996C66.9231 9.26 67.0221 9.557 67.0221 9.887C67.0221 10.063 66.9891 10.239 66.9231 10.415C66.4831 11.647 66.0101 13.165 65.5041 14.969C64.9981 16.773 64.4591 18.742 63.8871 20.876C65.9111 20.546 67.9351 20.194 69.9591 19.82C71.9831 19.446 73.7211 19.105 75.1731 18.797C75.5911 18.621 75.9101 18.654 76.1301 18.896C76.3721 19.138 76.4931 19.38 76.4931 19.622C76.4931 19.93 76.4051 20.161 76.2291 20.315C76.0751 20.469 75.9101 20.601 75.7341 20.711L75.7011 20.744C75.2611 20.92 74.6011 21.129 73.7211 21.371C72.8411 21.591 71.8291 21.833 70.6851 22.097C69.5411 22.339 68.3201 22.581 67.0221 22.823C65.7461 23.065 64.4811 23.285 63.2271 23.483C62.7211 25.419 62.2041 27.41 61.6761 29.456C61.1701 31.48 60.6641 33.471 60.1581 35.429C59.9381 36.221 59.6851 36.716 59.3991 36.914C59.1351 37.134 58.8491 37.244 58.5411 37.244C58.1891 37.244 57.8811 37.112 57.6171 36.848C57.3751 36.584 57.3421 36.045 57.5181 35.231L59.9271 23.978C58.6071 24.176 57.4411 24.319 56.4291 24.407C55.4391 24.495 54.7461 24.506 54.3501 24.44ZM74.1112 34.627C73.7592 34.627 73.4622 34.484 73.2202 34.198C72.9782 33.912 72.8572 33.516 72.8572 33.01C72.8572 32.636 72.9342 32.02 73.0882 31.162C73.2642 30.282 73.4512 29.259 73.6492 28.093C73.8692 26.927 74.0562 25.717 74.2102 24.463C74.3642 23.187 74.4412 21.966 74.4412 20.8C74.4412 20.228 74.5842 19.81 74.8702 19.546C75.1782 19.26 75.5192 19.117 75.8932 19.117C76.2452 19.117 76.5092 19.337 76.6852 19.777C76.8612 20.217 76.8942 21.097 76.7842 22.417C77.7962 20.173 78.9072 18.369 80.1172 17.005C81.3492 15.619 82.5702 14.629 83.7802 14.035C84.9902 13.419 86.0792 13.111 87.0472 13.111C87.6852 13.111 88.1472 13.243 88.4332 13.507C88.7412 13.749 88.8952 14.024 88.8952 14.332C88.8952 14.75 88.7192 15.08 88.3672 15.322C88.0372 15.542 87.4542 15.806 86.6182 16.114C85.6502 16.488 84.7592 16.928 83.9452 17.434C83.1532 17.918 82.3942 18.556 81.6682 19.348C80.9642 20.14 80.2712 21.152 79.5892 22.384C78.9072 23.594 78.2252 25.09 77.5432 26.872C76.8612 28.654 76.1352 30.799 75.3652 33.307C75.2332 33.791 75.0572 34.132 74.8372 34.33C74.6392 34.528 74.3972 34.627 74.1112 34.627ZM88.0516 35.858C87.2156 35.858 86.5226 35.473 85.9726 34.703C85.4446 33.911 85.1806 32.888 85.1806 31.634C85.1806 30.468 85.4666 29.313 86.0386 28.169C86.6326 27.025 87.4136 25.925 88.3816 24.869C89.3496 23.813 90.4056 22.845 91.5496 21.965C92.6936 21.063 93.8376 20.282 94.9816 19.622C96.1476 18.962 97.2146 18.445 98.1826 18.071C99.1506 17.697 99.9206 17.51 100.493 17.51C100.801 17.51 101.054 17.576 101.252 17.708C101.45 17.818 101.549 18.027 101.549 18.335C101.549 18.533 101.472 18.72 101.318 18.896C101.34 18.896 101.362 18.896 101.384 18.896C101.868 18.896 102.11 19.182 102.11 19.754C102.11 19.952 102.033 20.359 101.879 20.975C101.725 21.569 101.549 22.317 101.351 23.219C101.153 24.121 100.977 25.122 100.823 26.222C100.669 27.3 100.592 28.4 100.592 29.522C100.592 30.468 100.955 30.941 101.681 30.941C102.495 30.941 103.32 30.754 104.156 30.38C104.992 30.006 105.806 29.555 106.598 29.027C107.39 28.477 108.116 27.938 108.776 27.41C109.436 26.86 109.997 26.398 110.459 26.024C110.921 25.65 111.251 25.463 111.449 25.463C111.625 25.463 111.779 25.518 111.911 25.628C112.043 25.738 112.109 25.914 112.109 26.156C112.109 26.376 111.889 26.772 111.449 27.344C111.009 27.916 110.426 28.565 109.7 29.291C108.974 30.017 108.16 30.721 107.258 31.403C106.356 32.085 105.432 32.646 104.486 33.086C103.54 33.526 102.638 33.746 101.78 33.746C101.12 33.746 100.515 33.548 99.9646 33.152C99.4366 32.734 99.0076 32.03 98.6776 31.04C98.3696 30.05 98.2156 28.686 98.2156 26.948V26.123C97.1376 27.905 96.0046 29.533 94.8166 31.007C93.6506 32.481 92.4846 33.658 91.3186 34.538C90.1746 35.418 89.0856 35.858 88.0516 35.858ZM99.8656 19.886C99.7556 19.93 99.6016 19.996 99.4036 20.084C98.3916 20.546 97.3356 21.118 96.2356 21.8C95.1576 22.482 94.1016 23.241 93.0676 24.077C92.0556 24.913 91.1426 25.782 90.3286 26.684C89.5146 27.586 88.8656 28.499 88.3816 29.423C87.8976 30.347 87.6556 31.249 87.6556 32.129C87.6556 32.415 87.7106 32.635 87.8206 32.789C87.9526 32.943 88.1726 33.02 88.4806 33.02C88.9206 33.02 89.4926 32.745 90.1966 32.195C90.9006 31.623 91.6706 30.875 92.5066 29.951C93.3646 29.027 94.2226 28.004 95.0806 26.882C95.9386 25.76 96.7526 24.627 97.5226 23.483C98.3146 22.339 98.9966 21.283 99.5686 20.315C99.6566 20.161 99.7556 20.018 99.8656 19.886ZM114.259 35.825C113.269 35.825 112.389 35.528 111.619 34.934C110.871 34.318 110.288 33.482 109.87 32.426C109.452 31.37 109.243 30.149 109.243 28.763C109.243 27.311 109.408 25.848 109.738 24.374C110.068 22.9 110.486 21.547 110.992 20.315C111.498 19.083 112.015 18.104 112.543 17.378C113.071 16.63 113.544 16.256 113.962 16.256C114.27 16.256 114.523 16.355 114.721 16.553C114.919 16.751 115.018 17.037 115.018 17.411C115.018 17.499 114.93 17.807 114.754 18.335C114.578 18.841 114.358 19.501 114.094 20.315C113.83 21.107 113.566 21.987 113.302 22.955C113.038 23.923 112.818 24.913 112.642 25.925C112.466 26.937 112.378 27.894 112.378 28.796C112.378 30.336 112.521 31.425 112.807 32.063C113.115 32.679 113.599 32.987 114.259 32.987C115.865 32.987 117.361 32.569 118.747 31.733C120.155 30.875 121.453 29.753 122.641 28.367C123.851 26.959 124.962 25.408 125.974 23.714C125.204 23.824 124.456 23.912 123.73 23.978C123.004 24.022 122.311 24.055 121.651 24.077C121.013 24.099 120.595 24.022 120.397 23.846C120.199 23.67 120.1 23.395 120.1 23.021C120.078 22.691 120.21 22.394 120.496 22.13C120.804 21.866 121.123 21.723 121.453 21.701C122.443 21.613 123.455 21.503 124.489 21.371C125.523 21.239 126.546 21.085 127.558 20.909C128.086 19.897 128.592 18.874 129.076 17.84C129.56 16.806 130 15.816 130.396 14.87C130.858 13.44 131.342 12.109 131.848 10.877C132.354 9.623 132.86 8.611 133.366 7.841C133.872 7.049 134.345 6.653 134.785 6.653C135.533 6.653 135.907 7.027 135.907 7.775C135.907 7.929 135.808 8.358 135.61 9.062C135.412 9.766 135.137 10.679 134.785 11.801C134.455 12.923 134.07 14.199 133.63 15.629C133.19 17.037 132.739 18.522 132.277 20.084C134.257 19.688 136.061 19.303 137.689 18.929C139.339 18.533 140.692 18.214 141.748 17.972C142.804 17.708 143.431 17.576 143.629 17.576C143.915 17.576 144.146 17.719 144.322 18.005C144.498 18.269 144.586 18.522 144.586 18.764C144.586 18.962 144.223 19.226 143.497 19.556C142.793 19.886 141.814 20.249 140.56 20.645C139.328 21.019 137.92 21.404 136.336 21.8C134.774 22.174 133.146 22.526 131.452 22.856C130.902 24.726 130.374 26.574 129.868 28.4C129.362 30.226 128.933 31.898 128.581 33.416C128.383 34.384 127.899 34.868 127.129 34.868C126.733 34.868 126.436 34.769 126.238 34.571C126.062 34.373 125.974 34.032 125.974 33.548C125.974 33.482 126.029 33.152 126.139 32.558C126.271 31.942 126.436 31.183 126.634 30.281C126.832 29.357 127.041 28.4 127.261 27.41C127.481 26.398 127.69 25.463 127.888 24.605C126.722 26.673 125.435 28.554 124.027 30.248C122.619 31.942 121.09 33.295 119.44 34.307C117.812 35.319 116.085 35.825 114.259 35.825ZM114.655 13.022C114.127 13.022 113.687 12.857 113.335 12.527C113.005 12.197 112.84 11.79 112.84 11.306C112.84 10.712 113.049 10.217 113.467 9.821C113.907 9.403 114.413 9.194 114.985 9.194C115.623 9.194 116.107 9.381 116.437 9.755C116.767 10.107 116.932 10.569 116.932 11.141C116.932 11.603 116.712 12.032 116.272 12.428C115.832 12.824 115.293 13.022 114.655 13.022ZM145.329 35.726C144.845 35.726 144.471 35.583 144.207 35.297C143.965 35.033 143.844 34.725 143.844 34.373C143.844 34.065 143.976 33.779 144.24 33.515C144.526 33.229 144.911 32.976 145.395 32.756C146.275 32.294 147.1 31.832 147.87 31.37C148.662 30.908 149.3 30.413 149.784 29.885C150.268 29.357 150.51 28.796 150.51 28.202C150.51 27.696 150.345 27.311 150.015 27.047C149.685 26.761 149.234 26.618 148.662 26.618C148.332 26.618 147.87 26.684 147.276 26.816C146.682 26.926 146.033 27.058 145.329 27.212C144.647 27.344 143.976 27.476 143.316 27.608C142.656 27.718 142.095 27.773 141.633 27.773C140.797 27.773 140.17 27.575 139.752 27.179C139.334 26.761 139.125 26.2 139.125 25.496C139.125 25.144 139.334 24.616 139.752 23.912C140.17 23.208 140.72 22.427 141.402 21.569C142.106 20.689 142.876 19.809 143.712 18.929C144.548 18.049 145.395 17.235 146.253 16.487C147.133 15.739 147.947 15.134 148.695 14.672C149.465 14.21 150.103 13.979 150.609 13.979C151.115 13.979 151.5 14.144 151.764 14.474C152.028 14.804 152.16 15.222 152.16 15.728C152.16 16.124 152.094 16.465 151.962 16.751C151.83 17.015 151.555 17.224 151.137 17.378C150.741 17.532 150.125 17.62 149.289 17.642C148.431 18.324 147.518 19.105 146.55 19.985C145.604 20.843 144.735 21.734 143.943 22.658C143.173 23.56 142.612 24.429 142.26 25.265C142.986 25.023 143.866 24.814 144.9 24.638C145.956 24.44 147.023 24.341 148.101 24.341C149.795 24.341 151.049 24.726 151.863 25.496C152.699 26.244 153.117 27.234 153.117 28.466C153.117 29.258 152.864 30.083 152.358 30.941C151.874 31.777 151.236 32.558 150.444 33.284C149.652 34.01 148.805 34.593 147.903 35.033C147.001 35.495 146.143 35.726 145.329 35.726ZM177.034 35.033C176.088 35.033 175.417 34.846 175.021 34.472C174.625 34.098 174.427 33.548 174.427 32.822C174.427 29.17 175.087 25.353 176.407 21.371C177.727 17.367 179.575 13.352 181.951 9.326C182.259 8.82 182.501 8.501 182.677 8.369C182.875 8.237 183.106 8.171 183.37 8.171C183.678 8.171 183.953 8.281 184.195 8.501C184.437 8.721 184.558 9.018 184.558 9.392C184.558 9.59 184.36 10.129 183.964 11.009C183.568 11.867 183.062 12.978 182.446 14.342C181.83 15.706 181.17 17.235 180.466 18.929C179.784 20.601 179.135 22.35 178.519 24.176C177.903 26.002 177.408 27.817 177.034 29.621C177.54 28.873 178.145 28.07 178.849 27.212C179.575 26.354 180.345 25.496 181.159 24.638C181.973 23.78 182.798 22.999 183.634 22.295C184.492 21.591 185.317 21.03 186.109 20.612C186.901 20.194 187.627 19.985 188.287 19.985C189.145 19.985 189.893 20.348 190.531 21.074C191.191 21.778 191.521 22.845 191.521 24.275C191.521 25.485 191.191 26.728 190.531 28.004C189.871 29.258 188.903 30.424 187.627 31.502C186.373 32.558 184.855 33.416 183.073 34.076C181.291 34.714 179.278 35.033 177.034 35.033ZM177.166 32.525C178.992 32.525 180.653 32.217 182.149 31.601C183.645 30.985 184.921 30.204 185.977 29.258C187.055 28.29 187.88 27.289 188.452 26.255C189.046 25.199 189.343 24.242 189.343 23.384C189.343 22.768 189.134 22.46 188.716 22.46C188.21 22.46 187.561 22.702 186.769 23.186C185.977 23.67 185.119 24.308 184.195 25.1C183.293 25.892 182.391 26.75 181.489 27.674C180.587 28.576 179.751 29.456 178.981 30.314C178.233 31.172 177.628 31.909 177.166 32.525ZM198.682 43.481C197.582 43.481 196.57 43.404 195.646 43.25C194.744 43.118 193.853 42.898 192.973 42.59C192.093 42.304 191.136 41.93 190.102 41.468C189.794 41.314 189.519 41.127 189.277 40.907C189.035 40.709 188.914 40.478 188.914 40.214C188.914 39.884 189.123 39.532 189.541 39.158C189.937 38.806 190.311 38.63 190.663 38.63C191.037 38.63 191.499 38.762 192.049 39.026C192.621 39.29 193.281 39.598 194.029 39.95C194.777 40.324 195.602 40.643 196.504 40.907C197.428 41.171 198.418 41.303 199.474 41.303C200.618 41.303 201.696 40.83 202.708 39.884C203.72 38.938 204.545 37.574 205.183 35.792C205.821 34.032 206.14 31.909 206.14 29.423C206.14 28.675 206.118 27.85 206.074 26.948C206.052 26.024 206.008 25.056 205.942 24.044C205.414 25.188 204.82 26.321 204.16 27.443C203.522 28.565 202.851 29.577 202.147 30.479C201.465 31.381 200.75 32.107 200.002 32.657C199.276 33.185 198.539 33.449 197.791 33.449C196.845 33.449 196.163 33.207 195.745 32.723C195.327 32.239 195.118 31.491 195.118 30.479C195.118 29.423 195.195 28.279 195.349 27.047C195.503 25.815 195.701 24.572 195.943 23.318C196.207 22.042 196.515 20.832 196.867 19.688C197.219 18.544 197.593 17.554 197.989 16.718C198.209 16.278 198.539 16.058 198.979 16.058C199.287 16.058 199.584 16.223 199.87 16.553C200.178 16.861 200.332 17.268 200.332 17.774C200.332 18.17 200.244 18.731 200.068 19.457C199.892 20.183 199.672 21.008 199.408 21.932C199.144 22.856 198.88 23.824 198.616 24.836C198.352 25.826 198.132 26.805 197.956 27.773C197.78 28.719 197.692 29.588 197.692 30.38C197.692 30.71 197.912 30.875 198.352 30.875C198.594 30.875 198.935 30.655 199.375 30.215C199.837 29.753 200.343 29.159 200.893 28.433C201.465 27.685 202.037 26.871 202.609 25.991C203.203 25.089 203.775 24.198 204.325 23.318C204.875 22.416 205.348 21.591 205.744 20.843C205.722 20.667 205.711 20.502 205.711 20.348C205.711 20.194 205.711 20.051 205.711 19.919C205.711 18.841 205.821 18.17 206.041 17.906C206.283 17.62 206.591 17.477 206.965 17.477C207.603 17.477 208.054 17.62 208.318 17.906C208.582 18.192 208.714 18.687 208.714 19.391C208.714 19.655 208.681 19.941 208.615 20.249C208.549 20.535 208.439 20.953 208.285 21.503C208.461 23.241 208.604 24.803 208.714 26.189C208.846 27.575 208.912 28.972 208.912 30.38C208.912 33.042 208.483 35.352 207.625 37.31C206.789 39.268 205.601 40.786 204.061 41.864C202.543 42.942 200.75 43.481 198.682 43.481ZM27.512 82.584C26.808 82.584 26.071 82.408 25.301 82.056C24.553 81.726 23.915 81.176 23.387 80.406C22.881 79.614 22.628 78.569 22.628 77.271C22.628 75.753 22.76 74.147 23.024 72.453C23.288 70.759 23.629 69.065 24.047 67.371C24.487 65.655 24.971 64.027 25.499 62.487C26.027 60.947 26.555 59.572 27.083 58.362C27.633 57.152 28.139 56.206 28.601 55.524C29.063 54.82 29.448 54.468 29.756 54.468C30.174 54.468 30.526 54.633 30.812 54.963C31.12 55.293 31.274 55.755 31.274 56.349C31.274 56.591 31.131 57.163 30.845 58.065C30.559 58.945 30.196 60.056 29.756 61.398C29.316 62.74 28.843 64.192 28.337 65.754C27.853 67.316 27.391 68.889 26.951 70.473C26.511 72.057 26.148 73.553 25.862 74.961C25.576 76.369 25.433 77.568 25.433 78.558C25.433 78.844 25.51 79.119 25.664 79.383C25.818 79.625 26.071 79.746 26.423 79.746C26.907 79.746 27.6 79.636 28.502 79.416C29.426 79.196 30.427 78.932 31.505 78.624C32.583 78.294 33.617 77.975 34.607 77.667C35.597 77.359 36.433 77.095 37.115 76.875C37.797 76.655 38.182 76.545 38.27 76.545C38.534 76.545 38.754 76.622 38.93 76.776C39.106 76.908 39.194 77.117 39.194 77.403C39.194 77.755 38.93 78.162 38.402 78.624C37.896 79.086 37.214 79.548 36.356 80.01C35.52 80.472 34.585 80.89 33.551 81.264C32.517 81.66 31.472 81.979 30.416 82.221C29.382 82.463 28.414 82.584 27.512 82.584ZM46.9938 81.33C45.6958 81.33 44.6728 80.835 43.9248 79.845C43.1768 78.855 42.8028 77.568 42.8028 75.984C42.8028 75.412 42.8798 74.807 43.0338 74.169C43.2098 73.509 43.4298 72.915 43.6938 72.387C43.5398 72.233 43.4188 72.024 43.3308 71.76C43.2428 71.474 43.1988 71.122 43.1988 70.704C43.1988 69.406 43.4188 68.218 43.8588 67.14C44.2988 66.062 44.8818 65.127 45.6078 64.335C46.3338 63.521 47.1368 62.894 48.0168 62.454C48.9188 62.014 49.8318 61.794 50.7558 61.794C52.2738 61.794 53.5058 62.344 54.4518 63.444C55.3978 64.522 55.8708 66.172 55.8708 68.394C55.8708 69.56 55.6948 70.748 55.3428 71.958C55.0128 73.168 54.5508 74.334 53.9568 75.456C53.3848 76.578 52.7138 77.579 51.9438 78.459C51.1958 79.339 50.3928 80.043 49.5348 80.571C48.6988 81.077 47.8518 81.33 46.9938 81.33ZM45.8718 71.265C46.0038 71.441 46.0698 71.672 46.0698 71.958C46.0698 72.288 46.0038 72.618 45.8718 72.948C45.7618 73.278 45.6408 73.729 45.5088 74.301C45.3768 74.873 45.3108 75.687 45.3108 76.743C45.3108 77.799 45.7288 78.327 46.5648 78.327C47.4888 78.327 48.3468 77.964 49.1388 77.238C49.9308 76.49 50.6348 75.533 51.2508 74.367C51.8668 73.201 52.3398 71.958 52.6698 70.638C53.0218 69.296 53.1978 68.031 53.1978 66.843C53.1978 66.073 53.0548 65.534 52.7688 65.226C52.4828 64.896 51.9658 64.731 51.2178 64.731C50.4478 64.731 49.6448 64.995 48.8088 65.523C47.9948 66.029 47.3128 66.722 46.7628 67.602C46.2128 68.482 45.9378 69.472 45.9378 70.572C45.9378 70.814 45.9158 71.045 45.8718 71.265ZM85.4404 80.01C85.4184 80.362 85.2754 80.648 85.0114 80.868C84.7474 81.088 84.4394 81.198 84.0874 81.198C83.6914 81.198 83.3614 81.066 83.0974 80.802C82.8334 80.538 82.7014 80.131 82.7014 79.581C82.7014 78.151 82.7674 76.6 82.8994 74.928C83.0314 73.234 83.1964 71.562 83.3944 69.912C83.5924 68.24 83.7904 66.7 83.9884 65.292C83.2624 66.326 82.4704 67.47 81.6124 68.724C80.7764 69.978 79.9184 71.221 79.0384 72.453C78.1584 73.685 77.3004 74.818 76.4644 75.852C75.6284 76.864 74.8694 77.689 74.1874 78.327C73.5054 78.943 72.9444 79.251 72.5044 79.251C71.6904 79.251 70.9864 78.932 70.3924 78.294C69.7984 77.634 69.5014 76.809 69.5014 75.819C69.5014 75.423 69.5454 74.884 69.6334 74.202C69.7214 73.498 69.8204 72.761 69.9304 71.991C70.0404 71.221 70.1394 70.506 70.2274 69.846C70.3154 69.164 70.3594 68.658 70.3594 68.328C70.3594 68.02 70.3264 67.756 70.2604 67.536C70.2164 67.294 70.1064 67.173 69.9304 67.173C69.6664 67.173 69.3034 67.47 68.8414 68.064C68.3794 68.636 67.8624 69.373 67.2904 70.275C66.7404 71.177 66.1684 72.134 65.5744 73.146C65.0024 74.158 64.4634 75.115 63.9574 76.017C63.4514 76.897 63.0224 77.59 62.6704 78.096C62.3844 78.58 62.1204 78.932 61.8784 79.152C61.6364 79.372 61.3394 79.482 60.9874 79.482C60.5694 79.482 60.1844 79.262 59.8324 78.822C59.5024 78.382 59.3374 77.843 59.3374 77.205C59.3374 76.831 59.4034 76.248 59.5354 75.456C59.6674 74.642 59.8324 73.751 60.0304 72.783C60.2504 71.815 60.4594 70.869 60.6574 69.945C60.8774 68.999 61.0644 68.196 61.2184 67.536C61.3944 66.788 61.6144 66.282 61.8784 66.018C62.1424 65.754 62.4284 65.622 62.7364 65.622C63.1544 65.622 63.4844 65.776 63.7264 66.084C63.9904 66.37 64.1224 66.821 64.1224 67.437C64.1224 67.547 64.0564 67.844 63.9244 68.328C63.7924 68.79 63.6274 69.362 63.4294 70.044C63.2534 70.704 63.0554 71.397 62.8354 72.123C62.6374 72.849 62.4724 73.52 62.3404 74.136C62.8244 73.322 63.3304 72.442 63.8584 71.496C64.4084 70.55 64.9584 69.615 65.5084 68.691C66.0584 67.745 66.6084 66.887 67.1584 66.117C67.7084 65.325 68.2474 64.698 68.7754 64.236C69.3034 63.774 69.8094 63.543 70.2934 63.543C70.8654 63.543 71.3934 63.719 71.8774 64.071C72.3834 64.423 72.7904 64.896 73.0984 65.49C73.4064 66.084 73.5604 66.744 73.5604 67.47C73.5604 67.976 73.4724 68.691 73.2964 69.615C73.1204 70.517 72.9334 71.496 72.7354 72.552C72.5594 73.608 72.4494 74.609 72.4054 75.555C72.4054 75.775 72.4714 75.885 72.6034 75.885C72.7134 75.885 72.8454 75.808 72.9994 75.654C73.6374 74.95 74.3414 74.103 75.1114 73.113C75.8814 72.101 76.6624 71.034 77.4544 69.912C78.2684 68.79 79.0714 67.69 79.8634 66.612C80.6554 65.512 81.3924 64.522 82.0744 63.642C82.7784 62.74 83.3944 62.025 83.9224 61.497C84.4724 60.969 84.9014 60.705 85.2094 60.705C85.8694 60.705 86.3754 60.892 86.7274 61.266C87.0794 61.64 87.2554 62.267 87.2554 63.147C87.2554 63.851 87.2004 64.764 87.0904 65.886C87.0024 67.008 86.8814 68.229 86.7274 69.549C86.5954 70.869 86.4414 72.2 86.2654 73.542C86.1114 74.862 85.9574 76.094 85.8034 77.238C85.6494 78.36 85.5284 79.284 85.4404 80.01ZM94.8691 80.373C94.0331 80.373 93.3401 79.988 92.7901 79.218C92.2621 78.426 91.9981 77.403 91.9981 76.149C91.9981 75.049 92.2731 73.993 92.8231 72.981C93.3731 71.947 94.0991 70.957 95.0011 70.011C95.9251 69.065 96.9481 68.196 98.0701 67.404C99.1921 66.59 100.325 65.853 101.469 65.193C102.635 64.533 103.735 63.972 104.769 63.51C105.825 63.048 106.727 62.696 107.475 62.454C108.223 62.19 108.74 62.058 109.026 62.058C109.51 62.058 109.752 62.322 109.752 62.85C109.752 63.312 109.565 63.719 109.191 64.071C108.839 64.423 108.41 64.72 107.904 64.962C106.98 65.424 105.924 65.974 104.736 66.612C103.57 67.228 102.382 67.921 101.172 68.691C99.9841 69.439 98.8731 70.242 97.8391 71.1C96.8271 71.958 96.0131 72.86 95.3971 73.806C94.7811 74.73 94.4731 75.676 94.4731 76.644C94.4731 76.93 94.5281 77.15 94.6381 77.304C94.7701 77.458 94.9901 77.535 95.2981 77.535C95.6941 77.535 96.2001 77.348 96.8161 76.974C97.4541 76.578 98.1471 76.061 98.8951 75.423C99.6651 74.763 100.424 74.037 101.172 73.245C101.942 72.453 102.657 71.65 103.317 70.836C103.977 70 104.516 69.219 104.934 68.493C105.176 68.097 105.451 67.767 105.759 67.503C106.067 67.217 106.397 67.074 106.749 67.074C107.233 67.074 107.475 67.36 107.475 67.932C107.475 68.108 107.409 68.559 107.277 69.285C107.167 70.011 107.046 70.891 106.914 71.925C106.782 72.937 106.716 74.004 106.716 75.126C106.716 77.524 107.288 78.723 108.432 78.723C109.07 78.723 109.73 78.481 110.412 77.997C111.116 77.513 111.798 76.897 112.458 76.149C113.14 75.379 113.767 74.565 114.339 73.707C114.911 72.849 115.395 72.035 115.791 71.265C116.187 70.495 116.462 69.879 116.616 69.417C116.968 66.953 117.463 65.182 118.101 64.104C118.761 63.026 119.432 62.487 120.114 62.487C120.554 62.487 120.906 62.608 121.17 62.85C121.434 63.07 121.566 63.565 121.566 64.335C121.566 64.863 121.357 65.655 120.939 66.711C120.521 67.767 119.96 68.922 119.256 70.176C119.058 71.298 118.948 72.453 118.926 73.641C118.904 74.829 119.025 75.918 119.289 76.908C119.861 76.622 120.433 76.105 121.005 75.357C121.577 74.587 122.16 73.696 122.754 72.684C123.348 71.672 123.931 70.627 124.503 69.549C125.097 68.471 125.68 67.481 126.252 66.579C126.846 65.655 127.418 64.907 127.968 64.335C128.54 63.763 129.101 63.477 129.651 63.477C130.355 63.477 130.938 63.697 131.4 64.137C131.862 64.555 132.214 65.303 132.456 66.381C132.698 67.437 132.819 68.933 132.819 70.869C132.819 71.903 132.918 72.871 133.116 73.773C133.336 74.675 133.677 75.401 134.139 75.951C134.623 76.479 135.239 76.743 135.987 76.743C137.109 76.743 138.11 76.545 138.99 76.149C139.87 75.731 140.629 75.269 141.267 74.763C141.927 74.235 142.477 73.773 142.917 73.377C143.357 72.959 143.698 72.75 143.94 72.75C144.446 72.75 144.699 73.014 144.699 73.542C144.699 73.762 144.534 74.114 144.204 74.598C143.896 75.06 143.456 75.588 142.884 76.182C142.334 76.754 141.696 77.315 140.97 77.865C140.266 78.393 139.507 78.833 138.693 79.185C137.901 79.537 137.098 79.713 136.284 79.713C134.766 79.713 133.523 79.416 132.555 78.822C131.609 78.228 130.905 77.249 130.443 75.885C130.003 74.521 129.783 72.695 129.783 70.407C129.783 69.153 129.739 68.24 129.651 67.668C129.563 67.074 129.343 66.678 128.991 66.48C128.727 66.942 128.375 67.602 127.935 68.46C127.517 69.296 127.033 70.231 126.483 71.265C125.955 72.299 125.383 73.344 124.767 74.4C124.151 75.434 123.524 76.391 122.886 77.271C122.248 78.129 121.61 78.833 120.972 79.383C120.334 79.911 119.729 80.175 119.157 80.175C118.783 80.175 118.398 79.977 118.002 79.581C117.606 79.163 117.276 78.624 117.012 77.964C116.748 77.282 116.616 76.556 116.616 75.786C116.616 75.28 116.627 74.807 116.649 74.367C115.747 75.643 114.801 76.831 113.811 77.931C112.821 79.009 111.831 79.878 110.841 80.538C109.851 81.198 108.927 81.528 108.069 81.528C107.387 81.528 106.749 81.286 106.155 80.802C105.561 80.296 105.077 79.449 104.703 78.261C104.351 77.051 104.153 75.412 104.109 73.344C103.141 74.708 102.118 75.918 101.04 76.974C99.9621 78.03 98.8951 78.866 97.8391 79.482C96.7831 80.076 95.7931 80.373 94.8691 80.373ZM142.982 81.165C142.564 81.165 142.19 81.011 141.86 80.703C141.53 80.373 141.365 79.867 141.365 79.185C141.365 78.701 141.431 78.03 141.563 77.172C141.695 76.292 141.871 75.335 142.091 74.301C142.311 73.267 142.542 72.244 142.784 71.232C143.048 70.198 143.312 69.274 143.576 68.46C143.84 67.646 144.071 67.041 144.269 66.645C144.445 66.337 144.61 66.139 144.764 66.051C144.94 65.963 145.105 65.919 145.259 65.919C145.567 65.919 145.831 66.018 146.051 66.216C146.293 66.414 146.414 66.799 146.414 67.371C146.414 67.701 146.348 68.251 146.216 69.021C146.106 69.769 145.952 70.649 145.754 71.661C145.578 72.651 145.38 73.674 145.16 74.73C144.962 75.764 144.764 76.754 144.566 77.7C144.368 78.646 144.214 79.438 144.104 80.076C144.016 80.428 143.862 80.703 143.642 80.901C143.444 81.077 143.224 81.165 142.982 81.165ZM146.216 62.916C145.71 62.916 145.226 62.762 144.764 62.454C144.324 62.146 144.104 61.651 144.104 60.969C144.104 60.397 144.236 59.935 144.5 59.583C144.786 59.231 145.116 58.978 145.49 58.824C145.886 58.648 146.227 58.56 146.513 58.56C146.799 58.56 147.118 58.626 147.47 58.758C147.844 58.868 148.163 59.088 148.427 59.418C148.691 59.726 148.823 60.188 148.823 60.804C148.823 61.222 148.68 61.596 148.394 61.926C148.108 62.234 147.756 62.476 147.338 62.652C146.942 62.828 146.568 62.916 146.216 62.916ZM163.386 81.363C163.188 81.363 162.792 81.352 162.198 81.33C161.626 81.308 160.944 81.275 160.152 81.231C159.36 81.187 158.535 81.143 157.677 81.099C156.841 81.055 156.049 81.022 155.301 81C154.575 80.978 153.97 80.967 153.486 80.967C152.892 80.967 152.397 80.769 152.001 80.373C151.627 79.977 151.44 79.427 151.44 78.723C151.44 78.261 151.649 77.667 152.067 76.941C152.485 76.215 153.046 75.412 153.75 74.532C154.454 73.63 155.235 72.706 156.093 71.76C156.973 70.814 157.864 69.89 158.766 68.988C159.668 68.086 160.537 67.25 161.373 66.48C162.209 65.71 162.935 65.083 163.551 64.599C162.099 64.775 160.68 65.006 159.294 65.292C157.908 65.556 156.698 65.798 155.664 66.018C154.652 66.238 153.97 66.348 153.618 66.348C153.178 66.348 152.826 66.227 152.562 65.985C152.298 65.721 152.166 65.369 152.166 64.929C152.166 64.687 152.43 64.445 152.958 64.203C153.508 63.961 154.234 63.73 155.136 63.51C156.038 63.29 157.028 63.103 158.106 62.949C159.206 62.773 160.317 62.641 161.439 62.553C162.561 62.465 163.606 62.421 164.574 62.421C165.234 62.421 165.762 62.619 166.158 63.015C166.576 63.411 166.785 63.829 166.785 64.269C166.785 64.445 166.532 64.841 166.026 65.457C165.52 66.073 164.86 66.821 164.046 67.701C163.232 68.581 162.341 69.527 161.373 70.539C160.405 71.551 159.459 72.563 158.535 73.575C157.611 74.565 156.786 75.489 156.06 76.347C155.334 77.183 154.806 77.876 154.476 78.426C155.07 78.404 155.774 78.382 156.588 78.36C157.402 78.338 158.249 78.316 159.129 78.294C160.009 78.25 160.845 78.217 161.637 78.195C162.429 78.151 163.1 78.118 163.65 78.096C164.222 78.074 164.596 78.063 164.772 78.063C165.652 78.063 166.092 78.426 166.092 79.152C166.092 79.702 165.839 80.208 165.333 80.67C164.827 81.132 164.178 81.363 163.386 81.363ZM183.219 66.777C183.219 67.481 182.999 68.174 182.559 68.856C182.119 69.516 181.536 70.154 180.81 70.77C180.084 71.364 179.281 71.925 178.401 72.453C177.521 72.981 176.641 73.443 175.761 73.839C174.881 74.235 174.078 74.554 173.352 74.796C173.176 75.654 173.088 76.413 173.088 77.073C173.088 77.491 173.187 77.788 173.385 77.964C173.583 78.14 173.891 78.228 174.309 78.228C175.233 78.228 176.212 78.063 177.246 77.733C178.28 77.403 179.336 76.974 180.414 76.446C181.492 75.918 182.526 75.357 183.516 74.763C184.506 74.169 185.408 73.608 186.222 73.08C187.058 72.552 187.751 72.123 188.301 71.793C188.851 71.463 189.214 71.298 189.39 71.298C189.654 71.298 189.852 71.386 189.984 71.562C190.138 71.716 190.215 71.903 190.215 72.123C190.215 72.299 189.94 72.64 189.39 73.146C188.862 73.652 188.147 74.246 187.245 74.928C186.343 75.588 185.331 76.27 184.209 76.974C183.087 77.678 181.921 78.338 180.711 78.954C179.523 79.57 178.368 80.065 177.246 80.439C176.146 80.813 175.156 81 174.276 81C173.132 81 172.241 80.571 171.603 79.713C170.965 78.855 170.646 77.524 170.646 75.72C170.646 74.51 170.8 73.289 171.108 72.057C171.438 70.825 171.878 69.648 172.428 68.526C173 67.382 173.627 66.37 174.309 65.49C175.013 64.588 175.75 63.884 176.52 63.378C177.29 62.85 178.038 62.586 178.764 62.586C180.15 62.586 181.239 62.971 182.031 63.741C182.823 64.511 183.219 65.523 183.219 66.777ZM174.045 72.255C174.727 71.837 175.431 71.397 176.157 70.935C176.883 70.473 177.554 70 178.17 69.516C178.786 69.032 179.281 68.526 179.655 67.998C180.051 67.448 180.249 66.887 180.249 66.315C180.249 65.501 179.809 65.094 178.929 65.094C178.379 65.094 177.796 65.446 177.18 66.15C176.586 66.832 176.014 67.723 175.464 68.823C174.914 69.923 174.441 71.067 174.045 72.255ZM201.339 64.401C201.933 62.971 202.494 61.497 203.022 59.979C203.572 58.461 204.067 56.91 204.507 55.326C204.639 54.886 204.837 54.534 205.101 54.27C205.387 53.984 205.717 53.841 206.091 53.841C206.355 53.841 206.575 53.94 206.751 54.138C206.949 54.336 207.048 54.6 207.048 54.93C207.048 55.348 206.883 56.074 206.553 57.108C206.245 58.142 205.849 59.451 205.365 61.035C204.903 62.619 204.43 64.445 203.946 66.513C203.484 68.559 203.088 70.825 202.758 73.311C202.45 75.797 202.296 78.448 202.296 81.264C202.296 81.88 202.164 82.386 201.9 82.782C201.636 83.2 201.317 83.409 200.943 83.409C200.723 83.409 200.514 83.354 200.316 83.244C200.118 83.134 199.942 82.87 199.788 82.452C199.656 82.056 199.546 81.429 199.458 80.571C199.37 79.691 199.326 78.503 199.326 77.007C199.326 75.863 199.392 74.62 199.524 73.278C198.512 75.104 197.412 76.699 196.224 78.063C195.058 79.405 193.925 80.439 192.825 81.165C191.747 81.891 190.823 82.254 190.053 82.254C189.107 82.254 188.337 81.935 187.743 81.297C187.171 80.681 186.885 79.757 186.885 78.525C186.885 77.447 187.138 76.336 187.644 75.192C188.15 74.048 188.821 72.926 189.657 71.826C190.493 70.704 191.417 69.648 192.429 68.658C193.441 67.668 194.453 66.799 195.465 66.051C196.499 65.281 197.456 64.687 198.336 64.269C199.216 63.829 199.931 63.609 200.481 63.609C200.701 63.609 200.899 63.686 201.075 63.84C201.251 63.994 201.339 64.181 201.339 64.401ZM200.91 65.424C200.756 65.578 200.569 65.732 200.349 65.886C200.129 66.04 199.887 66.205 199.623 66.381C198.655 67.063 197.588 67.855 196.422 68.757C195.278 69.637 194.178 70.605 193.122 71.661C192.088 72.695 191.241 73.784 190.581 74.928C189.921 76.072 189.591 77.249 189.591 78.459C189.591 78.987 189.855 79.251 190.383 79.251C191.109 79.251 191.901 78.91 192.759 78.228C193.639 77.524 194.541 76.556 195.465 75.324C196.389 74.07 197.313 72.607 198.237 70.935C199.161 69.241 200.052 67.404 200.91 65.424Z" fill="#FFE700"/>
</g>
<defs>
<clipPath id="clip0_57_778">
<rect width="225" height="150" fill="white"/>
</clipPath>
</defs>
</svg>
