<svg width="300" height="84" viewBox="0 0 300 84" fill="none" xmlns="http://www.w3.org/2000/svg">
<g clip-path="url(#clip0_1299_13)">
<path d="M52.7155 11.858L54.9925 62.051L57.1705 11.858H68.2585L62.2195 77H49.9435L47.2705 28.787L44.5975 77H32.3215L26.1835 11.858H37.3705L39.5485 61.061L41.8255 11.858H52.7155ZM69.9175 77V11.858H90.3115V22.649H80.8075V37.598H89.3215V48.29H80.8075V66.209H90.3115V77H69.9175ZM93.2173 11.858H104.107V66.209H112.819V77H93.2173V11.858ZM126.758 77.99C118.343 77.99 114.581 74.624 114.581 66.704V22.154C114.581 14.234 118.343 10.868 126.758 10.868C135.173 10.868 138.935 14.234 138.935 22.154V40.568H128.045V23.144C128.045 22.154 127.649 21.659 126.758 21.659C125.867 21.659 125.471 22.154 125.471 23.144V65.714C125.471 66.704 125.867 67.199 126.758 67.199C127.649 67.199 128.045 66.704 128.045 65.714V48.884H138.935V66.704C138.935 74.624 135.173 77.99 126.758 77.99ZM154.119 77.99C145.704 77.99 141.942 74.624 141.942 66.704V22.154C141.942 14.234 145.704 10.868 154.119 10.868C162.534 10.868 166.296 14.234 166.296 22.154V66.704C166.296 74.624 162.534 77.99 154.119 77.99ZM152.832 23.144V65.714C152.832 66.704 153.228 67.199 154.119 67.199C155.01 67.199 155.406 66.704 155.406 65.714V23.144C155.406 22.154 155.01 21.659 154.119 21.659C153.228 21.659 152.832 22.154 152.832 23.144ZM207.021 11.858V77H196.131L198.012 26.312L192.27 77H184.152L178.41 26.312L180.291 77H169.401V11.858H184.152L188.211 52.448L192.27 11.858H207.021ZM210.2 77V11.858H230.594V22.649H221.09V37.598H229.604V48.29H221.09V66.209H230.594V77H210.2Z" fill="#ED150C"/>
<path d="M245.338 26V5.687H243.488V1.654H251.295V5.687H249.408V26H245.338ZM256.54 26.37C253.395 26.37 251.989 25.112 251.989 22.152V5.502C251.989 2.542 253.395 1.284 256.54 1.284C259.685 1.284 261.091 2.542 261.091 5.502V22.152C261.091 25.112 259.685 26.37 256.54 26.37ZM256.059 5.872V21.782C256.059 22.152 256.207 22.337 256.54 22.337C256.873 22.337 257.021 22.152 257.021 21.782V5.872C257.021 5.502 256.873 5.317 256.54 5.317C256.207 5.317 256.059 5.502 256.059 5.872Z" fill="#ED150C"/>
</g>
<defs>
<clipPath id="clip0_1299_13">
<rect width="300" height="84" fill="white"/>
</clipPath>
</defs>
</svg>
