<svg width="225" height="150" viewBox="0 0 225 150" fill="none" xmlns="http://www.w3.org/2000/svg">
<g clip-path="url(#clip0_57_781)">
<path d="M20.0115 10.022C20.0115 11.1487 19.9422 12.3447 19.8035 13.61C19.6648 14.8753 19.4395 16.1493 19.1275 17.432C18.8155 18.6973 18.4082 19.902 17.9055 21.046C17.4202 22.1727 16.8222 23.1867 16.1115 24.088C15.4008 24.972 14.5688 25.674 13.6155 26.194C12.6795 26.714 11.6048 26.974 10.3915 26.974C8.7275 26.974 7.41017 26.4453 6.4395 25.388C5.46883 24.3307 4.9835 22.7447 4.9835 20.63C4.9835 19.434 5.10483 18.264 5.3475 17.12C5.59017 15.9587 5.87617 14.9013 6.2055 13.948C6.53483 12.9947 6.82083 12.206 7.0635 11.582C6.99417 11.4433 6.9595 11.2787 6.9595 11.088C6.9595 10.568 7.08083 10.0827 7.3235 9.632C7.56617 9.164 7.86083 8.78267 8.2075 8.488C8.5715 8.19333 8.91817 8.046 9.2475 8.046C9.5075 8.046 9.7155 8.14133 9.8715 8.332C10.0448 8.52267 10.1315 8.81733 10.1315 9.216C10.1315 9.64933 9.98417 10.2387 9.6895 10.984C9.41217 11.7293 9.0915 12.6133 8.7275 13.636C8.3635 14.6413 8.03417 15.7767 7.7395 17.042C7.46217 18.29 7.3235 19.6333 7.3235 21.072C7.3235 22.1813 7.61817 23.0307 8.2075 23.62C8.79683 24.192 9.67217 24.478 10.8335 24.478C11.7868 24.478 12.6188 24.1747 13.3295 23.568C14.0402 22.9613 14.6382 22.138 15.1235 21.098C15.6262 20.0407 16.0335 18.8447 16.3455 17.51C16.6748 16.1753 16.9262 14.78 17.0995 13.324C17.2902 11.868 17.4288 10.438 17.5155 9.034C17.5502 8.58333 17.6802 8.254 17.9055 8.046C18.1482 7.82067 18.4428 7.708 18.7895 7.708C19.0495 7.708 19.2662 7.76 19.4395 7.864C19.6302 7.95067 19.7688 8.15867 19.8555 8.488C19.9595 8.81733 20.0115 9.32867 20.0115 10.022ZM25.2523 27.494C24.975 27.494 24.741 27.3813 24.5503 27.156C24.3597 26.9307 24.2643 26.6187 24.2643 26.22C24.2643 25.9253 24.325 25.44 24.4463 24.764C24.585 24.0707 24.7323 23.2647 24.8883 22.346C25.0617 21.4273 25.209 20.474 25.3303 19.486C25.4517 18.4807 25.5123 17.5187 25.5123 16.6C25.5123 16.1493 25.625 15.82 25.8503 15.612C26.093 15.3867 26.3617 15.274 26.6563 15.274C26.9337 15.274 27.1417 15.4473 27.2803 15.794C27.419 16.1407 27.445 16.834 27.3583 17.874C28.1557 16.106 29.031 14.6847 29.9843 13.61C30.955 12.518 31.917 11.738 32.8703 11.27C33.8237 10.7847 34.6817 10.542 35.4443 10.542C35.947 10.542 36.311 10.646 36.5363 10.854C36.779 11.0447 36.9003 11.2613 36.9003 11.504C36.9003 11.8333 36.7617 12.0933 36.4843 12.284C36.2243 12.4573 35.765 12.6653 35.1063 12.908C34.3437 13.2027 33.6417 13.5493 33.0003 13.948C32.3763 14.3293 31.7783 14.832 31.2063 15.456C30.6517 16.08 30.1057 16.8773 29.5683 17.848C29.031 18.8013 28.4937 19.98 27.9563 21.384C27.419 22.788 26.847 24.478 26.2403 26.454C26.1363 26.8353 25.9977 27.104 25.8243 27.26C25.6683 27.416 25.4777 27.494 25.2523 27.494ZM38.6517 27.026C37.9063 27.026 37.3777 26.8787 37.0657 26.584C36.7537 26.2893 36.5977 25.856 36.5977 25.284C36.5977 22.4067 37.1177 19.3993 38.1577 16.262C39.1977 13.1073 40.6537 9.944 42.5257 6.772C42.7683 6.37333 42.959 6.122 43.0977 6.018C43.2537 5.914 43.4357 5.862 43.6437 5.862C43.8863 5.862 44.103 5.94867 44.2937 6.122C44.4843 6.29533 44.5797 6.52933 44.5797 6.824C44.5797 6.98 44.4237 7.40467 44.1117 8.098C43.7997 8.774 43.401 9.64933 42.9157 10.724C42.4303 11.7987 41.9103 13.0033 41.3557 14.338C40.8183 15.6553 40.307 17.0333 39.8217 18.472C39.3363 19.9107 38.9463 21.3407 38.6517 22.762C39.0503 22.1727 39.527 21.54 40.0817 20.864C40.6537 20.188 41.2603 19.512 41.9017 18.836C42.543 18.16 43.193 17.5447 43.8517 16.99C44.5277 16.4353 45.1777 15.9933 45.8017 15.664C46.4257 15.3347 46.9977 15.17 47.5177 15.17C48.1937 15.17 48.783 15.456 49.2857 16.028C49.8057 16.5827 50.0657 17.4233 50.0657 18.55C50.0657 19.5033 49.8057 20.4827 49.2857 21.488C48.7657 22.476 48.003 23.3947 46.9977 24.244C46.0097 25.076 44.8137 25.752 43.4097 26.272C42.0057 26.7747 40.4197 27.026 38.6517 27.026ZM38.7557 25.05C40.1943 25.05 41.503 24.8073 42.6817 24.322C43.8603 23.8367 44.8657 23.2213 45.6977 22.476C46.547 21.7133 47.197 20.9247 47.6477 20.11C48.1157 19.278 48.3497 18.524 48.3497 17.848C48.3497 17.3627 48.185 17.12 47.8557 17.12C47.457 17.12 46.9457 17.3107 46.3217 17.692C45.6977 18.0733 45.0217 18.576 44.2937 19.2C43.583 19.824 42.8723 20.5 42.1617 21.228C41.451 21.9387 40.7923 22.632 40.1857 23.308C39.5963 23.984 39.1197 24.5647 38.7557 25.05ZM54.2135 26.506C53.5548 26.506 53.0088 26.2027 52.5755 25.596C52.1595 24.972 51.9515 24.166 51.9515 23.178C51.9515 22.3113 52.1682 21.4793 52.6015 20.682C53.0348 19.8673 53.6068 19.0873 54.3175 18.342C55.0455 17.5967 55.8515 16.912 56.7355 16.288C57.6195 15.6467 58.5122 15.066 59.4135 14.546C60.3322 14.026 61.1988 13.584 62.0135 13.22C62.8455 12.856 63.5562 12.5787 64.1455 12.388C64.7348 12.18 65.1422 12.076 65.3675 12.076C65.7488 12.076 65.9395 12.284 65.9395 12.7C65.9395 13.064 65.7922 13.3847 65.4975 13.662C65.2202 13.9393 64.8822 14.1733 64.4835 14.364C63.7555 14.728 62.9235 15.1613 61.9875 15.664C61.0688 16.1493 60.1328 16.6953 59.1795 17.302C58.2435 17.8913 57.3682 18.524 56.5535 19.2C55.7562 19.876 55.1148 20.5867 54.6295 21.332C54.1442 22.06 53.9015 22.8053 53.9015 23.568C53.9015 23.7933 53.9448 23.9667 54.0315 24.088C54.1355 24.2093 54.3088 24.27 54.5515 24.27C54.8635 24.27 55.2622 24.1227 55.7475 23.828C56.2502 23.516 56.7962 23.1087 57.3855 22.606C57.9922 22.086 58.5902 21.514 59.1795 20.89C59.7862 20.266 60.3495 19.6333 60.8695 18.992C61.3895 18.3333 61.8142 17.718 62.1435 17.146C62.3342 16.834 62.5508 16.574 62.7935 16.366C63.0362 16.1407 63.2962 16.028 63.5735 16.028C63.9548 16.028 64.1455 16.2533 64.1455 16.704C64.1455 16.8427 64.0935 17.198 63.9895 17.77C63.9028 18.342 63.8075 19.0353 63.7035 19.85C63.5995 20.6473 63.5475 21.488 63.5475 22.372C63.5475 24.2613 63.9982 25.206 64.8995 25.206C65.4022 25.206 65.9222 25.0153 66.4595 24.634C67.0142 24.2527 67.5515 23.7673 68.0715 23.178C68.6088 22.5713 69.1028 21.93 69.5535 21.254C70.0042 20.578 70.3855 19.9367 70.6975 19.33C71.0095 18.7233 71.2262 18.238 71.3475 17.874C71.6248 15.9327 72.0148 14.5373 72.5175 13.688C73.0375 12.8387 73.5662 12.414 74.1035 12.414C74.4502 12.414 74.7275 12.5093 74.9355 12.7C75.1435 12.8733 75.2475 13.2633 75.2475 13.87C75.2475 14.286 75.0828 14.91 74.7535 15.742C74.4242 16.574 73.9822 17.484 73.4275 18.472C73.2715 19.356 73.1848 20.266 73.1675 21.202C73.1502 22.138 73.2455 22.996 73.4535 23.776C73.9042 23.5507 74.3548 23.1433 74.8055 22.554C75.2562 21.9473 75.7155 21.2453 76.1835 20.448C76.6515 19.6507 77.1108 18.8273 77.5615 17.978C78.0295 17.1287 78.4888 16.3487 78.9395 15.638C79.4075 14.91 79.8582 14.3207 80.2915 13.87C80.7422 13.4193 81.1842 13.194 81.6175 13.194C82.1722 13.194 82.6315 13.3673 82.9955 13.714C83.3595 14.0433 83.6368 14.6327 83.8275 15.482C84.0182 16.314 84.1135 17.4927 84.1135 19.018C84.1135 19.8327 84.1915 20.5953 84.3475 21.306C84.5208 22.0167 84.7895 22.5887 85.1535 23.022C85.5348 23.438 86.0202 23.646 86.6095 23.646C87.4935 23.646 88.2822 23.49 88.9755 23.178C89.6688 22.8487 90.2668 22.4847 90.7695 22.086C91.2895 21.67 91.7228 21.306 92.0695 20.994C92.4162 20.6647 92.6848 20.5 92.8755 20.5C93.2742 20.5 93.4735 20.708 93.4735 21.124C93.4735 21.2973 93.3435 21.5747 93.0835 21.956C92.8408 22.32 92.4942 22.736 92.0435 23.204C91.6102 23.6547 91.1075 24.0967 90.5355 24.53C89.9808 24.946 89.3828 25.2927 88.7415 25.57C88.1175 25.8473 87.4848 25.986 86.8435 25.986C85.6475 25.986 84.6682 25.752 83.9055 25.284C83.1602 24.816 82.6055 24.0447 82.2415 22.97C81.8948 21.8953 81.7215 20.4567 81.7215 18.654C81.7215 17.666 81.6868 16.9467 81.6175 16.496C81.5482 16.028 81.3748 15.716 81.0975 15.56C80.8895 15.924 80.6122 16.444 80.2655 17.12C79.9362 17.7787 79.5548 18.5153 79.1215 19.33C78.7055 20.1447 78.2548 20.968 77.7695 21.8C77.2842 22.6147 76.7902 23.3687 76.2875 24.062C75.7848 24.738 75.2822 25.2927 74.7795 25.726C74.2768 26.142 73.8002 26.35 73.3495 26.35C73.0548 26.35 72.7515 26.194 72.4395 25.882C72.1275 25.5527 71.8675 25.128 71.6595 24.608C71.4515 24.0707 71.3475 23.4987 71.3475 22.892C71.3475 22.4933 71.3562 22.1207 71.3735 21.774C70.6628 22.7793 69.9175 23.7153 69.1375 24.582C68.3575 25.4313 67.5775 26.116 66.7975 26.636C66.0175 27.156 65.2895 27.416 64.6135 27.416C64.0762 27.416 63.5735 27.2253 63.1055 26.844C62.6375 26.4453 62.2562 25.778 61.9615 24.842C61.6842 23.8887 61.5282 22.5973 61.4935 20.968C60.7308 22.0427 59.9248 22.996 59.0755 23.828C58.2262 24.66 57.3855 25.3187 56.5535 25.804C55.7215 26.272 54.9415 26.506 54.2135 26.506ZM95.7089 27.572C95.3275 27.572 95.0329 27.4593 94.8249 27.234C94.6342 27.026 94.5389 26.7833 94.5389 26.506C94.5389 26.2633 94.6429 26.038 94.8509 25.83C95.0762 25.6047 95.3795 25.4053 95.7609 25.232C96.4542 24.868 97.1042 24.504 97.7109 24.14C98.3349 23.776 98.8375 23.386 99.2189 22.97C99.6002 22.554 99.7909 22.112 99.7909 21.644C99.7909 21.2453 99.6609 20.942 99.4009 20.734C99.1409 20.5087 98.7855 20.396 98.3349 20.396C98.0749 20.396 97.7109 20.448 97.2429 20.552C96.7749 20.6387 96.2635 20.7427 95.7089 20.864C95.1715 20.968 94.6429 21.072 94.1229 21.176C93.6029 21.2627 93.1609 21.306 92.7969 21.306C92.1382 21.306 91.6442 21.15 91.3149 20.838C90.9855 20.5087 90.8209 20.0667 90.8209 19.512C90.8209 19.2347 90.9855 18.8187 91.3149 18.264C91.6442 17.7093 92.0775 17.094 92.6149 16.418C93.1695 15.7247 93.7762 15.0313 94.4349 14.338C95.0935 13.6447 95.7609 13.0033 96.4369 12.414C97.1302 11.8247 97.7715 11.348 98.3609 10.984C98.9675 10.62 99.4702 10.438 99.8689 10.438C100.268 10.438 100.571 10.568 100.779 10.828C100.987 11.088 101.091 11.4173 101.091 11.816C101.091 12.128 101.039 12.3967 100.935 12.622C100.831 12.83 100.614 12.9947 100.285 13.116C99.9729 13.2373 99.4875 13.3067 98.8289 13.324C98.1529 13.8613 97.4335 14.4767 96.6709 15.17C95.9255 15.846 95.2409 16.548 94.6169 17.276C94.0102 17.9867 93.5682 18.6713 93.2909 19.33C93.8629 19.1393 94.5562 18.9747 95.3709 18.836C96.2029 18.68 97.0435 18.602 97.8929 18.602C99.2275 18.602 100.216 18.9053 100.857 19.512C101.516 20.1013 101.845 20.8813 101.845 21.852C101.845 22.476 101.646 23.126 101.247 23.802C100.866 24.4607 100.363 25.076 99.7389 25.648C99.1149 26.22 98.4475 26.6793 97.7369 27.026C97.0262 27.39 96.3502 27.572 95.7089 27.572ZM108.93 27.364C108.08 27.364 107.344 27.1733 106.72 26.792C106.113 26.3933 105.645 25.882 105.316 25.258C104.986 24.634 104.822 23.9927 104.822 23.334C104.822 21.9473 105.064 20.682 105.55 19.538C106.035 18.3767 106.642 17.354 107.37 16.47C108.115 15.5687 108.878 14.806 109.658 14.182C110.455 13.558 111.174 13.09 111.816 12.778C112.474 12.4487 112.942 12.284 113.22 12.284C113.774 12.284 114.052 12.5613 114.052 13.116C114.052 13.376 113.878 13.6793 113.532 14.026C113.185 14.3553 112.743 14.7453 112.206 15.196C111.668 15.6467 111.096 16.158 110.49 16.73C109.883 17.2847 109.311 17.9173 108.774 18.628C108.236 19.3213 107.794 20.1013 107.448 20.968C107.101 21.8173 106.928 22.7533 106.928 23.776C106.928 24.816 107.352 25.336 108.202 25.336C108.982 25.336 109.779 25.1887 110.594 24.894C111.426 24.5993 112.24 24.218 113.038 23.75C113.852 23.2647 114.632 22.762 115.378 22.242C116.123 21.722 116.799 21.228 117.406 20.76C118.012 20.2747 118.524 19.8847 118.94 19.59C119.356 19.2953 119.65 19.148 119.824 19.148C120.17 19.148 120.344 19.3387 120.344 19.72C120.344 20.0147 120.144 20.4047 119.746 20.89C119.347 21.3753 118.81 21.904 118.134 22.476C117.458 23.048 116.704 23.6287 115.872 24.218C115.04 24.79 114.199 25.3187 113.35 25.804C112.5 26.272 111.686 26.6533 110.906 26.948C110.143 27.2253 109.484 27.364 108.93 27.364ZM120.456 27.676C119.798 27.676 119.252 27.3727 118.818 26.766C118.402 26.142 118.194 25.336 118.194 24.348C118.194 23.4293 118.42 22.5193 118.87 21.618C119.338 20.7167 119.954 19.85 120.716 19.018C121.479 18.186 122.311 17.4233 123.212 16.73C124.114 16.0193 125.015 15.404 125.916 14.884C126.835 14.364 127.676 13.9567 128.438 13.662C129.201 13.3673 129.808 13.22 130.258 13.22C130.501 13.22 130.7 13.272 130.856 13.376C131.012 13.4627 131.09 13.6273 131.09 13.87C131.09 14.026 131.03 14.1733 130.908 14.312C130.926 14.312 130.943 14.312 130.96 14.312C131.342 14.312 131.532 14.5373 131.532 14.988C131.532 15.144 131.472 15.4647 131.35 15.95C131.229 16.418 131.09 17.0073 130.934 17.718C130.778 18.4287 130.64 19.2173 130.518 20.084C130.397 20.9333 130.336 21.8 130.336 22.684C130.336 23.4293 130.622 23.802 131.194 23.802C131.836 23.802 132.486 23.6547 133.144 23.36C133.803 23.0653 134.444 22.71 135.068 22.294C135.692 21.8607 136.264 21.436 136.784 21.02C137.304 20.5867 137.746 20.2227 138.11 19.928C138.474 19.6333 138.734 19.486 138.89 19.486C139.029 19.486 139.15 19.5293 139.254 19.616C139.358 19.7027 139.41 19.8413 139.41 20.032C139.41 20.2053 139.237 20.5173 138.89 20.968C138.544 21.4187 138.084 21.93 137.512 22.502C136.94 23.074 136.299 23.6287 135.588 24.166C134.878 24.7033 134.15 25.1453 133.404 25.492C132.659 25.8387 131.948 26.012 131.272 26.012C130.752 26.012 130.276 25.856 129.842 25.544C129.426 25.2147 129.088 24.66 128.828 23.88C128.586 23.1 128.464 22.0253 128.464 20.656V20.006C127.615 21.41 126.722 22.6927 125.786 23.854C124.868 25.0153 123.949 25.9427 123.03 26.636C122.129 27.3293 121.271 27.676 120.456 27.676ZM129.764 15.092C129.678 15.1267 129.556 15.1787 129.4 15.248C128.603 15.612 127.771 16.0627 126.904 16.6C126.055 17.1373 125.223 17.7353 124.408 18.394C123.611 19.0527 122.892 19.7373 122.25 20.448C121.609 21.1587 121.098 21.878 120.716 22.606C120.335 23.334 120.144 24.0447 120.144 24.738C120.144 24.9633 120.188 25.1367 120.274 25.258C120.378 25.3793 120.552 25.44 120.794 25.44C121.141 25.44 121.592 25.2233 122.146 24.79C122.701 24.3393 123.308 23.75 123.966 23.022C124.642 22.294 125.318 21.488 125.994 20.604C126.67 19.72 127.312 18.8273 127.918 17.926C128.542 17.0247 129.08 16.1927 129.53 15.43C129.6 15.3087 129.678 15.196 129.764 15.092ZM137.916 34.722C137.622 34.722 137.388 34.618 137.214 34.41C137.058 34.202 136.98 33.8033 136.98 33.214C136.98 32.3647 137.041 31.3767 137.162 30.25C137.284 29.1233 137.448 27.9273 137.656 26.662C137.882 25.3967 138.124 24.1313 138.384 22.866C138.662 21.6007 138.948 20.396 139.242 19.252C139.554 18.108 139.858 17.094 140.152 16.21C140.447 15.3087 140.716 14.598 140.958 14.078C141.218 13.558 141.444 13.298 141.634 13.298C141.964 13.298 142.224 13.3933 142.414 13.584C142.622 13.7747 142.726 14.0607 142.726 14.442C142.726 14.9273 142.579 15.716 142.284 16.808C141.99 17.8827 141.608 19.2867 141.14 21.02C141.574 20.2227 142.042 19.3907 142.544 18.524C143.047 17.6573 143.576 16.8167 144.13 16.002C144.685 15.17 145.24 14.4247 145.794 13.766C146.366 13.1073 146.921 12.5787 147.458 12.18C147.996 11.7813 148.516 11.582 149.018 11.582C149.556 11.582 150.032 11.7553 150.448 12.102C150.864 12.4313 151.185 12.882 151.41 13.454C151.653 14.0087 151.774 14.6327 151.774 15.326C151.774 16.7647 151.532 18.16 151.046 19.512C150.561 20.8467 149.885 22.0513 149.018 23.126C148.169 24.1833 147.164 25.024 146.002 25.648C144.858 26.272 143.619 26.584 142.284 26.584C141.782 26.584 141.331 26.558 140.932 26.506C140.534 26.454 140.187 26.3933 139.892 26.324C139.684 27.468 139.485 28.6467 139.294 29.86C139.104 31.0733 138.913 32.3647 138.722 33.734C138.67 34.098 138.584 34.3493 138.462 34.488C138.341 34.644 138.159 34.722 137.916 34.722ZM149.486 13.558C149.122 13.558 148.689 13.766 148.186 14.182C147.701 14.598 147.172 15.1527 146.6 15.846C146.046 16.522 145.482 17.276 144.91 18.108C144.338 18.9227 143.784 19.7547 143.246 20.604C142.709 21.4533 142.215 22.242 141.764 22.97C141.331 23.698 140.976 24.3047 140.698 24.79C142.05 24.7553 143.238 24.4867 144.26 23.984C145.283 23.464 146.158 22.8053 146.886 22.008C147.614 21.1933 148.204 20.318 148.654 19.382C149.122 18.4287 149.46 17.51 149.668 16.626C149.876 15.7247 149.98 14.9447 149.98 14.286C149.98 13.8007 149.816 13.558 149.486 13.558ZM164.803 15.794C164.803 16.3487 164.63 16.8947 164.283 17.432C163.936 17.952 163.477 18.4547 162.905 18.94C162.333 19.408 161.7 19.85 161.007 20.266C160.314 20.682 159.62 21.046 158.927 21.358C158.234 21.67 157.601 21.9213 157.029 22.112C156.89 22.788 156.821 23.386 156.821 23.906C156.821 24.2353 156.899 24.4693 157.055 24.608C157.211 24.7467 157.454 24.816 157.783 24.816C158.511 24.816 159.282 24.686 160.097 24.426C160.912 24.166 161.744 23.828 162.593 23.412C163.442 22.996 164.257 22.554 165.037 22.086C165.817 21.618 166.528 21.176 167.169 20.76C167.828 20.344 168.374 20.006 168.807 19.746C169.24 19.486 169.526 19.356 169.665 19.356C169.873 19.356 170.029 19.4253 170.133 19.564C170.254 19.6853 170.315 19.8327 170.315 20.006C170.315 20.1447 170.098 20.4133 169.665 20.812C169.249 21.2107 168.686 21.6787 167.975 22.216C167.264 22.736 166.467 23.2733 165.583 23.828C164.699 24.3827 163.78 24.9027 162.827 25.388C161.891 25.8733 160.981 26.2633 160.097 26.558C159.23 26.8527 158.45 27 157.757 27C156.856 27 156.154 26.662 155.651 25.986C155.148 25.31 154.897 24.2613 154.897 22.84C154.897 21.8867 155.018 20.9247 155.261 19.954C155.521 18.9833 155.868 18.056 156.301 17.172C156.752 16.2707 157.246 15.4733 157.783 14.78C158.338 14.0693 158.918 13.5147 159.525 13.116C160.132 12.7 160.721 12.492 161.293 12.492C162.385 12.492 163.243 12.7953 163.867 13.402C164.491 14.0087 164.803 14.806 164.803 15.794ZM157.575 20.11C158.112 19.7807 158.667 19.434 159.239 19.07C159.811 18.706 160.34 18.3333 160.825 17.952C161.31 17.5707 161.7 17.172 161.995 16.756C162.307 16.3227 162.463 15.8807 162.463 15.43C162.463 14.7887 162.116 14.468 161.423 14.468C160.99 14.468 160.53 14.7453 160.045 15.3C159.577 15.8373 159.126 16.5393 158.693 17.406C158.26 18.2727 157.887 19.174 157.575 20.11ZM183.277 27.026C182.531 27.026 182.003 26.8787 181.691 26.584C181.379 26.2893 181.223 25.856 181.223 25.284C181.223 22.4067 181.743 19.3993 182.783 16.262C183.823 13.1073 185.279 9.944 187.151 6.772C187.393 6.37333 187.584 6.122 187.723 6.018C187.879 5.914 188.061 5.862 188.269 5.862C188.511 5.862 188.728 5.94867 188.919 6.122C189.109 6.29533 189.205 6.52933 189.205 6.824C189.205 6.98 189.049 7.40467 188.737 8.098C188.425 8.774 188.026 9.64933 187.541 10.724C187.055 11.7987 186.535 13.0033 185.981 14.338C185.443 15.6553 184.932 17.0333 184.447 18.472C183.961 19.9107 183.571 21.3407 183.277 22.762C183.675 22.1727 184.152 21.54 184.707 20.864C185.279 20.188 185.885 19.512 186.527 18.836C187.168 18.16 187.818 17.5447 188.477 16.99C189.153 16.4353 189.803 15.9933 190.427 15.664C191.051 15.3347 191.623 15.17 192.143 15.17C192.819 15.17 193.408 15.456 193.911 16.028C194.431 16.5827 194.691 17.4233 194.691 18.55C194.691 19.5033 194.431 20.4827 193.911 21.488C193.391 22.476 192.628 23.3947 191.623 24.244C190.635 25.076 189.439 25.752 188.035 26.272C186.631 26.7747 185.045 27.026 183.277 27.026ZM183.381 25.05C184.819 25.05 186.128 24.8073 187.307 24.322C188.485 23.8367 189.491 23.2213 190.323 22.476C191.172 21.7133 191.822 20.9247 192.273 20.11C192.741 19.278 192.975 18.524 192.975 17.848C192.975 17.3627 192.81 17.12 192.481 17.12C192.082 17.12 191.571 17.3107 190.947 17.692C190.323 18.0733 189.647 18.576 188.919 19.2C188.208 19.824 187.497 20.5 186.787 21.228C186.076 21.9387 185.417 22.632 184.811 23.308C184.221 23.984 183.745 24.5647 183.381 25.05ZM200.333 33.682C199.466 33.682 198.669 33.6213 197.941 33.5C197.23 33.396 196.528 33.2227 195.835 32.98C195.141 32.7547 194.387 32.46 193.573 32.096C193.33 31.9747 193.113 31.8273 192.923 31.654C192.732 31.498 192.637 31.316 192.637 31.108C192.637 30.848 192.801 30.5707 193.131 30.276C193.443 29.9987 193.737 29.86 194.015 29.86C194.309 29.86 194.673 29.964 195.107 30.172C195.557 30.38 196.077 30.6227 196.667 30.9C197.256 31.1947 197.906 31.446 198.617 31.654C199.345 31.862 200.125 31.966 200.957 31.966C201.858 31.966 202.707 31.5933 203.505 30.848C204.302 30.1027 204.952 29.028 205.455 27.624C205.957 26.2373 206.209 24.5647 206.209 22.606C206.209 22.0167 206.191 21.3667 206.157 20.656C206.139 19.928 206.105 19.1653 206.053 18.368C205.637 19.2693 205.169 20.162 204.649 21.046C204.146 21.93 203.617 22.7273 203.063 23.438C202.525 24.1487 201.962 24.7207 201.373 25.154C200.801 25.57 200.22 25.778 199.631 25.778C198.885 25.778 198.348 25.5873 198.019 25.206C197.689 24.8247 197.525 24.2353 197.525 23.438C197.525 22.606 197.585 21.7047 197.707 20.734C197.828 19.7633 197.984 18.784 198.175 17.796C198.383 16.7907 198.625 15.8373 198.903 14.936C199.18 14.0347 199.475 13.2547 199.787 12.596C199.96 12.2493 200.22 12.076 200.567 12.076C200.809 12.076 201.043 12.206 201.269 12.466C201.511 12.7087 201.633 13.0293 201.633 13.428C201.633 13.74 201.563 14.182 201.425 14.754C201.286 15.326 201.113 15.976 200.905 16.704C200.697 17.432 200.489 18.1947 200.281 18.992C200.073 19.772 199.899 20.5433 199.761 21.306C199.622 22.0513 199.553 22.736 199.553 23.36C199.553 23.62 199.726 23.75 200.073 23.75C200.263 23.75 200.532 23.5767 200.879 23.23C201.243 22.866 201.641 22.398 202.075 21.826C202.525 21.2367 202.976 20.5953 203.427 19.902C203.895 19.1913 204.345 18.4893 204.779 17.796C205.212 17.0853 205.585 16.4353 205.897 15.846C205.879 15.7073 205.871 15.5773 205.871 15.456C205.871 15.3347 205.871 15.222 205.871 15.118C205.871 14.2687 205.957 13.74 206.131 13.532C206.321 13.3067 206.564 13.194 206.859 13.194C207.361 13.194 207.717 13.3067 207.925 13.532C208.133 13.7573 208.237 14.1473 208.237 14.702C208.237 14.91 208.211 15.1353 208.159 15.378C208.107 15.6033 208.02 15.9327 207.899 16.366C208.037 17.7353 208.15 18.966 208.237 20.058C208.341 21.15 208.393 22.2507 208.393 23.36C208.393 25.4573 208.055 27.2773 207.379 28.82C206.72 30.3627 205.784 31.5587 204.571 32.408C203.375 33.2573 201.962 33.682 200.333 33.682ZM45.5397 64.248C44.9851 64.248 44.4044 64.1093 43.7977 63.832C43.2084 63.572 42.7057 63.1387 42.2897 62.532C41.8911 61.908 41.6917 61.0847 41.6917 60.062C41.6917 58.866 41.7957 57.6007 42.0037 56.266C42.2117 54.9313 42.4804 53.5967 42.8097 52.262C43.1564 50.91 43.5377 49.6273 43.9537 48.414C44.3697 47.2007 44.7857 46.1173 45.2017 45.164C45.6351 44.2107 46.0337 43.4653 46.3977 42.928C46.7617 42.3733 47.0651 42.096 47.3077 42.096C47.6371 42.096 47.9144 42.226 48.1397 42.486C48.3824 42.746 48.5037 43.11 48.5037 43.578C48.5037 43.7687 48.3911 44.2193 48.1657 44.93C47.9404 45.6233 47.6544 46.4987 47.3077 47.556C46.9611 48.6133 46.5884 49.7573 46.1897 50.988C45.8084 52.2187 45.4444 53.458 45.0977 54.706C44.7511 55.954 44.4651 57.1327 44.2397 58.242C44.0144 59.3513 43.9017 60.296 43.9017 61.076C43.9017 61.3013 43.9624 61.518 44.0837 61.726C44.2051 61.9167 44.4044 62.012 44.6817 62.012C45.0631 62.012 45.6091 61.9253 46.3197 61.752C47.0477 61.5787 47.8364 61.3707 48.6857 61.128C49.5351 60.868 50.3497 60.6167 51.1297 60.374C51.9097 60.1313 52.5684 59.9233 53.1057 59.75C53.6431 59.5767 53.9464 59.49 54.0157 59.49C54.2237 59.49 54.3971 59.5507 54.5357 59.672C54.6744 59.776 54.7437 59.9407 54.7437 60.166C54.7437 60.4433 54.5357 60.764 54.1197 61.128C53.7211 61.492 53.1837 61.856 52.5077 62.22C51.8491 62.584 51.1124 62.9133 50.2977 63.208C49.4831 63.52 48.6597 63.7713 47.8277 63.962C47.0131 64.1527 46.2504 64.248 45.5397 64.248ZM60.8891 63.26C59.8664 63.26 59.0604 62.87 58.4711 62.09C57.8818 61.31 57.5871 60.296 57.5871 59.048C57.5871 58.5973 57.6478 58.1207 57.7691 57.618C57.9078 57.098 58.0811 56.63 58.2891 56.214C58.1678 56.0927 58.0724 55.928 58.0031 55.72C57.9338 55.4947 57.8991 55.2173 57.8991 54.888C57.8991 53.8653 58.0724 52.9293 58.4191 52.08C58.7658 51.2307 59.2251 50.494 59.7971 49.87C60.3691 49.2287 61.0018 48.7347 61.6951 48.388C62.4058 48.0413 63.1251 47.868 63.8531 47.868C65.0491 47.868 66.0198 48.3013 66.7651 49.168C67.5104 50.0173 67.8831 51.3173 67.8831 53.068C67.8831 53.9867 67.7444 54.9227 67.4671 55.876C67.2071 56.8293 66.8431 57.748 66.3751 58.632C65.9244 59.516 65.3958 60.3047 64.7891 60.998C64.1998 61.6913 63.5671 62.246 62.8911 62.662C62.2324 63.0607 61.5651 63.26 60.8891 63.26ZM60.0051 55.33C60.1091 55.4687 60.1611 55.6507 60.1611 55.876C60.1611 56.136 60.1091 56.396 60.0051 56.656C59.9184 56.916 59.8231 57.2713 59.7191 57.722C59.6151 58.1727 59.5631 58.814 59.5631 59.646C59.5631 60.478 59.8924 60.894 60.5511 60.894C61.2791 60.894 61.9551 60.608 62.5791 60.036C63.2031 59.4467 63.7578 58.6927 64.2431 57.774C64.7284 56.8553 65.1011 55.876 65.3611 54.836C65.6384 53.7787 65.7771 52.782 65.7771 51.846C65.7771 51.2393 65.6644 50.8147 65.4391 50.572C65.2138 50.312 64.8064 50.182 64.2171 50.182C63.6104 50.182 62.9778 50.39 62.3191 50.806C61.6778 51.2047 61.1404 51.7507 60.7071 52.444C60.2738 53.1373 60.0571 53.9173 60.0571 54.784C60.0571 54.9747 60.0398 55.1567 60.0051 55.33ZM91.1803 62.22C91.163 62.4973 91.0503 62.7227 90.8423 62.896C90.6343 63.0693 90.3916 63.156 90.1143 63.156C89.8023 63.156 89.5423 63.052 89.3343 62.844C89.1263 62.636 89.0223 62.3153 89.0223 61.882C89.0223 60.7553 89.0743 59.5333 89.1783 58.216C89.2823 56.8813 89.4123 55.564 89.5683 54.264C89.7243 52.9467 89.8803 51.7333 90.0363 50.624C89.4643 51.4387 88.8403 52.34 88.1643 53.328C87.5056 54.316 86.8296 55.2953 86.1363 56.266C85.443 57.2367 84.767 58.1293 84.1083 58.944C83.4496 59.7413 82.8516 60.3913 82.3143 60.894C81.777 61.3793 81.335 61.622 80.9883 61.622C80.347 61.622 79.7923 61.3707 79.3243 60.868C78.8563 60.348 78.6223 59.698 78.6223 58.918C78.6223 58.606 78.657 58.1813 78.7263 57.644C78.7956 57.0893 78.8736 56.5087 78.9603 55.902C79.047 55.2953 79.125 54.732 79.1943 54.212C79.2636 53.6747 79.2983 53.276 79.2983 53.016C79.2983 52.7733 79.2723 52.5653 79.2203 52.392C79.1856 52.2013 79.099 52.106 78.9603 52.106C78.7523 52.106 78.4663 52.34 78.1023 52.808C77.7383 53.2587 77.331 53.8393 76.8803 54.55C76.447 55.2607 75.9963 56.0147 75.5283 56.812C75.0776 57.6093 74.653 58.3633 74.2543 59.074C73.8556 59.7673 73.5176 60.3133 73.2403 60.712C73.015 61.0933 72.807 61.3707 72.6163 61.544C72.4256 61.7173 72.1916 61.804 71.9143 61.804C71.585 61.804 71.2816 61.6307 71.0043 61.284C70.7443 60.9373 70.6143 60.5127 70.6143 60.01C70.6143 59.7153 70.6663 59.256 70.7703 58.632C70.8743 57.9907 71.0043 57.2887 71.1603 56.526C71.3336 55.7633 71.4983 55.018 71.6543 54.29C71.8276 53.5447 71.975 52.912 72.0963 52.392C72.235 51.8027 72.4083 51.404 72.6163 51.196C72.8243 50.988 73.0496 50.884 73.2923 50.884C73.6216 50.884 73.8816 51.0053 74.0723 51.248C74.2803 51.4733 74.3843 51.8287 74.3843 52.314C74.3843 52.4007 74.3323 52.6347 74.2283 53.016C74.1243 53.38 73.9943 53.8307 73.8383 54.368C73.6996 54.888 73.5436 55.434 73.3703 56.006C73.2143 56.578 73.0843 57.1067 72.9803 57.592C73.3616 56.9507 73.7603 56.2573 74.1763 55.512C74.6096 54.7667 75.043 54.03 75.4763 53.302C75.9096 52.5567 76.343 51.8807 76.7763 51.274C77.2096 50.65 77.6343 50.156 78.0503 49.792C78.4663 49.428 78.865 49.246 79.2463 49.246C79.697 49.246 80.113 49.3847 80.4943 49.662C80.893 49.9393 81.2136 50.312 81.4563 50.78C81.699 51.248 81.8203 51.768 81.8203 52.34C81.8203 52.7387 81.751 53.302 81.6123 54.03C81.4736 54.7407 81.3263 55.512 81.1703 56.344C81.0316 57.176 80.945 57.9647 80.9103 58.71C80.9103 58.8833 80.9623 58.97 81.0663 58.97C81.153 58.97 81.257 58.9093 81.3783 58.788C81.881 58.2333 82.4356 57.566 83.0423 56.786C83.649 55.9887 84.2643 55.148 84.8883 54.264C85.5296 53.38 86.1623 52.5133 86.7863 51.664C87.4103 50.7973 87.991 50.0173 88.5283 49.324C89.083 48.6133 89.5683 48.05 89.9843 47.634C90.4176 47.218 90.7556 47.01 90.9983 47.01C91.5183 47.01 91.917 47.1573 92.1943 47.452C92.4716 47.7467 92.6103 48.2407 92.6103 48.934C92.6103 49.4887 92.567 50.208 92.4803 51.092C92.411 51.976 92.3156 52.938 92.1943 53.978C92.0903 55.018 91.969 56.0667 91.8303 57.124C91.709 58.164 91.5876 59.1347 91.4663 60.036C91.345 60.92 91.2496 61.648 91.1803 62.22ZM98.609 62.506C97.9503 62.506 97.4043 62.2027 96.971 61.596C96.555 60.972 96.347 60.166 96.347 59.178C96.347 58.3113 96.5637 57.4793 96.997 56.682C97.4303 55.8673 98.0023 55.0873 98.713 54.342C99.441 53.5967 100.247 52.912 101.131 52.288C102.015 51.6467 102.908 51.066 103.809 50.546C104.728 50.026 105.594 49.584 106.409 49.22C107.241 48.856 107.952 48.5787 108.541 48.388C109.13 48.18 109.538 48.076 109.763 48.076C110.144 48.076 110.335 48.284 110.335 48.7C110.335 49.064 110.188 49.3847 109.893 49.662C109.616 49.9393 109.278 50.1733 108.879 50.364C108.151 50.728 107.319 51.1613 106.383 51.664C105.464 52.1493 104.528 52.6953 103.575 53.302C102.639 53.8913 101.764 54.524 100.949 55.2C100.152 55.876 99.5103 56.5867 99.025 57.332C98.5397 58.06 98.297 58.8053 98.297 59.568C98.297 59.7933 98.3403 59.9667 98.427 60.088C98.531 60.2093 98.7043 60.27 98.947 60.27C99.259 60.27 99.6577 60.1227 100.143 59.828C100.646 59.516 101.192 59.1087 101.781 58.606C102.388 58.086 102.986 57.514 103.575 56.89C104.182 56.266 104.745 55.6333 105.265 54.992C105.785 54.3333 106.21 53.718 106.539 53.146C106.73 52.834 106.946 52.574 107.189 52.366C107.432 52.1407 107.692 52.028 107.969 52.028C108.35 52.028 108.541 52.2533 108.541 52.704C108.541 52.8427 108.489 53.198 108.385 53.77C108.298 54.342 108.203 55.0353 108.099 55.85C107.995 56.6473 107.943 57.488 107.943 58.372C107.943 60.2613 108.394 61.206 109.295 61.206C109.798 61.206 110.318 61.0153 110.855 60.634C111.41 60.2527 111.947 59.7673 112.467 59.178C113.004 58.5713 113.498 57.93 113.949 57.254C114.4 56.578 114.781 55.9367 115.093 55.33C115.405 54.7233 115.622 54.238 115.743 53.874C116.02 51.9327 116.41 50.5373 116.913 49.688C117.433 48.8387 117.962 48.414 118.499 48.414C118.846 48.414 119.123 48.5093 119.331 48.7C119.539 48.8733 119.643 49.2633 119.643 49.87C119.643 50.286 119.478 50.91 119.149 51.742C118.82 52.574 118.378 53.484 117.823 54.472C117.667 55.356 117.58 56.266 117.563 57.202C117.546 58.138 117.641 58.996 117.849 59.776C118.3 59.5507 118.75 59.1433 119.201 58.554C119.652 57.9473 120.111 57.2453 120.579 56.448C121.047 55.6507 121.506 54.8273 121.957 53.978C122.425 53.1287 122.884 52.3487 123.335 51.638C123.803 50.91 124.254 50.3207 124.687 49.87C125.138 49.4193 125.58 49.194 126.013 49.194C126.568 49.194 127.027 49.3673 127.391 49.714C127.755 50.0433 128.032 50.6327 128.223 51.482C128.414 52.314 128.509 53.4927 128.509 55.018C128.509 55.8327 128.587 56.5953 128.743 57.306C128.916 58.0167 129.185 58.5887 129.549 59.022C129.93 59.438 130.416 59.646 131.005 59.646C131.889 59.646 132.678 59.49 133.371 59.178C134.064 58.8487 134.662 58.4847 135.165 58.086C135.685 57.67 136.118 57.306 136.465 56.994C136.812 56.6647 137.08 56.5 137.271 56.5C137.67 56.5 137.869 56.708 137.869 57.124C137.869 57.2973 137.739 57.5747 137.479 57.956C137.236 58.32 136.89 58.736 136.439 59.204C136.006 59.6547 135.503 60.0967 134.931 60.53C134.376 60.946 133.778 61.2927 133.137 61.57C132.513 61.8473 131.88 61.986 131.239 61.986C130.043 61.986 129.064 61.752 128.301 61.284C127.556 60.816 127.001 60.0447 126.637 58.97C126.29 57.8953 126.117 56.4567 126.117 54.654C126.117 53.666 126.082 52.9467 126.013 52.496C125.944 52.028 125.77 51.716 125.493 51.56C125.285 51.924 125.008 52.444 124.661 53.12C124.332 53.7787 123.95 54.5153 123.517 55.33C123.101 56.1447 122.65 56.968 122.165 57.8C121.68 58.6147 121.186 59.3687 120.683 60.062C120.18 60.738 119.678 61.2927 119.175 61.726C118.672 62.142 118.196 62.35 117.745 62.35C117.45 62.35 117.147 62.194 116.835 61.882C116.523 61.5527 116.263 61.128 116.055 60.608C115.847 60.0707 115.743 59.4987 115.743 58.892C115.743 58.4933 115.752 58.1207 115.769 57.774C115.058 58.7793 114.313 59.7153 113.533 60.582C112.753 61.4313 111.973 62.116 111.193 62.636C110.413 63.156 109.685 63.416 109.009 63.416C108.472 63.416 107.969 63.2253 107.501 62.844C107.033 62.4453 106.652 61.778 106.357 60.842C106.08 59.8887 105.924 58.5973 105.889 56.968C105.126 58.0427 104.32 58.996 103.471 59.828C102.622 60.66 101.781 61.3187 100.949 61.804C100.117 62.272 99.337 62.506 98.609 62.506ZM136.516 63.13C136.187 63.13 135.892 63.0087 135.632 62.766C135.372 62.506 135.242 62.1073 135.242 61.57C135.242 61.1887 135.294 60.66 135.398 59.984C135.502 59.2907 135.641 58.5367 135.814 57.722C135.988 56.9073 136.17 56.1013 136.36 55.304C136.568 54.4893 136.776 53.7613 136.984 53.12C137.192 52.4787 137.374 52.002 137.53 51.69C137.669 51.4473 137.799 51.2913 137.92 51.222C138.059 51.1527 138.189 51.118 138.31 51.118C138.553 51.118 138.761 51.196 138.934 51.352C139.125 51.508 139.22 51.8113 139.22 52.262C139.22 52.522 139.168 52.9553 139.064 53.562C138.978 54.1513 138.856 54.8447 138.7 55.642C138.562 56.422 138.406 57.228 138.232 58.06C138.076 58.8747 137.92 59.6547 137.764 60.4C137.608 61.1453 137.487 61.7693 137.4 62.272C137.331 62.5493 137.21 62.766 137.036 62.922C136.88 63.0607 136.707 63.13 136.516 63.13ZM139.064 48.752C138.666 48.752 138.284 48.6307 137.92 48.388C137.574 48.1453 137.4 47.7553 137.4 47.218C137.4 46.7673 137.504 46.4033 137.712 46.126C137.938 45.8487 138.198 45.6493 138.492 45.528C138.804 45.3893 139.073 45.32 139.298 45.32C139.524 45.32 139.775 45.372 140.052 45.476C140.347 45.5627 140.598 45.736 140.806 45.996C141.014 46.2387 141.118 46.6027 141.118 47.088C141.118 47.4173 141.006 47.712 140.78 47.972C140.555 48.2147 140.278 48.4053 139.948 48.544C139.636 48.6827 139.342 48.752 139.064 48.752ZM152.592 63.286C152.436 63.286 152.124 63.2773 151.656 63.26C151.205 63.2427 150.668 63.2167 150.044 63.182C149.42 63.1473 148.77 63.1127 148.094 63.078C147.435 63.0433 146.811 63.0173 146.222 63C145.65 62.9827 145.173 62.974 144.792 62.974C144.324 62.974 143.934 62.818 143.622 62.506C143.327 62.194 143.18 61.7607 143.18 61.206C143.18 60.842 143.344 60.374 143.674 59.802C144.003 59.23 144.445 58.5973 145 57.904C145.554 57.1933 146.17 56.4653 146.846 55.72C147.539 54.9747 148.241 54.2467 148.952 53.536C149.662 52.8253 150.347 52.1667 151.006 51.56C151.664 50.9533 152.236 50.4593 152.722 50.078C151.578 50.2167 150.46 50.3987 149.368 50.624C148.276 50.832 147.322 51.0227 146.508 51.196C145.71 51.3693 145.173 51.456 144.896 51.456C144.549 51.456 144.272 51.3607 144.064 51.17C143.856 50.962 143.752 50.6847 143.752 50.338C143.752 50.1473 143.96 49.9567 144.376 49.766C144.809 49.5753 145.381 49.3933 146.092 49.22C146.802 49.0467 147.582 48.8993 148.432 48.778C149.298 48.6393 150.174 48.5353 151.058 48.466C151.942 48.3967 152.765 48.362 153.528 48.362C154.048 48.362 154.464 48.518 154.776 48.83C155.105 49.142 155.27 49.4713 155.27 49.818C155.27 49.9567 155.07 50.2687 154.672 50.754C154.273 51.2393 153.753 51.8287 153.112 52.522C152.47 53.2153 151.768 53.9607 151.006 54.758C150.243 55.5553 149.498 56.3527 148.77 57.15C148.042 57.93 147.392 58.658 146.82 59.334C146.248 59.9927 145.832 60.5387 145.572 60.972C146.04 60.9547 146.594 60.9373 147.236 60.92C147.877 60.9027 148.544 60.8853 149.238 60.868C149.931 60.8333 150.59 60.8073 151.214 60.79C151.838 60.7553 152.366 60.7293 152.8 60.712C153.25 60.6947 153.545 60.686 153.684 60.686C154.377 60.686 154.724 60.972 154.724 61.544C154.724 61.9773 154.524 62.376 154.126 62.74C153.727 63.104 153.216 63.286 152.592 63.286ZM168.218 51.794C168.218 52.3487 168.045 52.8947 167.698 53.432C167.351 53.952 166.892 54.4547 166.32 54.94C165.748 55.408 165.115 55.85 164.422 56.266C163.729 56.682 163.035 57.046 162.342 57.358C161.649 57.67 161.016 57.9213 160.444 58.112C160.305 58.788 160.236 59.386 160.236 59.906C160.236 60.2353 160.314 60.4693 160.47 60.608C160.626 60.7467 160.869 60.816 161.198 60.816C161.926 60.816 162.697 60.686 163.512 60.426C164.327 60.166 165.159 59.828 166.008 59.412C166.857 58.996 167.672 58.554 168.452 58.086C169.232 57.618 169.943 57.176 170.584 56.76C171.243 56.344 171.789 56.006 172.222 55.746C172.655 55.486 172.941 55.356 173.08 55.356C173.288 55.356 173.444 55.4253 173.548 55.564C173.669 55.6853 173.73 55.8327 173.73 56.006C173.73 56.1447 173.513 56.4133 173.08 56.812C172.664 57.2107 172.101 57.6787 171.39 58.216C170.679 58.736 169.882 59.2733 168.998 59.828C168.114 60.3827 167.195 60.9027 166.242 61.388C165.306 61.8733 164.396 62.2633 163.512 62.558C162.645 62.8527 161.865 63 161.172 63C160.271 63 159.569 62.662 159.066 61.986C158.563 61.31 158.312 60.2613 158.312 58.84C158.312 57.8867 158.433 56.9247 158.676 55.954C158.936 54.9833 159.283 54.056 159.716 53.172C160.167 52.2707 160.661 51.4733 161.198 50.78C161.753 50.0693 162.333 49.5147 162.94 49.116C163.547 48.7 164.136 48.492 164.708 48.492C165.8 48.492 166.658 48.7953 167.282 49.402C167.906 50.0087 168.218 50.806 168.218 51.794ZM160.99 56.11C161.527 55.7807 162.082 55.434 162.654 55.07C163.226 54.706 163.755 54.3333 164.24 53.952C164.725 53.5707 165.115 53.172 165.41 52.756C165.722 52.3227 165.878 51.8807 165.878 51.43C165.878 50.7887 165.531 50.468 164.838 50.468C164.405 50.468 163.945 50.7453 163.46 51.3C162.992 51.8373 162.541 52.5393 162.108 53.406C161.675 54.2727 161.302 55.174 160.99 56.11ZM182.495 49.922C182.963 48.7953 183.405 47.634 183.821 46.438C184.254 45.242 184.644 44.02 184.991 42.772C185.095 42.4253 185.251 42.148 185.459 41.94C185.684 41.7147 185.944 41.602 186.239 41.602C186.447 41.602 186.62 41.68 186.759 41.836C186.915 41.992 186.993 42.2 186.993 42.46C186.993 42.7893 186.863 43.3613 186.603 44.176C186.36 44.9907 186.048 46.022 185.667 47.27C185.303 48.518 184.93 49.9567 184.549 51.586C184.185 53.198 183.873 54.9833 183.613 56.942C183.37 58.9007 183.249 60.9893 183.249 63.208C183.249 63.6933 183.145 64.092 182.937 64.404C182.729 64.7333 182.477 64.898 182.183 64.898C182.009 64.898 181.845 64.8547 181.689 64.768C181.533 64.6813 181.394 64.4733 181.273 64.144C181.169 63.832 181.082 63.338 181.013 62.662C180.943 61.9687 180.909 61.0327 180.909 59.854C180.909 58.9527 180.961 57.9733 181.065 56.916C180.267 58.3547 179.401 59.6113 178.465 60.686C177.546 61.7433 176.653 62.558 175.787 63.13C174.937 63.702 174.209 63.988 173.603 63.988C172.857 63.988 172.251 63.7367 171.783 63.234C171.332 62.7487 171.107 62.0207 171.107 61.05C171.107 60.2007 171.306 59.3253 171.705 58.424C172.103 57.5227 172.632 56.6387 173.291 55.772C173.949 54.888 174.677 54.056 175.475 53.276C176.272 52.496 177.069 51.8113 177.867 51.222C178.681 50.6153 179.435 50.1473 180.129 49.818C180.822 49.4713 181.385 49.298 181.819 49.298C181.992 49.298 182.148 49.3587 182.287 49.48C182.425 49.6013 182.495 49.7487 182.495 49.922ZM182.157 50.728C182.035 50.8493 181.888 50.9707 181.715 51.092C181.541 51.2133 181.351 51.3433 181.143 51.482C180.38 52.0193 179.539 52.6433 178.621 53.354C177.719 54.0473 176.853 54.81 176.021 55.642C175.206 56.4567 174.539 57.3147 174.019 58.216C173.499 59.1173 173.239 60.0447 173.239 60.998C173.239 61.414 173.447 61.622 173.863 61.622C174.435 61.622 175.059 61.3533 175.735 60.816C176.428 60.2613 177.139 59.4987 177.867 58.528C178.595 57.54 179.323 56.3873 180.051 55.07C180.779 53.7353 181.481 52.288 182.157 50.728Z" fill="#FFE700"/>
</g>
<defs>
<clipPath id="clip0_57_781">
<rect width="225" height="150" fill="white"/>
</clipPath>
</defs>
</svg>
