<?xml version="1.0" encoding="UTF-8"?>
<svg id="Calque_1" data-name="Calque 1" xmlns="http://www.w3.org/2000/svg" version="1.1" viewBox="0 0 334 113">
  <defs>
    <style>
      .cls-1 {
        fill: none;
      }

      .cls-1, .cls-2 {
        stroke-width: 0px;
      }

      .cls-2 {
        fill: #ffe700;
      }
    </style>
  </defs>
  <path class="cls-1" d="M172.4,39.2c.3,0,.3-.4-.1-.4,0,.3,0,.4.1.4Z"/>
  <path class="cls-1" d="M173.1,37.4q0-.1-.1-.2c0,.1,0,.2.1.2Z"/>
  <path class="cls-1" d="M173,38.9v-.2c-.1,0-.2.1-.2.3.1,0,.2,0,.2-.1Z"/>
  <path class="cls-1" d="M170.3,44.5c-.2,0-.3,0-.3.1.2,0,.3,0,.3-.1Z"/>
  <path class="cls-1" d="M165.8,51.2q0-.1.1-.2h-.1v.2Z"/>
  <polygon class="cls-1" points="169.5 42.5 169.4 42.6 169.5 42.6 169.5 42.5"/>
  <path class="cls-1" d="M182.2,38.7c0-.2-.1-.3-.3-.3,0,.1.2.6.2.7.1-.1.1-.2.1-.3Z"/>
  <path class="cls-1" d="M183.1,38.4c-.1,0-.2.1-.2.3.1,0,.2-.1.2-.3Z"/>
  <path class="cls-1" d="M183.3,42.7q.1,0,.1-.1h-.3c0,.1.1.1.2.1Z"/>
  <path class="cls-1" d="M182.8,37.8c-.1,0-.2,0-.2.1.1,0,.2,0,.2-.1Z"/>
  <polygon class="cls-1" points="182.6 38.4 182.5 38.5 182.6 38.5 182.6 38.4"/>
  <path class="cls-1" d="M181.5,40.1q0,.1-.1.2h-.1q0,.2.1.2l.7-.7q0-.1-.1-.2t0-.2c0-.1,0-.2.1-.3-.1,0-.9.7-.9.8.1.1.2.2.3.2Z"/>
  <path class="cls-1" d="M177.5,36.8c-.1,0-.2.1-.2.2.1,0,.2-.1.2-.2Z"/>
  <path class="cls-1" d="M166.8,47.6c-.1,0-.2-.1-.2-.3l-.3.4c0,.3.7.8.8.8-.1-.1.2-.4.2-.6l-.2-.4q-.1.1-.2.1Z"/>
  <path class="cls-1" d="M178.4,48.5h.1c0,.1.1,0,.1,0h-.2Z"/>
  <path class="cls-1" d="M180.5,48.2h-.2c0,.1.2.1.2,0Z"/>
  <path class="cls-1" d="M174.9,39.2h-.2c0,0,0,.1,0,.2,0,0,.1-.1.2-.1h0Z"/>
  <path class="cls-1" d="M179.7,43l.3-.3h-.4c0,.2,0,.3.1.3Z"/>
  <rect class="cls-1" x="180" y="41.6" width=".1" height=".2"/>
  <path class="cls-1" d="M180.8,39.8c0-.2.1-.4.4-.6h-.7v-.4c.1,0-.1.1-.1.1-.1,0-.9-.3-1.2-.3h-.3l-.2.2c-.9,0-1-.6-1.2-.8h-1c-.3,0-.8.5-1.6,1.2v.2c0,0-.1,0-.2,0-.2.2-.5.5-.7.7-1.1,1.2-1.9,2-2.5,2.2,0,.1-.1.3-.1.4q.1.1.2.1c0,.4-1.5,2-1.8,2s-.1-.1-.1-.2v.2c-.1,0-1,1.8-1,1.8h-.1c0-.1-.2-.1-.2-.1-.1,0-.2,0-.3.1h0s0-.1-.1-.1-.3.1-.4.2h.2c.1.1.2.1.2.2h-.2c-.1.2-.2.2-.2.3,0,.2.1.3.4.3h.3c-.1.1-.3.1-.4,0,0,.4-.6.4-.2.8h.1c0,.2-.1.4-.2.6.3.4.8.7,1.2.7h.3c.1-.1,1.2-.1,1.3-.4,2.1-.6,3.1-1.2,3.1-1.9v-.2c-.1-.3.4-.6,1.2-.7h.4c0-.1,3-1.7,3-1.7-.3-.1-.3-.6.1-.7h.2c0-.1-.2-.3-.2-.3.1-.1.2-.2.2-.3l.9-1.2c-.3-.7,1.6-1.5,1.5-2.2,0-.1-.1-.1-.1-.2Z"/>
  <path class="cls-1" d="M180.9,38.7c-.1,0-.2,0-.2.1.1,0,.2,0,.2-.1Z"/>
  <path class="cls-1" d="M174.4,47.2c-.1.3,0,.4.2.4v-.2c0-.1-.1-.2-.2-.2Z"/>
  <polygon class="cls-1" points="178.9 44.8 178.8 44.8 178.9 44.9 178.9 44.8"/>
  <path class="cls-1" d="M168.7,52v-.3q-.1,0-.2.1c0,.1.1.2.2.2Z"/>
  <path class="cls-1" d="M176.9,46c0,.1.1.2.2.2,0-.1-.1-.2-.2-.2Z"/>
  <rect class="cls-1" x="174.8" y="48.8" width=".1" height=".1"/>
  <path class="cls-1" d="M177.3,46.6c0,.1.1.2.4.2,0-.4-.4-.3-.4-.2Z"/>
  <path class="cls-1" d="M178.1,46.5v.2q0,.1.1.1t.1-.2-.2-.1Z"/>
  <polygon class="cls-1" points="59.5 42 59.6 41.9 59.5 41.9 59.5 42"/>
  <path class="cls-1" d="M12.8,56.7c0,.2.1.3.2.3s.1,0,.1-.1-.1-.2-.3-.2Z"/>
  <path class="cls-1" d="M4.4,57.1h-.1.1Z"/>
  <path class="cls-1" d="M27.4,45.3v-.2h-.1q0,.2.1.2Z"/>
  <path class="cls-1" d="M19.1,51.1c0,.1.1.1.2.1h0c0-.1-.1-.3-.1-.3q0,.1-.1.2Z"/>
  <path class="cls-1" d="M23.8,46.4c.1,0,.1-.4,0-.4-.3,0-.3.4,0,.4Z"/>
  <path class="cls-1" d="M18.3,51.8c.2,0,.3,0,.3-.1,0-.8-1.8.1-.3.1Z"/>
  <polygon class="cls-1" points="10.5 49.3 10.2 49.5 10.5 49.5 10.5 49.3"/>
  <path class="cls-1" d="M7.4,50h0c0,.1.3.1.3.1.4,0-.3-.4-.3-.1Z"/>
  <path class="cls-1" d="M64.1,30.9h.2c0-.2-.1-.3-.3-.3,0,.2,0,.3.1.3Z"/>
  <path class="cls-1" d="M12.6,42.2c0-.2-.1-.3-.2-.3,0,.2.1.3.2.3Z"/>
  <path class="cls-1" d="M63.6,29h-.2.1q.1.1.1,0Z"/>
  <path class="cls-1" d="M13,42.8v-.2h-.1c0,.1,0,.2.1.2Z"/>
  <path class="cls-1" d="M37.9,39.4c.1,0,.1-.1.1-.2,0-.2-.1-.3-.3-.3h-.1c0,.4.1.6.3.6Z"/>
  <path class="cls-1" d="M31.8,38.8c0,.1.1.2.2.2l.2-.2q-.1-.1-.2-.1c-.1,0-.2,0-.2.1Z"/>
  <path class="cls-1" d="M192.5,47.3c-.1,0-.2,0-.2.1,0,.2.2.4.8.7l-.2-.3c-.1-.3-.2-.4-.3-.4Z"/>
  <polygon class="cls-1" points="77 48.3 77 48.2 76.9 48.3 77 48.3"/>
  <path class="cls-1" d="M127.8,47.1c-.2,0-.3.1-.3.4s.1.2.3.2v-.2c.1,0,.1-.3.1-.3q-.1,0-.1-.1Z"/>
  <path class="cls-1" d="M86.1,40.4v-.2h-.1c0,.1.1.2.1.2Z"/>
  <path class="cls-1" d="M129.3,35.9h-.2c-.1,0-.2,0-.3.1h-.1c-.3.1-.8-.3-.9-.3-.6,0-1.2.9-1.2,1.5-.3,1-1.3,2.4-2.8,4.3-1.5,1.8-2.6,3-3.4,3.6-.3,0-.6.1-.6.2v.4c-.8.6-4.5,4.9-5,4.5l-.2.3v.3l-1.2,1.1c.1.3-.2,1.2-1,2.7v.4c0,1.2.2,1.8.8,1.8h1.1c.8,0,1.9-.6,3.6-1.6,1.7-1,2.7-1.8,3-2.5l.4-.8h.3c.4-.4,2.5-2.8,3.4-3.4.1-.4,1.6-.9,1.6-1.2q-.1-.1-.1-.2c-.2-.1-.3-.2-.3-.3s.4-.7,1.5-1.9c1-1.2,1.5-2.1,1.6-2.6,0-.3.7-1.3.7-1.9h0c-.2-.6.2-.7.2-1.5s-.1-1.8-.4-2.4c0-.3-.1-.7-.2-.8Z"/>
  <path class="cls-1" d="M128.4,44.7c0,.2.1.3.3.3,0-.2-.1-.3-.3-.3Z"/>
  <polygon class="cls-1" points="129.9 44.6 129.9 44.5 129.8 44.6 129.9 44.6"/>
  <path class="cls-1" d="M34.1,49.4c-1,0-1,1.3-.2,1.3h.1q0-.2-.1-.3v-.2c0-.2.3-.4.9-.6h-.2c-.2-.2-.3-.2-.4-.2Z"/>
  <path class="cls-1" d="M184.7,35.7c0-.1.1-.3.1-.4l-.4.4c-.1,0-.2,0-.3.1.1,0,.7.2,1,.2-.2,0-.3-.1-.3-.3Z"/>
  <path class="cls-1" d="M58.2,46h0c0-.1-.1-.1-.1-.1q0,.1.1.1Z"/>
  <path class="cls-1" d="M34.4,51.8q-.1.1-.1.2c0,.1.1.2.3.2s.1,0,.1-.1c0-.2-.1-.3-.3-.3Z"/>
  <path class="cls-1" d="M35.4,50.2c0-.3-.1-.6-.4-.6v.2l.3.3h.1Z"/>
  <path class="cls-1" d="M35.2,54.9c0,.9.4.9.4-.1h0q-.1-.1-.2-.2c-.1,0-.2.1-.2.3Z"/>
  <path class="cls-1" d="M43.4,55.9c-.2,0-.3,0-.3.1,0,.2.1.3.4.3s.1-.1.1-.2c-.1-.1-.1-.2-.2-.2Z"/>
  <path class="cls-1" d="M185.5,35.3c-.2,0-.3.1-.3.2.2,0,.3-.1.3-.2Z"/>
  <path class="cls-1" d="M296.7,47.5c.3,0,.4-.1.4-.4-.3,0-.6.1-.7.2,0,.1.1.2.2.2Z"/>
  <path class="cls-1" d="M298.2,46c-.6,0-.9.2-.9.6s.1.4.4.4.1,0,.1-.1l.8-.3c.1,0,.1-.1.1-.2,0-.2-.2-.3-.6-.3Z"/>
  <path class="cls-1" d="M262.4,43.1v.2c-.1.1.1.1.1,0s0-.2-.1-.2Z"/>
  <path class="cls-1" d="M295.4,51.6c0,.2.1.3.2.3,0-.2-.1-.3-.2-.3Z"/>
  <path class="cls-1" d="M235.7,51.1c-.4,0-.7.2-.7.8.6,0,.9-.1.9-.4s-.1-.3-.2-.3Z"/>
  <path class="cls-1" d="M300.7,42.1c-.6,0-.8.1-.8.3s.2.2.6.2h.1l.3-.2h0c0-.2-.1-.3-.2-.3Z"/>
  <path class="cls-1" d="M299,44.1c-.8,0-1.1.1-1.1.3,0,.3.1.6.4.6s.4-.3.8-.3v-.2c0-.2,0-.3-.1-.3Z"/>
  <path class="cls-1" d="M299,43.8h.1q.1.1.1,0c0-.3-.2-.3-.2,0Z"/>
  <path class="cls-1" d="M236.4,47.3c-.2,0-.3.2-.3.6.3,0,.6-.1.6-.2,0-.2-.1-.3-.2-.3Z"/>
  <polygon class="cls-1" points="244.2 43.7 244.2 43.6 244.1 43.6 244.2 43.7"/>
  <path class="cls-1" d="M262,32.9c.1,0,.2-.1.3-.3,0-.4-.8.3-.3.3Z"/>
  <path class="cls-1" d="M236.1,48.8c.1,0,.2-.1.2-.2-.1,0-.2.1-.2.2Z"/>
  <path class="cls-1" d="M251.5,38.2c0,.2.1.3.3.4v-.7c-.2,0-.3.1-.3.2Z"/>
  <path class="cls-1" d="M250.4,38.8c0,.1.1.2.2.2h.1c0-.2-.1-.2-.3-.2Z"/>
  <polygon class="cls-1" points="301 40.2 301 40.3 301.1 40.2 301 40.2"/>
  <path class="cls-1" d="M305.7,35.1c.1,0,.2,0,.2-.1h-.2Z"/>
  <path class="cls-1" d="M301.2,40.6h-.2c0,.1-.1,0-.1,0l-.2.3c-.1,0-.2,0-.3-.1,0,.3.1.4.3.4,0-.3.4-.3.4,0,.2-.2.3-.3.3-.4s-.1-.2-.2-.2Z"/>
  <path class="cls-1" d="M305.2,36.3c.1-.1.1-.2.1-.4-.4,0-.4.4-.1.4Z"/>
  <path class="cls-1" d="M310.4,2.3c0,.1.1.2.4.2,0-.1-.1-.2-.4-.2Z"/>
  <path class="cls-1" d="M304.6,35.5h.2v-.2c-.1,0-.2.1-.2.2Z"/>
  <path class="cls-1" d="M194,46.5h-.1c0,.1.1.2.4.2s.2,0,.2-.1h0c-.1,0-.4,0-.6-.1Z"/>
  <path class="cls-1" d="M301.7,38.9v-.2q0,.1-.1.2h.1Z"/>
  <path class="cls-1" d="M301.3,39.3c0,.1.1.2.3.2v-.6c-.1,0-.3.3-.3.3Z"/>
  <path class="cls-1" d="M302.7,39q0,.1.1.2c.1,0,.2-.1.2-.2s-.6-.2-.3,0Z"/>
  <path class="cls-1" d="M303.1,38.8v-.2c-.1,0-.1.2,0,.2Z"/>
  <path class="cls-1" d="M303.6,37.6c0,.2.2.3.7.3s.2-.1.2-.2c0-.4-.9-.4-.9-.1Z"/>
  <path class="cls-1" d="M303.6,39.7c.1-.1.1-.3.1-.4-.3.3-.2.4-.1.4Z"/>
  <path class="cls-1" d="M237.7,43.5l-.2-.2c-.1,0-.2.1-.2.3h.3q0-.1.1-.1Z"/>
  <path class="cls-1" d="M202.9,51.2h-.1.1Z"/>
  <path class="cls-1" d="M201.5,52.9c.2,0,.3-.1.3-.2h-.1c-.1-.1-.2,0-.2.2Z"/>
  <path class="cls-1" d="M204.1,40.6v-.7l-.7-.3c0,.6.2.9.7,1Z"/>
  <path class="cls-1" d="M211.7,38.7q0,.1.1.1c.1,0,.2-.1.2-.3-.2,0-.3.1-.3.2Z"/>
  <path class="cls-1" d="M200.9,53.4q0,.1.1.1c.2,0,.3-.1.3-.4h-.1c-.1-.1-.4.2-.3.3Z"/>
  <path class="cls-1" d="M225.8,23.4c.4,0,.7-.1.7-.2l-.2-.2c-.3,0-.4.1-.4.4Z"/>
  <path class="cls-1" d="M219.7,28.4c0,1,.7.9.7.4s-.2-.4-.7-.4Z"/>
  <path class="cls-1" d="M226.4,22.5c-.4.4,1-.3,1.3-.8,0-.7-1.3.2-1.3.8Z"/>
  <path class="cls-1" d="M198.7,44.4c0,.4.4.3.4.2s-.1-.2-.4-.2Z"/>
  <path class="cls-1" d="M194.9,46.2h-.1.1Z"/>
  <path class="cls-1" d="M200.1,42c0,.1.1.2.2.2,0-.1-.1-.2-.2-.2Z"/>
  <path class="cls-1" d="M195.9,54.1c.1,0,.2-.1.2-.2-.1,0-.2.1-.2.2Z"/>
  <path class="cls-1" d="M194.6,57.1c-.3,0-.4.3-.4.9.3,0,.6-.2.6-.6s0-.3-.1-.3Z"/>
  <path class="cls-1" d="M202.7,41h0c0,.1.1.1.1.1q-.1,0-.1-.1Z"/>
  <polygon class="cls-1" points="235.3 50.9 235.3 51 235.4 51 235.3 50.9"/>
  <path class="cls-1" d="M203.2,40.8c-.2,0-.3.1-.3.2h.4c0-.1,0-.2-.1-.2Z"/>
  <path class="cls-1" d="M232.2,55.5c-.1,0-.2.2-.2.6.2,0,.3-.1.3-.3s0-.2-.1-.2Z"/>
  <path class="cls-1" d="M239.6,12h-.2c0,.2.1.3.3.3,0-.2,0-.3-.1-.3Z"/>
  <path class="cls-1" d="M233,55v-.7c-.1.1-.1.2-.1.6h.1Z"/>
  <path class="cls-1" d="M229.8,59.5c.1,0,.2-.1.2-.3-.1,0-.2.1-.2.3Z"/>
  <path class="cls-1" d="M234,52.7c0,.2.1.3.2.3.2,0,.3-.1.3-.4h-.1c-.3-.1-.4,0-.4.1Z"/>
  <path class="cls-1" d="M233,53.2c0,.1.2.2.3.1v-.2c-.1,0-.3.1-.3.1Z"/>
  <path class="cls-1" d="M245.7,10.5c0,.3.1.4.2.4v-.2c0-.1,0-.3-.1-.4v.2Z"/>
  <path class="cls-1" d="M241.6,11.7c0,.4.4.4.4,0v-.2c-.2,0-.3.1-.4.2Z"/>
  <path class="cls-1" d="M240.7,12.4c0,.1.1.2.2.2,0-.1-.1-.2-.2-.2Z"/>
  <path class="cls-2" d="M64.1,37.8c0-.3-.2-.9-.2-1.3q.1,0,.2-.1l.6-.3c.6-1.2.2-1,.2-1.5,0-.9,1.2-2.7,1.2-3.6s-.4-.8-.4-1.2,0-.9.1-1c-.3-1.2-1.3-1.8-3.2-1.8h-.2c0-.1-1.2-.1-1.2-.1-.1,0-.4.2-.8.6h-.6c-.1,0-.7.6-1.5.6l-1,1.7c0,.4-.1.7-.1,1s2.2,2,2.6,2c0-.3-.2-.3-.2-.4,0-.9,2.4-2.2,3.4-2.2s.2.1.3.2c.1,1.6.1,2.4-.3,3.2h.1v.2c0,.3-.3,1-1.1,2.1-.8,1-1.1,1.6-1.1,1.7s.1.2.3.2c-.6,1-.9,1.6-.9,1.9-.6.3-1.1,1.5-1.6,1.8,0,.1,0,.2.1.3,0,.1-.1.4-.3.8l-1,1v.2c-.1,0,0,0,0,.1-.9.2-1.7,3.2-2.7,2.8l-.6.8c-.9,1-2.1,2.2-2.6,2.2-.7-.7-.3.4-.3.4-.3.7-1.8,2.1-1.6,1.3h-.2c-.3-.1-1.7,1.1-2.1,1.2,0,.3-.4.6-.4,1-.1,0-.2,0-.3-.1h-.1l-.3.3c-.4,0-.8-.9-.8.3l-.6.2c-.3.1-.6.2-.7.2h-.2c-.1-.1-.2-.1-.2,0h-.1q-.1.1-.2,0h-.1c-.4,0-1.6,1.6-2.4,1.6-1-.4-2-.4-2.2,0-.7-.3-1.9-.8-1.9-1.6v-.2c.2-.1.3-.3.3-.4,0-.4-1.1-1.8-1.1-1.9.1-.1.2-.4.2-.8-.4-.7-.3-.9.3-1.7,0-.1-.7-.6-.7-.7.4-.1.8-.8.9-1.9.2-1.1.4-1.8.7-2,0-.6.7-2.5.7-2.9v-.2c-.6,0,.6-.7.8-1.6,0-.3-.2-.6-.2-.9l.3-.6c0-.3.2-1.5.2-1.9v-.3c-.1-.3-.6-1.3-.8-1.6-.1,0-.7-.9-1-.9s-.6.7-.7.7h-.8l-.3.3c-.1.2-.3.3-.6.3l-.8.8c-.3.3-1.7,1.3-2.1,1.9-.9-.3-1.9,1.2-2.4,1.7-.6.3-.9.4-1,.4-.9,1.5-4.5,4.4-5.5,5.6-.7.1-1.6.9-2.8,2.6-.4,1.2-2.6,1.2-2.9,2.6-.2.1-1.3,1.1-3.5,3.1-2.1,2-3.4,3-3.7,2.9l-1.8,1.8c-.4,0-.8.1-1.1.4l-.7.7c-.1,0-.2.1-.6.4-.4,0-.7-.1-.7-.4,0-1,1.9-3.6,1.9-4.8l.4-.6c.8-.8,2.6-3.1,2.6-3.9s0-.1-.1-.2h-.1c0-.1.7-.4.7-.4.1-.2.4-.7.8-1.5.8-.6,1-1.1.9-1.8.1,0,.4-.4.4-.6.2-.1.1-.3-.2-.4,0-.1.1-.2.3-.2.8-.9,1.1-1.5,1.2-1.6l.3-.2c0-.3,1.1-1.8,3.5-4.4,2.4-2.7,3.5-4.1,3.5-4.5s0-.2-.1-.3c.1-.1,1-1.5,1.3-1.5h.3c.1.1.4-.2,1.2-1v-.4c.3-.4,2.1-1.9,2.5-3.1,0-.3,1.6-1.2,1.9-1.8.4-.4,3.1-2.5,3.1-3.4-.3-.4-.2-.7.2-1.2l-.7-.7c-.6-1.2-1-1.9-1.2-2,0,.3-.1.4-.3.4-.6-.6-.8-.8-.9-.8-.2.2-1.2.7-1.2.9-.1,0-.3.1-.4.1-.6,1.8-2.4,3.2-2.5,3.6q0,.1.1.2v.2c0,.6-1.1,2-3.4,4.6-2.1,2.6-3.2,4.1-3.4,4.7l-.7.4-1.7,2.4c-.9,1.5-1.7,2.7-2.5,3.7-.8,1-1.2,1.6-1.5,1.7-.1.3-.4,1.1-.8,1.5,0,.1-.3.6-1,1.5-.6.9-.9,1.5-.8,1.7-.2,0-.9.8-1.9,2.4-1,1.6-1.5,2.5-1.3,2.7-.6.6-2.2,2.7-2.5,3.4h.2q.1.1.1.2c0,.1,0,.2-.1.2h-.2c0-.1-.2-.2-.2-.2.1.3-.3.7-.3.8v.3c.1.3-.7,1.2-.7,1.7v.3c.1.1,0,.2-.3.3-.1.6-.2.8-.3.9,0,1-.3,1.8-1,2.4v.2c0,1.3,1.6,3.9,2.9,3.9s1-.7,1.3-.7l.7.3c.1-.1.3-.2.7-.2l.9-.8c0-.1.1-.1.2-.1.2-.2.4-.3.7-.3,1.2-2.1,2.6-3.4,3.9-3.8,2.1-2.2,4.4-4.3,7.5-6.9l3.6-3.2c.9-.9,5.4-5.7,6.5-5.9.6-1,1-1.6,1.5-1.6s.2,0,.3.1h.1c.1,0,.9-1.5,1.3-1.5s.4.1.6.1c0-.1-.1-.1-.2-.2h-.1c0-.3.1-.4.3-.4.6,0,.8.2.8.7h-.1c-.1.2-.1.3.1.3,0,.9-1.1,2.8-1.1,3.4s.2.4.2.6c0,.2-.1.3-.2.4,0,.6-.4,1.5-.4,1.9s0,.2.1.3v.2c.1.3-.3.6-.3.7v2.2c.1,0,0,0,0,0v.2c0,.8,1.5,3.4,1.3,4.1-.1,0-.1.1-.1.2v.2c.1.1,2,2.1,2.5,2.5.4.3,1.8,1.1,3,1.1h.6c.2-.2.6-.3,1.1-.3h.2c.8-.1,1.2-.9,1.3-.6-.1.6.9-.6,2.1-.6.1-.3.3-.4.6-.4h.3c.1.1.1,0,.2-.1v-.2c.6-.4,6.8-3.7,6.8-3.8v-.3c-.1-.3.6-1.1,2-2.4,1.2-.3,1.8-.8,1.8-1.2l-.2-.3c0-.4,1.8-.4,1.8-.9v-.7q0-.1-.1-.2h-.1c0-.9,1-.8,1-.8q.1.1.2.1c.1,0,1-1.5,2.7-4.4,1.7-3,2.6-4.6,2.6-4.8ZM64.3,30.8h-.2c-.1.1-.1,0-.1-.2.2,0,.3.1.3.2ZM63.6,29q0,.1-.1.1h-.1c0-.1.2-.1.2-.1ZM37.7,38.9c.2,0,.3.1.3.3s0,.2-.1.2c-.2,0-.3-.1-.3-.4h.1ZM13,42.6v.2c-.1,0-.1-.1-.1-.2h.1ZM12.6,42.2c-.1,0-.2-.1-.2-.3.1,0,.2.1.2.3ZM10.5,49.3v.2h-.2l.2-.2ZM7.4,50c0-.3.8.1.3.1h-.3ZM4.3,57h.1q-.1.1-.1,0ZM13,57c-.1,0-.2-.1-.2-.3.2,0,.3.1.3.2s0,.1-.1.1ZM18.3,51.8c-1.5,0,.3-.9.3-.1s-.1.1-.3.1ZM19.3,51.2c-.1,0-.2,0-.2-.1q.1-.1.1-.2v.2q.1,0,.1.1ZM23.8,46.4c-.3,0-.3-.4,0-.4s.1.4,0,.4ZM27.4,45.3q-.1,0-.1-.1t.2-.1v.2ZM32,39c-.1,0-.2-.1-.2-.2s.1-.1.2-.1.1,0,.2.1l-.2.2ZM34.7,52.2c-.2,0-.3-.1-.3-.2s0-.1.1-.2c.2,0,.3.1.3.3s0,.1-.1.1ZM33.9,50.2v.2q.1.1.1.2h-.1c-.8.1-.8-1.2.2-1.2s.2,0,.4.1h.2c-.6.2-.9.4-.9.7ZM35,49.9v-.2c.3,0,.4.2.4.6h-.1l-.3-.3ZM35.7,54.8c0,1-.4,1-.4.1s.1-.3.2-.3q.1.1.2.1h0ZM43.5,56.4c-.3,0-.4-.1-.4-.3s.1-.1.3-.1.1.1.2.2c0,.1,0,.2-.1.2ZM58.2,46q-.1,0-.1-.1h.1ZM59.5,42h0c0-.1.1-.1.1-.1h-.1Z"/>
  <path class="cls-2" d="M13.3,45.9v-.2c-.1,0-.1.2,0,.2Z"/>
  <path class="cls-2" d="M132.3,36.5c-.4-.4-.7-1.6-1-2-.1-.1-.3-.3-.9-.7l-.9-.3c-.2-.1-.3-.3-.3-.6,0-.3.2-.7.2-.8,0-.9-1.3-2.1-2.2-2.1s-2,.9-3.9,2.8c-1.9,1.8-2.9,3.1-3.1,3.9,0,.3-.9.1-1,.4-.1,0-.1.1,0,.2,0,.4-1,.6-1,.7s.1.4.1.6v.2c-.1.1-.2.2-.4.2-.6,1-.8,1.6-.8,1.7-.8.1-1.2,1.5-1.1,2-.1.3-.9.4-.9.6-1.1,1.4-1.6,2.6-1.8,3.8-.1,0-.2.1-.3.2h-.3c0,0-.2.2-.4.5l-.4.2c-.8.4-3.5,2.9-4.7,3.5-2.7,1.3-4.4,2.4-4.9,2.9-.4-.1-1.1.8-1.5.8-.8,0-2.2.3-4.3,1.1-2,.8-3.5,1.1-4.5,1.1s-1.3-.1-1.5-.1c-.7-.3-1.9-.6-1.9-1.5.1-.1.1-.2.1-.3-.1-.3-.4-.7-.8-1.1v-.2c0-.3.2-1.1.2-1.2,0-.4-.6-1.6-.6-2,0-.9.9-3.1.8-4.1,0-.1.3-.7.9-1.7.7-1,1-1.9,1-2.5s-.3-.2-.3-.6h.3c.1.1.3,0,.4-.2.1-.8,1.9-2.8,1.9-4s-.3-.3-.3-.7h.1c0-.1.1-.2.1-.2,0-.3-.2-.8-.2-1.1,0-1-.1-1-1.6-1h-.9c-.6,0-1.3.7-2.4,1.9-1,1.2-1.7,1.9-2.1,2.1-.4.6-2,1.5-2.4,2l-.7,1.1c-.9-.4-4.5,4.3-4.9,4.8-1.2.3-3.4,2-6.4,5.2-3,3.1-5,5-6,5.7-.3.1-.2.8-.7.9-.3-.6-.4-.9-.4-1s.1-.3.2-.4c0-.1-.2-.6-.2-.7,0-.9,1.6-2.8,1.5-3.6.4-.4.8-1.7,1.7-2.2h.2v-.7c.8-.8,1.9-2.5,3.4-5s2.8-4.3,3.9-5v-.8h.8c.1-.1.1-.2.2-.3h.1c.3-1.3,1.2-2.7,2.5-3.9,0-.1.3-.8,1-1.8.8-1.1,1.1-1.9,1.2-2.5.3-.1,1.2-1.1,2.7-2.8,1.6-1.8,2.4-2.8,2.4-3q-.1,0-.2.1h-.2c0-.3,1.2-.4,1.3-.9.3-1.2.8-1.8,1.3-1.8h.1c0,.1.1.2.1.2.1,0,.2-.1.4-.3v-.2h-.1c0-.4.6-1,.6-1.5.3-.1,1.5-1.3,3.6-3.7l.2-.2h.4c0-.1,0-.2.1-.3-.1,0-.1-.1-.2-.2v-.2c-.1-.1,1.6-1.2,1.7-1.7.3-.8,1-1.6,2.1-2.4,1.2-.8,1.9-1.3,2-1.6,0-.1-.2-.4-.2-.6s0-.2.1-.2c.6-.6,1.2-1.9,2-2.5,0-.6.4-1.1,1.5-1.6.6-.6,1-.9,1.2-.9v-.2c0-.7-.3-.8-.1-1.2.1-.1.1-.3.1-.4,0-.3-.7-1-1.9-1.8l-.8-.2c-.6-.1-.8-.2-.9-.2l-.4.9-1.7,3c-3.8,3.8-5.8,6.4-5.9,7.6-.1.1-.2.2-.3.2-.6,0-1.6,1-3.2,3.1-1.7,2-2.7,3.5-3,4.3-.9.4-1.9,2.6-2.7,2.9l-1.5,2.7c-.9,0-1.3.6-1.3,1.6s-.3.4-.3.8c-.1.1-1,1.2-2.5,3.5-1.5,2.1-2.2,3.4-2.2,3.6s.3.2.3.3c0,.2-.2.3-.6.3s-.3,0-.4-.1c-.3.3-.6.7-.6.9.3.3.4.4.4.6,0,.3-.3.8-.9,1.3-.1.2-1.3,2-3.7,5.3s-3.8,5-4.1,5.4c-.1.6-.8,1.6-1.8,3.2-1.1,1.7-1.7,2.9-1.8,3.8l-1.1,1.6c-.8,1-1.1,1.8-1.1,2.4v2.1c0,1,1.8,1.9,3,1.9s1.1-.1,1.5-.1h.3c1.2-.4,3.1-3.2,4.6-3.6.2-.1.3-.2.3-.4s-.2-.4-.2-.6c.2-.1,1.3-.9,3.2-2.6l3.4-2.7c.9-1.9,4.5-4,5.4-5.3,0-1.5.6-2.2,1.8-2.5.4-.2.7-.4.7-.8-.1,0-.1-.1-.2-.3v-.2h.2v.2c.4,0,2-2,2.6-2,0,.1.3,1.2.3,1.3v.9c0,.1-.2.8-.8,1.8-.6,1-.8,1.7-.9,2v.3c-.4.9-.4,1.5,0,1.9v.6c0,.1-.1.7-.1,1v.8c-.1,0-.1-.1-.1-.3v.4c0,.3.4,1.3.4,1.5s-.2.4-.2.8c0,.8,1.8,3,2.4,3.6l1.2.6.4.6c.4,0,1.8.3,2.4.3s1.2.2,1.6,0h.2c.3-.1,1.2,0,1.6,0h.3v-.2c.2-.2.3-.3.4-.3s.4.1.6.1h.2l1.2-.6c.1-.1.3-.1.8-.1s.3,0,.4.1c.4-.4,1.1-.7,2.1-.7,1.6-1.5,4.9-2.7,6.7-3.7.8-.6,1.5-1.1,2.3-1.7-.2.4-.3.7-.5,1.1.3.1.4.3.4.4-.3.2-.4.7-.2,1.1,0,.2-.1.4-.3.7l.2.2c.3.1.8.6.8.9l.9.9c.3.9,1.3,1.3,2.9,1.3s1-.3,1.1-.3h1.1c.8-.8,2.2-1.5,3-2.2h.1c.1-.1.2-.1.3,0,.8,0,1.7-.6,2.7-1.6.3-.1.6-.3.6-.4h-.1c-.1-.2-.1-.3-.1-.4.4,0,.8-.1,1.1-.4.1-.1.1-.8.6-1.1.1-.1,1.5-.9,1.8-1.2.1-.3.2-.8.2-1.1.3-.4.7-.8,1.2-.9,0-.9,1.1-1.5,1.6-1.9.1-.1.3-1.1.4-1.5.7-.8,3.7-4.5,3.2-5.9,0-.3-.7-.3-.7-.8h.4c.3-.1.4-.3.4-.7v-2.5c-.2-.1-.2-.3-.2-.7ZM77,48.3h-.1.1c0-.1,0,0,0,0ZM86.1,40.4h-.1q.1-.2.2-.2v.2ZM128,47.5v.2c-.3,0-.4-.1-.4-.2,0-.3.1-.4.3-.4q0,.1.1.1v.3ZM128.4,44.7c.2,0,.3.1.3.3-.2,0-.3-.1-.3-.3ZM129.9,44.6h-.1.1c0-.1,0,0,0,0ZM129.8,40.3h0c0,.7-.7,1.7-.7,2-.1.4-.6,1.3-1.6,2.6-1,1.2-1.5,1.8-1.5,1.9s.1.2.3.3q0,.1.1.2c0,.3-1.5.8-1.6,1.2-.9.6-2.9,2.9-3.4,3.4h-.3l-.4.8c-.3.7-1.3,1.5-3,2.5-1.7,1-2.8,1.6-3.6,1.6h-1.1c-.6,0-.8-.6-.8-1.8v-.4c.8-1.5,1.1-2.4,1-2.7l1.2-1.1v-.3l.2-.3c.6.4,4.3-3.9,5-4.5v-.4c0-.1.2-.2.6-.2.8-.6,1.9-1.8,3.4-3.6,1.5-1.9,2.5-3.2,2.8-4.3,0-.6.7-1.5,1.2-1.5s.6.4.9.4h.1c.1-.2.2-.2.3-.2h.2c.1.1.2.4.2.8.3.6.4,1.3.4,2.4s-.4.9-.2,1.3Z"/>
  <path class="cls-2" d="M174.9,39.2s-.1,0-.2.1c0,0,0,0,.2,0v-.2Z"/>
  <path class="cls-2" d="M267.2,32.8c-.2-.8-.3-2.5-1.5-2.9-.1,0-1-.1-1.1-.2h-1.1c0-.1-.8.6-1.2.6s-1.2.2-1.9.8c-.8.4-2.9,1.3-3.7,1.9-.1.1-1,1.5-1.8,1.5h-.2c0-.1-.2-.1-.2-.1-.4,0-1.6,1.5-2.4,1.5-.8.6-1.6,2-2.6,2-1,1.2-3.1,2.8-6.4,4.8-3,2.4-5.2,4.3-6.5,5.6,0-.7.4-1.7,1.5-2.9,1-1.2,1.5-2.2,1.3-2.9l.8-.8c.1-.1,1.3-2.6,1.3-2.7s-.1-.4-.1-.6c0-.6,1.1-2.9,3.4-6.9l1.9-4.5c1.2-2.8,1.8-4.7,1.7-5.6l.3-.2c0-.3.2-1,.2-1.3v-.3c-.2-.1.1-.2.2-.2,0-.1,0-.2-.1-.3v-.2c.3-1.6.6-2.7.6-3.5,0-1.3-1.6-3.9-1.7-4.9l-.4.3c-.4,0-2-1.5-2.6-1.5,0,.1-.1.1-.3.2-.1,0-.7-.3-.8-.3-.4,0-1.6.6-3.4,1.7-.1,0-1.2.2-1.3.3-.4.4-1.9,1.6-4.5,3.5-2.5,1.9-3.8,2.8-4,2.7-.3.3-1.6.9-1.3,1.6-.1.3-1.7,1-1.8,1.6-.2.4-.3.1-.4.1-.2,0-1.7,1.5-4.4,4.3-2.6,2.8-4.4,4.8-5.4,5.8s-.1.1-.2.1c-.3,0-.9-1.1-1.5-1.1l-.3.3c-.3-.1-.6-.3-.7-.4h-.2c-.3.4-.6.7-.9.7h-.4c-.4-.1-.7-.1-.7,0v1c0,.3-1.6,1.9-1.9,1.9s-.2-.3-.3-.3c-.3,0-.4.1-.4.2-.1.4-1,1.6-1,1.7s.1.6.1.7,0,.1,0,.2c0-.1-.1-.2-.3-.2l-.6.6-3.1,2.4v.2c.1,0,.1.2.1.2v.2c-.2-.3-2.1.6-2.7,1,0,.4-.9.7-.9,1-.4.4-2.6,1.3-2.6,1.9s0,.1.1.2h0c0,.2-.7.4-2,.9-1.2.4-1.9.9-2,1.2,0,.1-.2.2-.6.3h-.9c-.1,0-1,.6-2.8,1.8-1.7,1.1-2.9,1.7-3.5,1.7h-.3c-.8.1-2.6,1.7-3.5.4h-.7c-1,0-1.6-.4-1.6-1.2s.8-1.3.8-1.8v-.2h-.1c0-.4.3-1,.9-2l1.1-1.5c1.5-1.8,3.4-4.3,3.8-4.7v-.7c-.7.1.7-.4,1-1,0-.1-.1-.3-.3-.8h-.3c-.4,0-.7-.1-.7-.4h.4c.1.2.2-.1.2-.2,0-.6-1.1-1.1-1.7-1.1s-2.1,1-2.1,1.3v.6c0,.1,0,.2.1.3.1-.1.2-.1.3-.1l.4-.4c0,.1-.1.3-.1.4,0,.2.1.3.3.3-.3,0-.9-.2-1-.2-.2,0-.3,0-.3.1l-.8.7-.3.3v.2c-.1,0,0,.1,0,.1h0c-.4.1-1.3,1.5-1.3.8h-.2c-.1,0-.2,0-.3.1l-.3-1c-.4-1.2-1.6-2.7-2.8-2.7s-.6.1-.9.1c-.1.1-1.2.3-1.3.3-1.7.8-3.4,2.2-5.3,4.4,0,.7-2,1.3-1.7,1.7h.1c-1.2-.7-3.8,4.3-4.3,4.7,0,.4-.3,1.2-.3,1.6s0,.3.1.3c0,.1.2,1.1.3,1.5-.1.1-.2.2-.2.6.1.3.4,1.5.8,1.9.1.1,1.7.8,1.8,1.1.3,0,1,.4,1.3.4.4-.2.9-.2,1.1,0h.1c0-.1.2-.3.2-.3h.2c.4.2,1-.8,1.3-.8h.3c.3.1.6.1.7,0,.1,0,.1-.4.2-.4l.2.2c.2,0,.8-.6,1.8-1.6,1-1.1,1.7-1.7,2-1.7.1-.1.3-.2.4-.2h.2c.3.4.6-.1,1.3-.1q0,.1-.1.2c-.3,0-.3.4.1.6,0,.4.4,1.5.6,1.5,0,.4.9,1.9,1.3,1.9h.4c.1.3.6.4,1.1.4h.1c0-.1.4-.1.4-.1.3.1.7.2,1,.2s.9-.4,1.2-.4.1,0,.2-.1h.6c.6,0,1-.2,1.6-.6v-.2c0-.1.1-.2.2-.3q.1,0,.2.1h.1q.1,0,.2-.1c0-.1.1-.2.2-.2h.2q0,.2.1.2c.8,0,2.5-1.9,3.4-1.9s.1,0,.2.1h.1c.1.1,4-2.7,4.7-2.9.1,0,.6-.2,1.5-.7.6-.4,2.4-1.2,2.5-1.3.3-.1,1.8-2.5,2.8-2.5,0,0,0,0,0,0-.8.9-1.7,2-2.7,3.1-.3.3-1.3,1.8-3,4.4-1.7,2.5-2.6,3.7-2.6,3.8q.1,0,.2-.1h.1c.1,0,.2.1.2.4v.2l-1.6,1.6c-.1.1-1,2.7-2.2,2.8.1.3.2.6.2.7,0,.4-1.6,2.6-1.7,2.9l-.4.6c-.3.4-.6.7-.9.6l-1,1.2c-.1.1-.2.2-.2.3s.1.3.1.7c-.2.2-.3.4-.3.6,0,.4.4,1.7.3,2.2.8.8,1.2,1.1,1.3,1.1.4-.2.9-.2,1.2,0l1.3-1.3c.2-.8.6-1.2,1-1.8,0-.4.4-1.2,1.3-2.2.1-.9,2.8-3.2,2.8-4.3v-.9c0-.2.1-.3.3-.3h.2c0,.1.2.1.2.1.4,0,.9-.6,1.5-1.7.6-1.1,1-1.8,1.3-1.9l.9-.9c.4-.4,1.8-3.5,1.9-3.6.4-.4,1.6-1.8,3.2-4,0-.6.9-1.7,2.8-3.6,1.9-1.9,2.8-3.1,2.9-3.7.9-1,1.9-2.2,3-3.9.4-.4,2-1.5,2.5-2,.1-.3,1.2-1.8,3.6-4.6,2.4-2.8,3.7-4.3,3.8-4.3h.8c.1-.1.3-.2.6-.6,0-.2,0-.3.1-.4l.8-.7c.1-.1,1.1-1,1.5-1.6.1-.1.2-.1.4-.1l4.7-3.9c.3-.3,1.8-.7,2.4-1.5.8-.1,2.8-1.8,3.7-1.8.6-.6.9-.8,1.1-.8s.4.2.6.2.6-.2,1.3-.7c.6,0,1,0,1.2-.1.4,0,1.8.9,1.8,1.2s0,.1-.1.2v.2c0,.3.6,1,.6,1.5s-.2.4-.2.8v.3c0,.1.1.6.1.7,0,.8-.8,2.2-.7,3,0,.1-.1.3-.3.4,0,.1.2.4.2.6,0,.3-.6.7-.6,1v1.6c-.2.4-.3.8-.3.9-1,.8-1.5,2-1.5,3.7-.6.6-.9,1.1-.9,1.7s0,.2.1.4c0,.6-.9,2.6-2.6,6-1.7,3.5-2.8,5.5-3.2,5.8-.3.4-.7,1-1,1.7.1,1-1.5,2.6-1.5,3.4h.3c0,1-.2,1.5-.7,1.5s-.2-.1-.2-.2.3-.6.3-.7c0-.3-.1-.6-.3-.6h.1c.1.2.1.3.1.4l-.4.8c-.2.6-.3.8-.3.9-.3.6-2.5,2.9-4.3,4.6-1.7,1.8-1.2,1.6-1.1,1.7h.1c0,.6-2.1,1.3-2.1,1.9s.2.4.2.6c0,.3-1.9.9-1.9,1.8s1,2.4,1.5,2.4l.7-.3c.1,0,.1-.6.4-.6s.1,0,.2.1h.1c.8,0,2.6-1.5,5.3-4.4,2.8-2.8,4.8-5.2,6-6.8.2-.3,1.1-1.2,2.7-2.7,1.7-1.5,2.7-2.2,3-2.4.1-.2.9-.8,2.2-1.6,1.5-.9,2.1-1.7,2.1-2.2l.7-.3v-.2c.2-.3.6-.6.6-.7.1,0,1.9-1,5.4-3.1l5.4-3.4c.6-.3,1-.4,1.2-.4l.4-.4c.1,0,.7-.1,1-.1l.6.6v.3c0,.3-.2,1-.1,1.5l-.3.2c.1.7-.3,1.7-1.1,2.9-.8,1.2-1.2,2.2-1.2,2.8-.3.8-1.5,2.6-1.8,3v.2c.1.1.1.2.1.3,0,.6-.4,1.3-1.5,2.5-.9,1-1.3,1.9-1.3,2.5s.1.3.1.4c-.1,0-.1-.1-.2-.1l-4.7,8.5q0,.1.1.2v.2c0,.1-.1.3-.3.8v1c-.1.1-.2.2-.2.3,0,1.3,2.8,2.6,4.3,2.6s2.8-.7,3.6-.7.4,1.1.9,1.1.2-.7.1-.8c.1-.4.7-.8,1.7-1,.3-.3.2-.4.1-.6h0c0-.2.2-.6.2-.7,0-.6-.7-.8-2.1-.8s-.3,0-.3.1l-.4.3c-.4,0-.7-.7-1-.7s-.8,1-1.2,1-1.8-.8-1.8-1.2.3-.2.3-.6-.1-.8-.1-.9l.2-.2c0-.6.9-1.5.9-1.9s-.3-.6-.3-.7c0-.4,1.7-1.6,1.7-2.1h-.2q-.1-.1-.1-.2c.2-1.5,2.4-3.9,2.9-5l2.5-5.2c1.3-2.7,2.5-4.7,3.4-5.9-.1-.8.7-1.9.7-2.2h-.1v-.4c0-.8.1-1.5.4-1.8ZM185.5,35.3c0,.1-.1.2-.3.2,0-.1.1-.2.3-.2ZM183.3,42.7c-.1,0-.2,0-.2-.1h.3q0,.1-.1.1ZM183.1,38.4c0,.2-.1.3-.2.3,0-.2.1-.3.2-.3ZM182.8,37.8c0,.1-.1.1-.2.1,0-.1.1-.1.2-.1ZM182.6,38.4h0c0,.1-.1.1-.1.1h.1ZM182.2,38.7c0,.1,0,.2-.1.3,0-.1-.2-.6-.2-.7.2,0,.3.1.3.3ZM182.1,39.1c-.1.1-.1.2-.1.3q-.1.1,0,.2t.1.2l-.7.7q-.1,0-.1-.1h.1q.1-.2.1-.3c-.1,0-.2-.1-.3-.2,0-.1.8-.8.9-.8ZM177.5,36.8c0,.1-.1.2-.2.2,0-.1.1-.2.2-.2ZM173.1,37.4c-.1,0-.1-.1-.1-.2q.1.1.1.2ZM173,38.7v.2c0,.1-.1.1-.2.1,0-.2.1-.3.2-.3ZM172.4,39.2c-.1,0-.1-.1-.1-.4.4,0,.4.4.1.4ZM170.3,44.5c0,.1-.1.1-.3.1,0-.1.1-.1.3-.1ZM169.5,42.5h0c0,.1-.1.1-.1.1h.1ZM165.8,51.2v-.2h.1q-.1.1-.1.2ZM167,48.5c-.1,0-.8-.4-.8-.8l.3-.4c0,.2.1.3.2.3s.1,0,.2-.1l.2.4c0,.1-.3.4-.2.6ZM168.7,52c-.1,0-.2-.1-.2-.2q.1-.1.2-.1v.3ZM174.7,47.6c-.2,0-.3-.1-.2-.4.1,0,.2.1.2.2v.2ZM174.9,49h-.1c0-.1.1-.1.1-.1h0ZM176.9,46c.1,0,.2.1.2.2-.1,0-.2-.1-.2-.2ZM177.3,46.6c0-.1.4-.2.4.2-.3,0-.4-.1-.4-.2ZM178.2,46.8q-.1,0-.1-.1v-.2q.1,0,.2.1,0,.1-.1.2ZM178.5,48.6h-.1q.1-.1.1-.2h.1c0,.1-.1.2-.1.2ZM178.8,44.8h.1c0,.1-.1,0-.1,0ZM179.7,43c-.1,0-.1-.1-.1-.3h.4l-.3.3ZM180.1,41.8h-.1v-.2h.1v.2ZM180.3,48.2h.2c0,.1-.2.1-.2,0ZM179.5,42.2l-.9,1.2c0,.1-.1.2-.2.3l.2.2h-.2c-.4.2-.4.7-.1.8l-3,1.6h-.4c-.8.2-1.3.4-1.3.8v.2c.1.7-.9,1.3-3,1.9-.1.3-1.2.3-1.3.4h-.3c-.4,0-.9-.2-1.2-.7.1-.1.2-.3.2-.4h-.1c-.3-.4.2-.4.2-.9.1.1.3.1.4-.1h-.2q0,.1-.1.1c-.3,0-.4-.1-.4-.3s.1-.1.2-.2h.2c0-.2-.1-.2-.2-.3h-.2c.1-.1.3-.2.4-.2s.1.1.1.2h0c.1-.2.2-.2.3-.2h.3c0,.1.9-1.7.9-1.7v-.2c.1.1.1.2.2.2.3,0,1.8-1.6,1.8-2q-.1,0-.2-.1c0-.1.1-.3.1-.4.6-.2,1.3-1,2.5-2.2.3-.3.5-.5.7-.7,0,0,0,0,0-.2h.2c.7-.7,1.2-1.2,1.6-1.2h1c.2.2.3.8,1.2.8l.2-.2h.3c.3,0,1.1.3,1.2.3h.2c0-.2.1-.2.2-.2,0,.1-.1.1-.2.1v.2c-.1,0-.1.2-.1.2h.7c-.3.1-.4.3-.4.6s.1.1.1.2c.1.8-1.8,1.6-1.5,2.2ZM192.2,47.4c0-.1.1-.1.2-.1s.2.1.3.4l.2.3c-.6-.2-.8-.4-.8-.7ZM194.6,46.6c0,.1-.1.1-.2.1-.3,0-.4-.1-.4-.2h.1c.1.1.4.1.6,0h0ZM194.8,46h.1q-.1.1-.1,0ZM198.7,44.4c.3,0,.4.1.4.2s-.4.2-.4-.2ZM200.1,42c.1,0,.2.1.2.2-.1,0-.2-.1-.2-.2ZM202.7,41.1h.1-.1ZM202.9,41c0-.1.1-.2.3-.2s.1.1.1.2h-.4ZM194.1,58c0-.6.1-.9.4-.9s.1.1.1.3c0,.3-.2.6-.6.6ZM195.9,54.1c0-.1.1-.2.2-.2,0,.1-.1.2-.2.2ZM201,53.6q-.1,0-.1-.1c-.1-.1.2-.4.3-.4h.1c0,.4-.1.6-.3.6ZM201.5,52.9c0-.2.1-.3.2-.3h.1c0,.2-.1.3-.3.3ZM202.8,51.1h.1q-.1.1-.1,0ZM203.4,39.6l.7.3v.7c-.4-.1-.7-.4-.7-1ZM211.8,38.8q-.1,0-.1-.1c0-.1.1-.2.3-.2,0,.2-.1.3-.2.3ZM219.7,28.4c.4,0,.7.1.7.4s-.7.6-.7-.4ZM225.8,23.4c0-.3.1-.4.4-.4l.2.2c0,.1-.2.2-.7.2ZM226.4,22.5c0-.6,1.3-1.5,1.3-.8-.3.4-1.8,1.2-1.3.8ZM239.4,12.1h.2c.1-.1.1,0,.1.2-.2,0-.3-.1-.3-.2ZM240.7,12.4c.1,0,.2.1.2.2-.1,0-.2-.1-.2-.2ZM241.6,11.7c.1-.1.2-.2.3-.2v.2c.1.4-.3.4-.3,0ZM245.9,11c-.1,0-.2-.1-.2-.4v-.2c.2.1.2.3.2.4v.2ZM237.5,43.2l.2.2q-.1,0-.1.1h-.3c0-.2.1-.3.2-.3ZM229.8,59.5c0-.2.1-.3.2-.3,0,.2-.1.3-.2.3ZM232,56c0-.3.1-.6.2-.6s.1.1.1.2c0,.2-.1.3-.3.3ZM233,55h-.1c0-.4,0-.6.1-.7v.7ZM233,53.2h.2c0-.1.1.1.1.1-.1.1-.3,0-.3-.1ZM234.2,53c-.1,0-.2-.1-.2-.3s.1-.2.4-.2h.1c0,.4-.1.6-.3.6ZM235.3,50.9h.1c0,.1-.1.1-.1.1h0ZM235,51.9c0-.6.2-.8.7-.8s.2.1.2.3c0,.3-.3.4-.9.4ZM236.1,48.8c0-.1.1-.2.2-.2,0,.1-.1.2-.2.2ZM236,47.8c0-.3.1-.6.3-.6s.2.1.2.3-.2.2-.6.2ZM244.2,43.7h-.1c0-.1.1-.1.1-.1h0ZM250.6,39c-.1,0-.2-.1-.2-.2.2,0,.3,0,.3.1h-.1ZM251.8,38.4v.2c-.2-.1-.3-.2-.3-.4s.1-.2.3-.2v.4ZM262,32.9c-.4,0,.3-.8.3-.3-.1.2-.2.3-.3.3ZM262.2,43.4v-.2c.2,0,.2.1.2.2s-.2.1-.2,0Z"/>
  <path class="cls-2" d="M305.5,37.4q0,.1.1.1h.1c0-.1-.1-.2-.1-.2h-.1Z"/>
  <path class="cls-2" d="M312,1.8c-.7-.3-.9-.1-1.1-.9l-2.2-.6c-1,0-.9,1.3-.3,2.2l.4.7c0,.7.4,1,1.2,1h0c0-.1.3-.1.3-.1.8,0,1.7,1.9,2,1.9s1.7-1.1,1.7-1.6h0c-.6-.9-1.8-1.8-2-2.7ZM310.4,2.3c.3,0,.4.1.4.2-.3,0-.4-.1-.4-.2Z"/>
  <path class="cls-2" d="M308.3,30.7c-.1,0-1,.8-2.7,2.4v.7c-.4,0-2.1,1.8-2.5,2.4l-2.5,2.5c0,.1,0,.2.1.3-.1.2-.6.9-1.5,1.9-.9,1-1.3,1.8-1.3,2.5h.1c-.1.4-2.6,2.5-2.6,3.8v.2q.1,0,.1.1l-.8,1v1.1c-.2.3-1.1,1-1.1,1.1v.2c.4.3-.1.3-.1.8v1c0,.3-.4,1-.4,1.1.4,1,.8,1.2,1.2,1.9h.7c0,.2,0,.3.1.3h0c.3.1.3-.3.7-.3s.4.1.6.4h.1c.6,0,1.1-.9,1.1-1.5s-1.5-.2-1.5-.7.3-.3.3-.4v-1.7c0-.1-.1-.2-.2-.3.1-.3.7-.6.8-.9v-.2c0-.3-.2-.6-.2-.9s1-.4,1-.8-.1-.1-.2-.2h-.1v-.2c.9-.7,1.9-1.9,2.9-3.8,1.1-1.9,1.9-3.1,2.5-3.7l.9-.9c.1-.1.2-.3.6-.6-.3-.4.4-1.7,1-1.7h0c0-.1-.3-.1-.3-.1h0c0-.1,1.5-1.5,1.5-1.5l1.1-1.1c.9.1,2.4-1.5,2.4-2.4s-.8-1.9-1.7-1.9ZM295.4,51.6c.1,0,.2.1.2.3-.1,0-.2-.1-.2-.3ZM296.7,47.5c-.1,0-.2-.1-.2-.2.1-.1.3-.2.7-.2,0,.3-.1.4-.4.4ZM298.6,46.6l-.8.3q0,.1-.1.1c-.3,0-.4-.1-.4-.4s.3-.6.9-.6.6.1.6.3,0,.2-.1.2ZM299.1,44.7c-.3,0-.7.3-.8.3-.3,0-.4-.2-.4-.6s.3-.3,1.1-.3.1.1.1.3v.2ZM299.1,43.9h-.1c0-.4.2-.4.2-.1s0,.1-.1.1ZM301,40.2h.1-.1c0,.1,0,0,0,0ZM300.9,42.5l-.3.2h-.1c-.3,0-.6-.1-.6-.2,0-.2.2-.3.8-.3s.2.1.2.2h0ZM301.1,41.2c0-.3-.4-.3-.4,0-.2,0-.3-.1-.3-.4.1.1.2.1.3.1l.2-.3h.1c0,.1.1,0,.1,0h.1c.1,0,.2.1.2.2s-.1.2-.3.4ZM301.3,39.3l.2-.3v.6c-.1,0-.2-.1-.2-.2ZM301.7,38.9h-.1q.1-.1.1-.2v.2ZM302.8,39.2q-.1-.1-.1-.2c-.2-.2.3-.1.3,0s-.1.2-.2.2ZM303.1,38.8c-.1,0-.1-.2,0-.2v.2ZM303.6,39.7c-.1,0-.2-.1.1-.4,0,.1,0,.3-.1.4ZM304.2,38c-.4,0-.7-.1-.7-.3,0-.3.9-.3.9.1s-.1.2-.2.2ZM304.8,35.5h-.2c0-.1.1-.2.2-.2v.2ZM305.2,36.3c-.3,0-.3-.4.1-.4,0,.2,0,.3-.1.4ZM305.7,35.1h0c0-.1.2-.1.2-.1,0,.1-.1.1-.2.1Z"/>
</svg>